%TF.GenerationSoftware,KiCad,Pcbnew,10.0.5*%
%TF.CreationDate,2026-10-02T16:31:02-05:00*%
%TF.ProjectId,Osiris_PDB_RevA,4f736972-6973-45f5-9044-425f52657641,rev?*%
%TF.SameCoordinates,Original*%
%TF.FileFunction,Legend,Top*%
%TF.FilePolarity,Positive*%
%FSLAX46Y46*%
G04 Gerber Fmt 4.6, Leading zero omitted, Abs format (unit mm)*
G04 Created by KiCad (PCBNEW 10.0.5) date 2026-10-02 16:31:02*
%MOMM*%
%LPD*%
G01*
G04 APERTURE LIST*
G04 Aperture macros list*
%AMRoundRect*
0 Rectangle with rounded corners*
0 $1 Rounding radius*
0 $2 $3 $4 $5 $6 $7 $8 $9 X,Y pos of 4 corners*
0 Add a 4 corners polygon primitive as box body*
4,1,4,$2,$3,$4,$5,$6,$7,$8,$9,$2,$3,0*
0 Add four circle primitives for the rounded corners*
1,1,$1+$1,$2,$3*
1,1,$1+$1,$4,$5*
1,1,$1+$1,$6,$7*
1,1,$1+$1,$8,$9*
0 Add four rect primitives between the rounded corners*
20,1,$1+$1,$2,$3,$4,$5,0*
20,1,$1+$1,$4,$5,$6,$7,0*
20,1,$1+$1,$6,$7,$8,$9,0*
20,1,$1+$1,$8,$9,$2,$3,0*%
%AMFreePoly0*
4,1,9,2.385000,-0.527000,0.250000,-0.527000,0.250000,-0.527500,-0.250000,-0.527500,-0.250000,-0.527000,-0.805000,-0.527000,-0.805000,0.528000,2.385000,0.528000,2.385000,-0.527000,2.385000,-0.527000,$1*%
%AMFreePoly1*
4,1,5,0.705000,-3.693500,-3.705000,-3.693500,-3.705000,0.761500,0.705000,0.761500,0.705000,-3.693500,0.705000,-3.693500,$1*%
%AMFreePoly2*
4,1,17,2.675000,1.605000,1.875000,1.605000,1.875000,0.935000,2.675000,0.935000,2.675000,0.335000,1.875000,0.335000,1.875000,-0.335000,2.675000,-0.335000,2.675000,-0.935000,1.875000,-0.935000,1.875000,-1.605000,2.675000,-1.605000,2.675000,-2.205000,-1.875000,-2.205000,-1.875000,2.205000,2.675000,2.205000,2.675000,1.605000,2.675000,1.605000,$1*%
G04 Aperture macros list end*
%ADD10C,0.100000*%
%ADD11C,0.150000*%
%ADD12C,0.120000*%
%ADD13C,0.200000*%
%ADD14C,0.250000*%
%ADD15C,0.152400*%
%ADD16C,0.000000*%
%ADD17RoundRect,0.250000X0.262500X0.450000X-0.262500X0.450000X-0.262500X-0.450000X0.262500X-0.450000X0*%
%ADD18RoundRect,0.250000X-0.262500X-0.450000X0.262500X-0.450000X0.262500X0.450000X-0.262500X0.450000X0*%
%ADD19C,1.500000*%
%ADD20FreePoly0,270.000000*%
%ADD21R,1.055000X0.500000*%
%ADD22FreePoly1,270.000000*%
%ADD23R,0.800000X0.500000*%
%ADD24RoundRect,0.250000X0.362500X1.425000X-0.362500X1.425000X-0.362500X-1.425000X0.362500X-1.425000X0*%
%ADD25RoundRect,0.250000X-0.350000X0.850000X-0.350000X-0.850000X0.350000X-0.850000X0.350000X0.850000X0*%
%ADD26RoundRect,0.249997X-2.650003X2.950003X-2.650003X-2.950003X2.650003X-2.950003X2.650003X2.950003X0*%
%ADD27RoundRect,0.250000X-0.475000X0.250000X-0.475000X-0.250000X0.475000X-0.250000X0.475000X0.250000X0*%
%ADD28RoundRect,0.250000X-0.325000X-0.650000X0.325000X-0.650000X0.325000X0.650000X-0.325000X0.650000X0*%
%ADD29R,1.333500X0.279400*%
%ADD30RoundRect,0.250000X1.000000X0.650000X-1.000000X0.650000X-1.000000X-0.650000X1.000000X-0.650000X0*%
%ADD31FreePoly2,0.000000*%
%ADD32RoundRect,0.125000X-0.300000X-0.125000X0.300000X-0.125000X0.300000X0.125000X-0.300000X0.125000X0*%
%ADD33RoundRect,0.225000X0.225000X0.250000X-0.225000X0.250000X-0.225000X-0.250000X0.225000X-0.250000X0*%
%ADD34RoundRect,0.250000X0.450000X-0.262500X0.450000X0.262500X-0.450000X0.262500X-0.450000X-0.262500X0*%
%ADD35RoundRect,0.250000X-0.450000X0.262500X-0.450000X-0.262500X0.450000X-0.262500X0.450000X0.262500X0*%
%ADD36C,3.200000*%
%ADD37RoundRect,0.087500X0.087500X-0.425000X0.087500X0.425000X-0.087500X0.425000X-0.087500X-0.425000X0*%
%ADD38RoundRect,0.100000X-0.625000X-0.100000X0.625000X-0.100000X0.625000X0.100000X-0.625000X0.100000X0*%
%ADD39R,1.680000X1.880000*%
%ADD40R,1.193800X5.410200*%
%ADD41R,1.193800X0.711200*%
%ADD42RoundRect,0.225000X0.250000X-0.225000X0.250000X0.225000X-0.250000X0.225000X-0.250000X-0.225000X0*%
%ADD43RoundRect,0.250000X0.475000X-0.250000X0.475000X0.250000X-0.475000X0.250000X-0.475000X-0.250000X0*%
%ADD44RoundRect,0.250000X-1.000000X-0.650000X1.000000X-0.650000X1.000000X0.650000X-1.000000X0.650000X0*%
%ADD45RoundRect,0.250000X-1.000000X-0.900000X1.000000X-0.900000X1.000000X0.900000X-1.000000X0.900000X0*%
%ADD46RoundRect,0.250000X0.650000X-0.325000X0.650000X0.325000X-0.650000X0.325000X-0.650000X-0.325000X0*%
%ADD47R,3.200000X3.200000*%
%ADD48RoundRect,0.100000X-0.712500X-0.100000X0.712500X-0.100000X0.712500X0.100000X-0.712500X0.100000X0*%
%ADD49RoundRect,0.225000X-0.250000X0.225000X-0.250000X-0.225000X0.250000X-0.225000X0.250000X0.225000X0*%
%ADD50C,2.780000*%
%ADD51FreePoly0,90.000000*%
%ADD52FreePoly1,90.000000*%
%ADD53R,0.279400X1.397000*%
%ADD54RoundRect,0.250000X-0.250000X-0.475000X0.250000X-0.475000X0.250000X0.475000X-0.250000X0.475000X0*%
%ADD55R,2.300000X1.200000*%
%ADD56RoundRect,1.025000X-1.025000X1.025000X-1.025000X-1.025000X1.025000X-1.025000X1.025000X1.025000X0*%
%ADD57C,4.100000*%
%ADD58RoundRect,0.150000X0.150000X0.700000X-0.150000X0.700000X-0.150000X-0.700000X0.150000X-0.700000X0*%
%ADD59RoundRect,0.250000X0.250000X1.150000X-0.250000X1.150000X-0.250000X-1.150000X0.250000X-1.150000X0*%
%ADD60RoundRect,0.250000X1.425000X-0.362500X1.425000X0.362500X-1.425000X0.362500X-1.425000X-0.362500X0*%
%ADD61R,3.400000X6.150000*%
%ADD62R,2.500000X4.400000*%
G04 APERTURE END LIST*
D10*
X125210000Y-105500000D02*
X125210000Y-106000000D01*
X125460000Y-105250000D02*
X125460000Y-106250000D01*
X125710000Y-105000000D02*
X125710000Y-106500000D01*
X133460000Y-114750000D02*
X134460000Y-114750000D01*
X133710000Y-115000000D02*
X134210000Y-115000000D01*
X134032667Y-115250000D02*
G75*
G02*
X133887333Y-115250000I-72667J0D01*
G01*
X133887333Y-115250000D02*
G75*
G02*
X134032667Y-115250000I72667J0D01*
G01*
X135710000Y-122250000D02*
X135210000Y-122250000D01*
X140960000Y-124000000D02*
X140960000Y-125500000D01*
X141710000Y-111000000D02*
X141710000Y-111250000D01*
X141960000Y-110750000D02*
X141960000Y-111250000D01*
X141960000Y-111250000D02*
X141960000Y-111500000D01*
X142210000Y-110750000D02*
X142210000Y-110500000D01*
X142210000Y-110750000D02*
X142210000Y-111250000D01*
X142210000Y-111250000D02*
X142210000Y-111500000D01*
X142210000Y-111500000D02*
X142210000Y-111750000D01*
X145710000Y-123500000D02*
X146460000Y-123750000D01*
X148460000Y-112000000D02*
X148960000Y-112000000D01*
X148710000Y-112500000D02*
X148498918Y-112922163D01*
X148960000Y-112000000D02*
X148710000Y-112500000D01*
X149210000Y-112000000D02*
X149460000Y-112000000D01*
X151210000Y-92750000D02*
X151710000Y-92750000D01*
X151710000Y-93500000D02*
X151710000Y-92000000D01*
X151960000Y-93250000D02*
X151960000Y-92250000D01*
X152210000Y-93000000D02*
X152210000Y-92500000D01*
X160460000Y-103250000D02*
X159960000Y-103250000D01*
X160710000Y-103500000D02*
X159710000Y-103500000D01*
X160960000Y-103750000D02*
X159460000Y-103750000D01*
X161960000Y-120750000D02*
X163445000Y-120750000D01*
X162210000Y-121000000D02*
X163210000Y-121000000D01*
X162460000Y-121250000D02*
X162960000Y-121250000D01*
X163960000Y-84500000D02*
X163960000Y-86500000D01*
X167460000Y-84500000D02*
X167460000Y-86500000D01*
D11*
X128546779Y-122869819D02*
X128546779Y-121869819D01*
X128546779Y-121869819D02*
X128927731Y-121869819D01*
X128927731Y-121869819D02*
X129022969Y-121917438D01*
X129022969Y-121917438D02*
X129070588Y-121965057D01*
X129070588Y-121965057D02*
X129118207Y-122060295D01*
X129118207Y-122060295D02*
X129118207Y-122203152D01*
X129118207Y-122203152D02*
X129070588Y-122298390D01*
X129070588Y-122298390D02*
X129022969Y-122346009D01*
X129022969Y-122346009D02*
X128927731Y-122393628D01*
X128927731Y-122393628D02*
X128546779Y-122393628D01*
X129546779Y-122869819D02*
X129546779Y-121869819D01*
X129546779Y-121869819D02*
X129784874Y-121869819D01*
X129784874Y-121869819D02*
X129927731Y-121917438D01*
X129927731Y-121917438D02*
X130022969Y-122012676D01*
X130022969Y-122012676D02*
X130070588Y-122107914D01*
X130070588Y-122107914D02*
X130118207Y-122298390D01*
X130118207Y-122298390D02*
X130118207Y-122441247D01*
X130118207Y-122441247D02*
X130070588Y-122631723D01*
X130070588Y-122631723D02*
X130022969Y-122726961D01*
X130022969Y-122726961D02*
X129927731Y-122822200D01*
X129927731Y-122822200D02*
X129784874Y-122869819D01*
X129784874Y-122869819D02*
X129546779Y-122869819D01*
X130880112Y-122346009D02*
X131022969Y-122393628D01*
X131022969Y-122393628D02*
X131070588Y-122441247D01*
X131070588Y-122441247D02*
X131118207Y-122536485D01*
X131118207Y-122536485D02*
X131118207Y-122679342D01*
X131118207Y-122679342D02*
X131070588Y-122774580D01*
X131070588Y-122774580D02*
X131022969Y-122822200D01*
X131022969Y-122822200D02*
X130927731Y-122869819D01*
X130927731Y-122869819D02*
X130546779Y-122869819D01*
X130546779Y-122869819D02*
X130546779Y-121869819D01*
X130546779Y-121869819D02*
X130880112Y-121869819D01*
X130880112Y-121869819D02*
X130975350Y-121917438D01*
X130975350Y-121917438D02*
X131022969Y-121965057D01*
X131022969Y-121965057D02*
X131070588Y-122060295D01*
X131070588Y-122060295D02*
X131070588Y-122155533D01*
X131070588Y-122155533D02*
X131022969Y-122250771D01*
X131022969Y-122250771D02*
X130975350Y-122298390D01*
X130975350Y-122298390D02*
X130880112Y-122346009D01*
X130880112Y-122346009D02*
X130546779Y-122346009D01*
X132213446Y-121869819D02*
X132832493Y-121869819D01*
X132832493Y-121869819D02*
X132499160Y-122250771D01*
X132499160Y-122250771D02*
X132642017Y-122250771D01*
X132642017Y-122250771D02*
X132737255Y-122298390D01*
X132737255Y-122298390D02*
X132784874Y-122346009D01*
X132784874Y-122346009D02*
X132832493Y-122441247D01*
X132832493Y-122441247D02*
X132832493Y-122679342D01*
X132832493Y-122679342D02*
X132784874Y-122774580D01*
X132784874Y-122774580D02*
X132737255Y-122822200D01*
X132737255Y-122822200D02*
X132642017Y-122869819D01*
X132642017Y-122869819D02*
X132356303Y-122869819D01*
X132356303Y-122869819D02*
X132261065Y-122822200D01*
X132261065Y-122822200D02*
X132213446Y-122774580D01*
X133118208Y-121869819D02*
X133451541Y-122869819D01*
X133451541Y-122869819D02*
X133784874Y-121869819D01*
X134022970Y-121869819D02*
X134642017Y-121869819D01*
X134642017Y-121869819D02*
X134308684Y-122250771D01*
X134308684Y-122250771D02*
X134451541Y-122250771D01*
X134451541Y-122250771D02*
X134546779Y-122298390D01*
X134546779Y-122298390D02*
X134594398Y-122346009D01*
X134594398Y-122346009D02*
X134642017Y-122441247D01*
X134642017Y-122441247D02*
X134642017Y-122679342D01*
X134642017Y-122679342D02*
X134594398Y-122774580D01*
X134594398Y-122774580D02*
X134546779Y-122822200D01*
X134546779Y-122822200D02*
X134451541Y-122869819D01*
X134451541Y-122869819D02*
X134165827Y-122869819D01*
X134165827Y-122869819D02*
X134070589Y-122822200D01*
X134070589Y-122822200D02*
X134022970Y-122774580D01*
X137796779Y-127119819D02*
X137796779Y-126119819D01*
X138272969Y-127119819D02*
X138272969Y-126119819D01*
X138272969Y-126119819D02*
X138844397Y-127119819D01*
X138844397Y-127119819D02*
X138844397Y-126119819D01*
X139272969Y-126834104D02*
X139749159Y-126834104D01*
X139177731Y-127119819D02*
X139511064Y-126119819D01*
X139511064Y-126119819D02*
X139844397Y-127119819D01*
X140892017Y-126834104D02*
X141368207Y-126834104D01*
X140796779Y-127119819D02*
X141130112Y-126119819D01*
X141130112Y-126119819D02*
X141463445Y-127119819D01*
X142272969Y-127119819D02*
X141796779Y-127119819D01*
X141796779Y-127119819D02*
X141796779Y-126119819D01*
X142606303Y-126596009D02*
X142939636Y-126596009D01*
X143082493Y-127119819D02*
X142606303Y-127119819D01*
X142606303Y-127119819D02*
X142606303Y-126119819D01*
X142606303Y-126119819D02*
X143082493Y-126119819D01*
X144082493Y-127119819D02*
X143749160Y-126643628D01*
X143511065Y-127119819D02*
X143511065Y-126119819D01*
X143511065Y-126119819D02*
X143892017Y-126119819D01*
X143892017Y-126119819D02*
X143987255Y-126167438D01*
X143987255Y-126167438D02*
X144034874Y-126215057D01*
X144034874Y-126215057D02*
X144082493Y-126310295D01*
X144082493Y-126310295D02*
X144082493Y-126453152D01*
X144082493Y-126453152D02*
X144034874Y-126548390D01*
X144034874Y-126548390D02*
X143987255Y-126596009D01*
X143987255Y-126596009D02*
X143892017Y-126643628D01*
X143892017Y-126643628D02*
X143511065Y-126643628D01*
X144368208Y-126119819D02*
X144939636Y-126119819D01*
X144653922Y-127119819D02*
X144653922Y-126119819D01*
X147046779Y-124119819D02*
X147046779Y-123119819D01*
X147046779Y-123119819D02*
X147427731Y-123119819D01*
X147427731Y-123119819D02*
X147522969Y-123167438D01*
X147522969Y-123167438D02*
X147570588Y-123215057D01*
X147570588Y-123215057D02*
X147618207Y-123310295D01*
X147618207Y-123310295D02*
X147618207Y-123453152D01*
X147618207Y-123453152D02*
X147570588Y-123548390D01*
X147570588Y-123548390D02*
X147522969Y-123596009D01*
X147522969Y-123596009D02*
X147427731Y-123643628D01*
X147427731Y-123643628D02*
X147046779Y-123643628D01*
X148046779Y-124119819D02*
X148046779Y-123119819D01*
X148046779Y-123119819D02*
X148284874Y-123119819D01*
X148284874Y-123119819D02*
X148427731Y-123167438D01*
X148427731Y-123167438D02*
X148522969Y-123262676D01*
X148522969Y-123262676D02*
X148570588Y-123357914D01*
X148570588Y-123357914D02*
X148618207Y-123548390D01*
X148618207Y-123548390D02*
X148618207Y-123691247D01*
X148618207Y-123691247D02*
X148570588Y-123881723D01*
X148570588Y-123881723D02*
X148522969Y-123976961D01*
X148522969Y-123976961D02*
X148427731Y-124072200D01*
X148427731Y-124072200D02*
X148284874Y-124119819D01*
X148284874Y-124119819D02*
X148046779Y-124119819D01*
X149380112Y-123596009D02*
X149522969Y-123643628D01*
X149522969Y-123643628D02*
X149570588Y-123691247D01*
X149570588Y-123691247D02*
X149618207Y-123786485D01*
X149618207Y-123786485D02*
X149618207Y-123929342D01*
X149618207Y-123929342D02*
X149570588Y-124024580D01*
X149570588Y-124024580D02*
X149522969Y-124072200D01*
X149522969Y-124072200D02*
X149427731Y-124119819D01*
X149427731Y-124119819D02*
X149046779Y-124119819D01*
X149046779Y-124119819D02*
X149046779Y-123119819D01*
X149046779Y-123119819D02*
X149380112Y-123119819D01*
X149380112Y-123119819D02*
X149475350Y-123167438D01*
X149475350Y-123167438D02*
X149522969Y-123215057D01*
X149522969Y-123215057D02*
X149570588Y-123310295D01*
X149570588Y-123310295D02*
X149570588Y-123405533D01*
X149570588Y-123405533D02*
X149522969Y-123500771D01*
X149522969Y-123500771D02*
X149475350Y-123548390D01*
X149475350Y-123548390D02*
X149380112Y-123596009D01*
X149380112Y-123596009D02*
X149046779Y-123596009D01*
X151142017Y-123596009D02*
X150808684Y-123596009D01*
X150808684Y-124119819D02*
X150808684Y-123119819D01*
X150808684Y-123119819D02*
X151284874Y-123119819D01*
X151618208Y-123834104D02*
X152094398Y-123834104D01*
X151522970Y-124119819D02*
X151856303Y-123119819D01*
X151856303Y-123119819D02*
X152189636Y-124119819D01*
X152522970Y-123119819D02*
X152522970Y-123929342D01*
X152522970Y-123929342D02*
X152570589Y-124024580D01*
X152570589Y-124024580D02*
X152618208Y-124072200D01*
X152618208Y-124072200D02*
X152713446Y-124119819D01*
X152713446Y-124119819D02*
X152903922Y-124119819D01*
X152903922Y-124119819D02*
X152999160Y-124072200D01*
X152999160Y-124072200D02*
X153046779Y-124024580D01*
X153046779Y-124024580D02*
X153094398Y-123929342D01*
X153094398Y-123929342D02*
X153094398Y-123119819D01*
X154046779Y-124119819D02*
X153570589Y-124119819D01*
X153570589Y-124119819D02*
X153570589Y-123119819D01*
X154237256Y-123119819D02*
X154808684Y-123119819D01*
X154522970Y-124119819D02*
X154522970Y-123119819D01*
X156296779Y-86369819D02*
X156296779Y-85369819D01*
X156296779Y-85369819D02*
X156677731Y-85369819D01*
X156677731Y-85369819D02*
X156772969Y-85417438D01*
X156772969Y-85417438D02*
X156820588Y-85465057D01*
X156820588Y-85465057D02*
X156868207Y-85560295D01*
X156868207Y-85560295D02*
X156868207Y-85703152D01*
X156868207Y-85703152D02*
X156820588Y-85798390D01*
X156820588Y-85798390D02*
X156772969Y-85846009D01*
X156772969Y-85846009D02*
X156677731Y-85893628D01*
X156677731Y-85893628D02*
X156296779Y-85893628D01*
X157296779Y-86369819D02*
X157296779Y-85369819D01*
X157296779Y-85369819D02*
X157534874Y-85369819D01*
X157534874Y-85369819D02*
X157677731Y-85417438D01*
X157677731Y-85417438D02*
X157772969Y-85512676D01*
X157772969Y-85512676D02*
X157820588Y-85607914D01*
X157820588Y-85607914D02*
X157868207Y-85798390D01*
X157868207Y-85798390D02*
X157868207Y-85941247D01*
X157868207Y-85941247D02*
X157820588Y-86131723D01*
X157820588Y-86131723D02*
X157772969Y-86226961D01*
X157772969Y-86226961D02*
X157677731Y-86322200D01*
X157677731Y-86322200D02*
X157534874Y-86369819D01*
X157534874Y-86369819D02*
X157296779Y-86369819D01*
X158630112Y-85846009D02*
X158772969Y-85893628D01*
X158772969Y-85893628D02*
X158820588Y-85941247D01*
X158820588Y-85941247D02*
X158868207Y-86036485D01*
X158868207Y-86036485D02*
X158868207Y-86179342D01*
X158868207Y-86179342D02*
X158820588Y-86274580D01*
X158820588Y-86274580D02*
X158772969Y-86322200D01*
X158772969Y-86322200D02*
X158677731Y-86369819D01*
X158677731Y-86369819D02*
X158296779Y-86369819D01*
X158296779Y-86369819D02*
X158296779Y-85369819D01*
X158296779Y-85369819D02*
X158630112Y-85369819D01*
X158630112Y-85369819D02*
X158725350Y-85417438D01*
X158725350Y-85417438D02*
X158772969Y-85465057D01*
X158772969Y-85465057D02*
X158820588Y-85560295D01*
X158820588Y-85560295D02*
X158820588Y-85655533D01*
X158820588Y-85655533D02*
X158772969Y-85750771D01*
X158772969Y-85750771D02*
X158725350Y-85798390D01*
X158725350Y-85798390D02*
X158630112Y-85846009D01*
X158630112Y-85846009D02*
X158296779Y-85846009D01*
X159058684Y-86465057D02*
X159820588Y-86465057D01*
X160058684Y-86369819D02*
X160058684Y-85369819D01*
X160058684Y-85369819D02*
X160439636Y-85369819D01*
X160439636Y-85369819D02*
X160534874Y-85417438D01*
X160534874Y-85417438D02*
X160582493Y-85465057D01*
X160582493Y-85465057D02*
X160630112Y-85560295D01*
X160630112Y-85560295D02*
X160630112Y-85703152D01*
X160630112Y-85703152D02*
X160582493Y-85798390D01*
X160582493Y-85798390D02*
X160534874Y-85846009D01*
X160534874Y-85846009D02*
X160439636Y-85893628D01*
X160439636Y-85893628D02*
X160058684Y-85893628D01*
X161630112Y-86369819D02*
X161296779Y-85893628D01*
X161058684Y-86369819D02*
X161058684Y-85369819D01*
X161058684Y-85369819D02*
X161439636Y-85369819D01*
X161439636Y-85369819D02*
X161534874Y-85417438D01*
X161534874Y-85417438D02*
X161582493Y-85465057D01*
X161582493Y-85465057D02*
X161630112Y-85560295D01*
X161630112Y-85560295D02*
X161630112Y-85703152D01*
X161630112Y-85703152D02*
X161582493Y-85798390D01*
X161582493Y-85798390D02*
X161534874Y-85846009D01*
X161534874Y-85846009D02*
X161439636Y-85893628D01*
X161439636Y-85893628D02*
X161058684Y-85893628D01*
X162249160Y-85369819D02*
X162439636Y-85369819D01*
X162439636Y-85369819D02*
X162534874Y-85417438D01*
X162534874Y-85417438D02*
X162630112Y-85512676D01*
X162630112Y-85512676D02*
X162677731Y-85703152D01*
X162677731Y-85703152D02*
X162677731Y-86036485D01*
X162677731Y-86036485D02*
X162630112Y-86226961D01*
X162630112Y-86226961D02*
X162534874Y-86322200D01*
X162534874Y-86322200D02*
X162439636Y-86369819D01*
X162439636Y-86369819D02*
X162249160Y-86369819D01*
X162249160Y-86369819D02*
X162153922Y-86322200D01*
X162153922Y-86322200D02*
X162058684Y-86226961D01*
X162058684Y-86226961D02*
X162011065Y-86036485D01*
X162011065Y-86036485D02*
X162011065Y-85703152D01*
X162011065Y-85703152D02*
X162058684Y-85512676D01*
X162058684Y-85512676D02*
X162153922Y-85417438D01*
X162153922Y-85417438D02*
X162249160Y-85369819D01*
X162963446Y-85369819D02*
X163534874Y-85369819D01*
X163249160Y-86369819D02*
X163249160Y-85369819D01*
X164820588Y-85417438D02*
X164725350Y-85369819D01*
X164725350Y-85369819D02*
X164582493Y-85369819D01*
X164582493Y-85369819D02*
X164439636Y-85417438D01*
X164439636Y-85417438D02*
X164344398Y-85512676D01*
X164344398Y-85512676D02*
X164296779Y-85607914D01*
X164296779Y-85607914D02*
X164249160Y-85798390D01*
X164249160Y-85798390D02*
X164249160Y-85941247D01*
X164249160Y-85941247D02*
X164296779Y-86131723D01*
X164296779Y-86131723D02*
X164344398Y-86226961D01*
X164344398Y-86226961D02*
X164439636Y-86322200D01*
X164439636Y-86322200D02*
X164582493Y-86369819D01*
X164582493Y-86369819D02*
X164677731Y-86369819D01*
X164677731Y-86369819D02*
X164820588Y-86322200D01*
X164820588Y-86322200D02*
X164868207Y-86274580D01*
X164868207Y-86274580D02*
X164868207Y-85941247D01*
X164868207Y-85941247D02*
X164677731Y-85941247D01*
X165296779Y-86369819D02*
X165296779Y-85369819D01*
X165296779Y-85369819D02*
X165868207Y-86369819D01*
X165868207Y-86369819D02*
X165868207Y-85369819D01*
X166344398Y-86369819D02*
X166344398Y-85369819D01*
X166344398Y-85369819D02*
X166582493Y-85369819D01*
X166582493Y-85369819D02*
X166725350Y-85417438D01*
X166725350Y-85417438D02*
X166820588Y-85512676D01*
X166820588Y-85512676D02*
X166868207Y-85607914D01*
X166868207Y-85607914D02*
X166915826Y-85798390D01*
X166915826Y-85798390D02*
X166915826Y-85941247D01*
X166915826Y-85941247D02*
X166868207Y-86131723D01*
X166868207Y-86131723D02*
X166820588Y-86226961D01*
X166820588Y-86226961D02*
X166725350Y-86322200D01*
X166725350Y-86322200D02*
X166582493Y-86369819D01*
X166582493Y-86369819D02*
X166344398Y-86369819D01*
X168046779Y-86369819D02*
X168046779Y-85369819D01*
X168046779Y-85369819D02*
X168427731Y-85369819D01*
X168427731Y-85369819D02*
X168522969Y-85417438D01*
X168522969Y-85417438D02*
X168570588Y-85465057D01*
X168570588Y-85465057D02*
X168618207Y-85560295D01*
X168618207Y-85560295D02*
X168618207Y-85703152D01*
X168618207Y-85703152D02*
X168570588Y-85798390D01*
X168570588Y-85798390D02*
X168522969Y-85846009D01*
X168522969Y-85846009D02*
X168427731Y-85893628D01*
X168427731Y-85893628D02*
X168046779Y-85893628D01*
X169046779Y-86369819D02*
X169046779Y-85369819D01*
X169046779Y-85369819D02*
X169284874Y-85369819D01*
X169284874Y-85369819D02*
X169427731Y-85417438D01*
X169427731Y-85417438D02*
X169522969Y-85512676D01*
X169522969Y-85512676D02*
X169570588Y-85607914D01*
X169570588Y-85607914D02*
X169618207Y-85798390D01*
X169618207Y-85798390D02*
X169618207Y-85941247D01*
X169618207Y-85941247D02*
X169570588Y-86131723D01*
X169570588Y-86131723D02*
X169522969Y-86226961D01*
X169522969Y-86226961D02*
X169427731Y-86322200D01*
X169427731Y-86322200D02*
X169284874Y-86369819D01*
X169284874Y-86369819D02*
X169046779Y-86369819D01*
X170380112Y-85846009D02*
X170522969Y-85893628D01*
X170522969Y-85893628D02*
X170570588Y-85941247D01*
X170570588Y-85941247D02*
X170618207Y-86036485D01*
X170618207Y-86036485D02*
X170618207Y-86179342D01*
X170618207Y-86179342D02*
X170570588Y-86274580D01*
X170570588Y-86274580D02*
X170522969Y-86322200D01*
X170522969Y-86322200D02*
X170427731Y-86369819D01*
X170427731Y-86369819D02*
X170046779Y-86369819D01*
X170046779Y-86369819D02*
X170046779Y-85369819D01*
X170046779Y-85369819D02*
X170380112Y-85369819D01*
X170380112Y-85369819D02*
X170475350Y-85417438D01*
X170475350Y-85417438D02*
X170522969Y-85465057D01*
X170522969Y-85465057D02*
X170570588Y-85560295D01*
X170570588Y-85560295D02*
X170570588Y-85655533D01*
X170570588Y-85655533D02*
X170522969Y-85750771D01*
X170522969Y-85750771D02*
X170475350Y-85798390D01*
X170475350Y-85798390D02*
X170380112Y-85846009D01*
X170380112Y-85846009D02*
X170046779Y-85846009D01*
X170808684Y-86465057D02*
X171570588Y-86465057D01*
X171665827Y-85369819D02*
X171999160Y-86369819D01*
X171999160Y-86369819D02*
X172332493Y-85369819D01*
X172856303Y-85369819D02*
X173046779Y-85369819D01*
X173046779Y-85369819D02*
X173142017Y-85417438D01*
X173142017Y-85417438D02*
X173237255Y-85512676D01*
X173237255Y-85512676D02*
X173284874Y-85703152D01*
X173284874Y-85703152D02*
X173284874Y-86036485D01*
X173284874Y-86036485D02*
X173237255Y-86226961D01*
X173237255Y-86226961D02*
X173142017Y-86322200D01*
X173142017Y-86322200D02*
X173046779Y-86369819D01*
X173046779Y-86369819D02*
X172856303Y-86369819D01*
X172856303Y-86369819D02*
X172761065Y-86322200D01*
X172761065Y-86322200D02*
X172665827Y-86226961D01*
X172665827Y-86226961D02*
X172618208Y-86036485D01*
X172618208Y-86036485D02*
X172618208Y-85703152D01*
X172618208Y-85703152D02*
X172665827Y-85512676D01*
X172665827Y-85512676D02*
X172761065Y-85417438D01*
X172761065Y-85417438D02*
X172856303Y-85369819D01*
X173713446Y-85369819D02*
X173713446Y-86179342D01*
X173713446Y-86179342D02*
X173761065Y-86274580D01*
X173761065Y-86274580D02*
X173808684Y-86322200D01*
X173808684Y-86322200D02*
X173903922Y-86369819D01*
X173903922Y-86369819D02*
X174094398Y-86369819D01*
X174094398Y-86369819D02*
X174189636Y-86322200D01*
X174189636Y-86322200D02*
X174237255Y-86274580D01*
X174237255Y-86274580D02*
X174284874Y-86179342D01*
X174284874Y-86179342D02*
X174284874Y-85369819D01*
X174618208Y-85369819D02*
X175189636Y-85369819D01*
X174903922Y-86369819D02*
X174903922Y-85369819D01*
X172064819Y-102488094D02*
X171064819Y-102488094D01*
X171064819Y-102488094D02*
X171064819Y-102249999D01*
X171064819Y-102249999D02*
X171112438Y-102107142D01*
X171112438Y-102107142D02*
X171207676Y-102011904D01*
X171207676Y-102011904D02*
X171302914Y-101964285D01*
X171302914Y-101964285D02*
X171493390Y-101916666D01*
X171493390Y-101916666D02*
X171636247Y-101916666D01*
X171636247Y-101916666D02*
X171826723Y-101964285D01*
X171826723Y-101964285D02*
X171921961Y-102011904D01*
X171921961Y-102011904D02*
X172017200Y-102107142D01*
X172017200Y-102107142D02*
X172064819Y-102249999D01*
X172064819Y-102249999D02*
X172064819Y-102488094D01*
X171064819Y-101583332D02*
X171064819Y-100964285D01*
X171064819Y-100964285D02*
X171445771Y-101297618D01*
X171445771Y-101297618D02*
X171445771Y-101154761D01*
X171445771Y-101154761D02*
X171493390Y-101059523D01*
X171493390Y-101059523D02*
X171541009Y-101011904D01*
X171541009Y-101011904D02*
X171636247Y-100964285D01*
X171636247Y-100964285D02*
X171874342Y-100964285D01*
X171874342Y-100964285D02*
X171969580Y-101011904D01*
X171969580Y-101011904D02*
X172017200Y-101059523D01*
X172017200Y-101059523D02*
X172064819Y-101154761D01*
X172064819Y-101154761D02*
X172064819Y-101440475D01*
X172064819Y-101440475D02*
X172017200Y-101535713D01*
X172017200Y-101535713D02*
X171969580Y-101583332D01*
X170357142Y-81459580D02*
X170309523Y-81507200D01*
X170309523Y-81507200D02*
X170166666Y-81554819D01*
X170166666Y-81554819D02*
X170071428Y-81554819D01*
X170071428Y-81554819D02*
X169928571Y-81507200D01*
X169928571Y-81507200D02*
X169833333Y-81411961D01*
X169833333Y-81411961D02*
X169785714Y-81316723D01*
X169785714Y-81316723D02*
X169738095Y-81126247D01*
X169738095Y-81126247D02*
X169738095Y-80983390D01*
X169738095Y-80983390D02*
X169785714Y-80792914D01*
X169785714Y-80792914D02*
X169833333Y-80697676D01*
X169833333Y-80697676D02*
X169928571Y-80602438D01*
X169928571Y-80602438D02*
X170071428Y-80554819D01*
X170071428Y-80554819D02*
X170166666Y-80554819D01*
X170166666Y-80554819D02*
X170309523Y-80602438D01*
X170309523Y-80602438D02*
X170357142Y-80650057D01*
X171309523Y-81554819D02*
X170738095Y-81554819D01*
X171023809Y-81554819D02*
X171023809Y-80554819D01*
X171023809Y-80554819D02*
X170928571Y-80697676D01*
X170928571Y-80697676D02*
X170833333Y-80792914D01*
X170833333Y-80792914D02*
X170738095Y-80840533D01*
X171880952Y-80983390D02*
X171785714Y-80935771D01*
X171785714Y-80935771D02*
X171738095Y-80888152D01*
X171738095Y-80888152D02*
X171690476Y-80792914D01*
X171690476Y-80792914D02*
X171690476Y-80745295D01*
X171690476Y-80745295D02*
X171738095Y-80650057D01*
X171738095Y-80650057D02*
X171785714Y-80602438D01*
X171785714Y-80602438D02*
X171880952Y-80554819D01*
X171880952Y-80554819D02*
X172071428Y-80554819D01*
X172071428Y-80554819D02*
X172166666Y-80602438D01*
X172166666Y-80602438D02*
X172214285Y-80650057D01*
X172214285Y-80650057D02*
X172261904Y-80745295D01*
X172261904Y-80745295D02*
X172261904Y-80792914D01*
X172261904Y-80792914D02*
X172214285Y-80888152D01*
X172214285Y-80888152D02*
X172166666Y-80935771D01*
X172166666Y-80935771D02*
X172071428Y-80983390D01*
X172071428Y-80983390D02*
X171880952Y-80983390D01*
X171880952Y-80983390D02*
X171785714Y-81031009D01*
X171785714Y-81031009D02*
X171738095Y-81078628D01*
X171738095Y-81078628D02*
X171690476Y-81173866D01*
X171690476Y-81173866D02*
X171690476Y-81364342D01*
X171690476Y-81364342D02*
X171738095Y-81459580D01*
X171738095Y-81459580D02*
X171785714Y-81507200D01*
X171785714Y-81507200D02*
X171880952Y-81554819D01*
X171880952Y-81554819D02*
X172071428Y-81554819D01*
X172071428Y-81554819D02*
X172166666Y-81507200D01*
X172166666Y-81507200D02*
X172214285Y-81459580D01*
X172214285Y-81459580D02*
X172261904Y-81364342D01*
X172261904Y-81364342D02*
X172261904Y-81173866D01*
X172261904Y-81173866D02*
X172214285Y-81078628D01*
X172214285Y-81078628D02*
X172166666Y-81031009D01*
X172166666Y-81031009D02*
X172071428Y-80983390D01*
X135948095Y-120306819D02*
X136519523Y-120306819D01*
X136233809Y-121306819D02*
X136233809Y-120306819D01*
X136852857Y-121306819D02*
X136852857Y-120306819D01*
X136852857Y-120306819D02*
X137233809Y-120306819D01*
X137233809Y-120306819D02*
X137329047Y-120354438D01*
X137329047Y-120354438D02*
X137376666Y-120402057D01*
X137376666Y-120402057D02*
X137424285Y-120497295D01*
X137424285Y-120497295D02*
X137424285Y-120640152D01*
X137424285Y-120640152D02*
X137376666Y-120735390D01*
X137376666Y-120735390D02*
X137329047Y-120783009D01*
X137329047Y-120783009D02*
X137233809Y-120830628D01*
X137233809Y-120830628D02*
X136852857Y-120830628D01*
X138329047Y-120306819D02*
X137852857Y-120306819D01*
X137852857Y-120306819D02*
X137805238Y-120783009D01*
X137805238Y-120783009D02*
X137852857Y-120735390D01*
X137852857Y-120735390D02*
X137948095Y-120687771D01*
X137948095Y-120687771D02*
X138186190Y-120687771D01*
X138186190Y-120687771D02*
X138281428Y-120735390D01*
X138281428Y-120735390D02*
X138329047Y-120783009D01*
X138329047Y-120783009D02*
X138376666Y-120878247D01*
X138376666Y-120878247D02*
X138376666Y-121116342D01*
X138376666Y-121116342D02*
X138329047Y-121211580D01*
X138329047Y-121211580D02*
X138281428Y-121259200D01*
X138281428Y-121259200D02*
X138186190Y-121306819D01*
X138186190Y-121306819D02*
X137948095Y-121306819D01*
X137948095Y-121306819D02*
X137852857Y-121259200D01*
X137852857Y-121259200D02*
X137805238Y-121211580D01*
X139698095Y-120306819D02*
X140269523Y-120306819D01*
X139983809Y-121306819D02*
X139983809Y-120306819D01*
X140602857Y-121306819D02*
X140602857Y-120306819D01*
X140602857Y-120306819D02*
X140983809Y-120306819D01*
X140983809Y-120306819D02*
X141079047Y-120354438D01*
X141079047Y-120354438D02*
X141126666Y-120402057D01*
X141126666Y-120402057D02*
X141174285Y-120497295D01*
X141174285Y-120497295D02*
X141174285Y-120640152D01*
X141174285Y-120640152D02*
X141126666Y-120735390D01*
X141126666Y-120735390D02*
X141079047Y-120783009D01*
X141079047Y-120783009D02*
X140983809Y-120830628D01*
X140983809Y-120830628D02*
X140602857Y-120830628D01*
X142031428Y-120306819D02*
X141840952Y-120306819D01*
X141840952Y-120306819D02*
X141745714Y-120354438D01*
X141745714Y-120354438D02*
X141698095Y-120402057D01*
X141698095Y-120402057D02*
X141602857Y-120544914D01*
X141602857Y-120544914D02*
X141555238Y-120735390D01*
X141555238Y-120735390D02*
X141555238Y-121116342D01*
X141555238Y-121116342D02*
X141602857Y-121211580D01*
X141602857Y-121211580D02*
X141650476Y-121259200D01*
X141650476Y-121259200D02*
X141745714Y-121306819D01*
X141745714Y-121306819D02*
X141936190Y-121306819D01*
X141936190Y-121306819D02*
X142031428Y-121259200D01*
X142031428Y-121259200D02*
X142079047Y-121211580D01*
X142079047Y-121211580D02*
X142126666Y-121116342D01*
X142126666Y-121116342D02*
X142126666Y-120878247D01*
X142126666Y-120878247D02*
X142079047Y-120783009D01*
X142079047Y-120783009D02*
X142031428Y-120735390D01*
X142031428Y-120735390D02*
X141936190Y-120687771D01*
X141936190Y-120687771D02*
X141745714Y-120687771D01*
X141745714Y-120687771D02*
X141650476Y-120735390D01*
X141650476Y-120735390D02*
X141602857Y-120783009D01*
X141602857Y-120783009D02*
X141555238Y-120878247D01*
X144664819Y-115761904D02*
X145474342Y-115761904D01*
X145474342Y-115761904D02*
X145569580Y-115714285D01*
X145569580Y-115714285D02*
X145617200Y-115666666D01*
X145617200Y-115666666D02*
X145664819Y-115571428D01*
X145664819Y-115571428D02*
X145664819Y-115380952D01*
X145664819Y-115380952D02*
X145617200Y-115285714D01*
X145617200Y-115285714D02*
X145569580Y-115238095D01*
X145569580Y-115238095D02*
X145474342Y-115190476D01*
X145474342Y-115190476D02*
X144664819Y-115190476D01*
X144998152Y-114285714D02*
X145664819Y-114285714D01*
X144617200Y-114523809D02*
X145331485Y-114761904D01*
X145331485Y-114761904D02*
X145331485Y-114142857D01*
X162448095Y-109004819D02*
X162448095Y-109814342D01*
X162448095Y-109814342D02*
X162495714Y-109909580D01*
X162495714Y-109909580D02*
X162543333Y-109957200D01*
X162543333Y-109957200D02*
X162638571Y-110004819D01*
X162638571Y-110004819D02*
X162829047Y-110004819D01*
X162829047Y-110004819D02*
X162924285Y-109957200D01*
X162924285Y-109957200D02*
X162971904Y-109909580D01*
X162971904Y-109909580D02*
X163019523Y-109814342D01*
X163019523Y-109814342D02*
X163019523Y-109004819D01*
X163400476Y-109004819D02*
X164019523Y-109004819D01*
X164019523Y-109004819D02*
X163686190Y-109385771D01*
X163686190Y-109385771D02*
X163829047Y-109385771D01*
X163829047Y-109385771D02*
X163924285Y-109433390D01*
X163924285Y-109433390D02*
X163971904Y-109481009D01*
X163971904Y-109481009D02*
X164019523Y-109576247D01*
X164019523Y-109576247D02*
X164019523Y-109814342D01*
X164019523Y-109814342D02*
X163971904Y-109909580D01*
X163971904Y-109909580D02*
X163924285Y-109957200D01*
X163924285Y-109957200D02*
X163829047Y-110004819D01*
X163829047Y-110004819D02*
X163543333Y-110004819D01*
X163543333Y-110004819D02*
X163448095Y-109957200D01*
X163448095Y-109957200D02*
X163400476Y-109909580D01*
X142261905Y-72454819D02*
X142261905Y-71454819D01*
X142261905Y-71454819D02*
X142500000Y-71454819D01*
X142500000Y-71454819D02*
X142642857Y-71502438D01*
X142642857Y-71502438D02*
X142738095Y-71597676D01*
X142738095Y-71597676D02*
X142785714Y-71692914D01*
X142785714Y-71692914D02*
X142833333Y-71883390D01*
X142833333Y-71883390D02*
X142833333Y-72026247D01*
X142833333Y-72026247D02*
X142785714Y-72216723D01*
X142785714Y-72216723D02*
X142738095Y-72311961D01*
X142738095Y-72311961D02*
X142642857Y-72407200D01*
X142642857Y-72407200D02*
X142500000Y-72454819D01*
X142500000Y-72454819D02*
X142261905Y-72454819D01*
X143738095Y-71454819D02*
X143261905Y-71454819D01*
X143261905Y-71454819D02*
X143214286Y-71931009D01*
X143214286Y-71931009D02*
X143261905Y-71883390D01*
X143261905Y-71883390D02*
X143357143Y-71835771D01*
X143357143Y-71835771D02*
X143595238Y-71835771D01*
X143595238Y-71835771D02*
X143690476Y-71883390D01*
X143690476Y-71883390D02*
X143738095Y-71931009D01*
X143738095Y-71931009D02*
X143785714Y-72026247D01*
X143785714Y-72026247D02*
X143785714Y-72264342D01*
X143785714Y-72264342D02*
X143738095Y-72359580D01*
X143738095Y-72359580D02*
X143690476Y-72407200D01*
X143690476Y-72407200D02*
X143595238Y-72454819D01*
X143595238Y-72454819D02*
X143357143Y-72454819D01*
X143357143Y-72454819D02*
X143261905Y-72407200D01*
X143261905Y-72407200D02*
X143214286Y-72359580D01*
X178359580Y-108416666D02*
X178407200Y-108464285D01*
X178407200Y-108464285D02*
X178454819Y-108607142D01*
X178454819Y-108607142D02*
X178454819Y-108702380D01*
X178454819Y-108702380D02*
X178407200Y-108845237D01*
X178407200Y-108845237D02*
X178311961Y-108940475D01*
X178311961Y-108940475D02*
X178216723Y-108988094D01*
X178216723Y-108988094D02*
X178026247Y-109035713D01*
X178026247Y-109035713D02*
X177883390Y-109035713D01*
X177883390Y-109035713D02*
X177692914Y-108988094D01*
X177692914Y-108988094D02*
X177597676Y-108940475D01*
X177597676Y-108940475D02*
X177502438Y-108845237D01*
X177502438Y-108845237D02*
X177454819Y-108702380D01*
X177454819Y-108702380D02*
X177454819Y-108607142D01*
X177454819Y-108607142D02*
X177502438Y-108464285D01*
X177502438Y-108464285D02*
X177550057Y-108416666D01*
X178454819Y-107940475D02*
X178454819Y-107749999D01*
X178454819Y-107749999D02*
X178407200Y-107654761D01*
X178407200Y-107654761D02*
X178359580Y-107607142D01*
X178359580Y-107607142D02*
X178216723Y-107511904D01*
X178216723Y-107511904D02*
X178026247Y-107464285D01*
X178026247Y-107464285D02*
X177645295Y-107464285D01*
X177645295Y-107464285D02*
X177550057Y-107511904D01*
X177550057Y-107511904D02*
X177502438Y-107559523D01*
X177502438Y-107559523D02*
X177454819Y-107654761D01*
X177454819Y-107654761D02*
X177454819Y-107845237D01*
X177454819Y-107845237D02*
X177502438Y-107940475D01*
X177502438Y-107940475D02*
X177550057Y-107988094D01*
X177550057Y-107988094D02*
X177645295Y-108035713D01*
X177645295Y-108035713D02*
X177883390Y-108035713D01*
X177883390Y-108035713D02*
X177978628Y-107988094D01*
X177978628Y-107988094D02*
X178026247Y-107940475D01*
X178026247Y-107940475D02*
X178073866Y-107845237D01*
X178073866Y-107845237D02*
X178073866Y-107654761D01*
X178073866Y-107654761D02*
X178026247Y-107559523D01*
X178026247Y-107559523D02*
X177978628Y-107511904D01*
X177978628Y-107511904D02*
X177883390Y-107464285D01*
X104516666Y-78954819D02*
X104516666Y-79669104D01*
X104516666Y-79669104D02*
X104469047Y-79811961D01*
X104469047Y-79811961D02*
X104373809Y-79907200D01*
X104373809Y-79907200D02*
X104230952Y-79954819D01*
X104230952Y-79954819D02*
X104135714Y-79954819D01*
X105516666Y-79954819D02*
X104945238Y-79954819D01*
X105230952Y-79954819D02*
X105230952Y-78954819D01*
X105230952Y-78954819D02*
X105135714Y-79097676D01*
X105135714Y-79097676D02*
X105040476Y-79192914D01*
X105040476Y-79192914D02*
X104945238Y-79240533D01*
X145005180Y-87238095D02*
X144195657Y-87238095D01*
X144195657Y-87238095D02*
X144100419Y-87285714D01*
X144100419Y-87285714D02*
X144052800Y-87333333D01*
X144052800Y-87333333D02*
X144005180Y-87428571D01*
X144005180Y-87428571D02*
X144005180Y-87619047D01*
X144005180Y-87619047D02*
X144052800Y-87714285D01*
X144052800Y-87714285D02*
X144100419Y-87761904D01*
X144100419Y-87761904D02*
X144195657Y-87809523D01*
X144195657Y-87809523D02*
X145005180Y-87809523D01*
X144005180Y-88809523D02*
X144005180Y-88238095D01*
X144005180Y-88523809D02*
X145005180Y-88523809D01*
X145005180Y-88523809D02*
X144862323Y-88428571D01*
X144862323Y-88428571D02*
X144767085Y-88333333D01*
X144767085Y-88333333D02*
X144719466Y-88238095D01*
X146337219Y-85561599D02*
X146575314Y-85561599D01*
X146480076Y-85799694D02*
X146575314Y-85561599D01*
X146575314Y-85561599D02*
X146480076Y-85323504D01*
X146765790Y-85704456D02*
X146575314Y-85561599D01*
X146575314Y-85561599D02*
X146765790Y-85418742D01*
X176949700Y-111821428D02*
X176949700Y-110678571D01*
X177521128Y-111249999D02*
X176378271Y-111249999D01*
X176908866Y-123930951D02*
X176908866Y-123169047D01*
X175357142Y-81459580D02*
X175309523Y-81507200D01*
X175309523Y-81507200D02*
X175166666Y-81554819D01*
X175166666Y-81554819D02*
X175071428Y-81554819D01*
X175071428Y-81554819D02*
X174928571Y-81507200D01*
X174928571Y-81507200D02*
X174833333Y-81411961D01*
X174833333Y-81411961D02*
X174785714Y-81316723D01*
X174785714Y-81316723D02*
X174738095Y-81126247D01*
X174738095Y-81126247D02*
X174738095Y-80983390D01*
X174738095Y-80983390D02*
X174785714Y-80792914D01*
X174785714Y-80792914D02*
X174833333Y-80697676D01*
X174833333Y-80697676D02*
X174928571Y-80602438D01*
X174928571Y-80602438D02*
X175071428Y-80554819D01*
X175071428Y-80554819D02*
X175166666Y-80554819D01*
X175166666Y-80554819D02*
X175309523Y-80602438D01*
X175309523Y-80602438D02*
X175357142Y-80650057D01*
X176309523Y-81554819D02*
X175738095Y-81554819D01*
X176023809Y-81554819D02*
X176023809Y-80554819D01*
X176023809Y-80554819D02*
X175928571Y-80697676D01*
X175928571Y-80697676D02*
X175833333Y-80792914D01*
X175833333Y-80792914D02*
X175738095Y-80840533D01*
X176785714Y-81554819D02*
X176976190Y-81554819D01*
X176976190Y-81554819D02*
X177071428Y-81507200D01*
X177071428Y-81507200D02*
X177119047Y-81459580D01*
X177119047Y-81459580D02*
X177214285Y-81316723D01*
X177214285Y-81316723D02*
X177261904Y-81126247D01*
X177261904Y-81126247D02*
X177261904Y-80745295D01*
X177261904Y-80745295D02*
X177214285Y-80650057D01*
X177214285Y-80650057D02*
X177166666Y-80602438D01*
X177166666Y-80602438D02*
X177071428Y-80554819D01*
X177071428Y-80554819D02*
X176880952Y-80554819D01*
X176880952Y-80554819D02*
X176785714Y-80602438D01*
X176785714Y-80602438D02*
X176738095Y-80650057D01*
X176738095Y-80650057D02*
X176690476Y-80745295D01*
X176690476Y-80745295D02*
X176690476Y-80983390D01*
X176690476Y-80983390D02*
X176738095Y-81078628D01*
X176738095Y-81078628D02*
X176785714Y-81126247D01*
X176785714Y-81126247D02*
X176880952Y-81173866D01*
X176880952Y-81173866D02*
X177071428Y-81173866D01*
X177071428Y-81173866D02*
X177166666Y-81126247D01*
X177166666Y-81126247D02*
X177214285Y-81078628D01*
X177214285Y-81078628D02*
X177261904Y-80983390D01*
X197276666Y-104954819D02*
X197276666Y-105669104D01*
X197276666Y-105669104D02*
X197229047Y-105811961D01*
X197229047Y-105811961D02*
X197133809Y-105907200D01*
X197133809Y-105907200D02*
X196990952Y-105954819D01*
X196990952Y-105954819D02*
X196895714Y-105954819D01*
X197657619Y-104954819D02*
X198276666Y-104954819D01*
X198276666Y-104954819D02*
X197943333Y-105335771D01*
X197943333Y-105335771D02*
X198086190Y-105335771D01*
X198086190Y-105335771D02*
X198181428Y-105383390D01*
X198181428Y-105383390D02*
X198229047Y-105431009D01*
X198229047Y-105431009D02*
X198276666Y-105526247D01*
X198276666Y-105526247D02*
X198276666Y-105764342D01*
X198276666Y-105764342D02*
X198229047Y-105859580D01*
X198229047Y-105859580D02*
X198181428Y-105907200D01*
X198181428Y-105907200D02*
X198086190Y-105954819D01*
X198086190Y-105954819D02*
X197800476Y-105954819D01*
X197800476Y-105954819D02*
X197705238Y-105907200D01*
X197705238Y-105907200D02*
X197657619Y-105859580D01*
X129666666Y-75931009D02*
X129333333Y-75931009D01*
X129333333Y-76454819D02*
X129333333Y-75454819D01*
X129333333Y-75454819D02*
X129809523Y-75454819D01*
X130142857Y-75550057D02*
X130190476Y-75502438D01*
X130190476Y-75502438D02*
X130285714Y-75454819D01*
X130285714Y-75454819D02*
X130523809Y-75454819D01*
X130523809Y-75454819D02*
X130619047Y-75502438D01*
X130619047Y-75502438D02*
X130666666Y-75550057D01*
X130666666Y-75550057D02*
X130714285Y-75645295D01*
X130714285Y-75645295D02*
X130714285Y-75740533D01*
X130714285Y-75740533D02*
X130666666Y-75883390D01*
X130666666Y-75883390D02*
X130095238Y-76454819D01*
X130095238Y-76454819D02*
X130714285Y-76454819D01*
X143198095Y-120306819D02*
X143769523Y-120306819D01*
X143483809Y-121306819D02*
X143483809Y-120306819D01*
X144102857Y-121306819D02*
X144102857Y-120306819D01*
X144102857Y-120306819D02*
X144483809Y-120306819D01*
X144483809Y-120306819D02*
X144579047Y-120354438D01*
X144579047Y-120354438D02*
X144626666Y-120402057D01*
X144626666Y-120402057D02*
X144674285Y-120497295D01*
X144674285Y-120497295D02*
X144674285Y-120640152D01*
X144674285Y-120640152D02*
X144626666Y-120735390D01*
X144626666Y-120735390D02*
X144579047Y-120783009D01*
X144579047Y-120783009D02*
X144483809Y-120830628D01*
X144483809Y-120830628D02*
X144102857Y-120830628D01*
X145007619Y-120306819D02*
X145674285Y-120306819D01*
X145674285Y-120306819D02*
X145245714Y-121306819D01*
X163157142Y-75559580D02*
X163109523Y-75607200D01*
X163109523Y-75607200D02*
X162966666Y-75654819D01*
X162966666Y-75654819D02*
X162871428Y-75654819D01*
X162871428Y-75654819D02*
X162728571Y-75607200D01*
X162728571Y-75607200D02*
X162633333Y-75511961D01*
X162633333Y-75511961D02*
X162585714Y-75416723D01*
X162585714Y-75416723D02*
X162538095Y-75226247D01*
X162538095Y-75226247D02*
X162538095Y-75083390D01*
X162538095Y-75083390D02*
X162585714Y-74892914D01*
X162585714Y-74892914D02*
X162633333Y-74797676D01*
X162633333Y-74797676D02*
X162728571Y-74702438D01*
X162728571Y-74702438D02*
X162871428Y-74654819D01*
X162871428Y-74654819D02*
X162966666Y-74654819D01*
X162966666Y-74654819D02*
X163109523Y-74702438D01*
X163109523Y-74702438D02*
X163157142Y-74750057D01*
X164109523Y-75654819D02*
X163538095Y-75654819D01*
X163823809Y-75654819D02*
X163823809Y-74654819D01*
X163823809Y-74654819D02*
X163728571Y-74797676D01*
X163728571Y-74797676D02*
X163633333Y-74892914D01*
X163633333Y-74892914D02*
X163538095Y-74940533D01*
X164442857Y-74654819D02*
X165109523Y-74654819D01*
X165109523Y-74654819D02*
X164680952Y-75654819D01*
X160873866Y-72080951D02*
X160873866Y-71319047D01*
X161254819Y-71699999D02*
X160492914Y-71699999D01*
%TO.C,R8*%
D12*
X158937064Y-92265000D02*
X158482936Y-92265000D01*
X158937064Y-93735000D02*
X158482936Y-93735000D01*
%TO.C,R16*%
X138982936Y-114015000D02*
X139437064Y-114015000D01*
X138982936Y-115485000D02*
X139437064Y-115485000D01*
%TO.C,TP3*%
X166660000Y-84000000D02*
G75*
G02*
X164760000Y-84000000I-950000J0D01*
G01*
X164760000Y-84000000D02*
G75*
G02*
X166660000Y-84000000I950000J0D01*
G01*
%TO.C,Q2*%
D13*
X156221500Y-95435000D02*
X162321500Y-95435000D01*
X156221500Y-100835000D02*
X162321500Y-100835000D01*
D14*
X155507250Y-96230000D02*
G75*
G02*
X155257250Y-96230000I-125000J0D01*
G01*
X155257250Y-96230000D02*
G75*
G02*
X155507250Y-96230000I125000J0D01*
G01*
%TO.C,R20*%
D12*
X136887064Y-103790000D02*
X132532936Y-103790000D01*
X136887064Y-107210000D02*
X132532936Y-107210000D01*
%TO.C,D3*%
X168187500Y-92780000D02*
X168457500Y-92780000D01*
X168187500Y-99200000D02*
X168187500Y-92780000D01*
X175087500Y-92780000D02*
X174817500Y-92780000D01*
X175087500Y-99200000D02*
X175087500Y-92780000D01*
X174777500Y-91050000D02*
X175247500Y-90710000D01*
X175247500Y-91390000D01*
X174777500Y-91050000D01*
G36*
X175247500Y-91390000D02*
G01*
X174777500Y-91050000D01*
X175247500Y-90710000D01*
X175247500Y-91390000D01*
G37*
%TO.C,C18*%
X171215000Y-83188748D02*
X171215000Y-83711252D01*
X172685000Y-83188748D02*
X172685000Y-83711252D01*
%TO.C,R14*%
X156437064Y-87765000D02*
X155982936Y-87765000D01*
X156437064Y-89235000D02*
X155982936Y-89235000D01*
%TO.C,C4*%
X165998748Y-104340000D02*
X167421252Y-104340000D01*
X165998748Y-106160000D02*
X167421252Y-106160000D01*
%TO.C,U2*%
D15*
X150783600Y-110823600D02*
X150783600Y-111027559D01*
X150783600Y-113972441D02*
X150783600Y-114176400D01*
X150783600Y-114176400D02*
X154136400Y-114176400D01*
X154136400Y-110823600D02*
X150783600Y-110823600D01*
X154136400Y-111027559D02*
X154136400Y-110823600D01*
X154136400Y-114176400D02*
X154136400Y-113972441D01*
D16*
G36*
X149323100Y-113690501D02*
G01*
X149069100Y-113690501D01*
X149069100Y-113309501D01*
X149323100Y-113309501D01*
X149323100Y-113690501D01*
G37*
%TO.C,TP5*%
D12*
X138160000Y-122500000D02*
G75*
G02*
X136260000Y-122500000I-950000J0D01*
G01*
X136260000Y-122500000D02*
G75*
G02*
X138160000Y-122500000I950000J0D01*
G01*
%TO.C,D4*%
X146720000Y-106600000D02*
X141210000Y-106600000D01*
X146720000Y-109900000D02*
X141210000Y-109900000D01*
X146720000Y-109900000D02*
X146720000Y-106600000D01*
%TO.C,Q3*%
X145770000Y-95715000D02*
X140090000Y-95715000D01*
X145770000Y-101085000D02*
X139650000Y-101085000D01*
X139578378Y-95979730D02*
X139338378Y-95649730D01*
X139818378Y-95649730D01*
X139578378Y-95979730D01*
G36*
X139578378Y-95979730D02*
G01*
X139338378Y-95649730D01*
X139818378Y-95649730D01*
X139578378Y-95979730D01*
G37*
%TO.C,R21*%
X167982936Y-101515000D02*
X168437064Y-101515000D01*
X167982936Y-102985000D02*
X168437064Y-102985000D01*
%TO.C,R6*%
X144095592Y-92793707D02*
X144549720Y-92793707D01*
X144095592Y-94263707D02*
X144549720Y-94263707D01*
%TO.C,C5*%
X143850580Y-110490000D02*
X143569420Y-110490000D01*
X143850580Y-111510000D02*
X143569420Y-111510000D01*
%TO.C,R13*%
X148475000Y-85227064D02*
X148475000Y-84772936D01*
X149945000Y-85227064D02*
X149945000Y-84772936D01*
%TO.C,TP2*%
X162910000Y-84000000D02*
G75*
G02*
X161010000Y-84000000I-950000J0D01*
G01*
X161010000Y-84000000D02*
G75*
G02*
X162910000Y-84000000I950000J0D01*
G01*
%TO.C,TP6*%
X141910000Y-122500000D02*
G75*
G02*
X140010000Y-122500000I-950000J0D01*
G01*
X140010000Y-122500000D02*
G75*
G02*
X141910000Y-122500000I950000J0D01*
G01*
%TO.C,R7*%
X139975000Y-92272936D02*
X139975000Y-92727064D01*
X141445000Y-92272936D02*
X141445000Y-92727064D01*
%TO.C,C15*%
D11*
X152910000Y-101530000D02*
X157510000Y-101530000D01*
X152910000Y-108970000D02*
X152910000Y-101530000D01*
X157510000Y-101530000D02*
X157510000Y-108970000D01*
X157510000Y-108970000D02*
X152910000Y-108970000D01*
%TO.C,U4*%
D12*
X141850000Y-114265000D02*
X141875000Y-114265000D01*
X141850000Y-115735000D02*
X141850000Y-114265000D01*
X141875000Y-115735000D02*
X141850000Y-115735000D01*
X142745000Y-114265000D02*
X143175000Y-114265000D01*
X144045000Y-114265000D02*
X144070000Y-114265000D01*
X144070000Y-114265000D02*
X144070000Y-115735000D01*
X144070000Y-115735000D02*
X144045000Y-115735000D01*
X141870000Y-116180000D02*
X141680000Y-116320000D01*
X141680000Y-116040000D01*
X141870000Y-116180000D01*
G36*
X141870000Y-116180000D02*
G01*
X141680000Y-116320000D01*
X141680000Y-116040000D01*
X141870000Y-116180000D01*
G37*
%TO.C,R9*%
X162725000Y-104022936D02*
X162725000Y-104477064D01*
X164195000Y-104022936D02*
X164195000Y-104477064D01*
%TO.C,U3*%
X161600000Y-110390000D02*
X164820000Y-110390000D01*
X161600000Y-110565000D02*
X161600000Y-110390000D01*
X161600000Y-113610000D02*
X161600000Y-113435000D01*
X164820000Y-110390000D02*
X164820000Y-110565000D01*
X164820000Y-113435000D02*
X164820000Y-113610000D01*
X164820000Y-113610000D02*
X161600000Y-113610000D01*
X161050000Y-110560000D02*
X160810000Y-110230000D01*
X161290000Y-110230000D01*
X161050000Y-110560000D01*
G36*
X161050000Y-110560000D02*
G01*
X160810000Y-110230000D01*
X161290000Y-110230000D01*
X161050000Y-110560000D01*
G37*
%TO.C,R5*%
D15*
X165755640Y-100036500D02*
X166309360Y-100036500D01*
X166309360Y-93407100D02*
X165755640Y-93407100D01*
%TO.C,C8*%
D12*
X133450000Y-113390580D02*
X133450000Y-113109420D01*
X134470000Y-113390580D02*
X134470000Y-113109420D01*
%TO.C,C16*%
D11*
X122490000Y-103450000D02*
X129930000Y-103450000D01*
X122490000Y-108050000D02*
X122490000Y-103450000D01*
X129930000Y-103450000D02*
X129930000Y-108050000D01*
X129930000Y-108050000D02*
X122490000Y-108050000D01*
%TO.C,C14*%
X156160000Y-114530000D02*
X160760000Y-114530000D01*
X156160000Y-121970000D02*
X156160000Y-114530000D01*
X160760000Y-114530000D02*
X160760000Y-121970000D01*
X160760000Y-121970000D02*
X156160000Y-121970000D01*
%TO.C,C2*%
D12*
X162975000Y-90761252D02*
X162975000Y-90238748D01*
X164445000Y-90761252D02*
X164445000Y-90238748D01*
%TO.C,D1*%
X148200000Y-91100000D02*
X148200000Y-94400000D01*
X148200000Y-91100000D02*
X153710000Y-91100000D01*
X148200000Y-94400000D02*
X153710000Y-94400000D01*
%TO.C,D5*%
X139340000Y-72850000D02*
X139340000Y-77150000D01*
X139340000Y-72850000D02*
X145150000Y-72850000D01*
X139340000Y-77150000D02*
X145150000Y-77150000D01*
%TO.C,R10*%
X141732936Y-117015000D02*
X142187064Y-117015000D01*
X141732936Y-118485000D02*
X142187064Y-118485000D01*
%TO.C,C9*%
X174590000Y-108961252D02*
X174590000Y-107538748D01*
X176410000Y-108961252D02*
X176410000Y-107538748D01*
%TO.C,R2*%
X152982936Y-85015000D02*
X153437064Y-85015000D01*
X152982936Y-86485000D02*
X153437064Y-86485000D01*
%TO.C,R3*%
X148475000Y-88727064D02*
X148475000Y-88272936D01*
X149945000Y-88727064D02*
X149945000Y-88272936D01*
%TO.C,C13*%
D11*
X151160000Y-114530000D02*
X155760000Y-114530000D01*
X151160000Y-121970000D02*
X151160000Y-114530000D01*
X155760000Y-114530000D02*
X155760000Y-121970000D01*
X155760000Y-121970000D02*
X151160000Y-121970000D01*
%TO.C,J1*%
D12*
X89850000Y-78050000D02*
X119850000Y-78050000D01*
X119850000Y-109050000D01*
X89850000Y-109050000D01*
X89850000Y-78050000D01*
%TO.C,U5*%
X141600000Y-102140000D02*
X144820000Y-102140000D01*
X141600000Y-102315000D02*
X141600000Y-102140000D01*
X141600000Y-105360000D02*
X141600000Y-105185000D01*
X144820000Y-102140000D02*
X144820000Y-102315000D01*
X144820000Y-105185000D02*
X144820000Y-105360000D01*
X144820000Y-105360000D02*
X141600000Y-105360000D01*
X141050000Y-102310000D02*
X140810000Y-101980000D01*
X141290000Y-101980000D01*
X141050000Y-102310000D01*
G36*
X141050000Y-102310000D02*
G01*
X140810000Y-101980000D01*
X141290000Y-101980000D01*
X141050000Y-102310000D01*
G37*
%TO.C,C10*%
X158700000Y-111359420D02*
X158700000Y-111640580D01*
X159720000Y-111359420D02*
X159720000Y-111640580D01*
%TO.C,F1*%
X122610000Y-93030000D02*
X122610000Y-99970000D01*
X122610000Y-99970000D02*
X138810000Y-99970000D01*
X129110000Y-94500000D02*
X132310000Y-94500000D01*
X129960000Y-96500000D02*
X131460000Y-96500000D01*
X132310000Y-98500000D02*
X129110000Y-98500000D01*
X138810000Y-93030000D02*
X122610000Y-93030000D01*
X138810000Y-99970000D02*
X138810000Y-93030000D01*
%TO.C,Q1*%
D13*
X154198500Y-95455000D02*
X148098500Y-95455000D01*
X154198500Y-100855000D02*
X148098500Y-100855000D01*
D14*
X155162750Y-100060000D02*
G75*
G02*
X154912750Y-100060000I-125000J0D01*
G01*
X154912750Y-100060000D02*
G75*
G02*
X155162750Y-100060000I125000J0D01*
G01*
%TO.C,TP4*%
D12*
X170160000Y-84000000D02*
G75*
G02*
X168260000Y-84000000I-950000J0D01*
G01*
X168260000Y-84000000D02*
G75*
G02*
X170160000Y-84000000I950000J0D01*
G01*
%TO.C,U1*%
D15*
X142783600Y-86323600D02*
X142783600Y-89676400D01*
X146136400Y-89676400D02*
X146136400Y-86323600D01*
D16*
G36*
X145650501Y-91390900D02*
G01*
X145269501Y-91390900D01*
X145269501Y-91136900D01*
X145650501Y-91136900D01*
X145650501Y-91390900D01*
G37*
%TO.C,C6*%
D12*
X161975000Y-119261252D02*
X161975000Y-118738748D01*
X163445000Y-119261252D02*
X163445000Y-118738748D01*
%TO.C,C1*%
X162948748Y-87015000D02*
X163471252Y-87015000D01*
X162948748Y-88485000D02*
X163471252Y-88485000D01*
%TO.C,J4*%
X177375000Y-114700000D02*
X177375000Y-118440000D01*
X187095000Y-109290000D02*
X181485000Y-109290000D01*
X187095000Y-109290000D02*
X187095000Y-110140000D01*
X187095000Y-124160000D02*
X187095000Y-125010000D01*
X187095000Y-125010000D02*
X181485000Y-125010000D01*
X194795000Y-110140000D02*
X187095000Y-110140000D01*
X194795000Y-110140000D02*
X194795000Y-124160000D01*
X194795000Y-124160000D02*
X187095000Y-124160000D01*
X177526282Y-112160100D02*
G75*
G02*
X181485000Y-109290000I3918716J-1239898D01*
G01*
X181485000Y-125010000D02*
G75*
G02*
X177962042Y-123016806I0J4110000D01*
G01*
%TO.C,R11*%
X156725000Y-111772936D02*
X156725000Y-112227064D01*
X158195000Y-111772936D02*
X158195000Y-112227064D01*
%TO.C,C19*%
X173465000Y-83188748D02*
X173465000Y-83711252D01*
X174935000Y-83188748D02*
X174935000Y-83711252D01*
%TO.C,TP1*%
X139410000Y-88250000D02*
G75*
G02*
X137510000Y-88250000I-950000J0D01*
G01*
X137510000Y-88250000D02*
G75*
G02*
X139410000Y-88250000I950000J0D01*
G01*
%TO.C,J2*%
X164225000Y-118990000D02*
X166025000Y-118990000D01*
X164225000Y-120590000D02*
X164225000Y-118990000D01*
X170895000Y-118990000D02*
X170895000Y-118050000D01*
X171425000Y-123460000D02*
X165495000Y-123460000D01*
X172695000Y-118990000D02*
X170895000Y-118990000D01*
X172695000Y-120590000D02*
X172695000Y-118990000D01*
%TO.C,C11*%
D11*
X147660000Y-101530000D02*
X152260000Y-101530000D01*
X147660000Y-108970000D02*
X147660000Y-101530000D01*
X152260000Y-101530000D02*
X152260000Y-108970000D01*
X152260000Y-108970000D02*
X147660000Y-108970000D01*
%TO.C,C12*%
X146160000Y-114530000D02*
X150760000Y-114530000D01*
X146160000Y-121970000D02*
X146160000Y-114530000D01*
X150760000Y-114530000D02*
X150760000Y-121970000D01*
X150760000Y-121970000D02*
X146160000Y-121970000D01*
%TO.C,R15*%
D12*
X135225000Y-113022936D02*
X135225000Y-113477064D01*
X136695000Y-113022936D02*
X136695000Y-113477064D01*
%TO.C,R4*%
X159482936Y-87015000D02*
X159937064Y-87015000D01*
X159482936Y-88485000D02*
X159937064Y-88485000D01*
%TO.C,R12*%
X162732936Y-114015000D02*
X163187064Y-114015000D01*
X162732936Y-115485000D02*
X163187064Y-115485000D01*
%TO.C,R19*%
X158000000Y-107427064D02*
X158000000Y-103072936D01*
X161420000Y-107427064D02*
X161420000Y-103072936D01*
%TO.C,J3*%
X182610978Y-76850000D02*
X212610978Y-76850000D01*
X212610978Y-107850000D01*
X182610978Y-107850000D01*
X182610978Y-76850000D01*
%TO.C,F2*%
X125300000Y-71680000D02*
X134700000Y-71680000D01*
X125300000Y-80320000D02*
X134700000Y-80320000D01*
%TO.C,C3*%
X140700000Y-86859420D02*
X140700000Y-87140580D01*
X141720000Y-86859420D02*
X141720000Y-87140580D01*
%TO.C,TP7*%
X145410000Y-122500000D02*
G75*
G02*
X143510000Y-122500000I-950000J0D01*
G01*
X143510000Y-122500000D02*
G75*
G02*
X145410000Y-122500000I950000J0D01*
G01*
%TO.C,C7*%
X146700000Y-112890580D02*
X146700000Y-112609420D01*
X147720000Y-112890580D02*
X147720000Y-112609420D01*
%TO.C,R1*%
X150975000Y-88727064D02*
X150975000Y-88272936D01*
X152445000Y-88727064D02*
X152445000Y-88272936D01*
%TD*%
%LPC*%
D16*
%TO.C,Q2*%
G36*
X156988000Y-99020000D02*
G01*
X156483000Y-99020000D01*
X156483000Y-95830000D01*
X156988000Y-95830000D01*
X156988000Y-99020000D01*
G37*
G36*
X161782500Y-100340000D02*
G01*
X158127500Y-100340000D01*
X158127500Y-95930000D01*
X161782500Y-95930000D01*
X161782500Y-100340000D01*
G37*
%TO.C,Q1*%
G36*
X152292500Y-100360000D02*
G01*
X148637500Y-100360000D01*
X148637500Y-95950000D01*
X152292500Y-95950000D01*
X152292500Y-100360000D01*
G37*
G36*
X153937000Y-100460000D02*
G01*
X153432000Y-100460000D01*
X153432000Y-97270000D01*
X153937000Y-97270000D01*
X153937000Y-100460000D01*
G37*
%TD*%
D17*
%TO.C,R8*%
X159622500Y-93000000D03*
X157797500Y-93000000D03*
%TD*%
D18*
%TO.C,R16*%
X138297500Y-114750000D03*
X140122500Y-114750000D03*
%TD*%
D19*
%TO.C,TP3*%
X165710000Y-84000000D03*
%TD*%
D20*
%TO.C,Q2*%
X156460000Y-96635000D03*
D21*
X156460000Y-97500000D03*
X156460000Y-98770000D03*
X156460000Y-100040000D03*
D22*
X161821500Y-99635000D03*
D23*
X162183000Y-98770000D03*
X162183000Y-97500000D03*
X162183000Y-96230000D03*
%TD*%
D24*
%TO.C,R20*%
X137672500Y-105500000D03*
X131747500Y-105500000D03*
%TD*%
D25*
%TO.C,D3*%
X171637500Y-91050000D03*
D26*
X171637500Y-97350000D03*
D25*
X173917500Y-91050000D03*
X169357500Y-91050000D03*
%TD*%
D27*
%TO.C,C18*%
X171950000Y-82500000D03*
X171950000Y-84400000D03*
%TD*%
D17*
%TO.C,R14*%
X157122500Y-88500000D03*
X155297500Y-88500000D03*
%TD*%
D28*
%TO.C,C4*%
X165235000Y-105250000D03*
X168185000Y-105250000D03*
%TD*%
D29*
%TO.C,U2*%
X154676150Y-113500001D03*
X154676150Y-112999999D03*
X154676150Y-112500000D03*
X154676150Y-112000001D03*
X154676150Y-111499999D03*
X150243850Y-111499999D03*
X150243850Y-112000001D03*
X150243850Y-112500000D03*
X150243850Y-112999999D03*
X150243850Y-113500001D03*
%TD*%
D19*
%TO.C,TP5*%
X137210000Y-122500000D03*
%TD*%
D30*
%TO.C,D4*%
X145210000Y-108250000D03*
X141210000Y-108250000D03*
%TD*%
D31*
%TO.C,Q3*%
X143360000Y-98400000D03*
D32*
X139810000Y-96495000D03*
X139810000Y-97765000D03*
X139810000Y-99035000D03*
X139810000Y-100305000D03*
%TD*%
D18*
%TO.C,R21*%
X167297500Y-102250000D03*
X169122500Y-102250000D03*
%TD*%
%TO.C,R6*%
X143410156Y-93528707D03*
X145235156Y-93528707D03*
%TD*%
D33*
%TO.C,C5*%
X144485000Y-111000000D03*
X142935000Y-111000000D03*
%TD*%
D34*
%TO.C,R13*%
X149210000Y-85912500D03*
X149210000Y-84087500D03*
%TD*%
D19*
%TO.C,TP2*%
X161960000Y-84000000D03*
%TD*%
%TO.C,TP6*%
X140960000Y-122500000D03*
%TD*%
D35*
%TO.C,R7*%
X140710000Y-91587500D03*
X140710000Y-93412500D03*
%TD*%
D36*
%TO.C,H4*%
X132710000Y-128000000D03*
%TD*%
D19*
%TO.C,C15*%
X155210000Y-102750000D03*
X155210000Y-107750000D03*
%TD*%
D37*
%TO.C,U4*%
X142310000Y-115837500D03*
X142960000Y-115837500D03*
X143610000Y-115837500D03*
X143610000Y-114162500D03*
X142310000Y-114162500D03*
%TD*%
D35*
%TO.C,R9*%
X163460000Y-103337500D03*
X163460000Y-105162500D03*
%TD*%
D38*
%TO.C,U3*%
X161060000Y-111025000D03*
X161060000Y-111675000D03*
X161060000Y-112325000D03*
X161060000Y-112975000D03*
X165360000Y-112975000D03*
X165360000Y-112325000D03*
X165360000Y-111675000D03*
X165360000Y-111025000D03*
D39*
X163210000Y-112000000D03*
%TD*%
D40*
%TO.C,R5*%
X164826000Y-97344100D03*
D41*
X164826000Y-93750000D03*
X167239000Y-93750000D03*
D40*
X167239000Y-97344100D03*
%TD*%
D42*
%TO.C,C8*%
X133960000Y-114025000D03*
X133960000Y-112475000D03*
%TD*%
D19*
%TO.C,C16*%
X128710000Y-105750000D03*
X123710000Y-105750000D03*
%TD*%
D36*
%TO.C,H3*%
X177710000Y-128750000D03*
%TD*%
D19*
%TO.C,C14*%
X158460000Y-115750000D03*
X158460000Y-120750000D03*
%TD*%
D43*
%TO.C,C2*%
X163710000Y-91450000D03*
X163710000Y-89550000D03*
%TD*%
D44*
%TO.C,D1*%
X149710000Y-92750000D03*
X153710000Y-92750000D03*
%TD*%
D45*
%TO.C,D5*%
X140850000Y-75000000D03*
X145150000Y-75000000D03*
%TD*%
D18*
%TO.C,R10*%
X141047500Y-117750000D03*
X142872500Y-117750000D03*
%TD*%
D46*
%TO.C,C9*%
X175500000Y-109725000D03*
X175500000Y-106775000D03*
%TD*%
D18*
%TO.C,R2*%
X152297500Y-85750000D03*
X154122500Y-85750000D03*
%TD*%
D34*
%TO.C,R3*%
X149210000Y-89412500D03*
X149210000Y-87587500D03*
%TD*%
D19*
%TO.C,C13*%
X153460000Y-115750000D03*
X153460000Y-120750000D03*
%TD*%
D47*
%TO.C,J1*%
X95450000Y-93450000D03*
D36*
X95450000Y-105950000D03*
X99250000Y-93450000D03*
X99250000Y-105950000D03*
X110450000Y-93450000D03*
X110450000Y-105950000D03*
X114250000Y-93450000D03*
X114250000Y-105950000D03*
%TD*%
D48*
%TO.C,U5*%
X141097500Y-102775000D03*
X141097500Y-103425000D03*
X141097500Y-104075000D03*
X141097500Y-104725000D03*
X145322500Y-104725000D03*
X145322500Y-104075000D03*
X145322500Y-103425000D03*
X145322500Y-102775000D03*
%TD*%
D49*
%TO.C,C10*%
X159210000Y-110725000D03*
X159210000Y-112275000D03*
%TD*%
D50*
%TO.C,F1*%
X125750000Y-94800000D03*
X125750000Y-98200000D03*
X135670000Y-94800000D03*
X135670000Y-98200000D03*
%TD*%
D51*
%TO.C,Q1*%
X153960000Y-99655000D03*
D21*
X153960000Y-98790000D03*
X153960000Y-97520000D03*
X153960000Y-96250000D03*
D52*
X148598500Y-96655000D03*
D23*
X148237000Y-97520000D03*
X148237000Y-98790000D03*
X148237000Y-100060000D03*
%TD*%
D19*
%TO.C,TP4*%
X169210000Y-84000000D03*
%TD*%
D53*
%TO.C,U1*%
X145460001Y-85815600D03*
X144959999Y-85815600D03*
X144460000Y-85815600D03*
X143960001Y-85815600D03*
X143459999Y-85815600D03*
X143459999Y-90184400D03*
X143960001Y-90184400D03*
X144460000Y-90184400D03*
X144959999Y-90184400D03*
X145460001Y-90184400D03*
%TD*%
D43*
%TO.C,C6*%
X162710000Y-119950000D03*
X162710000Y-118050000D03*
%TD*%
D54*
%TO.C,C1*%
X162260000Y-87750000D03*
X164160000Y-87750000D03*
%TD*%
D55*
%TO.C,J4*%
X185335000Y-110400000D03*
X185335000Y-123900000D03*
D56*
X179335000Y-120750000D03*
D57*
X179335000Y-113550000D03*
%TD*%
D35*
%TO.C,R11*%
X157460000Y-111087500D03*
X157460000Y-112912500D03*
%TD*%
D27*
%TO.C,C19*%
X174200000Y-82500000D03*
X174200000Y-84400000D03*
%TD*%
D19*
%TO.C,TP1*%
X138460000Y-88250000D03*
%TD*%
D58*
%TO.C,J2*%
X170335000Y-118900000D03*
X169085000Y-118900000D03*
X167835000Y-118900000D03*
X166585000Y-118900000D03*
D59*
X172185000Y-122250000D03*
X164735000Y-122250000D03*
%TD*%
D19*
%TO.C,C11*%
X149960000Y-102750000D03*
X149960000Y-107750000D03*
%TD*%
%TO.C,C12*%
X148460000Y-115750000D03*
X148460000Y-120750000D03*
%TD*%
D35*
%TO.C,R15*%
X135960000Y-112337500D03*
X135960000Y-114162500D03*
%TD*%
D18*
%TO.C,R4*%
X158797500Y-87750000D03*
X160622500Y-87750000D03*
%TD*%
%TO.C,R12*%
X162047500Y-114750000D03*
X163872500Y-114750000D03*
%TD*%
D60*
%TO.C,R19*%
X159710000Y-108212500D03*
X159710000Y-102287500D03*
%TD*%
D47*
%TO.C,J3*%
X207010978Y-92450000D03*
D36*
X207010978Y-79950000D03*
X203210978Y-92450000D03*
X203210978Y-79950000D03*
X192010978Y-92450000D03*
X192010978Y-79950000D03*
X188210978Y-92450000D03*
X188210978Y-79950000D03*
%TD*%
D61*
%TO.C,F2*%
X126650000Y-76000000D03*
X133350000Y-76000000D03*
%TD*%
D49*
%TO.C,C3*%
X141210000Y-86225000D03*
X141210000Y-87775000D03*
%TD*%
D19*
%TO.C,TP7*%
X144460000Y-122500000D03*
%TD*%
D42*
%TO.C,C7*%
X147210000Y-113525000D03*
X147210000Y-111975000D03*
%TD*%
D34*
%TO.C,R1*%
X151710000Y-89412500D03*
X151710000Y-87587500D03*
%TD*%
D36*
%TO.C,H1*%
X134212500Y-88000000D03*
%TD*%
%TO.C,H2*%
X177710000Y-88000000D03*
%TD*%
D62*
%TO.C,C17*%
X156800000Y-71000000D03*
X156800000Y-79400000D03*
%TD*%
%LPD*%
M02*
