%TF.GenerationSoftware,KiCad,Pcbnew,10.0.5*%
%TF.CreationDate,2026-10-02T16:31:02-05:00*%
%TF.ProjectId,Osiris_PDB_RevA,4f736972-6973-45f5-9044-425f52657641,rev?*%
%TF.SameCoordinates,Original*%
%TF.FileFunction,Copper,L4,Bot*%
%TF.FilePolarity,Positive*%
%FSLAX46Y46*%
G04 Gerber Fmt 4.6, Leading zero omitted, Abs format (unit mm)*
G04 Created by KiCad (PCBNEW 10.0.5) date 2026-10-02 16:31:02*
%MOMM*%
%LPD*%
G01*
G04 APERTURE LIST*
G04 Aperture macros list*
%AMRoundRect*
0 Rectangle with rounded corners*
0 $1 Rounding radius*
0 $2 $3 $4 $5 $6 $7 $8 $9 X,Y pos of 4 corners*
0 Add a 4 corners polygon primitive as box body*
4,1,4,$2,$3,$4,$5,$6,$7,$8,$9,$2,$3,0*
0 Add four circle primitives for the rounded corners*
1,1,$1+$1,$2,$3*
1,1,$1+$1,$4,$5*
1,1,$1+$1,$6,$7*
1,1,$1+$1,$8,$9*
0 Add four rect primitives between the rounded corners*
20,1,$1+$1,$2,$3,$4,$5,0*
20,1,$1+$1,$4,$5,$6,$7,0*
20,1,$1+$1,$6,$7,$8,$9,0*
20,1,$1+$1,$8,$9,$2,$3,0*%
G04 Aperture macros list end*
%TA.AperFunction,ComponentPad*%
%ADD10C,1.500000*%
%TD*%
%TA.AperFunction,ComponentPad*%
%ADD11R,3.200000X3.200000*%
%TD*%
%TA.AperFunction,ComponentPad*%
%ADD12C,3.200000*%
%TD*%
%TA.AperFunction,ComponentPad*%
%ADD13C,2.780000*%
%TD*%
%TA.AperFunction,ComponentPad*%
%ADD14R,2.300000X1.200000*%
%TD*%
%TA.AperFunction,ComponentPad*%
%ADD15RoundRect,1.025000X-1.025000X1.025000X-1.025000X-1.025000X1.025000X-1.025000X1.025000X1.025000X0*%
%TD*%
%TA.AperFunction,ComponentPad*%
%ADD16C,4.100000*%
%TD*%
%TA.AperFunction,SMDPad,CuDef*%
%ADD17RoundRect,0.250000X-0.450000X0.262500X-0.450000X-0.262500X0.450000X-0.262500X0.450000X0.262500X0*%
%TD*%
%TA.AperFunction,ViaPad*%
%ADD18C,0.600000*%
%TD*%
%TA.AperFunction,ViaPad*%
%ADD19C,0.800000*%
%TD*%
%TA.AperFunction,ViaPad*%
%ADD20C,1.200000*%
%TD*%
%TA.AperFunction,Conductor*%
%ADD21C,0.300000*%
%TD*%
%TA.AperFunction,Conductor*%
%ADD22C,0.500000*%
%TD*%
%TA.AperFunction,Conductor*%
%ADD23C,0.200000*%
%TD*%
G04 APERTURE END LIST*
D10*
%TO.P,C15,1*%
%TO.N,/VBAT_FUSED*%
X155210000Y-102750000D03*
%TO.P,C15,2*%
%TO.N,/IDEAL_VSS*%
X155210000Y-107750000D03*
%TD*%
%TO.P,C16,1*%
%TO.N,/INPUT_DAMP*%
X128710000Y-105750000D03*
%TO.P,C16,2*%
%TO.N,GND*%
X123710000Y-105750000D03*
%TD*%
%TO.P,C14,1*%
%TO.N,/INA_VBUS*%
X158460000Y-115750000D03*
%TO.P,C14,2*%
%TO.N,GND*%
X158460000Y-120750000D03*
%TD*%
%TO.P,C13,1*%
%TO.N,/INA_IN_N*%
X153460000Y-115750000D03*
%TO.P,C13,2*%
%TO.N,GND*%
X153460000Y-120750000D03*
%TD*%
D11*
%TO.P,J1,1*%
%TO.N,GND*%
X95450000Y-93450000D03*
D12*
X95450000Y-105950000D03*
X99250000Y-93450000D03*
X99250000Y-105950000D03*
%TO.P,J1,2*%
%TO.N,/VBAT_RAW*%
X110450000Y-93450000D03*
X110450000Y-105950000D03*
X114250000Y-93450000D03*
X114250000Y-105950000D03*
%TD*%
D13*
%TO.P,F1,1*%
%TO.N,/VBAT_RAW*%
X125750000Y-94800000D03*
X125750000Y-98200000D03*
%TO.P,F1,2*%
%TO.N,/IDEAL_IN*%
X135670000Y-94800000D03*
X135670000Y-98200000D03*
%TD*%
D14*
%TO.P,J4,*%
%TO.N,*%
X185335000Y-110400000D03*
X185335000Y-123900000D03*
D15*
%TO.P,J4,1,-_1*%
%TO.N,GND*%
X179335000Y-120750000D03*
D16*
%TO.P,J4,2,+_2*%
%TO.N,/PDB_VOUT*%
X179335000Y-113550000D03*
%TD*%
D10*
%TO.P,C11,1*%
%TO.N,/VBAT_FUSED*%
X149960000Y-102750000D03*
%TO.P,C11,2*%
%TO.N,/IDEAL_VSS*%
X149960000Y-107750000D03*
%TD*%
%TO.P,C12,1*%
%TO.N,/INA_IN_P*%
X148460000Y-115750000D03*
%TO.P,C12,2*%
%TO.N,GND*%
X148460000Y-120750000D03*
%TD*%
D11*
%TO.P,J3,1*%
%TO.N,GND*%
X207010978Y-92450000D03*
D12*
X207010978Y-79950000D03*
X203210978Y-92450000D03*
X203210978Y-79950000D03*
%TO.P,J3,2*%
%TO.N,/ESC_VBAT*%
X192010978Y-92450000D03*
X192010978Y-79950000D03*
X188210978Y-92450000D03*
X188210978Y-79950000D03*
%TD*%
D17*
%TO.P,R18,1*%
%TO.N,/PDB_3V3*%
X159960000Y-106587500D03*
%TO.P,R18,2*%
%TO.N,/PDB_I2C_SDA*%
X159960000Y-108412500D03*
%TD*%
%TO.P,R17,1*%
%TO.N,/PDB_3V3*%
X157960000Y-106587500D03*
%TO.P,R17,2*%
%TO.N,/PDB_I2C_SCL*%
X157960000Y-108412500D03*
%TD*%
D18*
%TO.N,/SHUNT_LO*%
X161210000Y-91750000D03*
X146460000Y-91500000D03*
%TO.N,/INA_IN_N*%
X148460000Y-111250000D03*
X155210000Y-94250000D03*
%TO.N,/PDB_3V3*%
X154460000Y-109750000D03*
X162710000Y-117250000D03*
X162140678Y-110615689D03*
%TO.N,/INA_ALERT_N*%
X141210000Y-114750000D03*
X143210000Y-113000000D03*
%TO.N,GND*%
X156210000Y-114500000D03*
X153960000Y-90250000D03*
X172210000Y-130000000D03*
X132210000Y-131350000D03*
X154750000Y-68600000D03*
X185460000Y-128250000D03*
X150460000Y-84500000D03*
X185460000Y-130000000D03*
X121950000Y-72400000D03*
X164710000Y-131350000D03*
X174710000Y-131350000D03*
X134210000Y-105500000D03*
X151210000Y-106250000D03*
X158960000Y-104000000D03*
X124710000Y-124000000D03*
X188460000Y-128250000D03*
X147210000Y-131350000D03*
X180000000Y-76750000D03*
X129210000Y-87250000D03*
X140710000Y-90500000D03*
X191210000Y-126750000D03*
X188460000Y-126750000D03*
X135210000Y-106750000D03*
X180000000Y-75000000D03*
X164710000Y-130000000D03*
X165710000Y-114250000D03*
X140210000Y-89500000D03*
X139750000Y-68600000D03*
X137250000Y-68600000D03*
X150210000Y-105000000D03*
X124710000Y-126000000D03*
X142710000Y-85500000D03*
X165210000Y-115250000D03*
X134710000Y-131350000D03*
X147250000Y-68600000D03*
X122500000Y-124250000D03*
X127210000Y-128000000D03*
X154710000Y-130000000D03*
X165710000Y-103000000D03*
X162210000Y-131350000D03*
X120000000Y-121750000D03*
X167210000Y-130000000D03*
X152210000Y-130000000D03*
X141710000Y-89500000D03*
X186960000Y-129000000D03*
D19*
X154800000Y-79400000D03*
D18*
X132250000Y-68600000D03*
X159710000Y-130000000D03*
X115000000Y-116750000D03*
X142250000Y-68600000D03*
X139710000Y-130000000D03*
X149710000Y-130000000D03*
X177210000Y-131350000D03*
X127210000Y-126000000D03*
X157210000Y-130000000D03*
X192460000Y-126000000D03*
X117500000Y-117500000D03*
X139710000Y-131350000D03*
X149750000Y-68600000D03*
X129710000Y-130000000D03*
X172250000Y-68600000D03*
X180460000Y-130000000D03*
X174750000Y-68600000D03*
X120000000Y-75000000D03*
X169710000Y-130000000D03*
X159750000Y-68600000D03*
X137210000Y-131350000D03*
X139710000Y-83500000D03*
X177250000Y-68600000D03*
X182210000Y-131350000D03*
X135210000Y-130250000D03*
X158960000Y-114000000D03*
X134710000Y-82750000D03*
X162210000Y-130000000D03*
X191210000Y-125250000D03*
X124750000Y-68600000D03*
X186960000Y-127500000D03*
X117500000Y-79250000D03*
X152250000Y-68600000D03*
X117500000Y-119250000D03*
X134210000Y-84250000D03*
X169750000Y-68600000D03*
X144750000Y-68600000D03*
D20*
X134800000Y-82000000D03*
D18*
X164750000Y-68600000D03*
X178460000Y-83000000D03*
X179960000Y-84000000D03*
X144710000Y-130000000D03*
X160210000Y-115250000D03*
X167250000Y-68600000D03*
X184210000Y-129250000D03*
X182210000Y-130000000D03*
X152960000Y-111750000D03*
X174710000Y-130000000D03*
X135460000Y-105000000D03*
X178210000Y-84250000D03*
X129750000Y-68600000D03*
X167210000Y-131350000D03*
X172210000Y-131350000D03*
X134750000Y-68600000D03*
X129710000Y-85500000D03*
X160460000Y-104750000D03*
X147960000Y-84000000D03*
X117500000Y-77500000D03*
D19*
X158800000Y-79400000D03*
D18*
X142210000Y-131350000D03*
X154710000Y-131350000D03*
X176960000Y-83500000D03*
X152210000Y-131350000D03*
X149710000Y-131350000D03*
X144710000Y-131350000D03*
X129460000Y-128000000D03*
X155710000Y-90250000D03*
X189960000Y-126000000D03*
X179710000Y-131350000D03*
X183960000Y-130750000D03*
X137210000Y-83500000D03*
X164460000Y-107750000D03*
X162250000Y-68600000D03*
X120000000Y-76750000D03*
X115000000Y-115000000D03*
X193710000Y-125250000D03*
X157210000Y-131350000D03*
X159710000Y-131350000D03*
X120000000Y-120000000D03*
X180210000Y-85500000D03*
X121950000Y-74150000D03*
X147210000Y-130000000D03*
X189710000Y-127500000D03*
X127250000Y-68600000D03*
X169710000Y-131350000D03*
X122500000Y-122500000D03*
X142210000Y-130000000D03*
X137210000Y-130000000D03*
X151710000Y-90750000D03*
D19*
X145150000Y-77000000D03*
D18*
X132210000Y-84250000D03*
%TO.N,/GATE_PIN*%
X156460000Y-101500000D03*
X154960000Y-95750000D03*
X146460000Y-90250000D03*
X159460000Y-90500000D03*
%TO.N,/PDB_PROTECTED*%
X163460000Y-96000000D03*
X162960000Y-97500000D03*
X160345707Y-98138667D03*
X163710000Y-99250000D03*
X159960000Y-84250000D03*
X162960000Y-98500000D03*
D20*
%TO.N,/ESC_VBAT*%
X131900000Y-82000000D03*
X131900000Y-70000000D03*
X134800000Y-71600000D03*
X133350000Y-70000000D03*
X133350000Y-80400000D03*
X133350000Y-71600000D03*
X134800000Y-80400000D03*
X134800000Y-70000000D03*
X131900000Y-80400000D03*
X131900000Y-71600000D03*
X133350000Y-82000000D03*
D18*
%TO.N,/INA_ALERT_LOCAL_N*%
X144960000Y-117250000D03*
X156210000Y-112750000D03*
%TO.N,/PDB_I2C_SDA*%
X167710000Y-117000000D03*
X163210000Y-109848530D03*
X158322324Y-110149999D03*
X156222149Y-111764579D03*
%TO.N,/PDB_I2C_SCL*%
X155960000Y-109850000D03*
X168960000Y-117000000D03*
X155710000Y-111150000D03*
X163210000Y-109000000D03*
%TO.N,/INA_IN_P*%
X163460000Y-106500000D03*
%TO.N,/VBAT_FUSED*%
X151960000Y-101000000D03*
X146960000Y-100750000D03*
X152210000Y-94500000D03*
X146460000Y-95250000D03*
X150460000Y-94000000D03*
%TO.N,/LTC_OV*%
X146960000Y-84500000D03*
X144460000Y-84000000D03*
%TO.N,/SHUNT_HI*%
X163960000Y-92500000D03*
X144960000Y-88500000D03*
X162610000Y-90500000D03*
X163460000Y-102000000D03*
X161210000Y-89250000D03*
D20*
%TO.N,/VBAT_RAW*%
X126650000Y-70000000D03*
X128100000Y-70000000D03*
X128100000Y-80400000D03*
X128100000Y-82000000D03*
X126650000Y-80400000D03*
X125200000Y-71600000D03*
X125200000Y-82000000D03*
X128100000Y-71600000D03*
X126650000Y-82000000D03*
X125200000Y-70000000D03*
X126650000Y-71600000D03*
X125200000Y-80400000D03*
D18*
%TO.N,/PDB_FAULT_N*%
X144210000Y-91750000D03*
X135960000Y-116000000D03*
X143460000Y-119500000D03*
%TD*%
%TO.N,/SHUNT_LO*%
D21*
X158460000Y-89500000D02*
X160210000Y-89500000D01*
X160210000Y-89500000D02*
X161210000Y-90500000D01*
X161210000Y-90500000D02*
X161210000Y-91750000D01*
X156460000Y-91500000D02*
X158460000Y-89500000D01*
X146460000Y-91500000D02*
X156460000Y-91500000D01*
%TO.N,/INA_IN_N*%
X153960000Y-109000000D02*
X151710000Y-111250000D01*
X153960000Y-95500000D02*
X153960000Y-109000000D01*
X155210000Y-94250000D02*
X153960000Y-95500000D01*
X151710000Y-111250000D02*
X148460000Y-111250000D01*
%TO.N,/PDB_3V3*%
X154460000Y-109750000D02*
X154797500Y-109750000D01*
X157960000Y-106587500D02*
X159960000Y-106587500D01*
X154797500Y-109750000D02*
X157960000Y-106587500D01*
D22*
X162710000Y-117250000D02*
X162140678Y-116680678D01*
X162140678Y-116680678D02*
X162140678Y-110615689D01*
%TO.N,/INA_ALERT_N*%
D21*
X142960000Y-113000000D02*
X141210000Y-114750000D01*
X143210000Y-113000000D02*
X142960000Y-113000000D01*
%TO.N,/GATE_PIN*%
D22*
X154960000Y-95750000D02*
X155460000Y-95250000D01*
D21*
X145710000Y-92250000D02*
X145960000Y-92500000D01*
D22*
X156460000Y-93500000D02*
X156460000Y-95250000D01*
D21*
X145710000Y-91000000D02*
X145710000Y-92250000D01*
D22*
X159460000Y-90500000D02*
X157460000Y-92500000D01*
X155460000Y-95250000D02*
X156460000Y-95250000D01*
D21*
X145960000Y-92500000D02*
X157460000Y-92500000D01*
X146460000Y-90250000D02*
X145710000Y-91000000D01*
D22*
X156460000Y-95250000D02*
X156460000Y-101500000D01*
X157460000Y-92500000D02*
X156460000Y-93500000D01*
%TO.N,/PDB_PROTECTED*%
D21*
X161960000Y-94500000D02*
X163460000Y-96000000D01*
X161960000Y-86250000D02*
X161960000Y-94500000D01*
X159960000Y-84250000D02*
X161960000Y-86250000D01*
%TO.N,/INA_ALERT_LOCAL_N*%
X144960000Y-117250000D02*
X144960000Y-114250000D01*
X144960000Y-114250000D02*
X146460000Y-112750000D01*
X146460000Y-112750000D02*
X156210000Y-112750000D01*
%TO.N,/PDB_I2C_SDA*%
D23*
X158322324Y-110050176D02*
X159960000Y-108412500D01*
X158322324Y-110149999D02*
X158322324Y-110050176D01*
X167710000Y-114348530D02*
X163210000Y-109848530D01*
X167710000Y-117000000D02*
X167710000Y-114348530D01*
X156222149Y-111764579D02*
X157836729Y-110149999D01*
X157836729Y-110149999D02*
X158322324Y-110149999D01*
%TO.N,/PDB_I2C_SCL*%
X168960000Y-117000000D02*
X168210000Y-116250000D01*
X156522500Y-109850000D02*
X157960000Y-108412500D01*
X155710000Y-111150000D02*
X155710000Y-110100000D01*
X168210000Y-116250000D02*
X168210000Y-114000000D01*
X155960000Y-109850000D02*
X156522500Y-109850000D01*
X168210000Y-114000000D02*
X163210000Y-109000000D01*
X155710000Y-110100000D02*
X155960000Y-109850000D01*
%TO.N,/INA_IN_P*%
D21*
X150460000Y-113750000D02*
X157460000Y-113750000D01*
X163460000Y-107750000D02*
X163460000Y-106500000D01*
X148460000Y-115750000D02*
X150460000Y-113750000D01*
X157460000Y-113750000D02*
X163460000Y-107750000D01*
%TO.N,/LTC_OV*%
X144960000Y-84500000D02*
X144460000Y-84000000D01*
X146960000Y-84500000D02*
X144960000Y-84500000D01*
%TO.N,/SHUNT_HI*%
X162610000Y-90500000D02*
X162610000Y-91150000D01*
X160460000Y-88500000D02*
X161210000Y-89250000D01*
X144960000Y-88500000D02*
X160460000Y-88500000D01*
X165960000Y-94500000D02*
X163960000Y-92500000D01*
X162610000Y-91150000D02*
X163960000Y-92500000D01*
X165960000Y-100250000D02*
X165960000Y-94500000D01*
X164210000Y-102000000D02*
X165960000Y-100250000D01*
X163460000Y-102000000D02*
X164210000Y-102000000D01*
%TO.N,/PDB_FAULT_N*%
X142460000Y-109500000D02*
X142460000Y-95500000D01*
X139460000Y-119500000D02*
X135960000Y-116000000D01*
X135960000Y-116000000D02*
X142460000Y-109500000D01*
X143460000Y-119500000D02*
X139460000Y-119500000D01*
X144210000Y-93750000D02*
X144210000Y-91750000D01*
X142460000Y-95500000D02*
X144210000Y-93750000D01*
%TD*%
%TA.AperFunction,Conductor*%
%TO.N,/PDB_VOUT*%
G36*
X173909001Y-94003728D02*
G01*
X173951960Y-94021522D01*
X173978476Y-94048036D01*
X173978478Y-94048040D01*
X173996270Y-94090994D01*
X174000000Y-94109745D01*
X174000000Y-109000000D01*
X182890254Y-109000000D01*
X182909001Y-109003728D01*
X182951960Y-109021522D01*
X182978476Y-109048036D01*
X182978478Y-109048040D01*
X182996270Y-109090994D01*
X183000000Y-109109745D01*
X183000000Y-115890254D01*
X182996270Y-115909005D01*
X182978478Y-115951959D01*
X182951960Y-115978478D01*
X182951959Y-115978478D01*
X182909005Y-115996270D01*
X182890254Y-116000000D01*
X170109746Y-116000000D01*
X170090995Y-115996270D01*
X170048040Y-115978478D01*
X170021523Y-115951962D01*
X170003728Y-115909001D01*
X170000000Y-115890254D01*
X170000000Y-94109745D01*
X170003728Y-94090999D01*
X170021523Y-94048037D01*
X170048034Y-94021524D01*
X170090998Y-94003728D01*
X170109746Y-94000000D01*
X173890254Y-94000000D01*
X173909001Y-94003728D01*
G37*
%TD.AperFunction*%
%TD*%
%TA.AperFunction,Conductor*%
%TO.N,/PDB_PROTECTED*%
G36*
X165153039Y-94769685D02*
G01*
X165198794Y-94822489D01*
X165210000Y-94874000D01*
X165210000Y-99876000D01*
X165190315Y-99943039D01*
X165137511Y-99988794D01*
X165086000Y-100000000D01*
X158084000Y-100000000D01*
X158016961Y-99980315D01*
X157971206Y-99927511D01*
X157960000Y-99876000D01*
X157960000Y-94874000D01*
X157979685Y-94806961D01*
X158032489Y-94761206D01*
X158084000Y-94750000D01*
X165086000Y-94750000D01*
X165153039Y-94769685D01*
G37*
%TD.AperFunction*%
%TD*%
%TA.AperFunction,Conductor*%
%TO.N,/VBAT_FUSED*%
G36*
X152809160Y-93464565D02*
G01*
X152876106Y-93484566D01*
X152921611Y-93537585D01*
X152932573Y-93587905D01*
X152987222Y-103873700D01*
X152967894Y-103940843D01*
X152915334Y-103986878D01*
X152863280Y-103998359D01*
X145834642Y-104001517D01*
X145767593Y-103981863D01*
X145721815Y-103929079D01*
X145710587Y-103876935D01*
X145759266Y-93555317D01*
X145779267Y-93488372D01*
X145832286Y-93442867D01*
X145883846Y-93431904D01*
X152809160Y-93464565D01*
G37*
%TD.AperFunction*%
%TD*%
%TA.AperFunction,Conductor*%
%TO.N,GND*%
G36*
X179941677Y-68001049D02*
G01*
X179952051Y-68002148D01*
X179962337Y-68003791D01*
X214405915Y-75384557D01*
X214434804Y-75395700D01*
X214446351Y-75402392D01*
X214487214Y-75447925D01*
X214491006Y-75456480D01*
X214499500Y-75496598D01*
X214499500Y-109384819D01*
X214494654Y-109415412D01*
X214490532Y-109428098D01*
X214454580Y-109477589D01*
X214450459Y-109480584D01*
X214392271Y-109499500D01*
X197565892Y-109499500D01*
X197434108Y-109499500D01*
X197399702Y-109508719D01*
X197356199Y-109520375D01*
X197356198Y-109520374D01*
X197306807Y-109533609D01*
X197306805Y-109533610D01*
X197192694Y-109599492D01*
X197099495Y-109692691D01*
X197033607Y-109806812D01*
X197033606Y-109806815D01*
X197027648Y-109829055D01*
X197027648Y-109829057D01*
X197012902Y-109884094D01*
X197001250Y-109927580D01*
X197001248Y-109927586D01*
X196999500Y-109934108D01*
X196999500Y-131884819D01*
X196994654Y-131915412D01*
X196990532Y-131928098D01*
X196954580Y-131977589D01*
X196950459Y-131980584D01*
X196892271Y-131999500D01*
X127740934Y-131999500D01*
X127710342Y-131994655D01*
X127685400Y-131986551D01*
X127650800Y-131966901D01*
X127591955Y-131915412D01*
X123056284Y-127946699D01*
X122974835Y-127875431D01*
X130809500Y-127875431D01*
X130809500Y-128124566D01*
X130841170Y-128365123D01*
X130841170Y-128365129D01*
X130842016Y-128371559D01*
X130845583Y-128384870D01*
X130906496Y-128612199D01*
X130906500Y-128612212D01*
X131001832Y-128842365D01*
X131001834Y-128842369D01*
X131001836Y-128842373D01*
X131001839Y-128842378D01*
X131001841Y-128842383D01*
X131020422Y-128874565D01*
X131020422Y-128874566D01*
X131126401Y-129058127D01*
X131126405Y-129058133D01*
X131175076Y-129121562D01*
X131278056Y-129255769D01*
X131278058Y-129255771D01*
X131278062Y-129255776D01*
X131454224Y-129431938D01*
X131454228Y-129431941D01*
X131454233Y-129431946D01*
X131454255Y-129431965D01*
X131454629Y-129432249D01*
X131651869Y-129583596D01*
X131651873Y-129583599D01*
X131867627Y-129708164D01*
X132097793Y-129803502D01*
X132338435Y-129867982D01*
X132585435Y-129900500D01*
X132585436Y-129900500D01*
X132834564Y-129900500D01*
X132834565Y-129900500D01*
X133081565Y-129867982D01*
X133322207Y-129803502D01*
X133552373Y-129708164D01*
X133768127Y-129583599D01*
X133965776Y-129431938D01*
X134141938Y-129255776D01*
X134293599Y-129058127D01*
X134418164Y-128842373D01*
X134508024Y-128625431D01*
X175809500Y-128625431D01*
X175809500Y-128874565D01*
X175841170Y-129115123D01*
X175841170Y-129115129D01*
X175842016Y-129121559D01*
X175906498Y-129362206D01*
X175906504Y-129362221D01*
X176001827Y-129592355D01*
X176001843Y-129592386D01*
X176068688Y-129708164D01*
X176126401Y-129808127D01*
X176126403Y-129808130D01*
X176278056Y-130005769D01*
X176278058Y-130005771D01*
X176278062Y-130005776D01*
X176454224Y-130181938D01*
X176454228Y-130181941D01*
X176454233Y-130181946D01*
X176454255Y-130181965D01*
X176454629Y-130182249D01*
X176651869Y-130333596D01*
X176651873Y-130333599D01*
X176867627Y-130458164D01*
X177097793Y-130553502D01*
X177338435Y-130617982D01*
X177585435Y-130650500D01*
X177585436Y-130650500D01*
X177834564Y-130650500D01*
X177834565Y-130650500D01*
X178081565Y-130617982D01*
X178322207Y-130553502D01*
X178552373Y-130458164D01*
X178768127Y-130333599D01*
X178965776Y-130181938D01*
X179141938Y-130005776D01*
X179293599Y-129808127D01*
X179418164Y-129592373D01*
X179513502Y-129362207D01*
X179577982Y-129121565D01*
X179610500Y-128874565D01*
X179610500Y-128625435D01*
X179577982Y-128378435D01*
X179513502Y-128137793D01*
X179418164Y-127907627D01*
X179293599Y-127691873D01*
X179244923Y-127628437D01*
X179142228Y-127494602D01*
X179141965Y-127494255D01*
X179141946Y-127494233D01*
X179141941Y-127494228D01*
X179141938Y-127494224D01*
X178965776Y-127318062D01*
X178965771Y-127318058D01*
X178965769Y-127318056D01*
X178768130Y-127166403D01*
X178752942Y-127157634D01*
X178752930Y-127157627D01*
X178552400Y-127041850D01*
X178552395Y-127041848D01*
X178552380Y-127041840D01*
X178552373Y-127041836D01*
X178552369Y-127041834D01*
X178552365Y-127041832D01*
X178552363Y-127041831D01*
X178552359Y-127041829D01*
X178327825Y-126948825D01*
X178323946Y-126946932D01*
X178323039Y-126946706D01*
X178321427Y-126946289D01*
X178084431Y-126882786D01*
X178082230Y-126882125D01*
X178077170Y-126881304D01*
X178075126Y-126881170D01*
X177834567Y-126849500D01*
X177834566Y-126849500D01*
X177834565Y-126849500D01*
X177585435Y-126849500D01*
X177585433Y-126849500D01*
X177585432Y-126849500D01*
X177344876Y-126881170D01*
X177344864Y-126881170D01*
X177338439Y-126882016D01*
X177097792Y-126946498D01*
X177097777Y-126946504D01*
X176867641Y-127041828D01*
X176651862Y-127166407D01*
X176454233Y-127318053D01*
X176278053Y-127494233D01*
X176126407Y-127691862D01*
X176001828Y-127907641D01*
X175906504Y-128137777D01*
X175906498Y-128137792D01*
X175842016Y-128378439D01*
X175841170Y-128384870D01*
X175841170Y-128384875D01*
X175809500Y-128625431D01*
X134508024Y-128625431D01*
X134513502Y-128612207D01*
X134513604Y-128611824D01*
X134517693Y-128596569D01*
X134576139Y-128378442D01*
X134576141Y-128378437D01*
X134576632Y-128376600D01*
X134577982Y-128371565D01*
X134610500Y-128124565D01*
X134610500Y-127875435D01*
X134577982Y-127628435D01*
X134513502Y-127387793D01*
X134418164Y-127157627D01*
X134293599Y-126941873D01*
X134141938Y-126744224D01*
X133965776Y-126568062D01*
X133965771Y-126568058D01*
X133965769Y-126568056D01*
X133768130Y-126416403D01*
X133768127Y-126416401D01*
X133686215Y-126369109D01*
X133552386Y-126291843D01*
X133552377Y-126291838D01*
X133552373Y-126291836D01*
X133552369Y-126291834D01*
X133552365Y-126291832D01*
X133552363Y-126291831D01*
X133552359Y-126291829D01*
X133327825Y-126198825D01*
X133323946Y-126196932D01*
X133323039Y-126196706D01*
X133321427Y-126196289D01*
X133084431Y-126132786D01*
X133082230Y-126132125D01*
X133077170Y-126131304D01*
X133075126Y-126131170D01*
X132834567Y-126099500D01*
X132834566Y-126099500D01*
X132834565Y-126099500D01*
X132585435Y-126099500D01*
X132585433Y-126099500D01*
X132585432Y-126099500D01*
X132344876Y-126131170D01*
X132344864Y-126131170D01*
X132338439Y-126132016D01*
X132097792Y-126196498D01*
X132097777Y-126196504D01*
X131867641Y-126291828D01*
X131651862Y-126416407D01*
X131454233Y-126568053D01*
X131278053Y-126744233D01*
X131126407Y-126941862D01*
X131001828Y-127157641D01*
X130906504Y-127387777D01*
X130906498Y-127387792D01*
X130842017Y-127628437D01*
X130841170Y-127634870D01*
X130841170Y-127634875D01*
X130809500Y-127875431D01*
X122974835Y-127875431D01*
X117776378Y-123326781D01*
X117776378Y-123326780D01*
X117776372Y-123326776D01*
X117694483Y-123255123D01*
X183884500Y-123255123D01*
X183884500Y-124545234D01*
X183884761Y-124547114D01*
X183887412Y-124569985D01*
X183887413Y-124569989D01*
X183887414Y-124569990D01*
X183912756Y-124627385D01*
X183912756Y-124627386D01*
X183932792Y-124672762D01*
X183932793Y-124672763D01*
X183932794Y-124672765D01*
X184012235Y-124752206D01*
X184115009Y-124797585D01*
X184140135Y-124800500D01*
X186529864Y-124800499D01*
X186554991Y-124797585D01*
X186657765Y-124752206D01*
X186737206Y-124672765D01*
X186782585Y-124569991D01*
X186785500Y-124544865D01*
X186785499Y-123255136D01*
X186782585Y-123230009D01*
X186737206Y-123127235D01*
X186657765Y-123047794D01*
X186657763Y-123047793D01*
X186571919Y-123009888D01*
X186570211Y-123008719D01*
X186554061Y-123002029D01*
X186549308Y-123001755D01*
X186543374Y-123001066D01*
X186529868Y-122999500D01*
X186529866Y-122999500D01*
X184139764Y-122999500D01*
X184137885Y-122999761D01*
X184115014Y-123002412D01*
X184115006Y-123002414D01*
X184012237Y-123047792D01*
X183932794Y-123127235D01*
X183887413Y-123230013D01*
X183884500Y-123255123D01*
X117694483Y-123255123D01*
X117665783Y-123230011D01*
X109390295Y-115988959D01*
X109312562Y-115920943D01*
X135359500Y-115920943D01*
X135359500Y-116079057D01*
X135400423Y-116231784D01*
X135479480Y-116368716D01*
X135591284Y-116480520D01*
X135728216Y-116559577D01*
X135880943Y-116600500D01*
X135880946Y-116600500D01*
X135886697Y-116602041D01*
X135891649Y-116603508D01*
X135920529Y-116612891D01*
X135959938Y-116637041D01*
X139183386Y-119860489D01*
X139197636Y-119868716D01*
X139286114Y-119919799D01*
X139400691Y-119950500D01*
X143004577Y-119950500D01*
X143035168Y-119955345D01*
X143059412Y-119963222D01*
X143089087Y-119978834D01*
X143091280Y-119980517D01*
X143091282Y-119980518D01*
X143091284Y-119980520D01*
X143228216Y-120059577D01*
X143380943Y-120100500D01*
X143380945Y-120100500D01*
X143539055Y-120100500D01*
X143539057Y-120100500D01*
X143691784Y-120059577D01*
X143828716Y-119980520D01*
X143940520Y-119868716D01*
X144019577Y-119731784D01*
X144060500Y-119579057D01*
X144060500Y-119420943D01*
X144019577Y-119268216D01*
X143940520Y-119131284D01*
X143828716Y-119019480D01*
X143691784Y-118940423D01*
X143539057Y-118899500D01*
X143539055Y-118899500D01*
X143380945Y-118899500D01*
X143380943Y-118899500D01*
X143228216Y-118940423D01*
X143091284Y-119019480D01*
X143091282Y-119019481D01*
X143086132Y-119022455D01*
X143081577Y-119024928D01*
X143054528Y-119038710D01*
X143009583Y-119049500D01*
X139703291Y-119049500D01*
X139672698Y-119044654D01*
X139649471Y-119037107D01*
X139610060Y-119012957D01*
X136678192Y-116081089D01*
X136659989Y-116056034D01*
X136653931Y-116044145D01*
X136644360Y-115983717D01*
X136645158Y-115978678D01*
X136672932Y-115924169D01*
X137926158Y-114670943D01*
X140609500Y-114670943D01*
X140609500Y-114829057D01*
X140650423Y-114981784D01*
X140729480Y-115118716D01*
X140841284Y-115230520D01*
X140978216Y-115309577D01*
X141130943Y-115350500D01*
X141130945Y-115350500D01*
X141289055Y-115350500D01*
X141289057Y-115350500D01*
X141441784Y-115309577D01*
X141578716Y-115230520D01*
X141690520Y-115118716D01*
X141769577Y-114981784D01*
X141810500Y-114829057D01*
X141810500Y-114829051D01*
X141812042Y-114823297D01*
X141813507Y-114818352D01*
X141822892Y-114789468D01*
X141847039Y-114750063D01*
X142406680Y-114190423D01*
X142973490Y-113623611D01*
X142998544Y-113605407D01*
X143015461Y-113596789D01*
X143065589Y-113586137D01*
X143069832Y-113586359D01*
X143090250Y-113589595D01*
X143130943Y-113600500D01*
X143289055Y-113600500D01*
X143289057Y-113600500D01*
X143441784Y-113559577D01*
X143578716Y-113480520D01*
X143690520Y-113368716D01*
X143769577Y-113231784D01*
X143810500Y-113079057D01*
X143810500Y-112920943D01*
X143769577Y-112768216D01*
X143690520Y-112631284D01*
X143578716Y-112519480D01*
X143441784Y-112440423D01*
X143289057Y-112399500D01*
X143289055Y-112399500D01*
X143130945Y-112399500D01*
X143130943Y-112399500D01*
X142978216Y-112440423D01*
X142843474Y-112518216D01*
X142843473Y-112518216D01*
X142841279Y-112519482D01*
X142786780Y-112573981D01*
X142777045Y-112582519D01*
X142766846Y-112590345D01*
X142756079Y-112597539D01*
X142709764Y-112624280D01*
X142709763Y-112624279D01*
X142706365Y-112626242D01*
X142693098Y-112629797D01*
X142683387Y-112639509D01*
X142683386Y-112639509D01*
X142683386Y-112639510D01*
X141933386Y-113389511D01*
X141213479Y-114109417D01*
X141188417Y-114127624D01*
X141165704Y-114139196D01*
X141133697Y-114149136D01*
X141130954Y-114149497D01*
X141130943Y-114149500D01*
X140978216Y-114190423D01*
X140841284Y-114269480D01*
X140729480Y-114381284D01*
X140650423Y-114518216D01*
X140609500Y-114670943D01*
X137926158Y-114670943D01*
X142820489Y-109776614D01*
X142826501Y-109766202D01*
X142852885Y-109720503D01*
X142879799Y-109673887D01*
X142892299Y-109627235D01*
X142910500Y-109559309D01*
X142910500Y-107646529D01*
X148909500Y-107646529D01*
X148909500Y-107853469D01*
X148949869Y-108056417D01*
X148949869Y-108056419D01*
X149029056Y-108247594D01*
X149126952Y-108394107D01*
X149134359Y-108405193D01*
X149144023Y-108419655D01*
X149290345Y-108565977D01*
X149462402Y-108680941D01*
X149653580Y-108760130D01*
X149856535Y-108800500D01*
X149856536Y-108800500D01*
X150063464Y-108800500D01*
X150063465Y-108800500D01*
X150266420Y-108760130D01*
X150457598Y-108680941D01*
X150629655Y-108565977D01*
X150775977Y-108419655D01*
X150890941Y-108247598D01*
X150970130Y-108056420D01*
X151010500Y-107853465D01*
X151010500Y-107646535D01*
X150970130Y-107443580D01*
X150890941Y-107252402D01*
X150775977Y-107080345D01*
X150629655Y-106934023D01*
X150629646Y-106934017D01*
X150622395Y-106929172D01*
X150615038Y-106924256D01*
X150457597Y-106819058D01*
X150457596Y-106819057D01*
X150457594Y-106819056D01*
X150266418Y-106739869D01*
X150063469Y-106699500D01*
X150063467Y-106699500D01*
X150063465Y-106699500D01*
X149856535Y-106699500D01*
X149856532Y-106699500D01*
X149856529Y-106699500D01*
X149653581Y-106739869D01*
X149653579Y-106739869D01*
X149462404Y-106819056D01*
X149290351Y-106934017D01*
X149144017Y-107080351D01*
X149029056Y-107252404D01*
X148949869Y-107443579D01*
X148949869Y-107443581D01*
X148909500Y-107646529D01*
X142910500Y-107646529D01*
X142910500Y-95743291D01*
X142915344Y-95712702D01*
X142922891Y-95689471D01*
X142947040Y-95650062D01*
X143502653Y-95094450D01*
X143728388Y-94868715D01*
X144570490Y-94026614D01*
X144629799Y-93923887D01*
X144641214Y-93881284D01*
X144660500Y-93809309D01*
X144660500Y-92205423D01*
X144665344Y-92174834D01*
X144665532Y-92174256D01*
X144673223Y-92150583D01*
X144688854Y-92120885D01*
X144690512Y-92118723D01*
X144690520Y-92118716D01*
X144769577Y-91981784D01*
X144810500Y-91829057D01*
X144810500Y-91670943D01*
X144769577Y-91518216D01*
X144690520Y-91381284D01*
X144578716Y-91269480D01*
X144441784Y-91190423D01*
X144289057Y-91149500D01*
X144289055Y-91149500D01*
X144130945Y-91149500D01*
X144130943Y-91149500D01*
X143978216Y-91190423D01*
X143841284Y-91269480D01*
X143729480Y-91381284D01*
X143650423Y-91518216D01*
X143609500Y-91670943D01*
X143609500Y-91829057D01*
X143650423Y-91981784D01*
X143729480Y-92118716D01*
X143729481Y-92118717D01*
X143732461Y-92123878D01*
X143734927Y-92128421D01*
X143748710Y-92155472D01*
X143759500Y-92200415D01*
X143759500Y-93506707D01*
X143754654Y-93537300D01*
X143747107Y-93560527D01*
X143722957Y-93599938D01*
X142099508Y-95223389D01*
X142099503Y-95223394D01*
X142040199Y-95326111D01*
X142036829Y-95338690D01*
X142036827Y-95338705D01*
X142035260Y-95344556D01*
X142009500Y-95440693D01*
X142009500Y-109256708D01*
X142004654Y-109287301D01*
X141997107Y-109310528D01*
X141972957Y-109349939D01*
X135963479Y-115359417D01*
X135938417Y-115377624D01*
X135915704Y-115389196D01*
X135883697Y-115399136D01*
X135880954Y-115399497D01*
X135880943Y-115399500D01*
X135728216Y-115440423D01*
X135591284Y-115519480D01*
X135479480Y-115631284D01*
X135400423Y-115768216D01*
X135359500Y-115920943D01*
X109312562Y-115920943D01*
X109138017Y-115768216D01*
X107845843Y-114637563D01*
X107843417Y-114635368D01*
X107841028Y-114633134D01*
X107838642Y-114630828D01*
X107807315Y-114599501D01*
X107807310Y-114599497D01*
X107805266Y-114598317D01*
X107797149Y-114593086D01*
X107789643Y-114587713D01*
X107783248Y-114582291D01*
X107779994Y-114579946D01*
X107779993Y-114579945D01*
X107779991Y-114579944D01*
X107779976Y-114579936D01*
X107756462Y-114568372D01*
X107731162Y-114543779D01*
X107690918Y-114532999D01*
X107681723Y-114530048D01*
X107672706Y-114526660D01*
X107663858Y-114522834D01*
X107661736Y-114521790D01*
X107661734Y-114521789D01*
X107661733Y-114521789D01*
X107618298Y-114513200D01*
X107615062Y-114512504D01*
X107611831Y-114511752D01*
X107608653Y-114510956D01*
X107565896Y-114499500D01*
X107565893Y-114499500D01*
X107565892Y-114499500D01*
X107563550Y-114499500D01*
X107553900Y-114499029D01*
X107544313Y-114498090D01*
X107534757Y-114496680D01*
X107532457Y-114496225D01*
X107532455Y-114496225D01*
X107532454Y-114496225D01*
X107531354Y-114496298D01*
X107511543Y-114497618D01*
X107511544Y-114497619D01*
X107488243Y-114499172D01*
X107484962Y-114499336D01*
X107481672Y-114499445D01*
X107478395Y-114499500D01*
X88115180Y-114499500D01*
X88084587Y-114494654D01*
X88071901Y-114490532D01*
X88022401Y-114454568D01*
X88022394Y-114454558D01*
X88019400Y-114450436D01*
X88000500Y-114392256D01*
X88000500Y-105825433D01*
X108549500Y-105825433D01*
X108549500Y-106074566D01*
X108576794Y-106281888D01*
X108581170Y-106315123D01*
X108581170Y-106315129D01*
X108582016Y-106321559D01*
X108621480Y-106468841D01*
X108646496Y-106562199D01*
X108646500Y-106562212D01*
X108669457Y-106617636D01*
X108741827Y-106792355D01*
X108741843Y-106792386D01*
X108802197Y-106896922D01*
X108866401Y-107008127D01*
X108866403Y-107008130D01*
X109018056Y-107205769D01*
X109018058Y-107205771D01*
X109018062Y-107205776D01*
X109194224Y-107381938D01*
X109194228Y-107381941D01*
X109194233Y-107381946D01*
X109194255Y-107381965D01*
X109194602Y-107382228D01*
X109372026Y-107518370D01*
X109391873Y-107533599D01*
X109607627Y-107658164D01*
X109607633Y-107658166D01*
X109607634Y-107658167D01*
X109645231Y-107673740D01*
X109837793Y-107753502D01*
X110078435Y-107817982D01*
X110325435Y-107850500D01*
X110325436Y-107850500D01*
X110574564Y-107850500D01*
X110574565Y-107850500D01*
X110821565Y-107817982D01*
X111062207Y-107753502D01*
X111292373Y-107658164D01*
X111508127Y-107533599D01*
X111705776Y-107381938D01*
X111881938Y-107205776D01*
X112033599Y-107008127D01*
X112158164Y-106792373D01*
X112252205Y-106565337D01*
X112260638Y-106549310D01*
X112267401Y-106538895D01*
X112314949Y-106500388D01*
X112376050Y-106497183D01*
X112427366Y-106530505D01*
X112430739Y-106534670D01*
X112445660Y-106560741D01*
X112445857Y-106560660D01*
X112541829Y-106792359D01*
X112541843Y-106792386D01*
X112602197Y-106896922D01*
X112666401Y-107008127D01*
X112666403Y-107008130D01*
X112818056Y-107205769D01*
X112818058Y-107205771D01*
X112818062Y-107205776D01*
X112994224Y-107381938D01*
X112994228Y-107381941D01*
X112994233Y-107381946D01*
X112994255Y-107381965D01*
X112994602Y-107382228D01*
X113172026Y-107518370D01*
X113191873Y-107533599D01*
X113407627Y-107658164D01*
X113407633Y-107658166D01*
X113407634Y-107658167D01*
X113445231Y-107673740D01*
X113637793Y-107753502D01*
X113878435Y-107817982D01*
X114125435Y-107850500D01*
X114125436Y-107850500D01*
X114374564Y-107850500D01*
X114374565Y-107850500D01*
X114621565Y-107817982D01*
X114862207Y-107753502D01*
X115092373Y-107658164D01*
X115308127Y-107533599D01*
X115505776Y-107381938D01*
X115681938Y-107205776D01*
X115833599Y-107008127D01*
X115958164Y-106792373D01*
X116053502Y-106562207D01*
X116117982Y-106321565D01*
X116150500Y-106074565D01*
X116150500Y-105825435D01*
X116126947Y-105646529D01*
X127659500Y-105646529D01*
X127659500Y-105853469D01*
X127676796Y-105940423D01*
X127699121Y-106052660D01*
X127699869Y-106056417D01*
X127699869Y-106056419D01*
X127779056Y-106247594D01*
X127779057Y-106247596D01*
X127779058Y-106247597D01*
X127894020Y-106419651D01*
X127894023Y-106419655D01*
X128040345Y-106565977D01*
X128212402Y-106680941D01*
X128403580Y-106760130D01*
X128606535Y-106800500D01*
X128606536Y-106800500D01*
X128813464Y-106800500D01*
X128813465Y-106800500D01*
X129016420Y-106760130D01*
X129207598Y-106680941D01*
X129379655Y-106565977D01*
X129525977Y-106419655D01*
X129640941Y-106247598D01*
X129720130Y-106056420D01*
X129760500Y-105853465D01*
X129760500Y-105646535D01*
X129720130Y-105443580D01*
X129640941Y-105252402D01*
X129525977Y-105080345D01*
X129379655Y-104934023D01*
X129379651Y-104934020D01*
X129264738Y-104857238D01*
X129252232Y-104841375D01*
X129207604Y-104819061D01*
X129016416Y-104739868D01*
X128813469Y-104699500D01*
X128813467Y-104699500D01*
X128813465Y-104699500D01*
X128606535Y-104699500D01*
X128606532Y-104699500D01*
X128606529Y-104699500D01*
X128403581Y-104739869D01*
X128403579Y-104739869D01*
X128212404Y-104819056D01*
X128040351Y-104934017D01*
X127894017Y-105080351D01*
X127779056Y-105252404D01*
X127699869Y-105443579D01*
X127699869Y-105443581D01*
X127659500Y-105646529D01*
X116126947Y-105646529D01*
X116117982Y-105578435D01*
X116053502Y-105337793D01*
X115958164Y-105107627D01*
X115833599Y-104891873D01*
X115777726Y-104819058D01*
X115682249Y-104694629D01*
X115681965Y-104694255D01*
X115681946Y-104694233D01*
X115681941Y-104694228D01*
X115681938Y-104694224D01*
X115505776Y-104518062D01*
X115505771Y-104518058D01*
X115505769Y-104518056D01*
X115308130Y-104366403D01*
X115308127Y-104366401D01*
X115226215Y-104319109D01*
X115092386Y-104241843D01*
X115092377Y-104241838D01*
X115092373Y-104241836D01*
X115092369Y-104241834D01*
X115092365Y-104241832D01*
X115092363Y-104241831D01*
X115092359Y-104241829D01*
X114867825Y-104148825D01*
X114863946Y-104146932D01*
X114863039Y-104146706D01*
X114861427Y-104146289D01*
X114797799Y-104129240D01*
X114624429Y-104082785D01*
X114622230Y-104082125D01*
X114617170Y-104081304D01*
X114615126Y-104081170D01*
X114374567Y-104049500D01*
X114374566Y-104049500D01*
X114374565Y-104049500D01*
X114125435Y-104049500D01*
X114125433Y-104049500D01*
X114125432Y-104049500D01*
X113884876Y-104081170D01*
X113884864Y-104081170D01*
X113878439Y-104082016D01*
X113637792Y-104146498D01*
X113637777Y-104146504D01*
X113407641Y-104241828D01*
X113191862Y-104366407D01*
X112994233Y-104518053D01*
X112818053Y-104694233D01*
X112666407Y-104891862D01*
X112541829Y-105107638D01*
X112447794Y-105334662D01*
X112439355Y-105350701D01*
X112432593Y-105361112D01*
X112385040Y-105399614D01*
X112323938Y-105402812D01*
X112272627Y-105369486D01*
X112269304Y-105365382D01*
X112255245Y-105340137D01*
X112254586Y-105340410D01*
X112158166Y-105107631D01*
X112142414Y-105080348D01*
X112033599Y-104891873D01*
X111977726Y-104819058D01*
X111882249Y-104694629D01*
X111881965Y-104694255D01*
X111881946Y-104694233D01*
X111881941Y-104694228D01*
X111881938Y-104694224D01*
X111705776Y-104518062D01*
X111705771Y-104518058D01*
X111705769Y-104518056D01*
X111508130Y-104366403D01*
X111508127Y-104366401D01*
X111426215Y-104319109D01*
X111292386Y-104241843D01*
X111292377Y-104241838D01*
X111292373Y-104241836D01*
X111292369Y-104241834D01*
X111292365Y-104241832D01*
X111292363Y-104241831D01*
X111292359Y-104241829D01*
X111067825Y-104148825D01*
X111063946Y-104146932D01*
X111063039Y-104146706D01*
X111061427Y-104146289D01*
X110997799Y-104129240D01*
X110824429Y-104082785D01*
X110822230Y-104082125D01*
X110817170Y-104081304D01*
X110815126Y-104081170D01*
X110574567Y-104049500D01*
X110574566Y-104049500D01*
X110574565Y-104049500D01*
X110325435Y-104049500D01*
X110325433Y-104049500D01*
X110325432Y-104049500D01*
X110084876Y-104081170D01*
X110084864Y-104081170D01*
X110078439Y-104082016D01*
X109837792Y-104146498D01*
X109837777Y-104146504D01*
X109607641Y-104241828D01*
X109391862Y-104366407D01*
X109194233Y-104518053D01*
X109018053Y-104694233D01*
X108866407Y-104891862D01*
X108741828Y-105107641D01*
X108646504Y-105337777D01*
X108646498Y-105337792D01*
X108582016Y-105578439D01*
X108581170Y-105584870D01*
X108581170Y-105584875D01*
X108549500Y-105825433D01*
X88000500Y-105825433D01*
X88000500Y-93325435D01*
X108549500Y-93325435D01*
X108549500Y-93328190D01*
X108549500Y-93574566D01*
X108580404Y-93809308D01*
X108581170Y-93815125D01*
X108581304Y-93817170D01*
X108582125Y-93822230D01*
X108582785Y-93824429D01*
X108638832Y-94033599D01*
X108638832Y-94033600D01*
X108646492Y-94062188D01*
X108646495Y-94062196D01*
X108646496Y-94062199D01*
X108646500Y-94062212D01*
X108646504Y-94062221D01*
X108741827Y-94292355D01*
X108741835Y-94292371D01*
X108850461Y-94480518D01*
X108866401Y-94508127D01*
X108866405Y-94508133D01*
X108952867Y-94620813D01*
X109018056Y-94705769D01*
X109018058Y-94705771D01*
X109018062Y-94705776D01*
X109194224Y-94881938D01*
X109194228Y-94881941D01*
X109194233Y-94881946D01*
X109194255Y-94881965D01*
X109194629Y-94882249D01*
X109322699Y-94980520D01*
X109391873Y-95033599D01*
X109607627Y-95158164D01*
X109837793Y-95253502D01*
X110078435Y-95317982D01*
X110325435Y-95350500D01*
X110325436Y-95350500D01*
X110574564Y-95350500D01*
X110574565Y-95350500D01*
X110821565Y-95317982D01*
X111062207Y-95253502D01*
X111292373Y-95158164D01*
X111508127Y-95033599D01*
X111705776Y-94881938D01*
X111881938Y-94705776D01*
X112033599Y-94508127D01*
X112158164Y-94292373D01*
X112252205Y-94065337D01*
X112260638Y-94049310D01*
X112267401Y-94038895D01*
X112314949Y-94000388D01*
X112376050Y-93997183D01*
X112427366Y-94030505D01*
X112430739Y-94034670D01*
X112445660Y-94060741D01*
X112445857Y-94060660D01*
X112541829Y-94292359D01*
X112541835Y-94292371D01*
X112650461Y-94480518D01*
X112666401Y-94508127D01*
X112666405Y-94508133D01*
X112752867Y-94620813D01*
X112818056Y-94705769D01*
X112818058Y-94705771D01*
X112818062Y-94705776D01*
X112994224Y-94881938D01*
X112994228Y-94881941D01*
X112994233Y-94881946D01*
X112994255Y-94881965D01*
X112994629Y-94882249D01*
X113122699Y-94980520D01*
X113191873Y-95033599D01*
X113407627Y-95158164D01*
X113637793Y-95253502D01*
X113878435Y-95317982D01*
X114125435Y-95350500D01*
X114125436Y-95350500D01*
X114374564Y-95350500D01*
X114374565Y-95350500D01*
X114621565Y-95317982D01*
X114862207Y-95253502D01*
X115092373Y-95158164D01*
X115308127Y-95033599D01*
X115505776Y-94881938D01*
X115681938Y-94705776D01*
X115694659Y-94689197D01*
X124059500Y-94689197D01*
X124059500Y-94910801D01*
X124087577Y-95124066D01*
X124087577Y-95124071D01*
X124088423Y-95130502D01*
X124145778Y-95344556D01*
X124230585Y-95549298D01*
X124230624Y-95549376D01*
X124230990Y-95549996D01*
X124335214Y-95730519D01*
X124341387Y-95741210D01*
X124341388Y-95741211D01*
X124476279Y-95917006D01*
X124476282Y-95917009D01*
X124476284Y-95917011D01*
X124476288Y-95917016D01*
X124632984Y-96073712D01*
X124632988Y-96073715D01*
X124632993Y-96073720D01*
X124633015Y-96073739D01*
X124633362Y-96074002D01*
X124691633Y-96118715D01*
X124808792Y-96208615D01*
X124846789Y-96230552D01*
X124997978Y-96317840D01*
X124999361Y-96318700D01*
X125002135Y-96320240D01*
X125002592Y-96320503D01*
X125006695Y-96321896D01*
X125075750Y-96350500D01*
X125135258Y-96375149D01*
X125152761Y-96390098D01*
X125190874Y-96400315D01*
X125219158Y-96412911D01*
X125226082Y-96417407D01*
X125264583Y-96464959D01*
X125267781Y-96526061D01*
X125234459Y-96577368D01*
X125229459Y-96581417D01*
X125205042Y-96595944D01*
X125000715Y-96680578D01*
X124808785Y-96791389D01*
X124632996Y-96926276D01*
X124476276Y-97082996D01*
X124341389Y-97258785D01*
X124230577Y-97450718D01*
X124145779Y-97655439D01*
X124088423Y-97869496D01*
X124087577Y-97875928D01*
X124087577Y-97875932D01*
X124059500Y-98089197D01*
X124059500Y-98310802D01*
X124074000Y-98420942D01*
X124087577Y-98524066D01*
X124087577Y-98524071D01*
X124088423Y-98530502D01*
X124145778Y-98744556D01*
X124230585Y-98949298D01*
X124230625Y-98949376D01*
X124231009Y-98950029D01*
X124270375Y-99018216D01*
X124341385Y-99141207D01*
X124476279Y-99317006D01*
X124476282Y-99317009D01*
X124476284Y-99317011D01*
X124476288Y-99317016D01*
X124632984Y-99473712D01*
X124632988Y-99473715D01*
X124633005Y-99473732D01*
X124633379Y-99474016D01*
X124719058Y-99539759D01*
X124808789Y-99608612D01*
X124808793Y-99608615D01*
X124997978Y-99717840D01*
X124999365Y-99718702D01*
X125002135Y-99720240D01*
X125002591Y-99720503D01*
X125006691Y-99721895D01*
X125027512Y-99730519D01*
X125027513Y-99730520D01*
X125027514Y-99730520D01*
X125205441Y-99804220D01*
X125419492Y-99861575D01*
X125639199Y-99890500D01*
X125639200Y-99890500D01*
X125860800Y-99890500D01*
X125860801Y-99890500D01*
X126080508Y-99861575D01*
X126294559Y-99804220D01*
X126499293Y-99719416D01*
X126691207Y-99608615D01*
X126867016Y-99473712D01*
X127023712Y-99317016D01*
X127158615Y-99141207D01*
X127269416Y-98949293D01*
X127354220Y-98744559D01*
X127411575Y-98530508D01*
X127440500Y-98310801D01*
X127440500Y-98089199D01*
X127411575Y-97869492D01*
X127354220Y-97655441D01*
X127269416Y-97450707D01*
X127158615Y-97258793D01*
X127158609Y-97258785D01*
X127023717Y-97082990D01*
X127023715Y-97082988D01*
X127023712Y-97082984D01*
X126867016Y-96926288D01*
X126867011Y-96926284D01*
X126867009Y-96926282D01*
X126867006Y-96926279D01*
X126691213Y-96791389D01*
X126499283Y-96680578D01*
X126302039Y-96598878D01*
X126286013Y-96590447D01*
X126273929Y-96582601D01*
X126235420Y-96535054D01*
X126232212Y-96473953D01*
X126265531Y-96422637D01*
X126270541Y-96418579D01*
X126294953Y-96404057D01*
X126499288Y-96319418D01*
X126499287Y-96319418D01*
X126499293Y-96319416D01*
X126691207Y-96208615D01*
X126867016Y-96073712D01*
X127023712Y-95917016D01*
X127158615Y-95741207D01*
X127269416Y-95549293D01*
X127354220Y-95344559D01*
X127411575Y-95130508D01*
X127440500Y-94910801D01*
X127440500Y-94689199D01*
X127440500Y-94689197D01*
X133979500Y-94689197D01*
X133979500Y-94910801D01*
X134007577Y-95124066D01*
X134007577Y-95124071D01*
X134008423Y-95130502D01*
X134065778Y-95344556D01*
X134150585Y-95549298D01*
X134150624Y-95549376D01*
X134150990Y-95549996D01*
X134255214Y-95730519D01*
X134261387Y-95741210D01*
X134261388Y-95741211D01*
X134396279Y-95917006D01*
X134396282Y-95917009D01*
X134396284Y-95917011D01*
X134396288Y-95917016D01*
X134552984Y-96073712D01*
X134552988Y-96073715D01*
X134552993Y-96073720D01*
X134553015Y-96073739D01*
X134553362Y-96074002D01*
X134611633Y-96118715D01*
X134728792Y-96208615D01*
X134766789Y-96230552D01*
X134917978Y-96317840D01*
X134919361Y-96318700D01*
X134922135Y-96320240D01*
X134922592Y-96320503D01*
X134926695Y-96321896D01*
X134995750Y-96350500D01*
X135055258Y-96375149D01*
X135072761Y-96390098D01*
X135110874Y-96400315D01*
X135139158Y-96412911D01*
X135146082Y-96417407D01*
X135184583Y-96464959D01*
X135187781Y-96526061D01*
X135154459Y-96577368D01*
X135149459Y-96581417D01*
X135125042Y-96595944D01*
X134920715Y-96680578D01*
X134728785Y-96791389D01*
X134552996Y-96926276D01*
X134396276Y-97082996D01*
X134261389Y-97258785D01*
X134150577Y-97450718D01*
X134065779Y-97655439D01*
X134008423Y-97869496D01*
X134007577Y-97875928D01*
X134007577Y-97875932D01*
X133979500Y-98089197D01*
X133979500Y-98310802D01*
X133994000Y-98420942D01*
X134007577Y-98524066D01*
X134007577Y-98524071D01*
X134008423Y-98530502D01*
X134065778Y-98744556D01*
X134150585Y-98949298D01*
X134150625Y-98949376D01*
X134151009Y-98950029D01*
X134190375Y-99018216D01*
X134261385Y-99141207D01*
X134396279Y-99317006D01*
X134396282Y-99317009D01*
X134396284Y-99317011D01*
X134396288Y-99317016D01*
X134552984Y-99473712D01*
X134552988Y-99473715D01*
X134553005Y-99473732D01*
X134553379Y-99474016D01*
X134639058Y-99539759D01*
X134728789Y-99608612D01*
X134728793Y-99608615D01*
X134917978Y-99717840D01*
X134919365Y-99718702D01*
X134922135Y-99720240D01*
X134922591Y-99720503D01*
X134926691Y-99721895D01*
X134947512Y-99730519D01*
X134947513Y-99730520D01*
X134947514Y-99730520D01*
X135125441Y-99804220D01*
X135339492Y-99861575D01*
X135559199Y-99890500D01*
X135559200Y-99890500D01*
X135780800Y-99890500D01*
X135780801Y-99890500D01*
X136000508Y-99861575D01*
X136214559Y-99804220D01*
X136419293Y-99719416D01*
X136611207Y-99608615D01*
X136787016Y-99473712D01*
X136943712Y-99317016D01*
X137078615Y-99141207D01*
X137189416Y-98949293D01*
X137274220Y-98744559D01*
X137331575Y-98530508D01*
X137360500Y-98310801D01*
X137360500Y-98089199D01*
X137331575Y-97869492D01*
X137274220Y-97655441D01*
X137189416Y-97450707D01*
X137078615Y-97258793D01*
X137078609Y-97258785D01*
X136943717Y-97082990D01*
X136943715Y-97082988D01*
X136943712Y-97082984D01*
X136787016Y-96926288D01*
X136787011Y-96926284D01*
X136787009Y-96926282D01*
X136787006Y-96926279D01*
X136611213Y-96791389D01*
X136419283Y-96680578D01*
X136222039Y-96598878D01*
X136206013Y-96590447D01*
X136193929Y-96582601D01*
X136155420Y-96535054D01*
X136152212Y-96473953D01*
X136185531Y-96422637D01*
X136190541Y-96418579D01*
X136214953Y-96404057D01*
X136419288Y-96319418D01*
X136419287Y-96319418D01*
X136419293Y-96319416D01*
X136611207Y-96208615D01*
X136787016Y-96073712D01*
X136943712Y-95917016D01*
X137078615Y-95741207D01*
X137189416Y-95549293D01*
X137274220Y-95344559D01*
X137331575Y-95130508D01*
X137360500Y-94910801D01*
X137360500Y-94689199D01*
X137331575Y-94469492D01*
X137274220Y-94255441D01*
X137264421Y-94231784D01*
X137263922Y-94230580D01*
X137211382Y-94103738D01*
X137189418Y-94050711D01*
X137189417Y-94050710D01*
X137189415Y-94050704D01*
X137188489Y-94049101D01*
X137188489Y-94049102D01*
X137188488Y-94049100D01*
X137078615Y-93858793D01*
X137061940Y-93837062D01*
X137009113Y-93768216D01*
X136943953Y-93683298D01*
X136943736Y-93683011D01*
X136943720Y-93682993D01*
X136943715Y-93682988D01*
X136943712Y-93682984D01*
X136787016Y-93526288D01*
X136787011Y-93526284D01*
X136787009Y-93526282D01*
X136787006Y-93526279D01*
X136611213Y-93391389D01*
X136611210Y-93391387D01*
X136419288Y-93280581D01*
X136419284Y-93280579D01*
X136419280Y-93280577D01*
X136214559Y-93195779D01*
X136068356Y-93156605D01*
X136003374Y-93139193D01*
X136001173Y-93138532D01*
X135996113Y-93137711D01*
X135994069Y-93137577D01*
X135780802Y-93109500D01*
X135780801Y-93109500D01*
X135559199Y-93109500D01*
X135559198Y-93109500D01*
X135559197Y-93109500D01*
X135430777Y-93126407D01*
X135380038Y-93133087D01*
X135345933Y-93137577D01*
X135345923Y-93137577D01*
X135339496Y-93138423D01*
X135125439Y-93195779D01*
X134920718Y-93280577D01*
X134728785Y-93391389D01*
X134552996Y-93526276D01*
X134396276Y-93682996D01*
X134261389Y-93858785D01*
X134150577Y-94050718D01*
X134065779Y-94255439D01*
X134008423Y-94469496D01*
X134007577Y-94475928D01*
X134007577Y-94475932D01*
X133979500Y-94689197D01*
X127440500Y-94689197D01*
X127411575Y-94469492D01*
X127354220Y-94255441D01*
X127344421Y-94231784D01*
X127343922Y-94230580D01*
X127291382Y-94103738D01*
X127269418Y-94050711D01*
X127269417Y-94050710D01*
X127269415Y-94050704D01*
X127268489Y-94049101D01*
X127268489Y-94049102D01*
X127268488Y-94049100D01*
X127158615Y-93858793D01*
X127141940Y-93837062D01*
X127089113Y-93768216D01*
X127023953Y-93683298D01*
X127023736Y-93683011D01*
X127023720Y-93682993D01*
X127023715Y-93682988D01*
X127023712Y-93682984D01*
X126867016Y-93526288D01*
X126867011Y-93526284D01*
X126867009Y-93526282D01*
X126867006Y-93526279D01*
X126691213Y-93391389D01*
X126691210Y-93391387D01*
X126499288Y-93280581D01*
X126499284Y-93280579D01*
X126499280Y-93280577D01*
X126294559Y-93195779D01*
X126148356Y-93156605D01*
X126083374Y-93139193D01*
X126081173Y-93138532D01*
X126076113Y-93137711D01*
X126074069Y-93137577D01*
X125860802Y-93109500D01*
X125860801Y-93109500D01*
X125639199Y-93109500D01*
X125639198Y-93109500D01*
X125639197Y-93109500D01*
X125510777Y-93126407D01*
X125460038Y-93133087D01*
X125425933Y-93137577D01*
X125425923Y-93137577D01*
X125419496Y-93138423D01*
X125205439Y-93195779D01*
X125000718Y-93280577D01*
X124808785Y-93391389D01*
X124632996Y-93526276D01*
X124476276Y-93682996D01*
X124341389Y-93858785D01*
X124230577Y-94050718D01*
X124145779Y-94255439D01*
X124088423Y-94469496D01*
X124087577Y-94475928D01*
X124087577Y-94475932D01*
X124059500Y-94689197D01*
X115694659Y-94689197D01*
X115706407Y-94673887D01*
X115733208Y-94638958D01*
X115743393Y-94625688D01*
X115743395Y-94625685D01*
X115794325Y-94559310D01*
X115794326Y-94559309D01*
X115833594Y-94508133D01*
X115833599Y-94508127D01*
X115958164Y-94292373D01*
X116053502Y-94062207D01*
X116117982Y-93821565D01*
X116150500Y-93574565D01*
X116150500Y-93325435D01*
X116117982Y-93078435D01*
X116053502Y-92837793D01*
X115958164Y-92607627D01*
X115833599Y-92391873D01*
X115833596Y-92391869D01*
X115682249Y-92194629D01*
X115681965Y-92194255D01*
X115681946Y-92194233D01*
X115681941Y-92194228D01*
X115681938Y-92194224D01*
X115505776Y-92018062D01*
X115505771Y-92018058D01*
X115505769Y-92018056D01*
X115308130Y-91866403D01*
X115308127Y-91866401D01*
X115213390Y-91811705D01*
X115092386Y-91741843D01*
X115092377Y-91741838D01*
X115092373Y-91741836D01*
X115092369Y-91741834D01*
X115092365Y-91741832D01*
X115092363Y-91741831D01*
X115092359Y-91741829D01*
X114867825Y-91648825D01*
X114863946Y-91646932D01*
X114863039Y-91646706D01*
X114861427Y-91646289D01*
X114624431Y-91582786D01*
X114622230Y-91582125D01*
X114617170Y-91581304D01*
X114615126Y-91581170D01*
X114374567Y-91549500D01*
X114374566Y-91549500D01*
X114374565Y-91549500D01*
X114125435Y-91549500D01*
X114125433Y-91549500D01*
X114125432Y-91549500D01*
X113884876Y-91581170D01*
X113884864Y-91581170D01*
X113878439Y-91582016D01*
X113637792Y-91646498D01*
X113637777Y-91646504D01*
X113407641Y-91741828D01*
X113191862Y-91866407D01*
X112994233Y-92018053D01*
X112818053Y-92194233D01*
X112666407Y-92391862D01*
X112541829Y-92607638D01*
X112447794Y-92834662D01*
X112439355Y-92850701D01*
X112432593Y-92861112D01*
X112385040Y-92899614D01*
X112323938Y-92902812D01*
X112272627Y-92869486D01*
X112269304Y-92865382D01*
X112255245Y-92840137D01*
X112254586Y-92840410D01*
X112158166Y-92607631D01*
X112139076Y-92574566D01*
X112033599Y-92391873D01*
X112033596Y-92391869D01*
X111882249Y-92194629D01*
X111881965Y-92194255D01*
X111881946Y-92194233D01*
X111881941Y-92194228D01*
X111881938Y-92194224D01*
X111705776Y-92018062D01*
X111705771Y-92018058D01*
X111705769Y-92018056D01*
X111508130Y-91866403D01*
X111508127Y-91866401D01*
X111413390Y-91811705D01*
X111292386Y-91741843D01*
X111292377Y-91741838D01*
X111292373Y-91741836D01*
X111292369Y-91741834D01*
X111292365Y-91741832D01*
X111292363Y-91741831D01*
X111292359Y-91741829D01*
X111067825Y-91648825D01*
X111063946Y-91646932D01*
X111063039Y-91646706D01*
X111061427Y-91646289D01*
X110824431Y-91582786D01*
X110822230Y-91582125D01*
X110817170Y-91581304D01*
X110815126Y-91581170D01*
X110574567Y-91549500D01*
X110574566Y-91549500D01*
X110574565Y-91549500D01*
X110325435Y-91549500D01*
X110325433Y-91549500D01*
X110325432Y-91549500D01*
X110084876Y-91581170D01*
X110084864Y-91581170D01*
X110078439Y-91582016D01*
X109837792Y-91646498D01*
X109837777Y-91646504D01*
X109607641Y-91741828D01*
X109391862Y-91866407D01*
X109194233Y-92018053D01*
X109018053Y-92194233D01*
X108866407Y-92391862D01*
X108741828Y-92607641D01*
X108646504Y-92837777D01*
X108646498Y-92837792D01*
X108582016Y-93078439D01*
X108581170Y-93084870D01*
X108581170Y-93084875D01*
X108560326Y-93243208D01*
X108553853Y-93292373D01*
X108549500Y-93325435D01*
X88000500Y-93325435D01*
X88000500Y-87875431D01*
X132312000Y-87875431D01*
X132312000Y-88124566D01*
X132343670Y-88365123D01*
X132343804Y-88367172D01*
X132344625Y-88372230D01*
X132345285Y-88374429D01*
X132400115Y-88579057D01*
X132400115Y-88579058D01*
X132404242Y-88594458D01*
X132408996Y-88612199D01*
X132409000Y-88612212D01*
X132409004Y-88612221D01*
X132504327Y-88842355D01*
X132504343Y-88842386D01*
X132519544Y-88868715D01*
X132628901Y-89058127D01*
X132628903Y-89058130D01*
X132780556Y-89255769D01*
X132780558Y-89255771D01*
X132780562Y-89255776D01*
X132956724Y-89431938D01*
X132956728Y-89431941D01*
X132956733Y-89431946D01*
X132956755Y-89431965D01*
X132957129Y-89432249D01*
X133154369Y-89583596D01*
X133154373Y-89583599D01*
X133370127Y-89708164D01*
X133600293Y-89803502D01*
X133840935Y-89867982D01*
X134087935Y-89900500D01*
X134087936Y-89900500D01*
X134337064Y-89900500D01*
X134337065Y-89900500D01*
X134584065Y-89867982D01*
X134824707Y-89803502D01*
X135054873Y-89708164D01*
X135270627Y-89583599D01*
X135468276Y-89431938D01*
X135644438Y-89255776D01*
X135796099Y-89058127D01*
X135920664Y-88842373D01*
X136016002Y-88612207D01*
X136067251Y-88420943D01*
X144359500Y-88420943D01*
X144359500Y-88579057D01*
X144400423Y-88731784D01*
X144479480Y-88868716D01*
X144591284Y-88980520D01*
X144728216Y-89059577D01*
X144880943Y-89100500D01*
X144880945Y-89100500D01*
X145039055Y-89100500D01*
X145039057Y-89100500D01*
X145191784Y-89059577D01*
X145328716Y-88980520D01*
X145328718Y-88980517D01*
X145333891Y-88977531D01*
X145338426Y-88975068D01*
X145365475Y-88961287D01*
X145410415Y-88950500D01*
X158125609Y-88950500D01*
X158156201Y-88955345D01*
X158164040Y-88957892D01*
X158213540Y-88993856D01*
X158232448Y-89052046D01*
X158213549Y-89110226D01*
X158211073Y-89113635D01*
X158187796Y-89134597D01*
X158188535Y-89135560D01*
X158183392Y-89139505D01*
X156313479Y-91009417D01*
X156288422Y-91027621D01*
X156266664Y-91038708D01*
X156221717Y-91049500D01*
X146915423Y-91049500D01*
X146884829Y-91044654D01*
X146860584Y-91036776D01*
X146830914Y-91021166D01*
X146828720Y-91019482D01*
X146740542Y-90968572D01*
X146716475Y-90949084D01*
X146713832Y-90946149D01*
X146708853Y-90940619D01*
X146683965Y-90884727D01*
X146696682Y-90824882D01*
X146699130Y-90820641D01*
X146735357Y-90784419D01*
X146828716Y-90730520D01*
X146940520Y-90618716D01*
X147019577Y-90481784D01*
X147060500Y-90329057D01*
X147060500Y-90170943D01*
X147019577Y-90018216D01*
X146940520Y-89881284D01*
X146828716Y-89769480D01*
X146691784Y-89690423D01*
X146539057Y-89649500D01*
X146539055Y-89649500D01*
X146380945Y-89649500D01*
X146380943Y-89649500D01*
X146228216Y-89690423D01*
X146091284Y-89769480D01*
X145979480Y-89881284D01*
X145900423Y-90018215D01*
X145894804Y-90039185D01*
X145862786Y-90158685D01*
X145862785Y-90158687D01*
X145862783Y-90158693D01*
X145857959Y-90176692D01*
X145856488Y-90181656D01*
X145847107Y-90210527D01*
X145822957Y-90249937D01*
X145349515Y-90723380D01*
X145349507Y-90723389D01*
X145349504Y-90723393D01*
X145290199Y-90826111D01*
X145286829Y-90838689D01*
X145286827Y-90838707D01*
X145278787Y-90868715D01*
X145278786Y-90868717D01*
X145259500Y-90940692D01*
X145259500Y-92309308D01*
X145261356Y-92316234D01*
X145261355Y-92316241D01*
X145281619Y-92391862D01*
X145290201Y-92423888D01*
X145290202Y-92423890D01*
X145349507Y-92526609D01*
X145349509Y-92526611D01*
X145349511Y-92526614D01*
X145683386Y-92860489D01*
X145742696Y-92894731D01*
X145786114Y-92919799D01*
X145851624Y-92937352D01*
X145902936Y-92970675D01*
X145924863Y-93027796D01*
X145909028Y-93086897D01*
X145861478Y-93125402D01*
X145836121Y-93131459D01*
X145820315Y-93133083D01*
X145820291Y-93133087D01*
X145768752Y-93144046D01*
X145768746Y-93144047D01*
X145730498Y-93154822D01*
X145633321Y-93211042D01*
X145633318Y-93211044D01*
X145606808Y-93233796D01*
X145580296Y-93256551D01*
X145580286Y-93256560D01*
X145537913Y-93301077D01*
X145537908Y-93301085D01*
X145486553Y-93400914D01*
X145486549Y-93400925D01*
X145466551Y-93467860D01*
X145466551Y-93467861D01*
X145466551Y-93467863D01*
X145458376Y-93522878D01*
X145453769Y-93553878D01*
X145405089Y-103875494D01*
X145411930Y-103941235D01*
X145423161Y-103993393D01*
X145434299Y-104032350D01*
X145434300Y-104032351D01*
X145491021Y-104129240D01*
X145536799Y-104182024D01*
X145581558Y-104224187D01*
X145681658Y-104275028D01*
X145748707Y-104294682D01*
X145834779Y-104307017D01*
X152863417Y-104303859D01*
X152929079Y-104296689D01*
X152981133Y-104285208D01*
X153020008Y-104273886D01*
X153116619Y-104216693D01*
X153169179Y-104170658D01*
X153169185Y-104170652D01*
X153169187Y-104170650D01*
X153207816Y-104129240D01*
X153211119Y-104125699D01*
X153261472Y-104025353D01*
X153280800Y-103958210D01*
X153292718Y-103872077D01*
X153238069Y-93586282D01*
X153231072Y-93522878D01*
X153220110Y-93472558D01*
X153209655Y-93435797D01*
X153153434Y-93338617D01*
X153107929Y-93285598D01*
X153063394Y-93243209D01*
X153063393Y-93243208D01*
X152963562Y-93191852D01*
X152963554Y-93191849D01*
X152896614Y-93171850D01*
X152875110Y-93168654D01*
X152810601Y-93159068D01*
X150569507Y-93148498D01*
X150511408Y-93129317D01*
X150475678Y-93079648D01*
X150475967Y-93018464D01*
X150512164Y-92969134D01*
X150569976Y-92950500D01*
X155976288Y-92950500D01*
X156006879Y-92955345D01*
X156017279Y-92958724D01*
X156066780Y-92994687D01*
X156085688Y-93052878D01*
X156071098Y-93104609D01*
X156068092Y-93109514D01*
X156053687Y-93127787D01*
X156032976Y-93148499D01*
X156019490Y-93161985D01*
X156019487Y-93161988D01*
X156019485Y-93161991D01*
X156019482Y-93161995D01*
X155999978Y-93195779D01*
X155999977Y-93195781D01*
X155947017Y-93287508D01*
X155933323Y-93338617D01*
X155916628Y-93400925D01*
X155909500Y-93427526D01*
X155909500Y-93875415D01*
X155904652Y-93906015D01*
X155902104Y-93913855D01*
X155866137Y-93963352D01*
X155807945Y-93982255D01*
X155749762Y-93963348D01*
X155746354Y-93960872D01*
X155718808Y-93930280D01*
X155690900Y-93881943D01*
X155690872Y-93881895D01*
X155690520Y-93881284D01*
X155578716Y-93769480D01*
X155441784Y-93690423D01*
X155289057Y-93649500D01*
X155289055Y-93649500D01*
X155130945Y-93649500D01*
X155130943Y-93649500D01*
X154978216Y-93690423D01*
X154841284Y-93769480D01*
X154729480Y-93881284D01*
X154650423Y-94018215D01*
X154612925Y-94158164D01*
X154612922Y-94158172D01*
X154607956Y-94176699D01*
X154606487Y-94181659D01*
X154597108Y-94210526D01*
X154572957Y-94249938D01*
X153599507Y-95223389D01*
X153599503Y-95223394D01*
X153540199Y-95326111D01*
X153536829Y-95338690D01*
X153536827Y-95338705D01*
X153535260Y-95344556D01*
X153509500Y-95440693D01*
X153509500Y-108756708D01*
X153504654Y-108787301D01*
X153497107Y-108810528D01*
X153472957Y-108849939D01*
X151563479Y-110759417D01*
X151538422Y-110777621D01*
X151516664Y-110788708D01*
X151471717Y-110799500D01*
X148915423Y-110799500D01*
X148884829Y-110794654D01*
X148860584Y-110786776D01*
X148830914Y-110771166D01*
X148828723Y-110769484D01*
X148811286Y-110759417D01*
X148691784Y-110690423D01*
X148539057Y-110649500D01*
X148539055Y-110649500D01*
X148380945Y-110649500D01*
X148380943Y-110649500D01*
X148228216Y-110690423D01*
X148091284Y-110769480D01*
X147979480Y-110881284D01*
X147900423Y-111018216D01*
X147859500Y-111170943D01*
X147859500Y-111329057D01*
X147900423Y-111481784D01*
X147979480Y-111618716D01*
X148091284Y-111730520D01*
X148228216Y-111809577D01*
X148380943Y-111850500D01*
X148380945Y-111850500D01*
X148539055Y-111850500D01*
X148539057Y-111850500D01*
X148691784Y-111809577D01*
X148828716Y-111730520D01*
X148828718Y-111730517D01*
X148833891Y-111727531D01*
X148838426Y-111725068D01*
X148865475Y-111711287D01*
X148910415Y-111700500D01*
X151769308Y-111700500D01*
X151769309Y-111700500D01*
X151853413Y-111677963D01*
X151853415Y-111677963D01*
X151856522Y-111677130D01*
X151859669Y-111676287D01*
X151859672Y-111676287D01*
X151872887Y-111672745D01*
X151872906Y-111672746D01*
X151872905Y-111672740D01*
X151883887Y-111669799D01*
X151986614Y-111610489D01*
X153707840Y-109889261D01*
X153732899Y-109871057D01*
X153743049Y-109865886D01*
X153803481Y-109856318D01*
X153857993Y-109884094D01*
X153861438Y-109887539D01*
X153887060Y-109931919D01*
X153897047Y-109969190D01*
X153897384Y-109971749D01*
X153900537Y-109982163D01*
X153902011Y-109984537D01*
X153979478Y-110118713D01*
X153979480Y-110118716D01*
X154091284Y-110230520D01*
X154228216Y-110309577D01*
X154380943Y-110350500D01*
X154380945Y-110350500D01*
X154539055Y-110350500D01*
X154539057Y-110350500D01*
X154691784Y-110309577D01*
X154828716Y-110230520D01*
X154831460Y-110227775D01*
X154851965Y-110212038D01*
X154873780Y-110199442D01*
X154897646Y-110189556D01*
X154951304Y-110175180D01*
X154971387Y-110169799D01*
X155074114Y-110110489D01*
X155129411Y-110055190D01*
X155154469Y-110036985D01*
X155164217Y-110032018D01*
X155224650Y-110022452D01*
X155279164Y-110050233D01*
X155305418Y-110097109D01*
X155306762Y-110102704D01*
X155309500Y-110125827D01*
X155309500Y-110644575D01*
X155304654Y-110675169D01*
X155297107Y-110698395D01*
X155272957Y-110737804D01*
X155229483Y-110781277D01*
X155229484Y-110781278D01*
X155228546Y-110782215D01*
X155226236Y-110786901D01*
X155150423Y-110918214D01*
X155136278Y-110971005D01*
X155109500Y-111070943D01*
X155109500Y-111229057D01*
X155150423Y-111381784D01*
X155229480Y-111518716D01*
X155341284Y-111630520D01*
X155478216Y-111709577D01*
X155533131Y-111724291D01*
X155561422Y-111736887D01*
X155572608Y-111744151D01*
X155611112Y-111791697D01*
X155615072Y-111802012D01*
X155621649Y-111837494D01*
X155621649Y-111843636D01*
X155662572Y-111996363D01*
X155728660Y-112110833D01*
X155731125Y-112115373D01*
X155750914Y-112154212D01*
X155760485Y-112214644D01*
X155732707Y-112269160D01*
X155685827Y-112295418D01*
X155680232Y-112296762D01*
X155657109Y-112299500D01*
X146400691Y-112299500D01*
X146372046Y-112307175D01*
X146343401Y-112314850D01*
X146343400Y-112314849D01*
X146286113Y-112330200D01*
X146286108Y-112330202D01*
X146200421Y-112379672D01*
X146200419Y-112379675D01*
X146183390Y-112389507D01*
X144599503Y-113973394D01*
X144540199Y-114076111D01*
X144536829Y-114088690D01*
X144536827Y-114088705D01*
X144530990Y-114110492D01*
X144509500Y-114190693D01*
X144509500Y-116794575D01*
X144504655Y-116825167D01*
X144496788Y-116849380D01*
X144480727Y-116877806D01*
X144481598Y-116878459D01*
X144476712Y-116884973D01*
X144474467Y-116889964D01*
X144400423Y-117018214D01*
X144384121Y-117079055D01*
X144359500Y-117170943D01*
X144359500Y-117329057D01*
X144400423Y-117481784D01*
X144479480Y-117618716D01*
X144591284Y-117730520D01*
X144728216Y-117809577D01*
X144880943Y-117850500D01*
X144880945Y-117850500D01*
X145039055Y-117850500D01*
X145039057Y-117850500D01*
X145191784Y-117809577D01*
X145328716Y-117730520D01*
X145440520Y-117618716D01*
X145519577Y-117481784D01*
X145560500Y-117329057D01*
X145560500Y-117170943D01*
X145519577Y-117018216D01*
X145441973Y-116883800D01*
X145439631Y-116879446D01*
X145438023Y-116876960D01*
X145437527Y-116876101D01*
X145435046Y-116871531D01*
X145421285Y-116844515D01*
X145410500Y-116799581D01*
X145410500Y-114493291D01*
X145415344Y-114462702D01*
X145417990Y-114454558D01*
X145422891Y-114439471D01*
X145447040Y-114400062D01*
X146606523Y-113240579D01*
X146631575Y-113222378D01*
X146653342Y-113211288D01*
X146698283Y-113200500D01*
X150125609Y-113200500D01*
X150156201Y-113205345D01*
X150164040Y-113207892D01*
X150213540Y-113243856D01*
X150232448Y-113302046D01*
X150213547Y-113360228D01*
X150211073Y-113363634D01*
X150187800Y-113384592D01*
X150188539Y-113385556D01*
X150183384Y-113389510D01*
X150183385Y-113389511D01*
X148870478Y-114702416D01*
X148845416Y-114720623D01*
X148826966Y-114730023D01*
X148780108Y-114740793D01*
X148778868Y-114740769D01*
X148761468Y-114738885D01*
X148705988Y-114727848D01*
X148705988Y-114727849D01*
X148563469Y-114699500D01*
X148563467Y-114699500D01*
X148563465Y-114699500D01*
X148356535Y-114699500D01*
X148356532Y-114699500D01*
X148356529Y-114699500D01*
X148153581Y-114739869D01*
X148153579Y-114739869D01*
X147962404Y-114819056D01*
X147790351Y-114934017D01*
X147644017Y-115080351D01*
X147529056Y-115252404D01*
X147449869Y-115443579D01*
X147449869Y-115443581D01*
X147409500Y-115646529D01*
X147409500Y-115853469D01*
X147428673Y-115949857D01*
X147443801Y-116025914D01*
X147449869Y-116056417D01*
X147449869Y-116056419D01*
X147529056Y-116247594D01*
X147529057Y-116247596D01*
X147529058Y-116247597D01*
X147630556Y-116399500D01*
X147644023Y-116419655D01*
X147790345Y-116565977D01*
X147962402Y-116680941D01*
X148153580Y-116760130D01*
X148356535Y-116800500D01*
X148356536Y-116800500D01*
X148563464Y-116800500D01*
X148563465Y-116800500D01*
X148766420Y-116760130D01*
X148957598Y-116680941D01*
X149129655Y-116565977D01*
X149275977Y-116419655D01*
X149390941Y-116247598D01*
X149470130Y-116056420D01*
X149510500Y-115853465D01*
X149510500Y-115646535D01*
X149510499Y-115646532D01*
X149510498Y-115646529D01*
X152409500Y-115646529D01*
X152409500Y-115853469D01*
X152428673Y-115949857D01*
X152443801Y-116025914D01*
X152449869Y-116056417D01*
X152449869Y-116056419D01*
X152529056Y-116247594D01*
X152529057Y-116247596D01*
X152529058Y-116247597D01*
X152630556Y-116399500D01*
X152644023Y-116419655D01*
X152790345Y-116565977D01*
X152962402Y-116680941D01*
X153153580Y-116760130D01*
X153356535Y-116800500D01*
X153356536Y-116800500D01*
X153563464Y-116800500D01*
X153563465Y-116800500D01*
X153766420Y-116760130D01*
X153957598Y-116680941D01*
X154129655Y-116565977D01*
X154275977Y-116419655D01*
X154390941Y-116247598D01*
X154470130Y-116056420D01*
X154510500Y-115853465D01*
X154510500Y-115646535D01*
X154510499Y-115646532D01*
X154510498Y-115646529D01*
X157409500Y-115646529D01*
X157409500Y-115853469D01*
X157428673Y-115949857D01*
X157443801Y-116025914D01*
X157449869Y-116056417D01*
X157449869Y-116056419D01*
X157529056Y-116247594D01*
X157529057Y-116247596D01*
X157529058Y-116247597D01*
X157630556Y-116399500D01*
X157644023Y-116419655D01*
X157790345Y-116565977D01*
X157962402Y-116680941D01*
X158153580Y-116760130D01*
X158356535Y-116800500D01*
X158356536Y-116800500D01*
X158563464Y-116800500D01*
X158563465Y-116800500D01*
X158766420Y-116760130D01*
X158957598Y-116680941D01*
X159129655Y-116565977D01*
X159275977Y-116419655D01*
X159390941Y-116247598D01*
X159470130Y-116056420D01*
X159510500Y-115853465D01*
X159510500Y-115646535D01*
X159470130Y-115443580D01*
X159390941Y-115252402D01*
X159275977Y-115080345D01*
X159129655Y-114934023D01*
X159129646Y-114934017D01*
X159016885Y-114858673D01*
X159016885Y-114858672D01*
X159016884Y-114858672D01*
X158957597Y-114819058D01*
X158957595Y-114819057D01*
X158957592Y-114819055D01*
X158766418Y-114739869D01*
X158563469Y-114699500D01*
X158563467Y-114699500D01*
X158563465Y-114699500D01*
X158356535Y-114699500D01*
X158356532Y-114699500D01*
X158356529Y-114699500D01*
X158153581Y-114739869D01*
X158153579Y-114739869D01*
X157962404Y-114819056D01*
X157790351Y-114934017D01*
X157644017Y-115080351D01*
X157529056Y-115252404D01*
X157449869Y-115443579D01*
X157449869Y-115443581D01*
X157409500Y-115646529D01*
X154510498Y-115646529D01*
X154470130Y-115443581D01*
X154470129Y-115443579D01*
X154390941Y-115252402D01*
X154275977Y-115080345D01*
X154129655Y-114934023D01*
X154129646Y-114934017D01*
X154016885Y-114858673D01*
X154016885Y-114858672D01*
X154016884Y-114858672D01*
X153957597Y-114819058D01*
X153957595Y-114819057D01*
X153957592Y-114819055D01*
X153766418Y-114739869D01*
X153563469Y-114699500D01*
X153563467Y-114699500D01*
X153563465Y-114699500D01*
X153356535Y-114699500D01*
X153356532Y-114699500D01*
X153356529Y-114699500D01*
X153153581Y-114739869D01*
X153153579Y-114739869D01*
X152962404Y-114819056D01*
X152790351Y-114934017D01*
X152644017Y-115080351D01*
X152529056Y-115252404D01*
X152449869Y-115443579D01*
X152449869Y-115443581D01*
X152409500Y-115646529D01*
X149510498Y-115646529D01*
X149472461Y-115455299D01*
X149471245Y-115424349D01*
X149473679Y-115403781D01*
X149490776Y-115358811D01*
X149491493Y-115357782D01*
X149502685Y-115344415D01*
X150606523Y-114240579D01*
X150631575Y-114222378D01*
X150653342Y-114211288D01*
X150698283Y-114200500D01*
X157519308Y-114200500D01*
X157519309Y-114200500D01*
X157603413Y-114177963D01*
X157603415Y-114177963D01*
X157606522Y-114177130D01*
X157609669Y-114176287D01*
X157609672Y-114176287D01*
X157622887Y-114172745D01*
X157622906Y-114172746D01*
X157622905Y-114172740D01*
X157633887Y-114169799D01*
X157736614Y-114110489D01*
X161360089Y-110487011D01*
X161385147Y-110468807D01*
X161394895Y-110463840D01*
X161455328Y-110454274D01*
X161509842Y-110482055D01*
X161536096Y-110528931D01*
X161537440Y-110534526D01*
X161540178Y-110557649D01*
X161540178Y-110694746D01*
X161544151Y-110709572D01*
X161544152Y-110709576D01*
X161581941Y-110850609D01*
X161581911Y-110850616D01*
X161584301Y-110859536D01*
X161588275Y-110879515D01*
X161590178Y-110898826D01*
X161590178Y-116753153D01*
X161592048Y-116760130D01*
X161627694Y-116893163D01*
X161700168Y-117018693D01*
X161700170Y-117018695D01*
X162120528Y-117439054D01*
X162132837Y-117454052D01*
X162144157Y-117470992D01*
X162150392Y-117481723D01*
X162151447Y-117483834D01*
X162152919Y-117486110D01*
X162195336Y-117559577D01*
X162229480Y-117618716D01*
X162341284Y-117730520D01*
X162478216Y-117809577D01*
X162630943Y-117850500D01*
X162630945Y-117850500D01*
X162789055Y-117850500D01*
X162789057Y-117850500D01*
X162941784Y-117809577D01*
X163078716Y-117730520D01*
X163190520Y-117618716D01*
X163269577Y-117481784D01*
X163310500Y-117329057D01*
X163310500Y-117170943D01*
X163269577Y-117018216D01*
X163190520Y-116881284D01*
X163078716Y-116769480D01*
X163076527Y-116768216D01*
X162946110Y-116692919D01*
X162943835Y-116691448D01*
X162941715Y-116690388D01*
X162930997Y-116684160D01*
X162914050Y-116672836D01*
X162899055Y-116660530D01*
X162731260Y-116492735D01*
X162713054Y-116467676D01*
X162701966Y-116445914D01*
X162691178Y-116400972D01*
X162691178Y-110898826D01*
X162693079Y-110879519D01*
X162696520Y-110862221D01*
X162697983Y-110855946D01*
X162700251Y-110847480D01*
X162700254Y-110847474D01*
X162700255Y-110847473D01*
X162741178Y-110694746D01*
X162741178Y-110536632D01*
X162722971Y-110468684D01*
X162719735Y-110437889D01*
X162720307Y-110426965D01*
X162742233Y-110369846D01*
X162793547Y-110336522D01*
X162847287Y-110337224D01*
X162852801Y-110338858D01*
X162874181Y-110348042D01*
X162978216Y-110408107D01*
X163130943Y-110449030D01*
X163187419Y-110449030D01*
X163218010Y-110453875D01*
X163229851Y-110457722D01*
X163241236Y-110461421D01*
X163280649Y-110485572D01*
X167269417Y-114474340D01*
X167287622Y-114499398D01*
X167298709Y-114521157D01*
X167309500Y-114566103D01*
X167309500Y-116494575D01*
X167304654Y-116525169D01*
X167297107Y-116548395D01*
X167272957Y-116587804D01*
X167229483Y-116631277D01*
X167229484Y-116631278D01*
X167228546Y-116632215D01*
X167226236Y-116636901D01*
X167150423Y-116768214D01*
X167139158Y-116810256D01*
X167109500Y-116920943D01*
X167109500Y-117079057D01*
X167150423Y-117231784D01*
X167229480Y-117368716D01*
X167341284Y-117480520D01*
X167478216Y-117559577D01*
X167630943Y-117600500D01*
X167630945Y-117600500D01*
X167789055Y-117600500D01*
X167789057Y-117600500D01*
X167941784Y-117559577D01*
X168078716Y-117480520D01*
X168190520Y-117368716D01*
X168190522Y-117368711D01*
X168190524Y-117368710D01*
X168241424Y-117280546D01*
X168260909Y-117256480D01*
X168269380Y-117248853D01*
X168325270Y-117223965D01*
X168385116Y-117236681D01*
X168389349Y-117239125D01*
X168425578Y-117275356D01*
X168456582Y-117329055D01*
X168479480Y-117368716D01*
X168591284Y-117480520D01*
X168728216Y-117559577D01*
X168880943Y-117600500D01*
X168880945Y-117600500D01*
X169039055Y-117600500D01*
X169039057Y-117600500D01*
X169191784Y-117559577D01*
X169328716Y-117480520D01*
X169440520Y-117368716D01*
X169519577Y-117231784D01*
X169560500Y-117079057D01*
X169560500Y-116920943D01*
X169519577Y-116768216D01*
X169440520Y-116631284D01*
X169328716Y-116519480D01*
X169191784Y-116440423D01*
X169039057Y-116399500D01*
X169039055Y-116399500D01*
X168982581Y-116399500D01*
X168951988Y-116394654D01*
X168928761Y-116387107D01*
X168889350Y-116362957D01*
X168650582Y-116124189D01*
X168632376Y-116099130D01*
X168621288Y-116077368D01*
X168610500Y-116032426D01*
X168610500Y-113947274D01*
X168610500Y-113947273D01*
X168583207Y-113845413D01*
X168583207Y-113845412D01*
X168583207Y-113845411D01*
X168583205Y-113845407D01*
X168531956Y-113756641D01*
X168530776Y-113754449D01*
X168530588Y-113754196D01*
X168530480Y-113754088D01*
X168530480Y-113754087D01*
X163850582Y-109074189D01*
X163832376Y-109049130D01*
X163821288Y-109027368D01*
X163810500Y-108982426D01*
X163810500Y-108920945D01*
X163810500Y-108920944D01*
X163791593Y-108850382D01*
X163769577Y-108768216D01*
X163690520Y-108631284D01*
X163578716Y-108519480D01*
X163578713Y-108519478D01*
X163544840Y-108499921D01*
X163520772Y-108480432D01*
X163512538Y-108471287D01*
X163487651Y-108415394D01*
X163499104Y-108357804D01*
X163503910Y-108348953D01*
X163520904Y-108326196D01*
X163820489Y-108026614D01*
X163846194Y-107982089D01*
X163861523Y-107955538D01*
X163879797Y-107923891D01*
X163879798Y-107923886D01*
X163879799Y-107923886D01*
X163910500Y-107809309D01*
X163910500Y-106955423D01*
X163915344Y-106924834D01*
X163923223Y-106900583D01*
X163938854Y-106870885D01*
X163940512Y-106868723D01*
X163940520Y-106868716D01*
X164019577Y-106731784D01*
X164060500Y-106579057D01*
X164060500Y-106420943D01*
X164019577Y-106268216D01*
X163940520Y-106131284D01*
X163828716Y-106019480D01*
X163691784Y-105940423D01*
X163539057Y-105899500D01*
X163539055Y-105899500D01*
X163380945Y-105899500D01*
X163380943Y-105899500D01*
X163228216Y-105940423D01*
X163091284Y-106019480D01*
X162979480Y-106131284D01*
X162900423Y-106268216D01*
X162859500Y-106420943D01*
X162859500Y-106579057D01*
X162900423Y-106731784D01*
X162979480Y-106868716D01*
X162979481Y-106868717D01*
X162982461Y-106873878D01*
X162984927Y-106878421D01*
X162998710Y-106905472D01*
X163009500Y-106950415D01*
X163009500Y-107506708D01*
X163004654Y-107537301D01*
X162997107Y-107560528D01*
X162972957Y-107599939D01*
X157313479Y-113259417D01*
X157288422Y-113277621D01*
X157266664Y-113288708D01*
X157221717Y-113299500D01*
X156764423Y-113299500D01*
X156733831Y-113294655D01*
X156723427Y-113291274D01*
X156673928Y-113255312D01*
X156655020Y-113197121D01*
X156669604Y-113145400D01*
X156672615Y-113140487D01*
X156687025Y-113122210D01*
X156690520Y-113118716D01*
X156769577Y-112981784D01*
X156810500Y-112829057D01*
X156810500Y-112670943D01*
X156769577Y-112518216D01*
X156690520Y-112381284D01*
X156688908Y-112379672D01*
X156653686Y-112344449D01*
X156635482Y-112319393D01*
X156629427Y-112307509D01*
X156619856Y-112247089D01*
X156620654Y-112242050D01*
X156648425Y-112187537D01*
X156702669Y-112133295D01*
X156781726Y-111996363D01*
X156822649Y-111843636D01*
X156822649Y-111787160D01*
X156827493Y-111756571D01*
X156835040Y-111733340D01*
X156859189Y-111693931D01*
X157353621Y-111199500D01*
X157869149Y-110683970D01*
X157894207Y-110665765D01*
X157906092Y-110659709D01*
X157966520Y-110650139D01*
X157977434Y-110651867D01*
X158011444Y-110663911D01*
X158090533Y-110709572D01*
X158090540Y-110709576D01*
X158243267Y-110750499D01*
X158243269Y-110750499D01*
X158401379Y-110750499D01*
X158401381Y-110750499D01*
X158554108Y-110709576D01*
X158691040Y-110630519D01*
X158802844Y-110518715D01*
X158881901Y-110381783D01*
X158922824Y-110229056D01*
X158922824Y-110079900D01*
X158924480Y-110061870D01*
X158929039Y-110037256D01*
X158929669Y-110033853D01*
X158957008Y-109981882D01*
X159673311Y-109265581D01*
X159698369Y-109247377D01*
X159720132Y-109236289D01*
X159765074Y-109225500D01*
X160453100Y-109225500D01*
X160453102Y-109225500D01*
X160541564Y-109214877D01*
X160682342Y-109159361D01*
X160802922Y-109067922D01*
X160894361Y-108947342D01*
X160949877Y-108806564D01*
X160960500Y-108718102D01*
X160960500Y-108106898D01*
X160949877Y-108018436D01*
X160912613Y-107923942D01*
X160895279Y-107879985D01*
X160894352Y-107877447D01*
X160892502Y-107874825D01*
X160892499Y-107874821D01*
X160890275Y-107872270D01*
X160802922Y-107757078D01*
X160802917Y-107757074D01*
X160687734Y-107669727D01*
X160686398Y-107668562D01*
X160682341Y-107665638D01*
X160682339Y-107665637D01*
X160611952Y-107637880D01*
X160541563Y-107610122D01*
X160453110Y-107599500D01*
X160453106Y-107599500D01*
X160453102Y-107599500D01*
X159466898Y-107599500D01*
X159466893Y-107599500D01*
X159466888Y-107599500D01*
X159378434Y-107610123D01*
X159237663Y-107665635D01*
X159237660Y-107665636D01*
X159237660Y-107665637D01*
X159237656Y-107665640D01*
X159237565Y-107665708D01*
X159117083Y-107757073D01*
X159117074Y-107757082D01*
X159048355Y-107847701D01*
X159026007Y-107869151D01*
X159016068Y-107876065D01*
X158957501Y-107893774D01*
X158901343Y-107874888D01*
X158892962Y-107868799D01*
X158872268Y-107848525D01*
X158802924Y-107757081D01*
X158802922Y-107757078D01*
X158802917Y-107757074D01*
X158687734Y-107669727D01*
X158686398Y-107668562D01*
X158682341Y-107665638D01*
X158682339Y-107665637D01*
X158611952Y-107637880D01*
X158541563Y-107610122D01*
X158453110Y-107599500D01*
X158453106Y-107599500D01*
X158453102Y-107599500D01*
X157839791Y-107599500D01*
X157809194Y-107594653D01*
X157806114Y-107593652D01*
X157756618Y-107557686D01*
X157737714Y-107499494D01*
X157756625Y-107441304D01*
X157806127Y-107405343D01*
X157836714Y-107400500D01*
X158453100Y-107400500D01*
X158453102Y-107400500D01*
X158541564Y-107389877D01*
X158682342Y-107334361D01*
X158802922Y-107242922D01*
X158871644Y-107152296D01*
X158893985Y-107130852D01*
X158903928Y-107123935D01*
X158962492Y-107106224D01*
X159018652Y-107125107D01*
X159026556Y-107130850D01*
X159027033Y-107131196D01*
X159047727Y-107151469D01*
X159117078Y-107242922D01*
X159232270Y-107330275D01*
X159234821Y-107332499D01*
X159234825Y-107332502D01*
X159237447Y-107334352D01*
X159239997Y-107335283D01*
X159308047Y-107362119D01*
X159378436Y-107389877D01*
X159466898Y-107400500D01*
X159466900Y-107400500D01*
X160453100Y-107400500D01*
X160453102Y-107400500D01*
X160541564Y-107389877D01*
X160682342Y-107334361D01*
X160802922Y-107242922D01*
X160894361Y-107122342D01*
X160949877Y-106981564D01*
X160960500Y-106893102D01*
X160960500Y-106281898D01*
X160949877Y-106193436D01*
X160922119Y-106123047D01*
X160895283Y-106054997D01*
X160894352Y-106052447D01*
X160892502Y-106049825D01*
X160892499Y-106049821D01*
X160890275Y-106047270D01*
X160802922Y-105932078D01*
X160802917Y-105932074D01*
X160687734Y-105844727D01*
X160686398Y-105843562D01*
X160682341Y-105840638D01*
X160682339Y-105840637D01*
X160611952Y-105812880D01*
X160541563Y-105785122D01*
X160453110Y-105774500D01*
X160453106Y-105774500D01*
X160453102Y-105774500D01*
X159466898Y-105774500D01*
X159466893Y-105774500D01*
X159466888Y-105774500D01*
X159378434Y-105785123D01*
X159237663Y-105840635D01*
X159237660Y-105840636D01*
X159237660Y-105840637D01*
X159237656Y-105840640D01*
X159237565Y-105840708D01*
X159117083Y-105932073D01*
X159117074Y-105932082D01*
X159048355Y-106022701D01*
X159026007Y-106044151D01*
X159016068Y-106051065D01*
X158957501Y-106068774D01*
X158901343Y-106049888D01*
X158892962Y-106043799D01*
X158872268Y-106023525D01*
X158802924Y-105932081D01*
X158802922Y-105932078D01*
X158802917Y-105932074D01*
X158687734Y-105844727D01*
X158686398Y-105843562D01*
X158682341Y-105840638D01*
X158682339Y-105840637D01*
X158611952Y-105812880D01*
X158541563Y-105785122D01*
X158453110Y-105774500D01*
X158453106Y-105774500D01*
X158453102Y-105774500D01*
X157466898Y-105774500D01*
X157466893Y-105774500D01*
X157466888Y-105774500D01*
X157378434Y-105785123D01*
X157237663Y-105840635D01*
X157237660Y-105840636D01*
X157237660Y-105840637D01*
X157237656Y-105840640D01*
X157237565Y-105840708D01*
X157117083Y-105932073D01*
X157117073Y-105932083D01*
X157025708Y-106052565D01*
X157025635Y-106052663D01*
X156970123Y-106193434D01*
X156959500Y-106281888D01*
X156959500Y-106889578D01*
X156957630Y-106908727D01*
X156954455Y-106924834D01*
X156952642Y-106934027D01*
X156925516Y-106984878D01*
X156403111Y-107507283D01*
X156378051Y-107525489D01*
X156367902Y-107530660D01*
X156307470Y-107540231D01*
X156252954Y-107512454D01*
X156250315Y-107509815D01*
X156223221Y-107459122D01*
X156220131Y-107443587D01*
X156220130Y-107443580D01*
X156140941Y-107252402D01*
X156025977Y-107080345D01*
X155879655Y-106934023D01*
X155879646Y-106934017D01*
X155872395Y-106929172D01*
X155865038Y-106924256D01*
X155707597Y-106819058D01*
X155707596Y-106819057D01*
X155707594Y-106819056D01*
X155516418Y-106739869D01*
X155313469Y-106699500D01*
X155313467Y-106699500D01*
X155313465Y-106699500D01*
X155106535Y-106699500D01*
X155106532Y-106699500D01*
X155106529Y-106699500D01*
X154903581Y-106739869D01*
X154903579Y-106739869D01*
X154712404Y-106819056D01*
X154577537Y-106909171D01*
X154549407Y-106922138D01*
X154538443Y-106925230D01*
X154477305Y-106922827D01*
X154429257Y-106884948D01*
X154427175Y-106881832D01*
X154410500Y-106826845D01*
X154410500Y-103680113D01*
X154415347Y-103649516D01*
X154418868Y-103638681D01*
X154454834Y-103589183D01*
X154513021Y-103570278D01*
X154516751Y-103570278D01*
X154571753Y-103586963D01*
X154712394Y-103680937D01*
X154712400Y-103680939D01*
X154712402Y-103680941D01*
X154903580Y-103760130D01*
X155106535Y-103800500D01*
X155106536Y-103800500D01*
X155313464Y-103800500D01*
X155313465Y-103800500D01*
X155516420Y-103760130D01*
X155707598Y-103680941D01*
X155879655Y-103565977D01*
X156025977Y-103419655D01*
X156140941Y-103247598D01*
X156220130Y-103056420D01*
X156260500Y-102853465D01*
X156260500Y-102646535D01*
X156220130Y-102443580D01*
X156140941Y-102252402D01*
X156119419Y-102220193D01*
X156106452Y-102192064D01*
X156104214Y-102184126D01*
X156106618Y-102122990D01*
X156144500Y-102074941D01*
X156203382Y-102058336D01*
X156216011Y-102058832D01*
X156237731Y-102062126D01*
X156380943Y-102100500D01*
X156380945Y-102100500D01*
X156539055Y-102100500D01*
X156539057Y-102100500D01*
X156691784Y-102059577D01*
X156828716Y-101980520D01*
X156940520Y-101868716D01*
X157019577Y-101731784D01*
X157060500Y-101579057D01*
X157060500Y-101420943D01*
X157019757Y-101268889D01*
X157019349Y-101267311D01*
X157019132Y-101266444D01*
X157018844Y-101265478D01*
X157018281Y-101263376D01*
X157018477Y-101263323D01*
X157016283Y-101255682D01*
X157012402Y-101236169D01*
X157010500Y-101216857D01*
X157010500Y-93784711D01*
X157015344Y-93754122D01*
X157022891Y-93730891D01*
X157047040Y-93691482D01*
X157798012Y-92940511D01*
X157798015Y-92940510D01*
X159649058Y-91089464D01*
X159664055Y-91077158D01*
X159679106Y-91067103D01*
X159684964Y-91064107D01*
X159684707Y-91063662D01*
X159686097Y-91062858D01*
X159697776Y-91057093D01*
X159738528Y-91040210D01*
X159753217Y-91024108D01*
X159828716Y-90980520D01*
X159940520Y-90868716D01*
X160019577Y-90731784D01*
X160060500Y-90579057D01*
X160060500Y-90420943D01*
X160019577Y-90268216D01*
X159964177Y-90172260D01*
X159953078Y-90143339D01*
X159951541Y-90136105D01*
X159957941Y-90075255D01*
X159998886Y-90029789D01*
X160058736Y-90017073D01*
X160104465Y-90033950D01*
X160104593Y-90034038D01*
X160118511Y-90045614D01*
X160719417Y-90646520D01*
X160737622Y-90671578D01*
X160748709Y-90693337D01*
X160759500Y-90738283D01*
X160759500Y-91294575D01*
X160754655Y-91325167D01*
X160746788Y-91349380D01*
X160730727Y-91377806D01*
X160731598Y-91378459D01*
X160726712Y-91384973D01*
X160724467Y-91389964D01*
X160650423Y-91518214D01*
X160626462Y-91607638D01*
X160609500Y-91670943D01*
X160609500Y-91829057D01*
X160650423Y-91981784D01*
X160729480Y-92118716D01*
X160841284Y-92230520D01*
X160978216Y-92309577D01*
X161130943Y-92350500D01*
X161130945Y-92350500D01*
X161289057Y-92350500D01*
X161289058Y-92350500D01*
X161289058Y-92350499D01*
X161369735Y-92328881D01*
X161400537Y-92325644D01*
X161412825Y-92326288D01*
X161469945Y-92348216D01*
X161502561Y-92397029D01*
X161505421Y-92406682D01*
X161509500Y-92434805D01*
X161509500Y-94345500D01*
X161490593Y-94403691D01*
X161441093Y-94439655D01*
X161410500Y-94444500D01*
X158084000Y-94444500D01*
X158038411Y-94449401D01*
X158019048Y-94451483D01*
X157967574Y-94462681D01*
X157967554Y-94462686D01*
X157967548Y-94462688D01*
X157929342Y-94473646D01*
X157870380Y-94508130D01*
X157832426Y-94530327D01*
X157779625Y-94576079D01*
X157779624Y-94576080D01*
X157737446Y-94620814D01*
X157686562Y-94720885D01*
X157686559Y-94720892D01*
X157666877Y-94787921D01*
X157666875Y-94787931D01*
X157654500Y-94874000D01*
X157654500Y-99875996D01*
X157661483Y-99940951D01*
X157672681Y-99992425D01*
X157672685Y-99992441D01*
X157672688Y-99992452D01*
X157683646Y-100030658D01*
X157740325Y-100127571D01*
X157786080Y-100180375D01*
X157830813Y-100222553D01*
X157930889Y-100273439D01*
X157930891Y-100273439D01*
X157930892Y-100273440D01*
X157997921Y-100293122D01*
X157997928Y-100293124D01*
X158084000Y-100305500D01*
X158084001Y-100305500D01*
X165028388Y-100305500D01*
X165086579Y-100324407D01*
X165122543Y-100373907D01*
X165122543Y-100435093D01*
X165098392Y-100474504D01*
X164063479Y-101509417D01*
X164038422Y-101527621D01*
X164016664Y-101538708D01*
X163971717Y-101549500D01*
X163915423Y-101549500D01*
X163884829Y-101544654D01*
X163860584Y-101536776D01*
X163830914Y-101521166D01*
X163828723Y-101519484D01*
X163811286Y-101509417D01*
X163691784Y-101440423D01*
X163539057Y-101399500D01*
X163539055Y-101399500D01*
X163380945Y-101399500D01*
X163380943Y-101399500D01*
X163228216Y-101440423D01*
X163091284Y-101519480D01*
X162979480Y-101631284D01*
X162900423Y-101768216D01*
X162859500Y-101920943D01*
X162859500Y-102079057D01*
X162900423Y-102231784D01*
X162979480Y-102368716D01*
X163091284Y-102480520D01*
X163228216Y-102559577D01*
X163380943Y-102600500D01*
X163380945Y-102600500D01*
X163539055Y-102600500D01*
X163539057Y-102600500D01*
X163691784Y-102559577D01*
X163828716Y-102480520D01*
X163828718Y-102480517D01*
X163833891Y-102477531D01*
X163838426Y-102475068D01*
X163865475Y-102461287D01*
X163910415Y-102450500D01*
X164269308Y-102450500D01*
X164269309Y-102450500D01*
X164353413Y-102427963D01*
X164353415Y-102427963D01*
X164356522Y-102427130D01*
X164359669Y-102426287D01*
X164359672Y-102426287D01*
X164372887Y-102422745D01*
X164372906Y-102422746D01*
X164372905Y-102422740D01*
X164383887Y-102419799D01*
X164486614Y-102360489D01*
X166320490Y-100526614D01*
X166379799Y-100423887D01*
X166391214Y-100381284D01*
X166410500Y-100309309D01*
X166410500Y-94440691D01*
X166386286Y-94350326D01*
X166379799Y-94326113D01*
X166375105Y-94317982D01*
X166320492Y-94223390D01*
X166320491Y-94223389D01*
X166320490Y-94223388D01*
X166320489Y-94223386D01*
X166206840Y-94109737D01*
X169694500Y-94109737D01*
X169694500Y-115890262D01*
X169700366Y-115949830D01*
X169700368Y-115949849D01*
X169704093Y-115968580D01*
X169721485Y-116025916D01*
X169739285Y-116068890D01*
X169742051Y-116075356D01*
X169742055Y-116075362D01*
X169742056Y-116075365D01*
X169805506Y-116167987D01*
X169832023Y-116194503D01*
X169837069Y-116199433D01*
X169931133Y-116260724D01*
X169974088Y-116278516D01*
X169974093Y-116278517D01*
X169974099Y-116278520D01*
X170019160Y-116292188D01*
X170031392Y-116295899D01*
X170050143Y-116299629D01*
X170109746Y-116305500D01*
X182890252Y-116305500D01*
X182890254Y-116305500D01*
X182949857Y-116299629D01*
X182968608Y-116295899D01*
X183025914Y-116278515D01*
X183068449Y-116260896D01*
X183069294Y-116260624D01*
X183071114Y-116259821D01*
X183073218Y-116258921D01*
X183086494Y-116253421D01*
X183092156Y-116246440D01*
X183167985Y-116194495D01*
X183194503Y-116167976D01*
X183199432Y-116162932D01*
X183260723Y-116068868D01*
X183278515Y-116025914D01*
X183295899Y-115968608D01*
X183299629Y-115949857D01*
X183305500Y-115890254D01*
X183305500Y-109755123D01*
X183884500Y-109755123D01*
X183884500Y-111045234D01*
X183884761Y-111047114D01*
X183887412Y-111069983D01*
X183887413Y-111069988D01*
X183887414Y-111069990D01*
X183905007Y-111109832D01*
X183905008Y-111109837D01*
X183932792Y-111172762D01*
X183932793Y-111172763D01*
X183932794Y-111172765D01*
X184012235Y-111252206D01*
X184115009Y-111297585D01*
X184140135Y-111300500D01*
X186529864Y-111300499D01*
X186554991Y-111297585D01*
X186657765Y-111252206D01*
X186737206Y-111172765D01*
X186782585Y-111069991D01*
X186785500Y-111044865D01*
X186785499Y-109755136D01*
X186782585Y-109730009D01*
X186737206Y-109627235D01*
X186657765Y-109547794D01*
X186657763Y-109547793D01*
X186571919Y-109509888D01*
X186570211Y-109508719D01*
X186554061Y-109502029D01*
X186549308Y-109501755D01*
X186543374Y-109501066D01*
X186529868Y-109499500D01*
X186529866Y-109499500D01*
X184139764Y-109499500D01*
X184137885Y-109499761D01*
X184115014Y-109502412D01*
X184115006Y-109502414D01*
X184012237Y-109547792D01*
X183932794Y-109627235D01*
X183887413Y-109730013D01*
X183884500Y-109755123D01*
X183305500Y-109755123D01*
X183305500Y-109109745D01*
X183299629Y-109050142D01*
X183295899Y-109031391D01*
X183278515Y-108974085D01*
X183260723Y-108931131D01*
X183251726Y-108911416D01*
X183251724Y-108911412D01*
X183194489Y-108832007D01*
X183167973Y-108805493D01*
X183162933Y-108800568D01*
X183068869Y-108739276D01*
X183068866Y-108739274D01*
X183025929Y-108721489D01*
X183025916Y-108721484D01*
X183025911Y-108721482D01*
X183025910Y-108721482D01*
X183012790Y-108717502D01*
X182968588Y-108704095D01*
X182968584Y-108704094D01*
X182949849Y-108700368D01*
X182949830Y-108700366D01*
X182890262Y-108694500D01*
X182890254Y-108694500D01*
X174404500Y-108694500D01*
X174346309Y-108675593D01*
X174310345Y-108626093D01*
X174305500Y-108595500D01*
X174305500Y-94109746D01*
X174300816Y-94062188D01*
X174299629Y-94050142D01*
X174295899Y-94031391D01*
X174278515Y-93974085D01*
X174260723Y-93931131D01*
X174251726Y-93911416D01*
X174251724Y-93911412D01*
X174194489Y-93832007D01*
X174167973Y-93805493D01*
X174162933Y-93800568D01*
X174138598Y-93784711D01*
X174068866Y-93739274D01*
X174025929Y-93721489D01*
X174025916Y-93721484D01*
X174025911Y-93721482D01*
X174025910Y-93721482D01*
X174012790Y-93717502D01*
X173968588Y-93704095D01*
X173968584Y-93704094D01*
X173949849Y-93700368D01*
X173949830Y-93700366D01*
X173890262Y-93694500D01*
X173890254Y-93694500D01*
X170109746Y-93694500D01*
X170103881Y-93695077D01*
X170050165Y-93700365D01*
X170050160Y-93700366D01*
X170031419Y-93704093D01*
X170031416Y-93704094D01*
X169974076Y-93721486D01*
X169931189Y-93739251D01*
X169924626Y-93742059D01*
X169832004Y-93805510D01*
X169805509Y-93832008D01*
X169801051Y-93836570D01*
X169800568Y-93837065D01*
X169752125Y-93911412D01*
X169739277Y-93931130D01*
X169739276Y-93931132D01*
X169721484Y-93974085D01*
X169704097Y-94031406D01*
X169704097Y-94031407D01*
X169704096Y-94031411D01*
X169700368Y-94050157D01*
X169700368Y-94050160D01*
X169700366Y-94050172D01*
X169694500Y-94109737D01*
X166206840Y-94109737D01*
X164599360Y-92502257D01*
X164582739Y-92480181D01*
X164572868Y-92462339D01*
X164561340Y-92427332D01*
X164560500Y-92420955D01*
X164560500Y-92420943D01*
X164534908Y-92325431D01*
X186310478Y-92325431D01*
X186310478Y-92574566D01*
X186342148Y-92815123D01*
X186342148Y-92815129D01*
X186342994Y-92821559D01*
X186355630Y-92868715D01*
X186407474Y-93062199D01*
X186407478Y-93062212D01*
X186423688Y-93101347D01*
X186502805Y-93292355D01*
X186502821Y-93292386D01*
X186565480Y-93400914D01*
X186627379Y-93508127D01*
X186627381Y-93508130D01*
X186779034Y-93705769D01*
X186779036Y-93705771D01*
X186779040Y-93705776D01*
X186955202Y-93881938D01*
X186955206Y-93881941D01*
X186955208Y-93881943D01*
X186955233Y-93881965D01*
X186955580Y-93882228D01*
X187019313Y-93931132D01*
X187042973Y-93949287D01*
X187149999Y-94031411D01*
X187152851Y-94033599D01*
X187368605Y-94158164D01*
X187598771Y-94253502D01*
X187839413Y-94317982D01*
X188086413Y-94350500D01*
X188086414Y-94350500D01*
X188335542Y-94350500D01*
X188335543Y-94350500D01*
X188582543Y-94317982D01*
X188823185Y-94253502D01*
X189053351Y-94158164D01*
X189269105Y-94033599D01*
X189466754Y-93881938D01*
X189642916Y-93705776D01*
X189794577Y-93508127D01*
X189919142Y-93292373D01*
X190013183Y-93065337D01*
X190021616Y-93049310D01*
X190028379Y-93038895D01*
X190075927Y-93000388D01*
X190137028Y-92997183D01*
X190188344Y-93030505D01*
X190191717Y-93034670D01*
X190206638Y-93060741D01*
X190206835Y-93060660D01*
X190302807Y-93292359D01*
X190302821Y-93292386D01*
X190365480Y-93400914D01*
X190427379Y-93508127D01*
X190427381Y-93508130D01*
X190579034Y-93705769D01*
X190579036Y-93705771D01*
X190579040Y-93705776D01*
X190755202Y-93881938D01*
X190755206Y-93881941D01*
X190755208Y-93881943D01*
X190755233Y-93881965D01*
X190755580Y-93882228D01*
X190819313Y-93931132D01*
X190842973Y-93949287D01*
X190949999Y-94031411D01*
X190952851Y-94033599D01*
X191168605Y-94158164D01*
X191398771Y-94253502D01*
X191639413Y-94317982D01*
X191886413Y-94350500D01*
X191886414Y-94350500D01*
X192135542Y-94350500D01*
X192135543Y-94350500D01*
X192382543Y-94317982D01*
X192623185Y-94253502D01*
X192853351Y-94158164D01*
X193069105Y-94033599D01*
X193266754Y-93881938D01*
X193442916Y-93705776D01*
X193594577Y-93508127D01*
X193719142Y-93292373D01*
X193814480Y-93062207D01*
X193878960Y-92821565D01*
X193911478Y-92574565D01*
X193911478Y-92325435D01*
X193878960Y-92078435D01*
X193814480Y-91837793D01*
X193719142Y-91607627D01*
X193594577Y-91391873D01*
X193593112Y-91389964D01*
X193442921Y-91194230D01*
X193442919Y-91194228D01*
X193442916Y-91194224D01*
X193266754Y-91018062D01*
X193266749Y-91018058D01*
X193266747Y-91018056D01*
X193069108Y-90866403D01*
X193069105Y-90866401D01*
X192927106Y-90784418D01*
X192853364Y-90741843D01*
X192853355Y-90741838D01*
X192853351Y-90741836D01*
X192853347Y-90741834D01*
X192853343Y-90741832D01*
X192853341Y-90741831D01*
X192853337Y-90741829D01*
X192628803Y-90648825D01*
X192624924Y-90646932D01*
X192624017Y-90646706D01*
X192622405Y-90646289D01*
X192385409Y-90582786D01*
X192383208Y-90582125D01*
X192378148Y-90581304D01*
X192376104Y-90581170D01*
X192135545Y-90549500D01*
X192135544Y-90549500D01*
X192135543Y-90549500D01*
X191886413Y-90549500D01*
X191886411Y-90549500D01*
X191886410Y-90549500D01*
X191714562Y-90572124D01*
X191661904Y-90579057D01*
X191645854Y-90581170D01*
X191645842Y-90581170D01*
X191639417Y-90582016D01*
X191398770Y-90646498D01*
X191398755Y-90646504D01*
X191168619Y-90741828D01*
X190952840Y-90866407D01*
X190755211Y-91018053D01*
X190579031Y-91194233D01*
X190427385Y-91391862D01*
X190302807Y-91607638D01*
X190208772Y-91834662D01*
X190200333Y-91850701D01*
X190193571Y-91861112D01*
X190146018Y-91899614D01*
X190084916Y-91902812D01*
X190033605Y-91869486D01*
X190030282Y-91865382D01*
X190016223Y-91840137D01*
X190015564Y-91840410D01*
X189919144Y-91607631D01*
X189904418Y-91582125D01*
X189794577Y-91391873D01*
X189793112Y-91389964D01*
X189642921Y-91194230D01*
X189642919Y-91194228D01*
X189642916Y-91194224D01*
X189466754Y-91018062D01*
X189466749Y-91018058D01*
X189466747Y-91018056D01*
X189269108Y-90866403D01*
X189269105Y-90866401D01*
X189127106Y-90784418D01*
X189053364Y-90741843D01*
X189053355Y-90741838D01*
X189053351Y-90741836D01*
X189053347Y-90741834D01*
X189053343Y-90741832D01*
X189053341Y-90741831D01*
X189053337Y-90741829D01*
X188828803Y-90648825D01*
X188824924Y-90646932D01*
X188824017Y-90646706D01*
X188822405Y-90646289D01*
X188585409Y-90582786D01*
X188583208Y-90582125D01*
X188578148Y-90581304D01*
X188576104Y-90581170D01*
X188335545Y-90549500D01*
X188335544Y-90549500D01*
X188335543Y-90549500D01*
X188086413Y-90549500D01*
X188086411Y-90549500D01*
X188086410Y-90549500D01*
X187914562Y-90572124D01*
X187861904Y-90579057D01*
X187845854Y-90581170D01*
X187845842Y-90581170D01*
X187839417Y-90582016D01*
X187598770Y-90646498D01*
X187598755Y-90646504D01*
X187368619Y-90741828D01*
X187152840Y-90866407D01*
X186955211Y-91018053D01*
X186779031Y-91194233D01*
X186627385Y-91391862D01*
X186502806Y-91607641D01*
X186407482Y-91837777D01*
X186407476Y-91837792D01*
X186342994Y-92078439D01*
X186342148Y-92084870D01*
X186342148Y-92084875D01*
X186310478Y-92325431D01*
X164534908Y-92325431D01*
X164519577Y-92268216D01*
X164440520Y-92131284D01*
X164328716Y-92019480D01*
X164191784Y-91940423D01*
X164051418Y-91902812D01*
X164033310Y-91897960D01*
X164028341Y-91896488D01*
X163999472Y-91887108D01*
X163960060Y-91862957D01*
X163108855Y-91011752D01*
X163090652Y-90986697D01*
X163084594Y-90974808D01*
X163075022Y-90914386D01*
X163076261Y-90906564D01*
X163088304Y-90872552D01*
X163090517Y-90868718D01*
X163090520Y-90868716D01*
X163169577Y-90731784D01*
X163210500Y-90579057D01*
X163210500Y-90420943D01*
X163169577Y-90268216D01*
X163090520Y-90131284D01*
X162978716Y-90019480D01*
X162841784Y-89940423D01*
X162689057Y-89899500D01*
X162689055Y-89899500D01*
X162558903Y-89899500D01*
X162553701Y-89899363D01*
X162507154Y-89896914D01*
X162450037Y-89874976D01*
X162417430Y-89826159D01*
X162414572Y-89816506D01*
X162410500Y-89788405D01*
X162410500Y-87875431D01*
X175809500Y-87875431D01*
X175809500Y-88124566D01*
X175841170Y-88365123D01*
X175841304Y-88367172D01*
X175842125Y-88372230D01*
X175842785Y-88374429D01*
X175897615Y-88579057D01*
X175897615Y-88579058D01*
X175901742Y-88594458D01*
X175906496Y-88612199D01*
X175906500Y-88612212D01*
X175906504Y-88612221D01*
X176001827Y-88842355D01*
X176001843Y-88842386D01*
X176017044Y-88868715D01*
X176126401Y-89058127D01*
X176126403Y-89058130D01*
X176278056Y-89255769D01*
X176278058Y-89255771D01*
X176278062Y-89255776D01*
X176454224Y-89431938D01*
X176454228Y-89431941D01*
X176454233Y-89431946D01*
X176454255Y-89431965D01*
X176454629Y-89432249D01*
X176651869Y-89583596D01*
X176651873Y-89583599D01*
X176867627Y-89708164D01*
X177097793Y-89803502D01*
X177338435Y-89867982D01*
X177585435Y-89900500D01*
X177585436Y-89900500D01*
X177834564Y-89900500D01*
X177834565Y-89900500D01*
X178081565Y-89867982D01*
X178322207Y-89803502D01*
X178552373Y-89708164D01*
X178768127Y-89583599D01*
X178965776Y-89431938D01*
X179141938Y-89255776D01*
X179293599Y-89058127D01*
X179418164Y-88842373D01*
X179513502Y-88612207D01*
X179577982Y-88371565D01*
X179610500Y-88124565D01*
X179610500Y-87875435D01*
X179577982Y-87628435D01*
X179513502Y-87387793D01*
X179418164Y-87157627D01*
X179293599Y-86941873D01*
X179141938Y-86744224D01*
X178965776Y-86568062D01*
X178965771Y-86568058D01*
X178965769Y-86568056D01*
X178965765Y-86568053D01*
X178768132Y-86416404D01*
X178765775Y-86415043D01*
X178752895Y-86407607D01*
X178733692Y-86396520D01*
X178552400Y-86291850D01*
X178552395Y-86291848D01*
X178552380Y-86291840D01*
X178552373Y-86291836D01*
X178552369Y-86291834D01*
X178552365Y-86291832D01*
X178552363Y-86291831D01*
X178552359Y-86291829D01*
X178327825Y-86198825D01*
X178323946Y-86196932D01*
X178323039Y-86196706D01*
X178321427Y-86196289D01*
X178084431Y-86132786D01*
X178082230Y-86132125D01*
X178077170Y-86131304D01*
X178075126Y-86131170D01*
X177834567Y-86099500D01*
X177834566Y-86099500D01*
X177834565Y-86099500D01*
X177585435Y-86099500D01*
X177585433Y-86099500D01*
X177585432Y-86099500D01*
X177344876Y-86131170D01*
X177344864Y-86131170D01*
X177338439Y-86132016D01*
X177097792Y-86196498D01*
X177097777Y-86196504D01*
X176867641Y-86291828D01*
X176651862Y-86416407D01*
X176454233Y-86568053D01*
X176278053Y-86744233D01*
X176126407Y-86941862D01*
X176001828Y-87157641D01*
X175906504Y-87387777D01*
X175906498Y-87387792D01*
X175842016Y-87628439D01*
X175841170Y-87634870D01*
X175841170Y-87634875D01*
X175809500Y-87875431D01*
X162410500Y-87875431D01*
X162410500Y-86190692D01*
X162394778Y-86132017D01*
X162394777Y-86132015D01*
X162383172Y-86088701D01*
X162383171Y-86088695D01*
X162379799Y-86076111D01*
X162321965Y-85975940D01*
X162320785Y-85973748D01*
X162320597Y-85973495D01*
X162320489Y-85973387D01*
X162320489Y-85973386D01*
X160600582Y-84253479D01*
X160582377Y-84228421D01*
X160570803Y-84205705D01*
X160560859Y-84173677D01*
X160560500Y-84170949D01*
X160560500Y-84170944D01*
X160535879Y-84079057D01*
X160535878Y-84079055D01*
X160525068Y-84038710D01*
X160519577Y-84018216D01*
X160440520Y-83881284D01*
X160328716Y-83769480D01*
X160191784Y-83690423D01*
X160039057Y-83649500D01*
X160039055Y-83649500D01*
X159880945Y-83649500D01*
X159880943Y-83649500D01*
X159728216Y-83690423D01*
X159591284Y-83769480D01*
X159479480Y-83881284D01*
X159400423Y-84018216D01*
X159359500Y-84170943D01*
X159359500Y-84329057D01*
X159400423Y-84481784D01*
X159479480Y-84618716D01*
X159591284Y-84730520D01*
X159728216Y-84809577D01*
X159880943Y-84850500D01*
X159880946Y-84850500D01*
X159886697Y-84852041D01*
X159891649Y-84853508D01*
X159920529Y-84862891D01*
X159959938Y-84887041D01*
X161469417Y-86396520D01*
X161487622Y-86421578D01*
X161498709Y-86443337D01*
X161509500Y-86488283D01*
X161509500Y-88563867D01*
X161504655Y-88594458D01*
X161500853Y-88606160D01*
X161464890Y-88655661D01*
X161409285Y-88674535D01*
X161399222Y-88674798D01*
X161371013Y-88671459D01*
X161283311Y-88647960D01*
X161278341Y-88646488D01*
X161249472Y-88637108D01*
X161210061Y-88612957D01*
X160736618Y-88139515D01*
X160736609Y-88139507D01*
X160736605Y-88139504D01*
X160633892Y-88080203D01*
X160633890Y-88080202D01*
X160633886Y-88080200D01*
X160633884Y-88080199D01*
X160633881Y-88080198D01*
X160562552Y-88061085D01*
X160562518Y-88061077D01*
X160519309Y-88049500D01*
X160519307Y-88049500D01*
X145415423Y-88049500D01*
X145384829Y-88044654D01*
X145360584Y-88036776D01*
X145330914Y-88021166D01*
X145328723Y-88019484D01*
X145319557Y-88014192D01*
X145191784Y-87940423D01*
X145039057Y-87899500D01*
X145039055Y-87899500D01*
X144880945Y-87899500D01*
X144880943Y-87899500D01*
X144728216Y-87940423D01*
X144591284Y-88019480D01*
X144479480Y-88131284D01*
X144400423Y-88268216D01*
X144359500Y-88420943D01*
X136067251Y-88420943D01*
X136080482Y-88371565D01*
X136113000Y-88124565D01*
X136113000Y-87875435D01*
X136080482Y-87628435D01*
X136016002Y-87387793D01*
X135920664Y-87157627D01*
X135796099Y-86941873D01*
X135644438Y-86744224D01*
X135468276Y-86568062D01*
X135468271Y-86568058D01*
X135468269Y-86568056D01*
X135468265Y-86568053D01*
X135270632Y-86416404D01*
X135268275Y-86415043D01*
X135255395Y-86407607D01*
X135236192Y-86396520D01*
X135054900Y-86291850D01*
X135054895Y-86291848D01*
X135054880Y-86291840D01*
X135054873Y-86291836D01*
X135054869Y-86291834D01*
X135054865Y-86291832D01*
X135054863Y-86291831D01*
X135054859Y-86291829D01*
X134830325Y-86198825D01*
X134826446Y-86196932D01*
X134825539Y-86196706D01*
X134823927Y-86196289D01*
X134586931Y-86132786D01*
X134584730Y-86132125D01*
X134579670Y-86131304D01*
X134577626Y-86131170D01*
X134337067Y-86099500D01*
X134337066Y-86099500D01*
X134337065Y-86099500D01*
X134087935Y-86099500D01*
X134087933Y-86099500D01*
X134087932Y-86099500D01*
X133847376Y-86131170D01*
X133847364Y-86131170D01*
X133840939Y-86132016D01*
X133600292Y-86196498D01*
X133600277Y-86196504D01*
X133370141Y-86291828D01*
X133154362Y-86416407D01*
X132956733Y-86568053D01*
X132780553Y-86744233D01*
X132628907Y-86941862D01*
X132504328Y-87157641D01*
X132409004Y-87387777D01*
X132408998Y-87387792D01*
X132344516Y-87628439D01*
X132343670Y-87634870D01*
X132343670Y-87634875D01*
X132312000Y-87875431D01*
X88000500Y-87875431D01*
X88000500Y-83920943D01*
X143859500Y-83920943D01*
X143859500Y-84079057D01*
X143900423Y-84231784D01*
X143979480Y-84368716D01*
X144091284Y-84480520D01*
X144228216Y-84559577D01*
X144380943Y-84600500D01*
X144380947Y-84600500D01*
X144386676Y-84602035D01*
X144391614Y-84603497D01*
X144420529Y-84612892D01*
X144459937Y-84637042D01*
X144632471Y-84809575D01*
X144632472Y-84809577D01*
X144683386Y-84860490D01*
X144786109Y-84919797D01*
X144786110Y-84919797D01*
X144786113Y-84919799D01*
X144796911Y-84922691D01*
X144814821Y-84930287D01*
X144828929Y-84931271D01*
X144891007Y-84947905D01*
X144893161Y-84948722D01*
X144900689Y-84950500D01*
X144900690Y-84950500D01*
X144900691Y-84950500D01*
X146504577Y-84950500D01*
X146535168Y-84955345D01*
X146559412Y-84963222D01*
X146589087Y-84978834D01*
X146591280Y-84980517D01*
X146591282Y-84980518D01*
X146591284Y-84980520D01*
X146728216Y-85059577D01*
X146880943Y-85100500D01*
X146880945Y-85100500D01*
X147039055Y-85100500D01*
X147039057Y-85100500D01*
X147191784Y-85059577D01*
X147328716Y-84980520D01*
X147440520Y-84868716D01*
X147519577Y-84731784D01*
X147560500Y-84579057D01*
X147560500Y-84420943D01*
X147519577Y-84268216D01*
X147440520Y-84131284D01*
X147328716Y-84019480D01*
X147191784Y-83940423D01*
X147039057Y-83899500D01*
X147039055Y-83899500D01*
X146880945Y-83899500D01*
X146880943Y-83899500D01*
X146728216Y-83940423D01*
X146591284Y-84019480D01*
X146591282Y-84019481D01*
X146586132Y-84022455D01*
X146581577Y-84024928D01*
X146554528Y-84038710D01*
X146509583Y-84049500D01*
X145203292Y-84049500D01*
X145172699Y-84044654D01*
X145149472Y-84037107D01*
X145110061Y-84012957D01*
X145100582Y-84003478D01*
X145082377Y-83978420D01*
X145070803Y-83955704D01*
X145060859Y-83923676D01*
X145060500Y-83920949D01*
X145060500Y-83920944D01*
X145049873Y-83881284D01*
X145019577Y-83768216D01*
X144940520Y-83631284D01*
X144828716Y-83519480D01*
X144691784Y-83440423D01*
X144539057Y-83399500D01*
X144539055Y-83399500D01*
X144380945Y-83399500D01*
X144380943Y-83399500D01*
X144228216Y-83440423D01*
X144091284Y-83519480D01*
X143979480Y-83631284D01*
X143900423Y-83768216D01*
X143859500Y-83920943D01*
X88000500Y-83920943D01*
X88000500Y-80311306D01*
X124299500Y-80311306D01*
X124299500Y-80315942D01*
X124299500Y-80488695D01*
X124332204Y-80653103D01*
X124332204Y-80653106D01*
X124334105Y-80662666D01*
X124369163Y-80747305D01*
X124400125Y-80822054D01*
X124401440Y-80825729D01*
X124401985Y-80826544D01*
X124401985Y-80826545D01*
X124442633Y-80887379D01*
X124500536Y-80974036D01*
X124625959Y-81099458D01*
X124625965Y-81099464D01*
X124640196Y-81108973D01*
X124662940Y-81129997D01*
X124669994Y-81138945D01*
X124691171Y-81196349D01*
X124674562Y-81255237D01*
X124674558Y-81255242D01*
X124670015Y-81262040D01*
X124642707Y-81289347D01*
X124625967Y-81300532D01*
X124500536Y-81425962D01*
X124401439Y-81574271D01*
X124400122Y-81577952D01*
X124334107Y-81737327D01*
X124334107Y-81737328D01*
X124334106Y-81737334D01*
X124299500Y-81911303D01*
X124299500Y-82088695D01*
X124332204Y-82253103D01*
X124332204Y-82253106D01*
X124334105Y-82262666D01*
X124369163Y-82347305D01*
X124400125Y-82422054D01*
X124401440Y-82425729D01*
X124401985Y-82426544D01*
X124401985Y-82426545D01*
X124474999Y-82535817D01*
X124500535Y-82574034D01*
X124625962Y-82699462D01*
X124625965Y-82699464D01*
X124773453Y-82798013D01*
X124937334Y-82865894D01*
X125111309Y-82900500D01*
X125111310Y-82900500D01*
X125288690Y-82900500D01*
X125288691Y-82900500D01*
X125462666Y-82865894D01*
X125626547Y-82798013D01*
X125774035Y-82699464D01*
X125843910Y-82629589D01*
X125868961Y-82611387D01*
X125880853Y-82605327D01*
X125941280Y-82595756D01*
X125946321Y-82596554D01*
X126000832Y-82624331D01*
X126075957Y-82699458D01*
X126075960Y-82699461D01*
X126075962Y-82699462D01*
X126075965Y-82699464D01*
X126223453Y-82798013D01*
X126387334Y-82865894D01*
X126561309Y-82900500D01*
X126561310Y-82900500D01*
X126738690Y-82900500D01*
X126738691Y-82900500D01*
X126912666Y-82865894D01*
X127076547Y-82798013D01*
X127224035Y-82699464D01*
X127293910Y-82629589D01*
X127318961Y-82611387D01*
X127330853Y-82605327D01*
X127391280Y-82595756D01*
X127396321Y-82596554D01*
X127450832Y-82624331D01*
X127525957Y-82699458D01*
X127525960Y-82699461D01*
X127525962Y-82699462D01*
X127525965Y-82699464D01*
X127673453Y-82798013D01*
X127837334Y-82865894D01*
X128011309Y-82900500D01*
X128011310Y-82900500D01*
X128188690Y-82900500D01*
X128188691Y-82900500D01*
X128362666Y-82865894D01*
X128526547Y-82798013D01*
X128674035Y-82699464D01*
X128799464Y-82574035D01*
X128898013Y-82426547D01*
X128965894Y-82262666D01*
X129000500Y-82088691D01*
X129000500Y-81911309D01*
X128965894Y-81737334D01*
X128899868Y-81577933D01*
X128898557Y-81574267D01*
X128799464Y-81425965D01*
X128674036Y-81300537D01*
X128674034Y-81300535D01*
X128673980Y-81300499D01*
X128659797Y-81291022D01*
X128637060Y-81270004D01*
X128630002Y-81261052D01*
X128608826Y-81203653D01*
X128625432Y-81144768D01*
X128629983Y-81137957D01*
X128657296Y-81110648D01*
X128673948Y-81099522D01*
X128674035Y-81099464D01*
X128799464Y-80974035D01*
X128898013Y-80826547D01*
X128965894Y-80662666D01*
X129000500Y-80488691D01*
X129000500Y-80311309D01*
X129000499Y-80311306D01*
X129000498Y-80311303D01*
X130999500Y-80311303D01*
X130999500Y-80488695D01*
X131032204Y-80653103D01*
X131032204Y-80653106D01*
X131034105Y-80662666D01*
X131069163Y-80747305D01*
X131100125Y-80822054D01*
X131101440Y-80825729D01*
X131101985Y-80826544D01*
X131101985Y-80826545D01*
X131142633Y-80887379D01*
X131200536Y-80974036D01*
X131325959Y-81099458D01*
X131325965Y-81099464D01*
X131340196Y-81108973D01*
X131362940Y-81129997D01*
X131369994Y-81138945D01*
X131391171Y-81196349D01*
X131374562Y-81255237D01*
X131374558Y-81255242D01*
X131370015Y-81262040D01*
X131342707Y-81289347D01*
X131325967Y-81300532D01*
X131200536Y-81425962D01*
X131101439Y-81574271D01*
X131100122Y-81577952D01*
X131034107Y-81737327D01*
X131034107Y-81737328D01*
X131034106Y-81737334D01*
X130999500Y-81911303D01*
X130999500Y-82088695D01*
X131032204Y-82253103D01*
X131032204Y-82253106D01*
X131034105Y-82262666D01*
X131069163Y-82347305D01*
X131100125Y-82422054D01*
X131101440Y-82425729D01*
X131101985Y-82426544D01*
X131101985Y-82426545D01*
X131174999Y-82535817D01*
X131200535Y-82574034D01*
X131325962Y-82699462D01*
X131325965Y-82699464D01*
X131473453Y-82798013D01*
X131637334Y-82865894D01*
X131811309Y-82900500D01*
X131811310Y-82900500D01*
X131988690Y-82900500D01*
X131988691Y-82900500D01*
X132162666Y-82865894D01*
X132326547Y-82798013D01*
X132474035Y-82699464D01*
X132543910Y-82629589D01*
X132568961Y-82611387D01*
X132580853Y-82605327D01*
X132641280Y-82595756D01*
X132646321Y-82596554D01*
X132700832Y-82624331D01*
X132775957Y-82699458D01*
X132775960Y-82699461D01*
X132775962Y-82699462D01*
X132775965Y-82699464D01*
X132923453Y-82798013D01*
X133087334Y-82865894D01*
X133261309Y-82900500D01*
X133261310Y-82900500D01*
X133438690Y-82900500D01*
X133438691Y-82900500D01*
X133612666Y-82865894D01*
X133776547Y-82798013D01*
X133924035Y-82699464D01*
X134049464Y-82574035D01*
X134148013Y-82426547D01*
X134215894Y-82262666D01*
X134250500Y-82088691D01*
X134250500Y-81911309D01*
X134215894Y-81737334D01*
X134149868Y-81577933D01*
X134148557Y-81574267D01*
X134049464Y-81425965D01*
X133924036Y-81300537D01*
X133924034Y-81300535D01*
X133923980Y-81300499D01*
X133909797Y-81291022D01*
X133887060Y-81270004D01*
X133880002Y-81261052D01*
X133858826Y-81203653D01*
X133875432Y-81144768D01*
X133879983Y-81137957D01*
X133907296Y-81110648D01*
X133923948Y-81099522D01*
X133924035Y-81099464D01*
X133993913Y-81029585D01*
X134018961Y-81011387D01*
X134030853Y-81005327D01*
X134091280Y-80995756D01*
X134096321Y-80996554D01*
X134150832Y-81024331D01*
X134225957Y-81099458D01*
X134225960Y-81099461D01*
X134225962Y-81099462D01*
X134225965Y-81099464D01*
X134373453Y-81198013D01*
X134373454Y-81198013D01*
X134373455Y-81198014D01*
X134392195Y-81205776D01*
X134537334Y-81265894D01*
X134711309Y-81300500D01*
X134711310Y-81300500D01*
X134888690Y-81300500D01*
X134888691Y-81300500D01*
X135062666Y-81265894D01*
X135226547Y-81198013D01*
X135374035Y-81099464D01*
X135499464Y-80974035D01*
X135598013Y-80826547D01*
X135665894Y-80662666D01*
X135700500Y-80488691D01*
X135700500Y-80311309D01*
X135665894Y-80137334D01*
X135598013Y-79973454D01*
X135598011Y-79973449D01*
X135533698Y-79877198D01*
X135533696Y-79877196D01*
X135530998Y-79873158D01*
X135530998Y-79873157D01*
X135530995Y-79873154D01*
X135499464Y-79825965D01*
X135498930Y-79825431D01*
X186310478Y-79825431D01*
X186310478Y-80074566D01*
X186342148Y-80315123D01*
X186342148Y-80315129D01*
X186342994Y-80321559D01*
X186407476Y-80562206D01*
X186407482Y-80562221D01*
X186502805Y-80792355D01*
X186502826Y-80792395D01*
X186522543Y-80826545D01*
X186607696Y-80974035D01*
X186613544Y-80984164D01*
X186627380Y-81008130D01*
X186727758Y-81138945D01*
X186779034Y-81205769D01*
X186779036Y-81205771D01*
X186779040Y-81205776D01*
X186955202Y-81381938D01*
X186955206Y-81381941D01*
X186955211Y-81381946D01*
X186955233Y-81381965D01*
X186955607Y-81382249D01*
X187152847Y-81533596D01*
X187152851Y-81533599D01*
X187368605Y-81658164D01*
X187598771Y-81753502D01*
X187839413Y-81817982D01*
X188086413Y-81850500D01*
X188086414Y-81850500D01*
X188335542Y-81850500D01*
X188335543Y-81850500D01*
X188582543Y-81817982D01*
X188823185Y-81753502D01*
X189053351Y-81658164D01*
X189269105Y-81533599D01*
X189466754Y-81381938D01*
X189642916Y-81205776D01*
X189794577Y-81008127D01*
X189919142Y-80792373D01*
X190013183Y-80565337D01*
X190021616Y-80549310D01*
X190028379Y-80538895D01*
X190075927Y-80500388D01*
X190137028Y-80497183D01*
X190188344Y-80530505D01*
X190191717Y-80534670D01*
X190206638Y-80560741D01*
X190206835Y-80560660D01*
X190302807Y-80792359D01*
X190302826Y-80792395D01*
X190322543Y-80826545D01*
X190407696Y-80974035D01*
X190413544Y-80984164D01*
X190427380Y-81008130D01*
X190527758Y-81138945D01*
X190579034Y-81205769D01*
X190579036Y-81205771D01*
X190579040Y-81205776D01*
X190755202Y-81381938D01*
X190755206Y-81381941D01*
X190755211Y-81381946D01*
X190755233Y-81381965D01*
X190755607Y-81382249D01*
X190952847Y-81533596D01*
X190952851Y-81533599D01*
X191168605Y-81658164D01*
X191398771Y-81753502D01*
X191639413Y-81817982D01*
X191886413Y-81850500D01*
X191886414Y-81850500D01*
X192135542Y-81850500D01*
X192135543Y-81850500D01*
X192382543Y-81817982D01*
X192623185Y-81753502D01*
X192853351Y-81658164D01*
X193069105Y-81533599D01*
X193266754Y-81381938D01*
X193442916Y-81205776D01*
X193594577Y-81008127D01*
X193719142Y-80792373D01*
X193814480Y-80562207D01*
X193878960Y-80321565D01*
X193911478Y-80074565D01*
X193911478Y-79825435D01*
X193878960Y-79578435D01*
X193814480Y-79337793D01*
X193719142Y-79107627D01*
X193594577Y-78891873D01*
X193442916Y-78694224D01*
X193266754Y-78518062D01*
X193266749Y-78518058D01*
X193266747Y-78518056D01*
X193069108Y-78366403D01*
X193069105Y-78366401D01*
X192987193Y-78319109D01*
X192853364Y-78241843D01*
X192853355Y-78241838D01*
X192853351Y-78241836D01*
X192853347Y-78241834D01*
X192853343Y-78241832D01*
X192853341Y-78241831D01*
X192853337Y-78241829D01*
X192628803Y-78148825D01*
X192624924Y-78146932D01*
X192624017Y-78146706D01*
X192622405Y-78146289D01*
X192385409Y-78082786D01*
X192383208Y-78082125D01*
X192378148Y-78081304D01*
X192376104Y-78081170D01*
X192135545Y-78049500D01*
X192135544Y-78049500D01*
X192135543Y-78049500D01*
X191886413Y-78049500D01*
X191886411Y-78049500D01*
X191886410Y-78049500D01*
X191645854Y-78081170D01*
X191645842Y-78081170D01*
X191639417Y-78082016D01*
X191398770Y-78146498D01*
X191398755Y-78146504D01*
X191168619Y-78241828D01*
X190952840Y-78366407D01*
X190755211Y-78518053D01*
X190579031Y-78694233D01*
X190427385Y-78891862D01*
X190302807Y-79107638D01*
X190208772Y-79334662D01*
X190200333Y-79350701D01*
X190193571Y-79361112D01*
X190146018Y-79399614D01*
X190084916Y-79402812D01*
X190033605Y-79369486D01*
X190030282Y-79365382D01*
X190016223Y-79340137D01*
X190015564Y-79340410D01*
X189919144Y-79107631D01*
X189919142Y-79107627D01*
X189794577Y-78891873D01*
X189642916Y-78694224D01*
X189466754Y-78518062D01*
X189466749Y-78518058D01*
X189466747Y-78518056D01*
X189269108Y-78366403D01*
X189269105Y-78366401D01*
X189187193Y-78319109D01*
X189053364Y-78241843D01*
X189053355Y-78241838D01*
X189053351Y-78241836D01*
X189053347Y-78241834D01*
X189053343Y-78241832D01*
X189053341Y-78241831D01*
X189053337Y-78241829D01*
X188828803Y-78148825D01*
X188824924Y-78146932D01*
X188824017Y-78146706D01*
X188822405Y-78146289D01*
X188585409Y-78082786D01*
X188583208Y-78082125D01*
X188578148Y-78081304D01*
X188576104Y-78081170D01*
X188335545Y-78049500D01*
X188335544Y-78049500D01*
X188335543Y-78049500D01*
X188086413Y-78049500D01*
X188086411Y-78049500D01*
X188086410Y-78049500D01*
X187845854Y-78081170D01*
X187845842Y-78081170D01*
X187839417Y-78082016D01*
X187598770Y-78146498D01*
X187598755Y-78146504D01*
X187368619Y-78241828D01*
X187152840Y-78366407D01*
X186955211Y-78518053D01*
X186779031Y-78694233D01*
X186627385Y-78891862D01*
X186502806Y-79107641D01*
X186407482Y-79337777D01*
X186407476Y-79337792D01*
X186342994Y-79578439D01*
X186342148Y-79584870D01*
X186342148Y-79584875D01*
X186310478Y-79825431D01*
X135498930Y-79825431D01*
X135374042Y-79700542D01*
X135374037Y-79700538D01*
X135374034Y-79700535D01*
X135226544Y-79601985D01*
X135226545Y-79601985D01*
X135226543Y-79601984D01*
X135062667Y-79534106D01*
X135062666Y-79534106D01*
X135004675Y-79522570D01*
X134888695Y-79499500D01*
X134888693Y-79499500D01*
X134888691Y-79499500D01*
X134711309Y-79499500D01*
X134711306Y-79499500D01*
X134711303Y-79499500D01*
X134546896Y-79532204D01*
X134546890Y-79532204D01*
X134537330Y-79534105D01*
X134377952Y-79600122D01*
X134374271Y-79601439D01*
X134225965Y-79700534D01*
X134156090Y-79770409D01*
X134131037Y-79788612D01*
X134119153Y-79794668D01*
X134058721Y-79804243D01*
X134058716Y-79804242D01*
X134053684Y-79803445D01*
X133999167Y-79775668D01*
X133924037Y-79700538D01*
X133924034Y-79700535D01*
X133776544Y-79601985D01*
X133776545Y-79601985D01*
X133776543Y-79601984D01*
X133612667Y-79534106D01*
X133612666Y-79534106D01*
X133554675Y-79522570D01*
X133438695Y-79499500D01*
X133438693Y-79499500D01*
X133438691Y-79499500D01*
X133261309Y-79499500D01*
X133261306Y-79499500D01*
X133261303Y-79499500D01*
X133096896Y-79532204D01*
X133096890Y-79532204D01*
X133087330Y-79534105D01*
X132927952Y-79600122D01*
X132924271Y-79601439D01*
X132775965Y-79700534D01*
X132706090Y-79770409D01*
X132681037Y-79788612D01*
X132669153Y-79794668D01*
X132608721Y-79804243D01*
X132608716Y-79804242D01*
X132603684Y-79803445D01*
X132549167Y-79775668D01*
X132474037Y-79700538D01*
X132474034Y-79700535D01*
X132326544Y-79601985D01*
X132326545Y-79601985D01*
X132326543Y-79601984D01*
X132162667Y-79534106D01*
X132162666Y-79534106D01*
X132104675Y-79522570D01*
X131988695Y-79499500D01*
X131988693Y-79499500D01*
X131988691Y-79499500D01*
X131811309Y-79499500D01*
X131811306Y-79499500D01*
X131811303Y-79499500D01*
X131646896Y-79532204D01*
X131646890Y-79532204D01*
X131637330Y-79534105D01*
X131477952Y-79600122D01*
X131474271Y-79601439D01*
X131325965Y-79700534D01*
X131200534Y-79825965D01*
X131101439Y-79974271D01*
X131100122Y-79977952D01*
X131034107Y-80137327D01*
X131034107Y-80137328D01*
X131034106Y-80137334D01*
X130999500Y-80311303D01*
X129000498Y-80311303D01*
X128994758Y-80282443D01*
X128965894Y-80137334D01*
X128899868Y-79977933D01*
X128898557Y-79974267D01*
X128898010Y-79973449D01*
X128799464Y-79825965D01*
X128674034Y-79700535D01*
X128526544Y-79601985D01*
X128526545Y-79601985D01*
X128526543Y-79601984D01*
X128362667Y-79534106D01*
X128362666Y-79534106D01*
X128304675Y-79522570D01*
X128188695Y-79499500D01*
X128188693Y-79499500D01*
X128188691Y-79499500D01*
X128011309Y-79499500D01*
X128011306Y-79499500D01*
X128011303Y-79499500D01*
X127846896Y-79532204D01*
X127846890Y-79532204D01*
X127837330Y-79534105D01*
X127677952Y-79600122D01*
X127674271Y-79601439D01*
X127525965Y-79700534D01*
X127456090Y-79770409D01*
X127431037Y-79788612D01*
X127419153Y-79794668D01*
X127358721Y-79804243D01*
X127358716Y-79804242D01*
X127353684Y-79803445D01*
X127299167Y-79775668D01*
X127224037Y-79700538D01*
X127224034Y-79700535D01*
X127076544Y-79601985D01*
X127076545Y-79601985D01*
X127076543Y-79601984D01*
X126912667Y-79534106D01*
X126912666Y-79534106D01*
X126854675Y-79522570D01*
X126738695Y-79499500D01*
X126738693Y-79499500D01*
X126738691Y-79499500D01*
X126561309Y-79499500D01*
X126561306Y-79499500D01*
X126561303Y-79499500D01*
X126396896Y-79532204D01*
X126396890Y-79532204D01*
X126387330Y-79534105D01*
X126227952Y-79600122D01*
X126224271Y-79601439D01*
X126075965Y-79700534D01*
X126006090Y-79770409D01*
X125981037Y-79788612D01*
X125969153Y-79794668D01*
X125908721Y-79804243D01*
X125908716Y-79804242D01*
X125903684Y-79803445D01*
X125849167Y-79775668D01*
X125774037Y-79700538D01*
X125774034Y-79700535D01*
X125626544Y-79601985D01*
X125626545Y-79601985D01*
X125626543Y-79601984D01*
X125462667Y-79534106D01*
X125462666Y-79534106D01*
X125404675Y-79522570D01*
X125288695Y-79499500D01*
X125288693Y-79499500D01*
X125288691Y-79499500D01*
X125111309Y-79499500D01*
X125111306Y-79499500D01*
X125111303Y-79499500D01*
X124946896Y-79532204D01*
X124946890Y-79532204D01*
X124937330Y-79534105D01*
X124777952Y-79600122D01*
X124774271Y-79601439D01*
X124625965Y-79700534D01*
X124500534Y-79825965D01*
X124401439Y-79974271D01*
X124400122Y-79977952D01*
X124334108Y-80137323D01*
X124334106Y-80137330D01*
X124334106Y-80137332D01*
X124334106Y-80137334D01*
X124299500Y-80311306D01*
X88000500Y-80311306D01*
X88000500Y-76487013D01*
X88005343Y-76456427D01*
X88009465Y-76443738D01*
X88045423Y-76394239D01*
X88053693Y-76388231D01*
X88088514Y-76372122D01*
X114691871Y-69911306D01*
X124299500Y-69911306D01*
X124299500Y-69915942D01*
X124299500Y-70088695D01*
X124332204Y-70253103D01*
X124332204Y-70253106D01*
X124334105Y-70262666D01*
X124369163Y-70347305D01*
X124400125Y-70422054D01*
X124401440Y-70425729D01*
X124401985Y-70426544D01*
X124401985Y-70426545D01*
X124442633Y-70487379D01*
X124500536Y-70574036D01*
X124625960Y-70699459D01*
X124625965Y-70699464D01*
X124640196Y-70708973D01*
X124662940Y-70729997D01*
X124669994Y-70738945D01*
X124691171Y-70796349D01*
X124674562Y-70855237D01*
X124674558Y-70855242D01*
X124670015Y-70862040D01*
X124642707Y-70889347D01*
X124625967Y-70900532D01*
X124500536Y-71025962D01*
X124401439Y-71174271D01*
X124400122Y-71177952D01*
X124334107Y-71337327D01*
X124334107Y-71337328D01*
X124334106Y-71337334D01*
X124299500Y-71511303D01*
X124299500Y-71688695D01*
X124332204Y-71853103D01*
X124332204Y-71853106D01*
X124334105Y-71862666D01*
X124369163Y-71947305D01*
X124400125Y-72022054D01*
X124401440Y-72025729D01*
X124401985Y-72026544D01*
X124401985Y-72026545D01*
X124474999Y-72135817D01*
X124500535Y-72174034D01*
X124625962Y-72299462D01*
X124625965Y-72299464D01*
X124773453Y-72398013D01*
X124937334Y-72465894D01*
X125111309Y-72500500D01*
X125111310Y-72500500D01*
X125288690Y-72500500D01*
X125288691Y-72500500D01*
X125462666Y-72465894D01*
X125626547Y-72398013D01*
X125774035Y-72299464D01*
X125843910Y-72229589D01*
X125868961Y-72211387D01*
X125880853Y-72205327D01*
X125941280Y-72195756D01*
X125946321Y-72196554D01*
X126000832Y-72224331D01*
X126075957Y-72299458D01*
X126075960Y-72299461D01*
X126075962Y-72299462D01*
X126075965Y-72299464D01*
X126223453Y-72398013D01*
X126387334Y-72465894D01*
X126561309Y-72500500D01*
X126561310Y-72500500D01*
X126738690Y-72500500D01*
X126738691Y-72500500D01*
X126912666Y-72465894D01*
X127076547Y-72398013D01*
X127224035Y-72299464D01*
X127293910Y-72229589D01*
X127318961Y-72211387D01*
X127330853Y-72205327D01*
X127391280Y-72195756D01*
X127396321Y-72196554D01*
X127450832Y-72224331D01*
X127525957Y-72299458D01*
X127525960Y-72299461D01*
X127525962Y-72299462D01*
X127525965Y-72299464D01*
X127673453Y-72398013D01*
X127837334Y-72465894D01*
X128011309Y-72500500D01*
X128011310Y-72500500D01*
X128188690Y-72500500D01*
X128188691Y-72500500D01*
X128362666Y-72465894D01*
X128526547Y-72398013D01*
X128674035Y-72299464D01*
X128799464Y-72174035D01*
X128898013Y-72026547D01*
X128965894Y-71862666D01*
X129000500Y-71688691D01*
X129000500Y-71511309D01*
X128965894Y-71337334D01*
X128899868Y-71177933D01*
X128898557Y-71174267D01*
X128799464Y-71025965D01*
X128674035Y-70900536D01*
X128674035Y-70900535D01*
X128674033Y-70900534D01*
X128659799Y-70891023D01*
X128637060Y-70870005D01*
X128630005Y-70861055D01*
X128608827Y-70803658D01*
X128625430Y-70744772D01*
X128629983Y-70737957D01*
X128657296Y-70710648D01*
X128659806Y-70708971D01*
X128674035Y-70699464D01*
X128799464Y-70574035D01*
X128898013Y-70426547D01*
X128965894Y-70262666D01*
X129000500Y-70088691D01*
X129000500Y-69911309D01*
X129000499Y-69911306D01*
X129000498Y-69911303D01*
X130999500Y-69911303D01*
X130999500Y-70088695D01*
X131032204Y-70253103D01*
X131032204Y-70253106D01*
X131034105Y-70262666D01*
X131069163Y-70347305D01*
X131100125Y-70422054D01*
X131101440Y-70425729D01*
X131101985Y-70426544D01*
X131101985Y-70426545D01*
X131142633Y-70487379D01*
X131200536Y-70574036D01*
X131325960Y-70699459D01*
X131325965Y-70699464D01*
X131340196Y-70708973D01*
X131362940Y-70729997D01*
X131369994Y-70738945D01*
X131391171Y-70796349D01*
X131374562Y-70855237D01*
X131374558Y-70855242D01*
X131370015Y-70862040D01*
X131342707Y-70889347D01*
X131325967Y-70900532D01*
X131200536Y-71025962D01*
X131101439Y-71174271D01*
X131100122Y-71177952D01*
X131034107Y-71337327D01*
X131034107Y-71337328D01*
X131034106Y-71337334D01*
X130999500Y-71511303D01*
X130999500Y-71688695D01*
X131032204Y-71853103D01*
X131032204Y-71853106D01*
X131034105Y-71862666D01*
X131069163Y-71947305D01*
X131100125Y-72022054D01*
X131101440Y-72025729D01*
X131101985Y-72026544D01*
X131101985Y-72026545D01*
X131174999Y-72135817D01*
X131200535Y-72174034D01*
X131325962Y-72299462D01*
X131325965Y-72299464D01*
X131473453Y-72398013D01*
X131637334Y-72465894D01*
X131811309Y-72500500D01*
X131811310Y-72500500D01*
X131988690Y-72500500D01*
X131988691Y-72500500D01*
X132162666Y-72465894D01*
X132326547Y-72398013D01*
X132474035Y-72299464D01*
X132543910Y-72229589D01*
X132568961Y-72211387D01*
X132580853Y-72205327D01*
X132641280Y-72195756D01*
X132646321Y-72196554D01*
X132700832Y-72224331D01*
X132775957Y-72299458D01*
X132775960Y-72299461D01*
X132775962Y-72299462D01*
X132775965Y-72299464D01*
X132923453Y-72398013D01*
X133087334Y-72465894D01*
X133261309Y-72500500D01*
X133261310Y-72500500D01*
X133438690Y-72500500D01*
X133438691Y-72500500D01*
X133612666Y-72465894D01*
X133776547Y-72398013D01*
X133924035Y-72299464D01*
X133993910Y-72229589D01*
X134018961Y-72211387D01*
X134030853Y-72205327D01*
X134091280Y-72195756D01*
X134096321Y-72196554D01*
X134150832Y-72224331D01*
X134225957Y-72299458D01*
X134225960Y-72299461D01*
X134225962Y-72299462D01*
X134225965Y-72299464D01*
X134373453Y-72398013D01*
X134537334Y-72465894D01*
X134711309Y-72500500D01*
X134711310Y-72500500D01*
X134888690Y-72500500D01*
X134888691Y-72500500D01*
X135062666Y-72465894D01*
X135226547Y-72398013D01*
X135374035Y-72299464D01*
X135499464Y-72174035D01*
X135598013Y-72026547D01*
X135665894Y-71862666D01*
X135700500Y-71688691D01*
X135700500Y-71511309D01*
X135665894Y-71337334D01*
X135599868Y-71177933D01*
X135598557Y-71174267D01*
X135499464Y-71025965D01*
X135374035Y-70900536D01*
X135374035Y-70900535D01*
X135374033Y-70900534D01*
X135359799Y-70891023D01*
X135337060Y-70870005D01*
X135330005Y-70861055D01*
X135308827Y-70803658D01*
X135325430Y-70744772D01*
X135329983Y-70737957D01*
X135357296Y-70710648D01*
X135359806Y-70708971D01*
X135374035Y-70699464D01*
X135499464Y-70574035D01*
X135598013Y-70426547D01*
X135665894Y-70262666D01*
X135700500Y-70088691D01*
X135700500Y-69911309D01*
X135665894Y-69737334D01*
X135599868Y-69577933D01*
X135598557Y-69574267D01*
X135499464Y-69425965D01*
X135374037Y-69300538D01*
X135374034Y-69300535D01*
X135226544Y-69201985D01*
X135226545Y-69201985D01*
X135226543Y-69201984D01*
X135062667Y-69134106D01*
X135062666Y-69134106D01*
X135004675Y-69122570D01*
X134888695Y-69099500D01*
X134888693Y-69099500D01*
X134888691Y-69099500D01*
X134711309Y-69099500D01*
X134711306Y-69099500D01*
X134711303Y-69099500D01*
X134546896Y-69132204D01*
X134546890Y-69132204D01*
X134537330Y-69134105D01*
X134377952Y-69200122D01*
X134374271Y-69201439D01*
X134225965Y-69300534D01*
X134156090Y-69370409D01*
X134131037Y-69388612D01*
X134119153Y-69394668D01*
X134058721Y-69404243D01*
X134058716Y-69404242D01*
X134053684Y-69403445D01*
X133999167Y-69375668D01*
X133924037Y-69300538D01*
X133924034Y-69300535D01*
X133776544Y-69201985D01*
X133776545Y-69201985D01*
X133776543Y-69201984D01*
X133612667Y-69134106D01*
X133612666Y-69134106D01*
X133554675Y-69122570D01*
X133438695Y-69099500D01*
X133438693Y-69099500D01*
X133438691Y-69099500D01*
X133261309Y-69099500D01*
X133261306Y-69099500D01*
X133261303Y-69099500D01*
X133096896Y-69132204D01*
X133096890Y-69132204D01*
X133087330Y-69134105D01*
X132927952Y-69200122D01*
X132924271Y-69201439D01*
X132775965Y-69300534D01*
X132706090Y-69370409D01*
X132681037Y-69388612D01*
X132669153Y-69394668D01*
X132608721Y-69404243D01*
X132608716Y-69404242D01*
X132603684Y-69403445D01*
X132549167Y-69375668D01*
X132474037Y-69300538D01*
X132474034Y-69300535D01*
X132326544Y-69201985D01*
X132326545Y-69201985D01*
X132326543Y-69201984D01*
X132162667Y-69134106D01*
X132162666Y-69134106D01*
X132104675Y-69122570D01*
X131988695Y-69099500D01*
X131988693Y-69099500D01*
X131988691Y-69099500D01*
X131811309Y-69099500D01*
X131811306Y-69099500D01*
X131811303Y-69099500D01*
X131646896Y-69132204D01*
X131646890Y-69132204D01*
X131637330Y-69134105D01*
X131477952Y-69200122D01*
X131474271Y-69201439D01*
X131325965Y-69300534D01*
X131200534Y-69425965D01*
X131101439Y-69574271D01*
X131100122Y-69577952D01*
X131034107Y-69737327D01*
X131034107Y-69737328D01*
X131034106Y-69737334D01*
X130999500Y-69911303D01*
X129000498Y-69911303D01*
X128994758Y-69882443D01*
X128965894Y-69737334D01*
X128899868Y-69577933D01*
X128898557Y-69574267D01*
X128799464Y-69425965D01*
X128674037Y-69300538D01*
X128674034Y-69300535D01*
X128526544Y-69201985D01*
X128526545Y-69201985D01*
X128526543Y-69201984D01*
X128362667Y-69134106D01*
X128362666Y-69134106D01*
X128304675Y-69122570D01*
X128188695Y-69099500D01*
X128188693Y-69099500D01*
X128188691Y-69099500D01*
X128011309Y-69099500D01*
X128011306Y-69099500D01*
X128011303Y-69099500D01*
X127846896Y-69132204D01*
X127846890Y-69132204D01*
X127837330Y-69134105D01*
X127677952Y-69200122D01*
X127674271Y-69201439D01*
X127525965Y-69300534D01*
X127456090Y-69370409D01*
X127431037Y-69388612D01*
X127419153Y-69394668D01*
X127358721Y-69404243D01*
X127358716Y-69404242D01*
X127353684Y-69403445D01*
X127299167Y-69375668D01*
X127224037Y-69300538D01*
X127224034Y-69300535D01*
X127076544Y-69201985D01*
X127076545Y-69201985D01*
X127076543Y-69201984D01*
X126912667Y-69134106D01*
X126912666Y-69134106D01*
X126854675Y-69122570D01*
X126738695Y-69099500D01*
X126738693Y-69099500D01*
X126738691Y-69099500D01*
X126561309Y-69099500D01*
X126561306Y-69099500D01*
X126561303Y-69099500D01*
X126396896Y-69132204D01*
X126396890Y-69132204D01*
X126387330Y-69134105D01*
X126227952Y-69200122D01*
X126224271Y-69201439D01*
X126075965Y-69300534D01*
X126006090Y-69370409D01*
X125981037Y-69388612D01*
X125969153Y-69394668D01*
X125908721Y-69404243D01*
X125908716Y-69404242D01*
X125903684Y-69403445D01*
X125849167Y-69375668D01*
X125774037Y-69300538D01*
X125774034Y-69300535D01*
X125626544Y-69201985D01*
X125626545Y-69201985D01*
X125626543Y-69201984D01*
X125462667Y-69134106D01*
X125462666Y-69134106D01*
X125404675Y-69122570D01*
X125288695Y-69099500D01*
X125288693Y-69099500D01*
X125288691Y-69099500D01*
X125111309Y-69099500D01*
X125111306Y-69099500D01*
X125111303Y-69099500D01*
X124946896Y-69132204D01*
X124946890Y-69132204D01*
X124937330Y-69134105D01*
X124777952Y-69200122D01*
X124774271Y-69201439D01*
X124625965Y-69300534D01*
X124500534Y-69425965D01*
X124401439Y-69574271D01*
X124400122Y-69577952D01*
X124334108Y-69737323D01*
X124334106Y-69737330D01*
X124334106Y-69737332D01*
X124334106Y-69737334D01*
X124299500Y-69911306D01*
X114691871Y-69911306D01*
X122542667Y-68004684D01*
X122554248Y-68002594D01*
X122565905Y-68001199D01*
X122577653Y-68000500D01*
X179931258Y-68000500D01*
X179941677Y-68001049D01*
G37*
%TD.AperFunction*%
%TD*%
M02*
