%TF.GenerationSoftware,KiCad,Pcbnew,10.0.4*%
%TF.CreationDate,2026-10-05T12:06:53-05:00*%
%TF.ProjectId,Osiris_PDB_REV1.1_LowCopper_Prototype,4f736972-6973-45f5-9044-425f52455631,1.1-LC-PROTOTYPE*%
%TF.SameCoordinates,Original*%
%TF.FileFunction,Copper,L2,Inr*%
%TF.FilePolarity,Positive*%
%FSLAX46Y46*%
G04 Gerber Fmt 4.6, Leading zero omitted, Abs format (unit mm)*
G04 Created by KiCad (PCBNEW 10.0.4) date 2026-10-05 12:06:53*
%MOMM*%
%LPD*%
G01*
G04 APERTURE LIST*
G04 Aperture macros list*
%AMRoundRect*
0 Rectangle with rounded corners*
0 $1 Rounding radius*
0 $2 $3 $4 $5 $6 $7 $8 $9 X,Y pos of 4 corners*
0 Add a 4 corners polygon primitive as box body*
4,1,4,$2,$3,$4,$5,$6,$7,$8,$9,$2,$3,0*
0 Add four circle primitives for the rounded corners*
1,1,$1+$1,$2,$3*
1,1,$1+$1,$4,$5*
1,1,$1+$1,$6,$7*
1,1,$1+$1,$8,$9*
0 Add four rect primitives between the rounded corners*
20,1,$1+$1,$2,$3,$4,$5,0*
20,1,$1+$1,$4,$5,$6,$7,0*
20,1,$1+$1,$6,$7,$8,$9,0*
20,1,$1+$1,$8,$9,$2,$3,0*%
G04 Aperture macros list end*
%TA.AperFunction,ComponentPad*%
%ADD10C,1.500000*%
%TD*%
%TA.AperFunction,ComponentPad*%
%ADD11R,3.200000X3.200000*%
%TD*%
%TA.AperFunction,ComponentPad*%
%ADD12C,3.200000*%
%TD*%
%TA.AperFunction,ComponentPad*%
%ADD13C,2.780000*%
%TD*%
%TA.AperFunction,ComponentPad*%
%ADD14R,2.300000X1.200000*%
%TD*%
%TA.AperFunction,ComponentPad*%
%ADD15RoundRect,1.025000X-1.025000X1.025000X-1.025000X-1.025000X1.025000X-1.025000X1.025000X1.025000X0*%
%TD*%
%TA.AperFunction,ComponentPad*%
%ADD16C,4.100000*%
%TD*%
%TA.AperFunction,ViaPad*%
%ADD17C,0.600000*%
%TD*%
%TA.AperFunction,ViaPad*%
%ADD18C,1.200000*%
%TD*%
%TA.AperFunction,ViaPad*%
%ADD19C,0.800000*%
%TD*%
G04 APERTURE END LIST*
D10*
%TO.N,/VBAT_FUSED*%
%TO.C,C15*%
X155210000Y-102750000D03*
%TO.N,/IDEAL_VSS*%
X155210000Y-107750000D03*
%TD*%
%TO.N,/INPUT_DAMP*%
%TO.C,C16*%
X128710000Y-105750000D03*
%TO.N,GND*%
X123710000Y-105750000D03*
%TD*%
%TO.N,/INA_VBUS*%
%TO.C,C14*%
X158460000Y-115750000D03*
%TO.N,GND*%
X158460000Y-120750000D03*
%TD*%
%TO.N,/INA_IN_N*%
%TO.C,C13*%
X153460000Y-115750000D03*
%TO.N,GND*%
X153460000Y-120750000D03*
%TD*%
D11*
%TO.N,GND*%
%TO.C,J1*%
X95450000Y-93450000D03*
D12*
X95450000Y-105950000D03*
X99250000Y-93450000D03*
X99250000Y-105950000D03*
%TO.N,/VBAT_RAW*%
X110450000Y-93450000D03*
X110450000Y-105950000D03*
X114250000Y-93450000D03*
X114250000Y-105950000D03*
%TD*%
D13*
%TO.N,/VBAT_RAW*%
%TO.C,F1*%
X125750000Y-94800000D03*
X125750000Y-98200000D03*
%TO.N,/IDEAL_IN*%
X135670000Y-94800000D03*
X135670000Y-98200000D03*
%TD*%
D14*
%TO.N,*%
%TO.C,J4*%
X185335000Y-110400000D03*
X185335000Y-123900000D03*
D15*
%TO.N,GND*%
X179335000Y-120750000D03*
D16*
%TO.N,/PDB_VOUT*%
X179335000Y-113550000D03*
%TD*%
D10*
%TO.N,/VBAT_FUSED*%
%TO.C,C11*%
X149960000Y-102750000D03*
%TO.N,/IDEAL_VSS*%
X149960000Y-107750000D03*
%TD*%
%TO.N,/INA_IN_P*%
%TO.C,C12*%
X148460000Y-115750000D03*
%TO.N,GND*%
X148460000Y-120750000D03*
%TD*%
D11*
%TO.N,GND*%
%TO.C,J3*%
X207010978Y-92450000D03*
D12*
X207010978Y-79950000D03*
X203210978Y-92450000D03*
X203210978Y-79950000D03*
%TO.N,/ESC_VBAT*%
X192010978Y-92450000D03*
X192010978Y-79950000D03*
X188210978Y-92450000D03*
X188210978Y-79950000D03*
%TD*%
D17*
%TO.N,/SHUNT_LO*%
X161210000Y-91750000D03*
X146460000Y-91500000D03*
%TO.N,/INA_IN_N*%
X148460000Y-111250000D03*
X155210000Y-94250000D03*
%TO.N,/PDB_3V3*%
X154460000Y-109750000D03*
X162710000Y-117250000D03*
X162140678Y-110615689D03*
%TO.N,/INA_ALERT_N*%
X141210000Y-114750000D03*
X143210000Y-113000000D03*
%TO.N,GND*%
X156210000Y-114500000D03*
X153960000Y-90250000D03*
X172210000Y-130000000D03*
X132210000Y-131350000D03*
D18*
X201000000Y-98000000D03*
D17*
X154750000Y-68600000D03*
X185460000Y-128250000D03*
D18*
X201000000Y-100000000D03*
D17*
X150460000Y-84500000D03*
X185460000Y-130000000D03*
X121950000Y-72400000D03*
X164710000Y-131350000D03*
X174710000Y-131350000D03*
X134210000Y-105500000D03*
X151210000Y-106250000D03*
X158960000Y-104000000D03*
X124710000Y-124000000D03*
X188460000Y-128250000D03*
D18*
X180000000Y-105000000D03*
D17*
X147210000Y-131350000D03*
X180000000Y-76750000D03*
X129210000Y-87250000D03*
X140710000Y-90500000D03*
X191210000Y-126750000D03*
X188460000Y-126750000D03*
X135210000Y-106750000D03*
D18*
X123000000Y-112000000D03*
D17*
X180000000Y-75000000D03*
X164710000Y-130000000D03*
X165710000Y-114250000D03*
X140210000Y-89500000D03*
X139750000Y-68600000D03*
X137250000Y-68600000D03*
X150210000Y-105000000D03*
X124710000Y-126000000D03*
X142710000Y-85500000D03*
X165210000Y-115250000D03*
X134710000Y-131350000D03*
X147250000Y-68600000D03*
X122500000Y-124250000D03*
X127210000Y-128000000D03*
X154710000Y-130000000D03*
X165710000Y-103000000D03*
X162210000Y-131350000D03*
D19*
X165710000Y-85600000D03*
D17*
X120000000Y-121750000D03*
X167210000Y-130000000D03*
X152210000Y-130000000D03*
X141710000Y-89500000D03*
X186960000Y-129000000D03*
D19*
X154800000Y-79400000D03*
D17*
X132250000Y-68600000D03*
X159710000Y-130000000D03*
X115000000Y-116750000D03*
D18*
X140000000Y-71500000D03*
D17*
X142250000Y-68600000D03*
X139710000Y-130000000D03*
X149710000Y-130000000D03*
X177210000Y-131350000D03*
X127210000Y-126000000D03*
D18*
X177000000Y-105000000D03*
X180000000Y-103000000D03*
D17*
X157210000Y-130000000D03*
X192460000Y-126000000D03*
X117500000Y-117500000D03*
X139710000Y-131350000D03*
X149750000Y-68600000D03*
X129710000Y-130000000D03*
X172250000Y-68600000D03*
D18*
X117000000Y-114000000D03*
D17*
X180460000Y-130000000D03*
X174750000Y-68600000D03*
X120000000Y-75000000D03*
X169710000Y-130000000D03*
X159750000Y-68600000D03*
D18*
X120000000Y-112000000D03*
D17*
X137210000Y-131350000D03*
X139710000Y-83500000D03*
X177250000Y-68600000D03*
X182210000Y-131350000D03*
X135210000Y-130250000D03*
X158960000Y-114000000D03*
X134710000Y-82750000D03*
X162210000Y-130000000D03*
X191210000Y-125250000D03*
X124750000Y-68600000D03*
X186960000Y-127500000D03*
X117500000Y-79250000D03*
X152250000Y-68600000D03*
D18*
X117000000Y-112000000D03*
D17*
X117500000Y-119250000D03*
X134210000Y-84250000D03*
X169750000Y-68600000D03*
X144750000Y-68600000D03*
D18*
X198000000Y-98000000D03*
D19*
X171950000Y-86000000D03*
D18*
X134800000Y-82000000D03*
D17*
X164750000Y-68600000D03*
X178460000Y-83000000D03*
X179960000Y-84000000D03*
X144710000Y-130000000D03*
D18*
X198000000Y-100000000D03*
D17*
X160210000Y-115250000D03*
X167250000Y-68600000D03*
X184210000Y-129250000D03*
X182210000Y-130000000D03*
X152960000Y-111750000D03*
X174710000Y-130000000D03*
X135460000Y-105000000D03*
X178210000Y-84250000D03*
X129750000Y-68600000D03*
X167210000Y-131350000D03*
X172210000Y-131350000D03*
X134750000Y-68600000D03*
X129710000Y-85500000D03*
X160460000Y-104750000D03*
X147960000Y-84000000D03*
X117500000Y-77500000D03*
D18*
X150000000Y-71500000D03*
X123000000Y-114000000D03*
D19*
X158800000Y-79400000D03*
D17*
X142210000Y-131350000D03*
X154710000Y-131350000D03*
X176960000Y-83500000D03*
X152210000Y-131350000D03*
X149710000Y-131350000D03*
X144710000Y-131350000D03*
X129460000Y-128000000D03*
X155710000Y-90250000D03*
X189960000Y-126000000D03*
X179710000Y-131350000D03*
X183960000Y-130750000D03*
X137210000Y-83500000D03*
X164460000Y-107750000D03*
D19*
X174200000Y-86000000D03*
D17*
X162250000Y-68600000D03*
D18*
X120000000Y-114000000D03*
D17*
X120000000Y-76750000D03*
X115000000Y-115000000D03*
D18*
X177000000Y-103000000D03*
D17*
X193710000Y-125250000D03*
X157210000Y-131350000D03*
X159710000Y-131350000D03*
X120000000Y-120000000D03*
X180210000Y-85500000D03*
X121950000Y-74150000D03*
X147210000Y-130000000D03*
X189710000Y-127500000D03*
X127250000Y-68600000D03*
X169710000Y-131350000D03*
X122500000Y-122500000D03*
D18*
X170000000Y-71500000D03*
D17*
X142210000Y-130000000D03*
X137210000Y-130000000D03*
X151710000Y-90750000D03*
D19*
X145150000Y-77000000D03*
D17*
X132210000Y-84250000D03*
%TO.N,/GATE_PIN*%
X156460000Y-101500000D03*
X154960000Y-95750000D03*
X146460000Y-90250000D03*
X159460000Y-90500000D03*
%TO.N,/PDB_PROTECTED*%
X163460000Y-96000000D03*
X162960000Y-97500000D03*
X160345707Y-98138667D03*
X163710000Y-99250000D03*
X159960000Y-84250000D03*
X162960000Y-98500000D03*
D18*
%TO.N,/ESC_VBAT*%
X131900000Y-82000000D03*
X180000000Y-71500000D03*
X160000000Y-71500000D03*
X131900000Y-70000000D03*
X134800000Y-71600000D03*
X133350000Y-70000000D03*
X133350000Y-80400000D03*
X133350000Y-71600000D03*
X134800000Y-80400000D03*
X134800000Y-70000000D03*
X131900000Y-80400000D03*
X131900000Y-71600000D03*
X133350000Y-82000000D03*
D17*
%TO.N,/INA_ALERT_LOCAL_N*%
X144960000Y-117250000D03*
X156210000Y-112750000D03*
%TO.N,/PDB_I2C_SDA*%
X167710000Y-117000000D03*
X163210000Y-109848530D03*
X158322324Y-110149999D03*
X156222149Y-111764579D03*
%TO.N,/PDB_I2C_SCL*%
X155960000Y-109850000D03*
X168960000Y-117000000D03*
X155710000Y-111150000D03*
X163210000Y-109000000D03*
%TO.N,/INA_IN_P*%
X163460000Y-106500000D03*
%TO.N,/VBAT_FUSED*%
X151960000Y-101000000D03*
X146960000Y-100750000D03*
X152210000Y-94500000D03*
X146460000Y-95250000D03*
X150460000Y-94000000D03*
%TO.N,/LTC_OV*%
X146960000Y-84500000D03*
X144460000Y-84000000D03*
%TO.N,/SHUNT_HI*%
X163960000Y-92500000D03*
X144960000Y-88500000D03*
X162610000Y-90500000D03*
X163460000Y-102000000D03*
X161210000Y-89250000D03*
D18*
%TO.N,/VBAT_RAW*%
X126650000Y-70000000D03*
X128100000Y-70000000D03*
X128100000Y-80400000D03*
X128100000Y-82000000D03*
X126650000Y-80400000D03*
X125200000Y-71600000D03*
X125200000Y-82000000D03*
X128100000Y-71600000D03*
X126650000Y-82000000D03*
X125200000Y-70000000D03*
X126650000Y-71600000D03*
X125200000Y-80400000D03*
D17*
%TO.N,/PDB_FAULT_N*%
X144210000Y-91750000D03*
X135960000Y-116000000D03*
X143460000Y-119500000D03*
%TD*%
%TA.AperFunction,Conductor*%
%TO.N,GND*%
G36*
X179957233Y-68002698D02*
G01*
X214421244Y-75387842D01*
X214474181Y-75418521D01*
X214498975Y-75474458D01*
X214499500Y-75484643D01*
X214499500Y-109400500D01*
X214480593Y-109458691D01*
X214431093Y-109494655D01*
X214400500Y-109499500D01*
X197565892Y-109499500D01*
X197434108Y-109499500D01*
X197364258Y-109518216D01*
X197306809Y-109533609D01*
X197192690Y-109599496D01*
X197099496Y-109692690D01*
X197033609Y-109806809D01*
X197027648Y-109829057D01*
X197000854Y-109929057D01*
X196999500Y-109934109D01*
X196999500Y-131900500D01*
X196980593Y-131958691D01*
X196931093Y-131994655D01*
X196900500Y-131999500D01*
X127725254Y-131999500D01*
X127667063Y-131980593D01*
X127660062Y-131975005D01*
X123056284Y-127946699D01*
X122974837Y-127875433D01*
X130809500Y-127875433D01*
X130809500Y-128124566D01*
X130842017Y-128371557D01*
X130842017Y-128371562D01*
X130906496Y-128612199D01*
X130906500Y-128612212D01*
X131001832Y-128842365D01*
X131001834Y-128842369D01*
X131001836Y-128842373D01*
X131020423Y-128874566D01*
X131126403Y-129058130D01*
X131278056Y-129255769D01*
X131278058Y-129255771D01*
X131278062Y-129255776D01*
X131454224Y-129431938D01*
X131454228Y-129431941D01*
X131454230Y-129431943D01*
X131651869Y-129583596D01*
X131651873Y-129583599D01*
X131867627Y-129708164D01*
X132097793Y-129803502D01*
X132338435Y-129867982D01*
X132585435Y-129900500D01*
X132585436Y-129900500D01*
X132834564Y-129900500D01*
X132834565Y-129900500D01*
X133081565Y-129867982D01*
X133322207Y-129803502D01*
X133552373Y-129708164D01*
X133768127Y-129583599D01*
X133965776Y-129431938D01*
X134141938Y-129255776D01*
X134293599Y-129058127D01*
X134418164Y-128842373D01*
X134508024Y-128625433D01*
X175809500Y-128625433D01*
X175809500Y-128874566D01*
X175842017Y-129121557D01*
X175842017Y-129121562D01*
X175906496Y-129362199D01*
X175906500Y-129362212D01*
X176001832Y-129592365D01*
X176001834Y-129592369D01*
X176001836Y-129592373D01*
X176126401Y-129808127D01*
X176126403Y-129808130D01*
X176278056Y-130005769D01*
X176278058Y-130005771D01*
X176278062Y-130005776D01*
X176454224Y-130181938D01*
X176454228Y-130181941D01*
X176454230Y-130181943D01*
X176651869Y-130333596D01*
X176651873Y-130333599D01*
X176867627Y-130458164D01*
X177097793Y-130553502D01*
X177338435Y-130617982D01*
X177585435Y-130650500D01*
X177585436Y-130650500D01*
X177834564Y-130650500D01*
X177834565Y-130650500D01*
X178081565Y-130617982D01*
X178322207Y-130553502D01*
X178552373Y-130458164D01*
X178768127Y-130333599D01*
X178965776Y-130181938D01*
X179141938Y-130005776D01*
X179293599Y-129808127D01*
X179418164Y-129592373D01*
X179513502Y-129362207D01*
X179577982Y-129121565D01*
X179610500Y-128874565D01*
X179610500Y-128625435D01*
X179577982Y-128378435D01*
X179513502Y-128137793D01*
X179418164Y-127907627D01*
X179293599Y-127691873D01*
X179244923Y-127628437D01*
X179141943Y-127494230D01*
X179141941Y-127494228D01*
X179141938Y-127494224D01*
X178965776Y-127318062D01*
X178965771Y-127318058D01*
X178965769Y-127318056D01*
X178768130Y-127166403D01*
X178752942Y-127157634D01*
X178552373Y-127041836D01*
X178552369Y-127041834D01*
X178552365Y-127041832D01*
X178322212Y-126946500D01*
X178322211Y-126946499D01*
X178322207Y-126946498D01*
X178081565Y-126882018D01*
X178081562Y-126882017D01*
X178081560Y-126882017D01*
X177834566Y-126849500D01*
X177834565Y-126849500D01*
X177585435Y-126849500D01*
X177585433Y-126849500D01*
X177338442Y-126882017D01*
X177338437Y-126882017D01*
X177097800Y-126946496D01*
X177097787Y-126946500D01*
X176867634Y-127041832D01*
X176651869Y-127166403D01*
X176454230Y-127318056D01*
X176278056Y-127494230D01*
X176126403Y-127691869D01*
X176001832Y-127907634D01*
X175906500Y-128137787D01*
X175906496Y-128137800D01*
X175842017Y-128378437D01*
X175842017Y-128378442D01*
X175809500Y-128625433D01*
X134508024Y-128625433D01*
X134513502Y-128612207D01*
X134513604Y-128611824D01*
X134517693Y-128596569D01*
X134576139Y-128378442D01*
X134577982Y-128371565D01*
X134610500Y-128124565D01*
X134610500Y-127875435D01*
X134577982Y-127628435D01*
X134513502Y-127387793D01*
X134418164Y-127157627D01*
X134293599Y-126941873D01*
X134141938Y-126744224D01*
X133965776Y-126568062D01*
X133965771Y-126568058D01*
X133965769Y-126568056D01*
X133768130Y-126416403D01*
X133768127Y-126416401D01*
X133552373Y-126291836D01*
X133552369Y-126291834D01*
X133552365Y-126291832D01*
X133322212Y-126196500D01*
X133322211Y-126196499D01*
X133322207Y-126196498D01*
X133081565Y-126132018D01*
X133081562Y-126132017D01*
X133081560Y-126132017D01*
X132834566Y-126099500D01*
X132834565Y-126099500D01*
X132585435Y-126099500D01*
X132585433Y-126099500D01*
X132338442Y-126132017D01*
X132338437Y-126132017D01*
X132097800Y-126196496D01*
X132097787Y-126196500D01*
X131867634Y-126291832D01*
X131651869Y-126416403D01*
X131454230Y-126568056D01*
X131278056Y-126744230D01*
X131126403Y-126941869D01*
X131001832Y-127157634D01*
X130906500Y-127387787D01*
X130906496Y-127387800D01*
X130842017Y-127628437D01*
X130842017Y-127628442D01*
X130809500Y-127875433D01*
X122974837Y-127875433D01*
X117776377Y-123326781D01*
X117694490Y-123255130D01*
X183884500Y-123255130D01*
X183884500Y-124544860D01*
X183884501Y-124544863D01*
X183887414Y-124569990D01*
X183912756Y-124627385D01*
X183932794Y-124672765D01*
X184012235Y-124752206D01*
X184115009Y-124797585D01*
X184140135Y-124800500D01*
X186529864Y-124800499D01*
X186554991Y-124797585D01*
X186657765Y-124752206D01*
X186737206Y-124672765D01*
X186782585Y-124569991D01*
X186785500Y-124544865D01*
X186785499Y-123255136D01*
X186782585Y-123230009D01*
X186737206Y-123127235D01*
X186657765Y-123047794D01*
X186554991Y-123002415D01*
X186554990Y-123002414D01*
X186554988Y-123002414D01*
X186529868Y-122999500D01*
X184140139Y-122999500D01*
X184140136Y-122999501D01*
X184115009Y-123002414D01*
X184012235Y-123047794D01*
X183932794Y-123127235D01*
X183887414Y-123230011D01*
X183884500Y-123255130D01*
X117694490Y-123255130D01*
X113390295Y-119488959D01*
X113312562Y-119420943D01*
X142859500Y-119420943D01*
X142859500Y-119579057D01*
X142900423Y-119731784D01*
X142979480Y-119868716D01*
X143091284Y-119980520D01*
X143228216Y-120059577D01*
X143380943Y-120100500D01*
X143380945Y-120100500D01*
X143539055Y-120100500D01*
X143539057Y-120100500D01*
X143691784Y-120059577D01*
X143828716Y-119980520D01*
X143940520Y-119868716D01*
X144019577Y-119731784D01*
X144060500Y-119579057D01*
X144060500Y-119420943D01*
X144019577Y-119268216D01*
X143940520Y-119131284D01*
X143828716Y-119019480D01*
X143691784Y-118940423D01*
X143539057Y-118899500D01*
X143380943Y-118899500D01*
X143228216Y-118940423D01*
X143091284Y-119019480D01*
X142979480Y-119131284D01*
X142900423Y-119268216D01*
X142859500Y-119420943D01*
X113312562Y-119420943D01*
X111185287Y-117559577D01*
X110741134Y-117170943D01*
X144359500Y-117170943D01*
X144359500Y-117329057D01*
X144400423Y-117481784D01*
X144479480Y-117618716D01*
X144591284Y-117730520D01*
X144728216Y-117809577D01*
X144880943Y-117850500D01*
X144880945Y-117850500D01*
X145039055Y-117850500D01*
X145039057Y-117850500D01*
X145191784Y-117809577D01*
X145328716Y-117730520D01*
X145440520Y-117618716D01*
X145519577Y-117481784D01*
X145560500Y-117329057D01*
X145560500Y-117170943D01*
X162109500Y-117170943D01*
X162109500Y-117329057D01*
X162150423Y-117481784D01*
X162229480Y-117618716D01*
X162341284Y-117730520D01*
X162478216Y-117809577D01*
X162630943Y-117850500D01*
X162630945Y-117850500D01*
X162789055Y-117850500D01*
X162789057Y-117850500D01*
X162941784Y-117809577D01*
X163078716Y-117730520D01*
X163190520Y-117618716D01*
X163269577Y-117481784D01*
X163310500Y-117329057D01*
X163310500Y-117170943D01*
X163269577Y-117018216D01*
X163213417Y-116920943D01*
X167109500Y-116920943D01*
X167109500Y-117079057D01*
X167150423Y-117231784D01*
X167229480Y-117368716D01*
X167341284Y-117480520D01*
X167478216Y-117559577D01*
X167630943Y-117600500D01*
X167630945Y-117600500D01*
X167789055Y-117600500D01*
X167789057Y-117600500D01*
X167941784Y-117559577D01*
X168078716Y-117480520D01*
X168190520Y-117368716D01*
X168249264Y-117266966D01*
X168294732Y-117226026D01*
X168355583Y-117219630D01*
X168408571Y-117250223D01*
X168420733Y-117266963D01*
X168479480Y-117368716D01*
X168591284Y-117480520D01*
X168728216Y-117559577D01*
X168880943Y-117600500D01*
X168880945Y-117600500D01*
X169039055Y-117600500D01*
X169039057Y-117600500D01*
X169191784Y-117559577D01*
X169328716Y-117480520D01*
X169440520Y-117368716D01*
X169519577Y-117231784D01*
X169560500Y-117079057D01*
X169560500Y-116920943D01*
X169519577Y-116768216D01*
X169440520Y-116631284D01*
X169328716Y-116519480D01*
X169191784Y-116440423D01*
X169039057Y-116399500D01*
X168880943Y-116399500D01*
X168728216Y-116440423D01*
X168591284Y-116519480D01*
X168479480Y-116631284D01*
X168420735Y-116733033D01*
X168375267Y-116773973D01*
X168314417Y-116780369D01*
X168261429Y-116749776D01*
X168249266Y-116733036D01*
X168190520Y-116631284D01*
X168078716Y-116519480D01*
X167941784Y-116440423D01*
X167789057Y-116399500D01*
X167630943Y-116399500D01*
X167478216Y-116440423D01*
X167341284Y-116519480D01*
X167229480Y-116631284D01*
X167150423Y-116768216D01*
X167109500Y-116920943D01*
X163213417Y-116920943D01*
X163190520Y-116881284D01*
X163078716Y-116769480D01*
X162941784Y-116690423D01*
X162789057Y-116649500D01*
X162630943Y-116649500D01*
X162478216Y-116690423D01*
X162341284Y-116769480D01*
X162229480Y-116881284D01*
X162150423Y-117018216D01*
X162109500Y-117170943D01*
X145560500Y-117170943D01*
X145519577Y-117018216D01*
X145440520Y-116881284D01*
X145328716Y-116769480D01*
X145191784Y-116690423D01*
X145039057Y-116649500D01*
X144880943Y-116649500D01*
X144728216Y-116690423D01*
X144591284Y-116769480D01*
X144479480Y-116881284D01*
X144400423Y-117018216D01*
X144359500Y-117170943D01*
X110741134Y-117170943D01*
X110042430Y-116559577D01*
X109390295Y-115988959D01*
X109312562Y-115920943D01*
X135359500Y-115920943D01*
X135359500Y-116079057D01*
X135400423Y-116231784D01*
X135479480Y-116368716D01*
X135591284Y-116480520D01*
X135728216Y-116559577D01*
X135880943Y-116600500D01*
X135880945Y-116600500D01*
X136039055Y-116600500D01*
X136039057Y-116600500D01*
X136191784Y-116559577D01*
X136328716Y-116480520D01*
X136440520Y-116368716D01*
X136519577Y-116231784D01*
X136560500Y-116079057D01*
X136560500Y-115920943D01*
X136519577Y-115768216D01*
X136449323Y-115646532D01*
X147409500Y-115646532D01*
X147409500Y-115853467D01*
X147449869Y-116056418D01*
X147529058Y-116247597D01*
X147529059Y-116247598D01*
X147644023Y-116419655D01*
X147790345Y-116565977D01*
X147962402Y-116680941D01*
X148153580Y-116760130D01*
X148356535Y-116800500D01*
X148356536Y-116800500D01*
X148563464Y-116800500D01*
X148563465Y-116800500D01*
X148766420Y-116760130D01*
X148957598Y-116680941D01*
X149129655Y-116565977D01*
X149275977Y-116419655D01*
X149390941Y-116247598D01*
X149470130Y-116056420D01*
X149510500Y-115853465D01*
X149510500Y-115646535D01*
X149510499Y-115646532D01*
X152409500Y-115646532D01*
X152409500Y-115853467D01*
X152449869Y-116056418D01*
X152529058Y-116247597D01*
X152529059Y-116247598D01*
X152644023Y-116419655D01*
X152790345Y-116565977D01*
X152962402Y-116680941D01*
X153153580Y-116760130D01*
X153356535Y-116800500D01*
X153356536Y-116800500D01*
X153563464Y-116800500D01*
X153563465Y-116800500D01*
X153766420Y-116760130D01*
X153957598Y-116680941D01*
X154129655Y-116565977D01*
X154275977Y-116419655D01*
X154390941Y-116247598D01*
X154470130Y-116056420D01*
X154510500Y-115853465D01*
X154510500Y-115646535D01*
X154510499Y-115646532D01*
X157409500Y-115646532D01*
X157409500Y-115853467D01*
X157449869Y-116056418D01*
X157529058Y-116247597D01*
X157529059Y-116247598D01*
X157644023Y-116419655D01*
X157790345Y-116565977D01*
X157962402Y-116680941D01*
X158153580Y-116760130D01*
X158356535Y-116800500D01*
X158356536Y-116800500D01*
X158563464Y-116800500D01*
X158563465Y-116800500D01*
X158766420Y-116760130D01*
X158957598Y-116680941D01*
X159129655Y-116565977D01*
X159275977Y-116419655D01*
X159390941Y-116247598D01*
X159470130Y-116056420D01*
X159510500Y-115853465D01*
X159510500Y-115646535D01*
X159470130Y-115443580D01*
X159390941Y-115252402D01*
X159275977Y-115080345D01*
X159129655Y-114934023D01*
X159016885Y-114858673D01*
X158957597Y-114819058D01*
X158766418Y-114739869D01*
X158563467Y-114699500D01*
X158563465Y-114699500D01*
X158356535Y-114699500D01*
X158356532Y-114699500D01*
X158153581Y-114739869D01*
X157962402Y-114819058D01*
X157790348Y-114934020D01*
X157644020Y-115080348D01*
X157529058Y-115252402D01*
X157449869Y-115443581D01*
X157409500Y-115646532D01*
X154510499Y-115646532D01*
X154470130Y-115443580D01*
X154390941Y-115252402D01*
X154275977Y-115080345D01*
X154129655Y-114934023D01*
X154016885Y-114858673D01*
X153957597Y-114819058D01*
X153766418Y-114739869D01*
X153563467Y-114699500D01*
X153563465Y-114699500D01*
X153356535Y-114699500D01*
X153356532Y-114699500D01*
X153153581Y-114739869D01*
X152962402Y-114819058D01*
X152790348Y-114934020D01*
X152644020Y-115080348D01*
X152529058Y-115252402D01*
X152449869Y-115443581D01*
X152409500Y-115646532D01*
X149510499Y-115646532D01*
X149470130Y-115443580D01*
X149390941Y-115252402D01*
X149275977Y-115080345D01*
X149129655Y-114934023D01*
X149016885Y-114858673D01*
X148957597Y-114819058D01*
X148766418Y-114739869D01*
X148563467Y-114699500D01*
X148563465Y-114699500D01*
X148356535Y-114699500D01*
X148356532Y-114699500D01*
X148153581Y-114739869D01*
X147962402Y-114819058D01*
X147790348Y-114934020D01*
X147644020Y-115080348D01*
X147529058Y-115252402D01*
X147449869Y-115443581D01*
X147409500Y-115646532D01*
X136449323Y-115646532D01*
X136440520Y-115631284D01*
X136328716Y-115519480D01*
X136191784Y-115440423D01*
X136039057Y-115399500D01*
X135880943Y-115399500D01*
X135728216Y-115440423D01*
X135591284Y-115519480D01*
X135479480Y-115631284D01*
X135400423Y-115768216D01*
X135359500Y-115920943D01*
X109312562Y-115920943D01*
X108335361Y-115065892D01*
X107883991Y-114670943D01*
X140609500Y-114670943D01*
X140609500Y-114829057D01*
X140650423Y-114981784D01*
X140729480Y-115118716D01*
X140841284Y-115230520D01*
X140978216Y-115309577D01*
X141130943Y-115350500D01*
X141130945Y-115350500D01*
X141289055Y-115350500D01*
X141289057Y-115350500D01*
X141441784Y-115309577D01*
X141578716Y-115230520D01*
X141690520Y-115118716D01*
X141769577Y-114981784D01*
X141810500Y-114829057D01*
X141810500Y-114670943D01*
X141769577Y-114518216D01*
X141690520Y-114381284D01*
X141578716Y-114269480D01*
X141441784Y-114190423D01*
X141289057Y-114149500D01*
X141130943Y-114149500D01*
X140978216Y-114190423D01*
X140841284Y-114269480D01*
X140729480Y-114381284D01*
X140650423Y-114518216D01*
X140609500Y-114670943D01*
X107883991Y-114670943D01*
X107844608Y-114636483D01*
X107839796Y-114631982D01*
X107807315Y-114599501D01*
X107807314Y-114599500D01*
X107801086Y-114595904D01*
X107785400Y-114584676D01*
X107779996Y-114579948D01*
X107779993Y-114579945D01*
X107779991Y-114579944D01*
X107738773Y-114559673D01*
X107738773Y-114559674D01*
X107735814Y-114558219D01*
X107693186Y-114533608D01*
X107676882Y-114529239D01*
X107668182Y-114524961D01*
X107668181Y-114524960D01*
X107661736Y-114521790D01*
X107616668Y-114512877D01*
X107613434Y-114512238D01*
X107565892Y-114499500D01*
X107549015Y-114499500D01*
X107535701Y-114496867D01*
X107532455Y-114496225D01*
X107532454Y-114496225D01*
X107511546Y-114497619D01*
X107486617Y-114499281D01*
X107480032Y-114499500D01*
X88099500Y-114499500D01*
X88041309Y-114480593D01*
X88005345Y-114431093D01*
X88000500Y-114400500D01*
X88000500Y-112920943D01*
X142609500Y-112920943D01*
X142609500Y-113079057D01*
X142650423Y-113231784D01*
X142729480Y-113368716D01*
X142841284Y-113480520D01*
X142978216Y-113559577D01*
X143130943Y-113600500D01*
X143130945Y-113600500D01*
X143289055Y-113600500D01*
X143289057Y-113600500D01*
X143441784Y-113559577D01*
X143578716Y-113480520D01*
X143663297Y-113395939D01*
X176984500Y-113395939D01*
X176984500Y-113704060D01*
X177024717Y-114009536D01*
X177024717Y-114009541D01*
X177104464Y-114307163D01*
X177222375Y-114591825D01*
X177376440Y-114858673D01*
X177564003Y-115103110D01*
X177564005Y-115103112D01*
X177564009Y-115103117D01*
X177781883Y-115320991D01*
X177781887Y-115320994D01*
X177781889Y-115320996D01*
X177941644Y-115443580D01*
X178026330Y-115508562D01*
X178293170Y-115662622D01*
X178293171Y-115662622D01*
X178293174Y-115662624D01*
X178548091Y-115768214D01*
X178577836Y-115780535D01*
X178875456Y-115860282D01*
X179180940Y-115900500D01*
X179180941Y-115900500D01*
X179489059Y-115900500D01*
X179489060Y-115900500D01*
X179794544Y-115860282D01*
X180092164Y-115780535D01*
X180376830Y-115662622D01*
X180643670Y-115508562D01*
X180888117Y-115320991D01*
X181105991Y-115103117D01*
X181293562Y-114858670D01*
X181447622Y-114591830D01*
X181565535Y-114307164D01*
X181645282Y-114009544D01*
X181685500Y-113704060D01*
X181685500Y-113395940D01*
X181645282Y-113090456D01*
X181565535Y-112792836D01*
X181555337Y-112768216D01*
X181447624Y-112508174D01*
X181374364Y-112381284D01*
X181293562Y-112241330D01*
X181105991Y-111996883D01*
X180888117Y-111779009D01*
X180888112Y-111779005D01*
X180888110Y-111779003D01*
X180643673Y-111591440D01*
X180376825Y-111437375D01*
X180092163Y-111319464D01*
X179888881Y-111264995D01*
X179794544Y-111239718D01*
X179794541Y-111239717D01*
X179794539Y-111239717D01*
X179489060Y-111199500D01*
X179180940Y-111199500D01*
X179180939Y-111199500D01*
X178875463Y-111239717D01*
X178875458Y-111239717D01*
X178577836Y-111319464D01*
X178293174Y-111437375D01*
X178026326Y-111591440D01*
X177781889Y-111779003D01*
X177564003Y-111996889D01*
X177376440Y-112241326D01*
X177222375Y-112508174D01*
X177104464Y-112792836D01*
X177024717Y-113090458D01*
X177024717Y-113090463D01*
X176984500Y-113395939D01*
X143663297Y-113395939D01*
X143690520Y-113368716D01*
X143769577Y-113231784D01*
X143810500Y-113079057D01*
X143810500Y-112920943D01*
X143769577Y-112768216D01*
X143690520Y-112631284D01*
X143578716Y-112519480D01*
X143441784Y-112440423D01*
X143289057Y-112399500D01*
X143130943Y-112399500D01*
X142978216Y-112440423D01*
X142841284Y-112519480D01*
X142729480Y-112631284D01*
X142650423Y-112768216D01*
X142609500Y-112920943D01*
X88000500Y-112920943D01*
X88000500Y-111170943D01*
X147859500Y-111170943D01*
X147859500Y-111329057D01*
X147900423Y-111481784D01*
X147979480Y-111618716D01*
X148091284Y-111730520D01*
X148228216Y-111809577D01*
X148380943Y-111850500D01*
X148380945Y-111850500D01*
X148539055Y-111850500D01*
X148539057Y-111850500D01*
X148691784Y-111809577D01*
X148828716Y-111730520D01*
X148940520Y-111618716D01*
X149019577Y-111481784D01*
X149060500Y-111329057D01*
X149060500Y-111170943D01*
X149033705Y-111070943D01*
X155109500Y-111070943D01*
X155109500Y-111229057D01*
X155150423Y-111381784D01*
X155229480Y-111518716D01*
X155341284Y-111630520D01*
X155478216Y-111709577D01*
X155548273Y-111728348D01*
X155599586Y-111761671D01*
X155621513Y-111818792D01*
X155621649Y-111823974D01*
X155621649Y-111843636D01*
X155662572Y-111996363D01*
X155741629Y-112133295D01*
X155789546Y-112181212D01*
X155817322Y-112235727D01*
X155807751Y-112296159D01*
X155789546Y-112321216D01*
X155729482Y-112381281D01*
X155729480Y-112381283D01*
X155729480Y-112381284D01*
X155650423Y-112518216D01*
X155609500Y-112670943D01*
X155609500Y-112829057D01*
X155650423Y-112981784D01*
X155729480Y-113118716D01*
X155841284Y-113230520D01*
X155978216Y-113309577D01*
X156130943Y-113350500D01*
X156130945Y-113350500D01*
X156289055Y-113350500D01*
X156289057Y-113350500D01*
X156441784Y-113309577D01*
X156578716Y-113230520D01*
X156690520Y-113118716D01*
X156769577Y-112981784D01*
X156810500Y-112829057D01*
X156810500Y-112670943D01*
X156769577Y-112518216D01*
X156690520Y-112381284D01*
X156642601Y-112333365D01*
X156614826Y-112278851D01*
X156624397Y-112218419D01*
X156642600Y-112193363D01*
X156702669Y-112133295D01*
X156781726Y-111996363D01*
X156822649Y-111843636D01*
X156822649Y-111685522D01*
X156781726Y-111532795D01*
X156702669Y-111395863D01*
X156590865Y-111284059D01*
X156453933Y-111205002D01*
X156453932Y-111205001D01*
X156453929Y-111205000D01*
X156383876Y-111186229D01*
X156332562Y-111152905D01*
X156310636Y-111095783D01*
X156310500Y-111090603D01*
X156310500Y-111070944D01*
X156310245Y-111069991D01*
X156269577Y-110918216D01*
X156190520Y-110781284D01*
X156078716Y-110669480D01*
X156078713Y-110669478D01*
X156014073Y-110632158D01*
X155973132Y-110586689D01*
X155966736Y-110525839D01*
X155997329Y-110472851D01*
X156037951Y-110450795D01*
X156039052Y-110450500D01*
X156039057Y-110450500D01*
X156191784Y-110409577D01*
X156328716Y-110330520D01*
X156440520Y-110218716D01*
X156519577Y-110081784D01*
X156522482Y-110070942D01*
X157721824Y-110070942D01*
X157721824Y-110229056D01*
X157762747Y-110381783D01*
X157841804Y-110518715D01*
X157953608Y-110630519D01*
X158090540Y-110709576D01*
X158243267Y-110750499D01*
X158243269Y-110750499D01*
X158401379Y-110750499D01*
X158401381Y-110750499D01*
X158554108Y-110709576D01*
X158691040Y-110630519D01*
X158784927Y-110536632D01*
X161540178Y-110536632D01*
X161540178Y-110694746D01*
X161581101Y-110847473D01*
X161660158Y-110984405D01*
X161771962Y-111096209D01*
X161908894Y-111175266D01*
X162061621Y-111216189D01*
X162061623Y-111216189D01*
X162219733Y-111216189D01*
X162219735Y-111216189D01*
X162372462Y-111175266D01*
X162509394Y-111096209D01*
X162621198Y-110984405D01*
X162700255Y-110847473D01*
X162741178Y-110694746D01*
X162741178Y-110536632D01*
X162718915Y-110453545D01*
X162722117Y-110392447D01*
X162760623Y-110344897D01*
X162819723Y-110329061D01*
X162864037Y-110342186D01*
X162978216Y-110408107D01*
X163130943Y-110449030D01*
X163130945Y-110449030D01*
X163289055Y-110449030D01*
X163289057Y-110449030D01*
X163441784Y-110408107D01*
X163578716Y-110329050D01*
X163690520Y-110217246D01*
X163769577Y-110080314D01*
X163810500Y-109927587D01*
X163810500Y-109769473D01*
X163806657Y-109755130D01*
X183884500Y-109755130D01*
X183884500Y-111044860D01*
X183884501Y-111044863D01*
X183887414Y-111069990D01*
X183896516Y-111090603D01*
X183932794Y-111172765D01*
X184012235Y-111252206D01*
X184115009Y-111297585D01*
X184140135Y-111300500D01*
X186529864Y-111300499D01*
X186554991Y-111297585D01*
X186657765Y-111252206D01*
X186737206Y-111172765D01*
X186782585Y-111069991D01*
X186785500Y-111044865D01*
X186785499Y-109755136D01*
X186782585Y-109730009D01*
X186737206Y-109627235D01*
X186657765Y-109547794D01*
X186554991Y-109502415D01*
X186554990Y-109502414D01*
X186554988Y-109502414D01*
X186529868Y-109499500D01*
X184140139Y-109499500D01*
X184140136Y-109499501D01*
X184115009Y-109502414D01*
X184012235Y-109547794D01*
X183932794Y-109627235D01*
X183887414Y-109730011D01*
X183884500Y-109755130D01*
X163806657Y-109755130D01*
X163769577Y-109616746D01*
X163690520Y-109479814D01*
X163690517Y-109479811D01*
X163687275Y-109474195D01*
X163689936Y-109472658D01*
X163673716Y-109426864D01*
X163688979Y-109375319D01*
X163687275Y-109374335D01*
X163690517Y-109368718D01*
X163690520Y-109368716D01*
X163769577Y-109231784D01*
X163810500Y-109079057D01*
X163810500Y-108920943D01*
X163769577Y-108768216D01*
X163690520Y-108631284D01*
X163578716Y-108519480D01*
X163441784Y-108440423D01*
X163289057Y-108399500D01*
X163130943Y-108399500D01*
X162978216Y-108440423D01*
X162841284Y-108519480D01*
X162729480Y-108631284D01*
X162650423Y-108768216D01*
X162609500Y-108920943D01*
X162609500Y-109079057D01*
X162650423Y-109231784D01*
X162729480Y-109368716D01*
X162729482Y-109368718D01*
X162732725Y-109374335D01*
X162730086Y-109375858D01*
X162746287Y-109421811D01*
X162730988Y-109473192D01*
X162732725Y-109474195D01*
X162729482Y-109479811D01*
X162729480Y-109479814D01*
X162650423Y-109616746D01*
X162609500Y-109769473D01*
X162609500Y-109927587D01*
X162611248Y-109934109D01*
X162631762Y-110010670D01*
X162628559Y-110071772D01*
X162590054Y-110119322D01*
X162530953Y-110135157D01*
X162486637Y-110122030D01*
X162372462Y-110056112D01*
X162219735Y-110015189D01*
X162061621Y-110015189D01*
X161908894Y-110056112D01*
X161771962Y-110135169D01*
X161660158Y-110246973D01*
X161581101Y-110383905D01*
X161540178Y-110536632D01*
X158784927Y-110536632D01*
X158802844Y-110518715D01*
X158881901Y-110381783D01*
X158922824Y-110229056D01*
X158922824Y-110070942D01*
X158881901Y-109918215D01*
X158802844Y-109781283D01*
X158691040Y-109669479D01*
X158554108Y-109590422D01*
X158401381Y-109549499D01*
X158243267Y-109549499D01*
X158090540Y-109590422D01*
X157953608Y-109669479D01*
X157841804Y-109781283D01*
X157762747Y-109918215D01*
X157721824Y-110070942D01*
X156522482Y-110070942D01*
X156560500Y-109929057D01*
X156560500Y-109770943D01*
X156519577Y-109618216D01*
X156440520Y-109481284D01*
X156328716Y-109369480D01*
X156191784Y-109290423D01*
X156039057Y-109249500D01*
X155880943Y-109249500D01*
X155728216Y-109290423D01*
X155591284Y-109369480D01*
X155479480Y-109481284D01*
X155400423Y-109618216D01*
X155359500Y-109770943D01*
X155359500Y-109929057D01*
X155400423Y-110081784D01*
X155479480Y-110218716D01*
X155591284Y-110330520D01*
X155655927Y-110367841D01*
X155696867Y-110413310D01*
X155703263Y-110474160D01*
X155672670Y-110527148D01*
X155632049Y-110549204D01*
X155630944Y-110549500D01*
X155630943Y-110549500D01*
X155478216Y-110590423D01*
X155341284Y-110669480D01*
X155229480Y-110781284D01*
X155150423Y-110918216D01*
X155109500Y-111070943D01*
X149033705Y-111070943D01*
X149019577Y-111018216D01*
X148940520Y-110881284D01*
X148828716Y-110769480D01*
X148691784Y-110690423D01*
X148539057Y-110649500D01*
X148380943Y-110649500D01*
X148228216Y-110690423D01*
X148091284Y-110769480D01*
X147979480Y-110881284D01*
X147900423Y-111018216D01*
X147859500Y-111170943D01*
X88000500Y-111170943D01*
X88000500Y-109670943D01*
X153859500Y-109670943D01*
X153859500Y-109829057D01*
X153900423Y-109981784D01*
X153979480Y-110118716D01*
X154091284Y-110230520D01*
X154228216Y-110309577D01*
X154380943Y-110350500D01*
X154380945Y-110350500D01*
X154539055Y-110350500D01*
X154539057Y-110350500D01*
X154691784Y-110309577D01*
X154828716Y-110230520D01*
X154940520Y-110118716D01*
X155019577Y-109981784D01*
X155060500Y-109829057D01*
X155060500Y-109670943D01*
X155019577Y-109518216D01*
X154940520Y-109381284D01*
X154828716Y-109269480D01*
X154691784Y-109190423D01*
X154539057Y-109149500D01*
X154380943Y-109149500D01*
X154228216Y-109190423D01*
X154091284Y-109269480D01*
X153979480Y-109381284D01*
X153900423Y-109518216D01*
X153859500Y-109670943D01*
X88000500Y-109670943D01*
X88000500Y-105825433D01*
X108549500Y-105825433D01*
X108549500Y-106074566D01*
X108582017Y-106321557D01*
X108582017Y-106321562D01*
X108646496Y-106562199D01*
X108646500Y-106562212D01*
X108741832Y-106792365D01*
X108741834Y-106792369D01*
X108741836Y-106792373D01*
X108850462Y-106980519D01*
X108866403Y-107008130D01*
X109018056Y-107205769D01*
X109018058Y-107205771D01*
X109018062Y-107205776D01*
X109194224Y-107381938D01*
X109194228Y-107381941D01*
X109194230Y-107381943D01*
X109274559Y-107443581D01*
X109391873Y-107533599D01*
X109607627Y-107658164D01*
X109837793Y-107753502D01*
X110078435Y-107817982D01*
X110325435Y-107850500D01*
X110325436Y-107850500D01*
X110574564Y-107850500D01*
X110574565Y-107850500D01*
X110821565Y-107817982D01*
X111062207Y-107753502D01*
X111292373Y-107658164D01*
X111508127Y-107533599D01*
X111705776Y-107381938D01*
X111881938Y-107205776D01*
X112033599Y-107008127D01*
X112158164Y-106792373D01*
X112253502Y-106562207D01*
X112254373Y-106558957D01*
X112287697Y-106507642D01*
X112344818Y-106485715D01*
X112403919Y-106501550D01*
X112442424Y-106549100D01*
X112445627Y-106558957D01*
X112446494Y-106562196D01*
X112446500Y-106562212D01*
X112541832Y-106792365D01*
X112541834Y-106792369D01*
X112541836Y-106792373D01*
X112650462Y-106980519D01*
X112666403Y-107008130D01*
X112818056Y-107205769D01*
X112818058Y-107205771D01*
X112818062Y-107205776D01*
X112994224Y-107381938D01*
X112994228Y-107381941D01*
X112994230Y-107381943D01*
X113074559Y-107443581D01*
X113191873Y-107533599D01*
X113407627Y-107658164D01*
X113637793Y-107753502D01*
X113878435Y-107817982D01*
X114125435Y-107850500D01*
X114125436Y-107850500D01*
X114374564Y-107850500D01*
X114374565Y-107850500D01*
X114621565Y-107817982D01*
X114862207Y-107753502D01*
X115092373Y-107658164D01*
X115112520Y-107646532D01*
X148909500Y-107646532D01*
X148909500Y-107853467D01*
X148949869Y-108056418D01*
X149029058Y-108247597D01*
X149029059Y-108247598D01*
X149144023Y-108419655D01*
X149290345Y-108565977D01*
X149462402Y-108680941D01*
X149653580Y-108760130D01*
X149856535Y-108800500D01*
X149856536Y-108800500D01*
X150063464Y-108800500D01*
X150063465Y-108800500D01*
X150266420Y-108760130D01*
X150457598Y-108680941D01*
X150629655Y-108565977D01*
X150775977Y-108419655D01*
X150890941Y-108247598D01*
X150970130Y-108056420D01*
X151010500Y-107853465D01*
X151010500Y-107646535D01*
X151010499Y-107646532D01*
X154159500Y-107646532D01*
X154159500Y-107853467D01*
X154199869Y-108056418D01*
X154279058Y-108247597D01*
X154279059Y-108247598D01*
X154394023Y-108419655D01*
X154540345Y-108565977D01*
X154712402Y-108680941D01*
X154903580Y-108760130D01*
X155106535Y-108800500D01*
X155106536Y-108800500D01*
X155313464Y-108800500D01*
X155313465Y-108800500D01*
X155516420Y-108760130D01*
X155707598Y-108680941D01*
X155879655Y-108565977D01*
X156025977Y-108419655D01*
X156140941Y-108247598D01*
X156220130Y-108056420D01*
X156260500Y-107853465D01*
X156260500Y-107646535D01*
X156220130Y-107443580D01*
X156140941Y-107252402D01*
X156025977Y-107080345D01*
X155879655Y-106934023D01*
X155879651Y-106934020D01*
X155707597Y-106819058D01*
X155516418Y-106739869D01*
X155313467Y-106699500D01*
X155313465Y-106699500D01*
X155106535Y-106699500D01*
X155106532Y-106699500D01*
X154903581Y-106739869D01*
X154712402Y-106819058D01*
X154540348Y-106934020D01*
X154394020Y-107080348D01*
X154279058Y-107252402D01*
X154199869Y-107443581D01*
X154159500Y-107646532D01*
X151010499Y-107646532D01*
X150970130Y-107443580D01*
X150890941Y-107252402D01*
X150775977Y-107080345D01*
X150629655Y-106934023D01*
X150629651Y-106934020D01*
X150457597Y-106819058D01*
X150266418Y-106739869D01*
X150063467Y-106699500D01*
X150063465Y-106699500D01*
X149856535Y-106699500D01*
X149856532Y-106699500D01*
X149653581Y-106739869D01*
X149462402Y-106819058D01*
X149290348Y-106934020D01*
X149144020Y-107080348D01*
X149029058Y-107252402D01*
X148949869Y-107443581D01*
X148909500Y-107646532D01*
X115112520Y-107646532D01*
X115308127Y-107533599D01*
X115505776Y-107381938D01*
X115681938Y-107205776D01*
X115833599Y-107008127D01*
X115958164Y-106792373D01*
X116053502Y-106562207D01*
X116117982Y-106321565D01*
X116150500Y-106074565D01*
X116150500Y-105825435D01*
X116126947Y-105646532D01*
X127659500Y-105646532D01*
X127659500Y-105853467D01*
X127699869Y-106056418D01*
X127779058Y-106247597D01*
X127894020Y-106419651D01*
X127894023Y-106419655D01*
X128040345Y-106565977D01*
X128212402Y-106680941D01*
X128403580Y-106760130D01*
X128606535Y-106800500D01*
X128606536Y-106800500D01*
X128813464Y-106800500D01*
X128813465Y-106800500D01*
X129016420Y-106760130D01*
X129207598Y-106680941D01*
X129379655Y-106565977D01*
X129524689Y-106420943D01*
X162859500Y-106420943D01*
X162859500Y-106579057D01*
X162900423Y-106731784D01*
X162979480Y-106868716D01*
X163091284Y-106980520D01*
X163228216Y-107059577D01*
X163380943Y-107100500D01*
X163380945Y-107100500D01*
X163539055Y-107100500D01*
X163539057Y-107100500D01*
X163691784Y-107059577D01*
X163828716Y-106980520D01*
X163940520Y-106868716D01*
X164019577Y-106731784D01*
X164060500Y-106579057D01*
X164060500Y-106420943D01*
X164019577Y-106268216D01*
X163940520Y-106131284D01*
X163828716Y-106019480D01*
X163691784Y-105940423D01*
X163539057Y-105899500D01*
X163380943Y-105899500D01*
X163228216Y-105940423D01*
X163091284Y-106019480D01*
X162979480Y-106131284D01*
X162900423Y-106268216D01*
X162859500Y-106420943D01*
X129524689Y-106420943D01*
X129525977Y-106419655D01*
X129640941Y-106247598D01*
X129720130Y-106056420D01*
X129760500Y-105853465D01*
X129760500Y-105646535D01*
X129720130Y-105443580D01*
X129640941Y-105252402D01*
X129525977Y-105080345D01*
X129379655Y-104934023D01*
X129207598Y-104819059D01*
X129207599Y-104819059D01*
X129207597Y-104819058D01*
X129016418Y-104739869D01*
X128813467Y-104699500D01*
X128813465Y-104699500D01*
X128606535Y-104699500D01*
X128606532Y-104699500D01*
X128403581Y-104739869D01*
X128212402Y-104819058D01*
X128040348Y-104934020D01*
X127894020Y-105080348D01*
X127779058Y-105252402D01*
X127699869Y-105443581D01*
X127659500Y-105646532D01*
X116126947Y-105646532D01*
X116117982Y-105578435D01*
X116053502Y-105337793D01*
X115958164Y-105107627D01*
X115833599Y-104891873D01*
X115777726Y-104819058D01*
X115681943Y-104694230D01*
X115681941Y-104694228D01*
X115681938Y-104694224D01*
X115505776Y-104518062D01*
X115505771Y-104518058D01*
X115505769Y-104518056D01*
X115308130Y-104366403D01*
X115308127Y-104366401D01*
X115092373Y-104241836D01*
X115092369Y-104241834D01*
X115092365Y-104241832D01*
X114862212Y-104146500D01*
X114862211Y-104146499D01*
X114862207Y-104146498D01*
X114621565Y-104082018D01*
X114621562Y-104082017D01*
X114621560Y-104082017D01*
X114374566Y-104049500D01*
X114374565Y-104049500D01*
X114125435Y-104049500D01*
X114125433Y-104049500D01*
X113878442Y-104082017D01*
X113878437Y-104082017D01*
X113637800Y-104146496D01*
X113637787Y-104146500D01*
X113407634Y-104241832D01*
X113191869Y-104366403D01*
X112994230Y-104518056D01*
X112818056Y-104694230D01*
X112666403Y-104891869D01*
X112541832Y-105107634D01*
X112446500Y-105337787D01*
X112446494Y-105337804D01*
X112445626Y-105341046D01*
X112412300Y-105392359D01*
X112355178Y-105414284D01*
X112296078Y-105398447D01*
X112257574Y-105350896D01*
X112254374Y-105341046D01*
X112253505Y-105337804D01*
X112253504Y-105337800D01*
X112253502Y-105337793D01*
X112158164Y-105107627D01*
X112033599Y-104891873D01*
X111977726Y-104819058D01*
X111881943Y-104694230D01*
X111881941Y-104694228D01*
X111881938Y-104694224D01*
X111705776Y-104518062D01*
X111705771Y-104518058D01*
X111705769Y-104518056D01*
X111508130Y-104366403D01*
X111508127Y-104366401D01*
X111292373Y-104241836D01*
X111292369Y-104241834D01*
X111292365Y-104241832D01*
X111062212Y-104146500D01*
X111062211Y-104146499D01*
X111062207Y-104146498D01*
X110821565Y-104082018D01*
X110821562Y-104082017D01*
X110821560Y-104082017D01*
X110574566Y-104049500D01*
X110574565Y-104049500D01*
X110325435Y-104049500D01*
X110325433Y-104049500D01*
X110078442Y-104082017D01*
X110078437Y-104082017D01*
X109837800Y-104146496D01*
X109837787Y-104146500D01*
X109607634Y-104241832D01*
X109391869Y-104366403D01*
X109194230Y-104518056D01*
X109018056Y-104694230D01*
X108866403Y-104891869D01*
X108741832Y-105107634D01*
X108646500Y-105337787D01*
X108646496Y-105337800D01*
X108582017Y-105578437D01*
X108582017Y-105578442D01*
X108549500Y-105825433D01*
X88000500Y-105825433D01*
X88000500Y-102646532D01*
X148909500Y-102646532D01*
X148909500Y-102853467D01*
X148949869Y-103056418D01*
X149029058Y-103247597D01*
X149029059Y-103247598D01*
X149144023Y-103419655D01*
X149290345Y-103565977D01*
X149462402Y-103680941D01*
X149653580Y-103760130D01*
X149856535Y-103800500D01*
X149856536Y-103800500D01*
X150063464Y-103800500D01*
X150063465Y-103800500D01*
X150266420Y-103760130D01*
X150457598Y-103680941D01*
X150629655Y-103565977D01*
X150775977Y-103419655D01*
X150890941Y-103247598D01*
X150970130Y-103056420D01*
X151010500Y-102853465D01*
X151010500Y-102646535D01*
X151010499Y-102646532D01*
X154159500Y-102646532D01*
X154159500Y-102853467D01*
X154199869Y-103056418D01*
X154279058Y-103247597D01*
X154279059Y-103247598D01*
X154394023Y-103419655D01*
X154540345Y-103565977D01*
X154712402Y-103680941D01*
X154903580Y-103760130D01*
X155106535Y-103800500D01*
X155106536Y-103800500D01*
X155313464Y-103800500D01*
X155313465Y-103800500D01*
X155516420Y-103760130D01*
X155707598Y-103680941D01*
X155879655Y-103565977D01*
X156025977Y-103419655D01*
X156140941Y-103247598D01*
X156220130Y-103056420D01*
X156260500Y-102853465D01*
X156260500Y-102646535D01*
X156220130Y-102443580D01*
X156140941Y-102252402D01*
X156110709Y-102207157D01*
X156094102Y-102148270D01*
X156115280Y-102090866D01*
X156166154Y-102056874D01*
X156221638Y-102059053D01*
X156221948Y-102057897D01*
X156227060Y-102059266D01*
X156227292Y-102059276D01*
X156227720Y-102059443D01*
X156228212Y-102059574D01*
X156228216Y-102059577D01*
X156380943Y-102100500D01*
X156380945Y-102100500D01*
X156539055Y-102100500D01*
X156539057Y-102100500D01*
X156691784Y-102059577D01*
X156828716Y-101980520D01*
X156888293Y-101920943D01*
X162859500Y-101920943D01*
X162859500Y-102079057D01*
X162900423Y-102231784D01*
X162979480Y-102368716D01*
X163091284Y-102480520D01*
X163228216Y-102559577D01*
X163380943Y-102600500D01*
X163380945Y-102600500D01*
X163539055Y-102600500D01*
X163539057Y-102600500D01*
X163691784Y-102559577D01*
X163828716Y-102480520D01*
X163940520Y-102368716D01*
X164019577Y-102231784D01*
X164060500Y-102079057D01*
X164060500Y-101920943D01*
X164019577Y-101768216D01*
X163940520Y-101631284D01*
X163828716Y-101519480D01*
X163691784Y-101440423D01*
X163539057Y-101399500D01*
X163380943Y-101399500D01*
X163228216Y-101440423D01*
X163091284Y-101519480D01*
X162979480Y-101631284D01*
X162900423Y-101768216D01*
X162859500Y-101920943D01*
X156888293Y-101920943D01*
X156940520Y-101868716D01*
X157019577Y-101731784D01*
X157060500Y-101579057D01*
X157060500Y-101420943D01*
X157019577Y-101268216D01*
X156940520Y-101131284D01*
X156828716Y-101019480D01*
X156691784Y-100940423D01*
X156539057Y-100899500D01*
X156380943Y-100899500D01*
X156228216Y-100940423D01*
X156091284Y-101019480D01*
X155979480Y-101131284D01*
X155900423Y-101268216D01*
X155859500Y-101420943D01*
X155859500Y-101579057D01*
X155891773Y-101699500D01*
X155902103Y-101738052D01*
X155900055Y-101738600D01*
X155904106Y-101790086D01*
X155872136Y-101842254D01*
X155815608Y-101865668D01*
X155756113Y-101851383D01*
X155752841Y-101849289D01*
X155707597Y-101819058D01*
X155516418Y-101739869D01*
X155313467Y-101699500D01*
X155313465Y-101699500D01*
X155106535Y-101699500D01*
X155106532Y-101699500D01*
X154903581Y-101739869D01*
X154712402Y-101819058D01*
X154540348Y-101934020D01*
X154394020Y-102080348D01*
X154279058Y-102252402D01*
X154199869Y-102443581D01*
X154159500Y-102646532D01*
X151010499Y-102646532D01*
X150970130Y-102443580D01*
X150890941Y-102252402D01*
X150775977Y-102080345D01*
X150629655Y-101934023D01*
X150610081Y-101920944D01*
X150457597Y-101819058D01*
X150266418Y-101739869D01*
X150063467Y-101699500D01*
X150063465Y-101699500D01*
X149856535Y-101699500D01*
X149856532Y-101699500D01*
X149653581Y-101739869D01*
X149462402Y-101819058D01*
X149290348Y-101934020D01*
X149144020Y-102080348D01*
X149029058Y-102252402D01*
X148949869Y-102443581D01*
X148909500Y-102646532D01*
X88000500Y-102646532D01*
X88000500Y-100670943D01*
X146359500Y-100670943D01*
X146359500Y-100829057D01*
X146400423Y-100981784D01*
X146479480Y-101118716D01*
X146591284Y-101230520D01*
X146728216Y-101309577D01*
X146880943Y-101350500D01*
X146880945Y-101350500D01*
X147039055Y-101350500D01*
X147039057Y-101350500D01*
X147191784Y-101309577D01*
X147328716Y-101230520D01*
X147440520Y-101118716D01*
X147519577Y-100981784D01*
X147535879Y-100920943D01*
X151359500Y-100920943D01*
X151359500Y-101079057D01*
X151400423Y-101231784D01*
X151479480Y-101368716D01*
X151591284Y-101480520D01*
X151728216Y-101559577D01*
X151880943Y-101600500D01*
X151880945Y-101600500D01*
X152039055Y-101600500D01*
X152039057Y-101600500D01*
X152191784Y-101559577D01*
X152328716Y-101480520D01*
X152440520Y-101368716D01*
X152519577Y-101231784D01*
X152560500Y-101079057D01*
X152560500Y-100920943D01*
X152519577Y-100768216D01*
X152440520Y-100631284D01*
X152328716Y-100519480D01*
X152191784Y-100440423D01*
X152039057Y-100399500D01*
X151880943Y-100399500D01*
X151728216Y-100440423D01*
X151591284Y-100519480D01*
X151479480Y-100631284D01*
X151400423Y-100768216D01*
X151359500Y-100920943D01*
X147535879Y-100920943D01*
X147560500Y-100829057D01*
X147560500Y-100670943D01*
X147519577Y-100518216D01*
X147440520Y-100381284D01*
X147328716Y-100269480D01*
X147191784Y-100190423D01*
X147039057Y-100149500D01*
X146880943Y-100149500D01*
X146728216Y-100190423D01*
X146591284Y-100269480D01*
X146479480Y-100381284D01*
X146400423Y-100518216D01*
X146359500Y-100670943D01*
X88000500Y-100670943D01*
X88000500Y-93325433D01*
X108549500Y-93325433D01*
X108549500Y-93574566D01*
X108582017Y-93821557D01*
X108582017Y-93821562D01*
X108582018Y-93821565D01*
X108638832Y-94033599D01*
X108646496Y-94062199D01*
X108646500Y-94062212D01*
X108741832Y-94292365D01*
X108741834Y-94292369D01*
X108741836Y-94292373D01*
X108851192Y-94481784D01*
X108866403Y-94508130D01*
X109018056Y-94705769D01*
X109018058Y-94705771D01*
X109018062Y-94705776D01*
X109194224Y-94881938D01*
X109194228Y-94881941D01*
X109194230Y-94881943D01*
X109322699Y-94980520D01*
X109391873Y-95033599D01*
X109607627Y-95158164D01*
X109837793Y-95253502D01*
X110078435Y-95317982D01*
X110325435Y-95350500D01*
X110325436Y-95350500D01*
X110574564Y-95350500D01*
X110574565Y-95350500D01*
X110821565Y-95317982D01*
X111062207Y-95253502D01*
X111292373Y-95158164D01*
X111508127Y-95033599D01*
X111705776Y-94881938D01*
X111881938Y-94705776D01*
X112033599Y-94508127D01*
X112158164Y-94292373D01*
X112253502Y-94062207D01*
X112254373Y-94058957D01*
X112287697Y-94007642D01*
X112344818Y-93985715D01*
X112403919Y-94001550D01*
X112442424Y-94049100D01*
X112445627Y-94058957D01*
X112446494Y-94062196D01*
X112446500Y-94062212D01*
X112541832Y-94292365D01*
X112541834Y-94292369D01*
X112541836Y-94292373D01*
X112651192Y-94481784D01*
X112666403Y-94508130D01*
X112818056Y-94705769D01*
X112818058Y-94705771D01*
X112818062Y-94705776D01*
X112994224Y-94881938D01*
X112994228Y-94881941D01*
X112994230Y-94881943D01*
X113122699Y-94980520D01*
X113191873Y-95033599D01*
X113407627Y-95158164D01*
X113637793Y-95253502D01*
X113878435Y-95317982D01*
X114125435Y-95350500D01*
X114125436Y-95350500D01*
X114374564Y-95350500D01*
X114374565Y-95350500D01*
X114621565Y-95317982D01*
X114862207Y-95253502D01*
X115092373Y-95158164D01*
X115308127Y-95033599D01*
X115505776Y-94881938D01*
X115681938Y-94705776D01*
X115694659Y-94689198D01*
X124059500Y-94689198D01*
X124059500Y-94910801D01*
X124088424Y-95130500D01*
X124088424Y-95130505D01*
X124145779Y-95344558D01*
X124230581Y-95549288D01*
X124230584Y-95549293D01*
X124335214Y-95730519D01*
X124341387Y-95741210D01*
X124476282Y-95917009D01*
X124476284Y-95917011D01*
X124476288Y-95917016D01*
X124632984Y-96073712D01*
X124632988Y-96073715D01*
X124632990Y-96073717D01*
X124691633Y-96118715D01*
X124808793Y-96208615D01*
X125000707Y-96319416D01*
X125000708Y-96319416D01*
X125000711Y-96319418D01*
X125075750Y-96350500D01*
X125205441Y-96404220D01*
X125205444Y-96404220D01*
X125205447Y-96404222D01*
X125205446Y-96404222D01*
X125206013Y-96404374D01*
X125206143Y-96404458D01*
X125208515Y-96405264D01*
X125208310Y-96405866D01*
X125257327Y-96437698D01*
X125279253Y-96494820D01*
X125263417Y-96553920D01*
X125215866Y-96592425D01*
X125206013Y-96595626D01*
X125205447Y-96595777D01*
X125000711Y-96680581D01*
X124808789Y-96791387D01*
X124632990Y-96926282D01*
X124476282Y-97082990D01*
X124341387Y-97258789D01*
X124230581Y-97450711D01*
X124145779Y-97655441D01*
X124088424Y-97869494D01*
X124088424Y-97869499D01*
X124062549Y-98066043D01*
X124059500Y-98089199D01*
X124059500Y-98310801D01*
X124074000Y-98420943D01*
X124088424Y-98530500D01*
X124088424Y-98530505D01*
X124145779Y-98744558D01*
X124230581Y-98949288D01*
X124230584Y-98949293D01*
X124270376Y-99018216D01*
X124341387Y-99141210D01*
X124476282Y-99317009D01*
X124476284Y-99317011D01*
X124476288Y-99317016D01*
X124632984Y-99473712D01*
X124632988Y-99473715D01*
X124632990Y-99473717D01*
X124808789Y-99608612D01*
X124808793Y-99608615D01*
X125000707Y-99719416D01*
X125000708Y-99719416D01*
X125000711Y-99719418D01*
X125027514Y-99730520D01*
X125205441Y-99804220D01*
X125419492Y-99861575D01*
X125639199Y-99890500D01*
X125639200Y-99890500D01*
X125860800Y-99890500D01*
X125860801Y-99890500D01*
X126080508Y-99861575D01*
X126294559Y-99804220D01*
X126499293Y-99719416D01*
X126691207Y-99608615D01*
X126867016Y-99473712D01*
X127023712Y-99317016D01*
X127158615Y-99141207D01*
X127269416Y-98949293D01*
X127354220Y-98744559D01*
X127411575Y-98530508D01*
X127440500Y-98310801D01*
X127440500Y-98089199D01*
X127411575Y-97869492D01*
X127354220Y-97655441D01*
X127305643Y-97538167D01*
X127269418Y-97450711D01*
X127252232Y-97420944D01*
X127158615Y-97258793D01*
X127023712Y-97082984D01*
X126867016Y-96926288D01*
X126867011Y-96926284D01*
X126867009Y-96926282D01*
X126691210Y-96791387D01*
X126499288Y-96680581D01*
X126294557Y-96595779D01*
X126293992Y-96595628D01*
X126293860Y-96595542D01*
X126291485Y-96594736D01*
X126291689Y-96594133D01*
X126242676Y-96562307D01*
X126220746Y-96505187D01*
X126236579Y-96446085D01*
X126284127Y-96407577D01*
X126293992Y-96404372D01*
X126294059Y-96404353D01*
X126294559Y-96404220D01*
X126499293Y-96319416D01*
X126691207Y-96208615D01*
X126867016Y-96073712D01*
X127023712Y-95917016D01*
X127158615Y-95741207D01*
X127269416Y-95549293D01*
X127354220Y-95344559D01*
X127411575Y-95130508D01*
X127440500Y-94910801D01*
X127440500Y-94689199D01*
X127440500Y-94689198D01*
X133979500Y-94689198D01*
X133979500Y-94910801D01*
X134008424Y-95130500D01*
X134008424Y-95130505D01*
X134065779Y-95344558D01*
X134150581Y-95549288D01*
X134150584Y-95549293D01*
X134255214Y-95730519D01*
X134261387Y-95741210D01*
X134396282Y-95917009D01*
X134396284Y-95917011D01*
X134396288Y-95917016D01*
X134552984Y-96073712D01*
X134552988Y-96073715D01*
X134552990Y-96073717D01*
X134611633Y-96118715D01*
X134728793Y-96208615D01*
X134920707Y-96319416D01*
X134920708Y-96319416D01*
X134920711Y-96319418D01*
X134995750Y-96350500D01*
X135125441Y-96404220D01*
X135125444Y-96404220D01*
X135125447Y-96404222D01*
X135125446Y-96404222D01*
X135126013Y-96404374D01*
X135126143Y-96404458D01*
X135128515Y-96405264D01*
X135128310Y-96405866D01*
X135177327Y-96437698D01*
X135199253Y-96494820D01*
X135183417Y-96553920D01*
X135135866Y-96592425D01*
X135126013Y-96595626D01*
X135125447Y-96595777D01*
X134920711Y-96680581D01*
X134728789Y-96791387D01*
X134552990Y-96926282D01*
X134396282Y-97082990D01*
X134261387Y-97258789D01*
X134150581Y-97450711D01*
X134065779Y-97655441D01*
X134008424Y-97869494D01*
X134008424Y-97869499D01*
X133982549Y-98066043D01*
X133979500Y-98089199D01*
X133979500Y-98310801D01*
X133994000Y-98420943D01*
X134008424Y-98530500D01*
X134008424Y-98530505D01*
X134065779Y-98744558D01*
X134150581Y-98949288D01*
X134150584Y-98949293D01*
X134190376Y-99018216D01*
X134261387Y-99141210D01*
X134396282Y-99317009D01*
X134396284Y-99317011D01*
X134396288Y-99317016D01*
X134552984Y-99473712D01*
X134552988Y-99473715D01*
X134552990Y-99473717D01*
X134728789Y-99608612D01*
X134728793Y-99608615D01*
X134920707Y-99719416D01*
X134920708Y-99719416D01*
X134920711Y-99719418D01*
X134947514Y-99730520D01*
X135125441Y-99804220D01*
X135339492Y-99861575D01*
X135559199Y-99890500D01*
X135559200Y-99890500D01*
X135780800Y-99890500D01*
X135780801Y-99890500D01*
X136000508Y-99861575D01*
X136214559Y-99804220D01*
X136419293Y-99719416D01*
X136611207Y-99608615D01*
X136787016Y-99473712D01*
X136943712Y-99317016D01*
X137078615Y-99141207D01*
X137189416Y-98949293D01*
X137274220Y-98744559D01*
X137331575Y-98530508D01*
X137360500Y-98310801D01*
X137360500Y-98089199D01*
X137356605Y-98059610D01*
X159745207Y-98059610D01*
X159745207Y-98217724D01*
X159786130Y-98370451D01*
X159865187Y-98507383D01*
X159976991Y-98619187D01*
X160113923Y-98698244D01*
X160266650Y-98739167D01*
X160266652Y-98739167D01*
X160424762Y-98739167D01*
X160424764Y-98739167D01*
X160577491Y-98698244D01*
X160714423Y-98619187D01*
X160826227Y-98507383D01*
X160905284Y-98370451D01*
X160946207Y-98217724D01*
X160946207Y-98059610D01*
X160905284Y-97906883D01*
X160826227Y-97769951D01*
X160714423Y-97658147D01*
X160577491Y-97579090D01*
X160424764Y-97538167D01*
X160266650Y-97538167D01*
X160113923Y-97579090D01*
X159976991Y-97658147D01*
X159865187Y-97769951D01*
X159786130Y-97906883D01*
X159745207Y-98059610D01*
X137356605Y-98059610D01*
X137331575Y-97869492D01*
X137274220Y-97655441D01*
X137242580Y-97579055D01*
X137190093Y-97452340D01*
X137190092Y-97452339D01*
X137189419Y-97450714D01*
X137189418Y-97450713D01*
X137189416Y-97450707D01*
X137172232Y-97420943D01*
X162359500Y-97420943D01*
X162359500Y-97579057D01*
X162400423Y-97731784D01*
X162479480Y-97868716D01*
X162540762Y-97929998D01*
X162568538Y-97984513D01*
X162558967Y-98044945D01*
X162540763Y-98070000D01*
X162479480Y-98131284D01*
X162400423Y-98268216D01*
X162359500Y-98420943D01*
X162359500Y-98579057D01*
X162400423Y-98731784D01*
X162479480Y-98868716D01*
X162591284Y-98980520D01*
X162728216Y-99059577D01*
X162880943Y-99100500D01*
X162880945Y-99100500D01*
X163010500Y-99100500D01*
X163068691Y-99119407D01*
X163104655Y-99168907D01*
X163109500Y-99199500D01*
X163109500Y-99329057D01*
X163150423Y-99481784D01*
X163229480Y-99618716D01*
X163341284Y-99730520D01*
X163478216Y-99809577D01*
X163630943Y-99850500D01*
X163630945Y-99850500D01*
X163789055Y-99850500D01*
X163789057Y-99850500D01*
X163941784Y-99809577D01*
X164078716Y-99730520D01*
X164190520Y-99618716D01*
X164269577Y-99481784D01*
X164310500Y-99329057D01*
X164310500Y-99170943D01*
X164269577Y-99018216D01*
X164190520Y-98881284D01*
X164078716Y-98769480D01*
X163941784Y-98690423D01*
X163789057Y-98649500D01*
X163659500Y-98649500D01*
X163601309Y-98630593D01*
X163565345Y-98581093D01*
X163560500Y-98550500D01*
X163560500Y-98420944D01*
X163560500Y-98420943D01*
X163519577Y-98268216D01*
X163440520Y-98131284D01*
X163379237Y-98070001D01*
X163351462Y-98015487D01*
X163361033Y-97955055D01*
X163379236Y-97929999D01*
X163440520Y-97868716D01*
X163519577Y-97731784D01*
X163560500Y-97579057D01*
X163560500Y-97420943D01*
X163519577Y-97268216D01*
X163440520Y-97131284D01*
X163328716Y-97019480D01*
X163191784Y-96940423D01*
X163039057Y-96899500D01*
X162880943Y-96899500D01*
X162728216Y-96940423D01*
X162591284Y-97019480D01*
X162479480Y-97131284D01*
X162400423Y-97268216D01*
X162359500Y-97420943D01*
X137172232Y-97420943D01*
X137078615Y-97258793D01*
X136943712Y-97082984D01*
X136787016Y-96926288D01*
X136787011Y-96926284D01*
X136787009Y-96926282D01*
X136611210Y-96791387D01*
X136419288Y-96680581D01*
X136214557Y-96595779D01*
X136213992Y-96595628D01*
X136213860Y-96595542D01*
X136211485Y-96594736D01*
X136211689Y-96594133D01*
X136162676Y-96562307D01*
X136140746Y-96505187D01*
X136156579Y-96446085D01*
X136204127Y-96407577D01*
X136213992Y-96404372D01*
X136214059Y-96404353D01*
X136214559Y-96404220D01*
X136419293Y-96319416D01*
X136611207Y-96208615D01*
X136787016Y-96073712D01*
X136943712Y-95917016D01*
X137078615Y-95741207D01*
X137189416Y-95549293D01*
X137274220Y-95344559D01*
X137320740Y-95170943D01*
X145859500Y-95170943D01*
X145859500Y-95329057D01*
X145900423Y-95481784D01*
X145979480Y-95618716D01*
X146091284Y-95730520D01*
X146228216Y-95809577D01*
X146380943Y-95850500D01*
X146380945Y-95850500D01*
X146539055Y-95850500D01*
X146539057Y-95850500D01*
X146691784Y-95809577D01*
X146828716Y-95730520D01*
X146888293Y-95670943D01*
X154359500Y-95670943D01*
X154359500Y-95829057D01*
X154400423Y-95981784D01*
X154479480Y-96118716D01*
X154591284Y-96230520D01*
X154728216Y-96309577D01*
X154880943Y-96350500D01*
X154880945Y-96350500D01*
X155039055Y-96350500D01*
X155039057Y-96350500D01*
X155191784Y-96309577D01*
X155328716Y-96230520D01*
X155440520Y-96118716D01*
X155519577Y-95981784D01*
X155535879Y-95920943D01*
X162859500Y-95920943D01*
X162859500Y-96079057D01*
X162900423Y-96231784D01*
X162979480Y-96368716D01*
X163091284Y-96480520D01*
X163228216Y-96559577D01*
X163380943Y-96600500D01*
X163380945Y-96600500D01*
X163539055Y-96600500D01*
X163539057Y-96600500D01*
X163691784Y-96559577D01*
X163828716Y-96480520D01*
X163940520Y-96368716D01*
X164019577Y-96231784D01*
X164060500Y-96079057D01*
X164060500Y-95920943D01*
X164019577Y-95768216D01*
X163940520Y-95631284D01*
X163828716Y-95519480D01*
X163691784Y-95440423D01*
X163539057Y-95399500D01*
X163380943Y-95399500D01*
X163228216Y-95440423D01*
X163091284Y-95519480D01*
X162979480Y-95631284D01*
X162900423Y-95768216D01*
X162859500Y-95920943D01*
X155535879Y-95920943D01*
X155560500Y-95829057D01*
X155560500Y-95670943D01*
X155519577Y-95518216D01*
X155440520Y-95381284D01*
X155328716Y-95269480D01*
X155191784Y-95190423D01*
X155039057Y-95149500D01*
X154880943Y-95149500D01*
X154728216Y-95190423D01*
X154591284Y-95269480D01*
X154479480Y-95381284D01*
X154400423Y-95518216D01*
X154359500Y-95670943D01*
X146888293Y-95670943D01*
X146940520Y-95618716D01*
X147019577Y-95481784D01*
X147060500Y-95329057D01*
X147060500Y-95170943D01*
X147019577Y-95018216D01*
X146940520Y-94881284D01*
X146828716Y-94769480D01*
X146691784Y-94690423D01*
X146539057Y-94649500D01*
X146380943Y-94649500D01*
X146228216Y-94690423D01*
X146091284Y-94769480D01*
X145979480Y-94881284D01*
X145900423Y-95018216D01*
X145859500Y-95170943D01*
X137320740Y-95170943D01*
X137331575Y-95130508D01*
X137360500Y-94910801D01*
X137360500Y-94689199D01*
X137331575Y-94469492D01*
X137274220Y-94255441D01*
X137264421Y-94231784D01*
X137189418Y-94050711D01*
X137188488Y-94049100D01*
X137114497Y-93920943D01*
X149859500Y-93920943D01*
X149859500Y-94079057D01*
X149900423Y-94231784D01*
X149979480Y-94368716D01*
X150091284Y-94480520D01*
X150228216Y-94559577D01*
X150380943Y-94600500D01*
X150380945Y-94600500D01*
X150539055Y-94600500D01*
X150539057Y-94600500D01*
X150691784Y-94559577D01*
X150828716Y-94480520D01*
X150888293Y-94420943D01*
X151609500Y-94420943D01*
X151609500Y-94579057D01*
X151650423Y-94731784D01*
X151729480Y-94868716D01*
X151841284Y-94980520D01*
X151978216Y-95059577D01*
X152130943Y-95100500D01*
X152130945Y-95100500D01*
X152289055Y-95100500D01*
X152289057Y-95100500D01*
X152441784Y-95059577D01*
X152578716Y-94980520D01*
X152690520Y-94868716D01*
X152769577Y-94731784D01*
X152810500Y-94579057D01*
X152810500Y-94420943D01*
X152769577Y-94268216D01*
X152713417Y-94170943D01*
X154609500Y-94170943D01*
X154609500Y-94329057D01*
X154650423Y-94481784D01*
X154729480Y-94618716D01*
X154841284Y-94730520D01*
X154978216Y-94809577D01*
X155130943Y-94850500D01*
X155130945Y-94850500D01*
X155289055Y-94850500D01*
X155289057Y-94850500D01*
X155441784Y-94809577D01*
X155578716Y-94730520D01*
X155690520Y-94618716D01*
X155769577Y-94481784D01*
X155810500Y-94329057D01*
X155810500Y-94170943D01*
X155769577Y-94018216D01*
X155690520Y-93881284D01*
X155578716Y-93769480D01*
X155441784Y-93690423D01*
X155289057Y-93649500D01*
X155130943Y-93649500D01*
X154978216Y-93690423D01*
X154841284Y-93769480D01*
X154729480Y-93881284D01*
X154650423Y-94018216D01*
X154609500Y-94170943D01*
X152713417Y-94170943D01*
X152690520Y-94131284D01*
X152578716Y-94019480D01*
X152441784Y-93940423D01*
X152289057Y-93899500D01*
X152130943Y-93899500D01*
X151978216Y-93940423D01*
X151841284Y-94019480D01*
X151729480Y-94131284D01*
X151650423Y-94268216D01*
X151609500Y-94420943D01*
X150888293Y-94420943D01*
X150940520Y-94368716D01*
X151019577Y-94231784D01*
X151060500Y-94079057D01*
X151060500Y-93920943D01*
X151019577Y-93768216D01*
X150940520Y-93631284D01*
X150828716Y-93519480D01*
X150691784Y-93440423D01*
X150539057Y-93399500D01*
X150380943Y-93399500D01*
X150228216Y-93440423D01*
X150091284Y-93519480D01*
X149979480Y-93631284D01*
X149900423Y-93768216D01*
X149859500Y-93920943D01*
X137114497Y-93920943D01*
X137078615Y-93858793D01*
X136961196Y-93705769D01*
X136943717Y-93682990D01*
X136943715Y-93682988D01*
X136943712Y-93682984D01*
X136787016Y-93526288D01*
X136787011Y-93526284D01*
X136787009Y-93526282D01*
X136611210Y-93391387D01*
X136419288Y-93280581D01*
X136214558Y-93195779D01*
X136068356Y-93156605D01*
X136000508Y-93138425D01*
X136000505Y-93138424D01*
X136000503Y-93138424D01*
X135780801Y-93109500D01*
X135559199Y-93109500D01*
X135559198Y-93109500D01*
X135339499Y-93138424D01*
X135339494Y-93138424D01*
X135125441Y-93195779D01*
X134920711Y-93280581D01*
X134728789Y-93391387D01*
X134552990Y-93526282D01*
X134396282Y-93682990D01*
X134261387Y-93858789D01*
X134150581Y-94050711D01*
X134065779Y-94255441D01*
X134008424Y-94469494D01*
X134008424Y-94469499D01*
X133979500Y-94689198D01*
X127440500Y-94689198D01*
X127411575Y-94469492D01*
X127354220Y-94255441D01*
X127344421Y-94231784D01*
X127269418Y-94050711D01*
X127268488Y-94049100D01*
X127158615Y-93858793D01*
X127041196Y-93705769D01*
X127023717Y-93682990D01*
X127023715Y-93682988D01*
X127023712Y-93682984D01*
X126867016Y-93526288D01*
X126867011Y-93526284D01*
X126867009Y-93526282D01*
X126691210Y-93391387D01*
X126499288Y-93280581D01*
X126294558Y-93195779D01*
X126148356Y-93156605D01*
X126080508Y-93138425D01*
X126080505Y-93138424D01*
X126080503Y-93138424D01*
X125860801Y-93109500D01*
X125639199Y-93109500D01*
X125639198Y-93109500D01*
X125419499Y-93138424D01*
X125419494Y-93138424D01*
X125205441Y-93195779D01*
X125000711Y-93280581D01*
X124808789Y-93391387D01*
X124632990Y-93526282D01*
X124476282Y-93682990D01*
X124341387Y-93858789D01*
X124230581Y-94050711D01*
X124145779Y-94255441D01*
X124088424Y-94469494D01*
X124088424Y-94469499D01*
X124059500Y-94689198D01*
X115694659Y-94689198D01*
X115725120Y-94649500D01*
X115743390Y-94625691D01*
X115794121Y-94559576D01*
X115833599Y-94508127D01*
X115958164Y-94292373D01*
X116053502Y-94062207D01*
X116117982Y-93821565D01*
X116150500Y-93574565D01*
X116150500Y-93325435D01*
X116117982Y-93078435D01*
X116053502Y-92837793D01*
X115958164Y-92607627D01*
X115850382Y-92420943D01*
X163359500Y-92420943D01*
X163359500Y-92579057D01*
X163400423Y-92731784D01*
X163479480Y-92868716D01*
X163591284Y-92980520D01*
X163728216Y-93059577D01*
X163880943Y-93100500D01*
X163880945Y-93100500D01*
X164039055Y-93100500D01*
X164039057Y-93100500D01*
X164191784Y-93059577D01*
X164328716Y-92980520D01*
X164440520Y-92868716D01*
X164519577Y-92731784D01*
X164560500Y-92579057D01*
X164560500Y-92420943D01*
X164534908Y-92325433D01*
X186310478Y-92325433D01*
X186310478Y-92574566D01*
X186342995Y-92821557D01*
X186342995Y-92821562D01*
X186407474Y-93062199D01*
X186407478Y-93062212D01*
X186502810Y-93292365D01*
X186502812Y-93292369D01*
X186502814Y-93292373D01*
X186627379Y-93508127D01*
X186627381Y-93508130D01*
X186779034Y-93705769D01*
X186779036Y-93705771D01*
X186779040Y-93705776D01*
X186955202Y-93881938D01*
X186955206Y-93881941D01*
X186955208Y-93881943D01*
X187090447Y-93985715D01*
X187152851Y-94033599D01*
X187368605Y-94158164D01*
X187598771Y-94253502D01*
X187839413Y-94317982D01*
X188086413Y-94350500D01*
X188086414Y-94350500D01*
X188335542Y-94350500D01*
X188335543Y-94350500D01*
X188582543Y-94317982D01*
X188823185Y-94253502D01*
X189053351Y-94158164D01*
X189269105Y-94033599D01*
X189466754Y-93881938D01*
X189642916Y-93705776D01*
X189794577Y-93508127D01*
X189919142Y-93292373D01*
X190014480Y-93062207D01*
X190015351Y-93058957D01*
X190048675Y-93007642D01*
X190105796Y-92985715D01*
X190164897Y-93001550D01*
X190203402Y-93049100D01*
X190206605Y-93058957D01*
X190207472Y-93062196D01*
X190207478Y-93062212D01*
X190302810Y-93292365D01*
X190302812Y-93292369D01*
X190302814Y-93292373D01*
X190427379Y-93508127D01*
X190427381Y-93508130D01*
X190579034Y-93705769D01*
X190579036Y-93705771D01*
X190579040Y-93705776D01*
X190755202Y-93881938D01*
X190755206Y-93881941D01*
X190755208Y-93881943D01*
X190890447Y-93985715D01*
X190952851Y-94033599D01*
X191168605Y-94158164D01*
X191398771Y-94253502D01*
X191639413Y-94317982D01*
X191886413Y-94350500D01*
X191886414Y-94350500D01*
X192135542Y-94350500D01*
X192135543Y-94350500D01*
X192382543Y-94317982D01*
X192623185Y-94253502D01*
X192853351Y-94158164D01*
X193069105Y-94033599D01*
X193266754Y-93881938D01*
X193442916Y-93705776D01*
X193594577Y-93508127D01*
X193719142Y-93292373D01*
X193814480Y-93062207D01*
X193878960Y-92821565D01*
X193911478Y-92574565D01*
X193911478Y-92325435D01*
X193878960Y-92078435D01*
X193814480Y-91837793D01*
X193719142Y-91607627D01*
X193594577Y-91391873D01*
X193442916Y-91194224D01*
X193266754Y-91018062D01*
X193266749Y-91018058D01*
X193266747Y-91018056D01*
X193069108Y-90866403D01*
X193069105Y-90866401D01*
X192853351Y-90741836D01*
X192853347Y-90741834D01*
X192853343Y-90741832D01*
X192623190Y-90646500D01*
X192623189Y-90646499D01*
X192623185Y-90646498D01*
X192382543Y-90582018D01*
X192382540Y-90582017D01*
X192382538Y-90582017D01*
X192135544Y-90549500D01*
X192135543Y-90549500D01*
X191886413Y-90549500D01*
X191886411Y-90549500D01*
X191639420Y-90582017D01*
X191639415Y-90582017D01*
X191398778Y-90646496D01*
X191398765Y-90646500D01*
X191168612Y-90741832D01*
X190952847Y-90866403D01*
X190755208Y-91018056D01*
X190579034Y-91194230D01*
X190427381Y-91391869D01*
X190302810Y-91607634D01*
X190207478Y-91837787D01*
X190207472Y-91837804D01*
X190206604Y-91841046D01*
X190173278Y-91892359D01*
X190116156Y-91914284D01*
X190057056Y-91898447D01*
X190018552Y-91850896D01*
X190015352Y-91841046D01*
X190014483Y-91837804D01*
X190014482Y-91837800D01*
X190014480Y-91837793D01*
X189919142Y-91607627D01*
X189794577Y-91391873D01*
X189642916Y-91194224D01*
X189466754Y-91018062D01*
X189466749Y-91018058D01*
X189466747Y-91018056D01*
X189269108Y-90866403D01*
X189269105Y-90866401D01*
X189053351Y-90741836D01*
X189053347Y-90741834D01*
X189053343Y-90741832D01*
X188823190Y-90646500D01*
X188823189Y-90646499D01*
X188823185Y-90646498D01*
X188582543Y-90582018D01*
X188582540Y-90582017D01*
X188582538Y-90582017D01*
X188335544Y-90549500D01*
X188335543Y-90549500D01*
X188086413Y-90549500D01*
X188086411Y-90549500D01*
X187839420Y-90582017D01*
X187839415Y-90582017D01*
X187598778Y-90646496D01*
X187598765Y-90646500D01*
X187368612Y-90741832D01*
X187152847Y-90866403D01*
X186955208Y-91018056D01*
X186779034Y-91194230D01*
X186627381Y-91391869D01*
X186502810Y-91607634D01*
X186407478Y-91837787D01*
X186407474Y-91837800D01*
X186342995Y-92078437D01*
X186342995Y-92078442D01*
X186310478Y-92325433D01*
X164534908Y-92325433D01*
X164519577Y-92268216D01*
X164440520Y-92131284D01*
X164328716Y-92019480D01*
X164191784Y-91940423D01*
X164039057Y-91899500D01*
X163880943Y-91899500D01*
X163728216Y-91940423D01*
X163591284Y-92019480D01*
X163479480Y-92131284D01*
X163400423Y-92268216D01*
X163359500Y-92420943D01*
X115850382Y-92420943D01*
X115833599Y-92391873D01*
X115833596Y-92391869D01*
X115681943Y-92194230D01*
X115681941Y-92194228D01*
X115681938Y-92194224D01*
X115505776Y-92018062D01*
X115505771Y-92018058D01*
X115505769Y-92018056D01*
X115308130Y-91866403D01*
X115281271Y-91850896D01*
X115106842Y-91750189D01*
X115106841Y-91750188D01*
X115092373Y-91741836D01*
X115092369Y-91741833D01*
X114921223Y-91670943D01*
X143609500Y-91670943D01*
X143609500Y-91829057D01*
X143650423Y-91981784D01*
X143729480Y-92118716D01*
X143841284Y-92230520D01*
X143978216Y-92309577D01*
X144130943Y-92350500D01*
X144130945Y-92350500D01*
X144289055Y-92350500D01*
X144289057Y-92350500D01*
X144441784Y-92309577D01*
X144578716Y-92230520D01*
X144690520Y-92118716D01*
X144769577Y-91981784D01*
X144810500Y-91829057D01*
X144810500Y-91670943D01*
X144769577Y-91518216D01*
X144690520Y-91381284D01*
X144578716Y-91269480D01*
X144441784Y-91190423D01*
X144289057Y-91149500D01*
X144130943Y-91149500D01*
X143978216Y-91190423D01*
X143841284Y-91269480D01*
X143729480Y-91381284D01*
X143650423Y-91518216D01*
X143609500Y-91670943D01*
X114921223Y-91670943D01*
X114862212Y-91646500D01*
X114862211Y-91646499D01*
X114862207Y-91646498D01*
X114621565Y-91582018D01*
X114621562Y-91582017D01*
X114621560Y-91582017D01*
X114374566Y-91549500D01*
X114374565Y-91549500D01*
X114125435Y-91549500D01*
X114125433Y-91549500D01*
X113878442Y-91582017D01*
X113878437Y-91582017D01*
X113637800Y-91646496D01*
X113637787Y-91646500D01*
X113407634Y-91741832D01*
X113191869Y-91866403D01*
X112994230Y-92018056D01*
X112818056Y-92194230D01*
X112666403Y-92391869D01*
X112541832Y-92607634D01*
X112446500Y-92837787D01*
X112446494Y-92837804D01*
X112445626Y-92841046D01*
X112412300Y-92892359D01*
X112355178Y-92914284D01*
X112296078Y-92898447D01*
X112257574Y-92850896D01*
X112254374Y-92841046D01*
X112253505Y-92837804D01*
X112253504Y-92837800D01*
X112253502Y-92837793D01*
X112158164Y-92607627D01*
X112033599Y-92391873D01*
X112033596Y-92391869D01*
X111881943Y-92194230D01*
X111881941Y-92194228D01*
X111881938Y-92194224D01*
X111705776Y-92018062D01*
X111705771Y-92018058D01*
X111705769Y-92018056D01*
X111508130Y-91866403D01*
X111481271Y-91850896D01*
X111292373Y-91741836D01*
X111292369Y-91741834D01*
X111292365Y-91741832D01*
X111062212Y-91646500D01*
X111062211Y-91646499D01*
X111062207Y-91646498D01*
X110821565Y-91582018D01*
X110821562Y-91582017D01*
X110821560Y-91582017D01*
X110574566Y-91549500D01*
X110574565Y-91549500D01*
X110325435Y-91549500D01*
X110325433Y-91549500D01*
X110078442Y-91582017D01*
X110078437Y-91582017D01*
X109837800Y-91646496D01*
X109837787Y-91646500D01*
X109607634Y-91741832D01*
X109391869Y-91866403D01*
X109194230Y-92018056D01*
X109018056Y-92194230D01*
X108866403Y-92391869D01*
X108741832Y-92607634D01*
X108646500Y-92837787D01*
X108646496Y-92837800D01*
X108582017Y-93078437D01*
X108582017Y-93078442D01*
X108549500Y-93325433D01*
X88000500Y-93325433D01*
X88000500Y-90170943D01*
X145859500Y-90170943D01*
X145859500Y-90329057D01*
X145900423Y-90481784D01*
X145979480Y-90618716D01*
X146091284Y-90730520D01*
X146193033Y-90789264D01*
X146233973Y-90834733D01*
X146240369Y-90895583D01*
X146209776Y-90948571D01*
X146193036Y-90960733D01*
X146091284Y-91019480D01*
X145979480Y-91131284D01*
X145900423Y-91268216D01*
X145859500Y-91420943D01*
X145859500Y-91579057D01*
X145900423Y-91731784D01*
X145979480Y-91868716D01*
X146091284Y-91980520D01*
X146228216Y-92059577D01*
X146380943Y-92100500D01*
X146380945Y-92100500D01*
X146539055Y-92100500D01*
X146539057Y-92100500D01*
X146691784Y-92059577D01*
X146828716Y-91980520D01*
X146940520Y-91868716D01*
X147019577Y-91731784D01*
X147035879Y-91670943D01*
X160609500Y-91670943D01*
X160609500Y-91829057D01*
X160650423Y-91981784D01*
X160729480Y-92118716D01*
X160841284Y-92230520D01*
X160978216Y-92309577D01*
X161130943Y-92350500D01*
X161130945Y-92350500D01*
X161289055Y-92350500D01*
X161289057Y-92350500D01*
X161441784Y-92309577D01*
X161578716Y-92230520D01*
X161690520Y-92118716D01*
X161769577Y-91981784D01*
X161810500Y-91829057D01*
X161810500Y-91670943D01*
X161769577Y-91518216D01*
X161690520Y-91381284D01*
X161578716Y-91269480D01*
X161441784Y-91190423D01*
X161289057Y-91149500D01*
X161130943Y-91149500D01*
X160978216Y-91190423D01*
X160841284Y-91269480D01*
X160729480Y-91381284D01*
X160650423Y-91518216D01*
X160609500Y-91670943D01*
X147035879Y-91670943D01*
X147060500Y-91579057D01*
X147060500Y-91420943D01*
X147019577Y-91268216D01*
X146940520Y-91131284D01*
X146828716Y-91019480D01*
X146726966Y-90960735D01*
X146686026Y-90915268D01*
X146679630Y-90854417D01*
X146710223Y-90801429D01*
X146726963Y-90789266D01*
X146828716Y-90730520D01*
X146940520Y-90618716D01*
X147019577Y-90481784D01*
X147035879Y-90420943D01*
X158859500Y-90420943D01*
X158859500Y-90579057D01*
X158900423Y-90731784D01*
X158979480Y-90868716D01*
X159091284Y-90980520D01*
X159228216Y-91059577D01*
X159380943Y-91100500D01*
X159380945Y-91100500D01*
X159539055Y-91100500D01*
X159539057Y-91100500D01*
X159691784Y-91059577D01*
X159828716Y-90980520D01*
X159940520Y-90868716D01*
X160019577Y-90731784D01*
X160060500Y-90579057D01*
X160060500Y-90420943D01*
X162009500Y-90420943D01*
X162009500Y-90579057D01*
X162050423Y-90731784D01*
X162129480Y-90868716D01*
X162241284Y-90980520D01*
X162378216Y-91059577D01*
X162530943Y-91100500D01*
X162530945Y-91100500D01*
X162689055Y-91100500D01*
X162689057Y-91100500D01*
X162841784Y-91059577D01*
X162978716Y-90980520D01*
X163090520Y-90868716D01*
X163169577Y-90731784D01*
X163210500Y-90579057D01*
X163210500Y-90420943D01*
X163169577Y-90268216D01*
X163090520Y-90131284D01*
X162978716Y-90019480D01*
X162841784Y-89940423D01*
X162689057Y-89899500D01*
X162530943Y-89899500D01*
X162378216Y-89940423D01*
X162241284Y-90019480D01*
X162129480Y-90131284D01*
X162050423Y-90268216D01*
X162009500Y-90420943D01*
X160060500Y-90420943D01*
X160019577Y-90268216D01*
X159940520Y-90131284D01*
X159828716Y-90019480D01*
X159691784Y-89940423D01*
X159539057Y-89899500D01*
X159380943Y-89899500D01*
X159228216Y-89940423D01*
X159091284Y-90019480D01*
X158979480Y-90131284D01*
X158900423Y-90268216D01*
X158859500Y-90420943D01*
X147035879Y-90420943D01*
X147060500Y-90329057D01*
X147060500Y-90170943D01*
X147019577Y-90018216D01*
X146940520Y-89881284D01*
X146828716Y-89769480D01*
X146691784Y-89690423D01*
X146539057Y-89649500D01*
X146380943Y-89649500D01*
X146228216Y-89690423D01*
X146091284Y-89769480D01*
X145979480Y-89881284D01*
X145900423Y-90018216D01*
X145859500Y-90170943D01*
X88000500Y-90170943D01*
X88000500Y-87875433D01*
X132312000Y-87875433D01*
X132312000Y-88124566D01*
X132344517Y-88371557D01*
X132344517Y-88371562D01*
X132344518Y-88371565D01*
X132400115Y-88579057D01*
X132408996Y-88612199D01*
X132409000Y-88612212D01*
X132504332Y-88842365D01*
X132504334Y-88842369D01*
X132504336Y-88842373D01*
X132628901Y-89058127D01*
X132628903Y-89058130D01*
X132780556Y-89255769D01*
X132780558Y-89255771D01*
X132780562Y-89255776D01*
X132956724Y-89431938D01*
X132956728Y-89431941D01*
X132956730Y-89431943D01*
X133154369Y-89583596D01*
X133154373Y-89583599D01*
X133370127Y-89708164D01*
X133600293Y-89803502D01*
X133840935Y-89867982D01*
X134087935Y-89900500D01*
X134087936Y-89900500D01*
X134337064Y-89900500D01*
X134337065Y-89900500D01*
X134584065Y-89867982D01*
X134824707Y-89803502D01*
X135054873Y-89708164D01*
X135270627Y-89583599D01*
X135468276Y-89431938D01*
X135644438Y-89255776D01*
X135709532Y-89170943D01*
X160609500Y-89170943D01*
X160609500Y-89329057D01*
X160650423Y-89481784D01*
X160729480Y-89618716D01*
X160841284Y-89730520D01*
X160978216Y-89809577D01*
X161130943Y-89850500D01*
X161130945Y-89850500D01*
X161289055Y-89850500D01*
X161289057Y-89850500D01*
X161441784Y-89809577D01*
X161578716Y-89730520D01*
X161690520Y-89618716D01*
X161769577Y-89481784D01*
X161810500Y-89329057D01*
X161810500Y-89170943D01*
X161769577Y-89018216D01*
X161690520Y-88881284D01*
X161578716Y-88769480D01*
X161441784Y-88690423D01*
X161289057Y-88649500D01*
X161130943Y-88649500D01*
X160978216Y-88690423D01*
X160841284Y-88769480D01*
X160729480Y-88881284D01*
X160650423Y-89018216D01*
X160609500Y-89170943D01*
X135709532Y-89170943D01*
X135796099Y-89058127D01*
X135920664Y-88842373D01*
X136016002Y-88612207D01*
X136067251Y-88420943D01*
X144359500Y-88420943D01*
X144359500Y-88579057D01*
X144400423Y-88731784D01*
X144479480Y-88868716D01*
X144591284Y-88980520D01*
X144728216Y-89059577D01*
X144880943Y-89100500D01*
X144880945Y-89100500D01*
X145039055Y-89100500D01*
X145039057Y-89100500D01*
X145191784Y-89059577D01*
X145328716Y-88980520D01*
X145440520Y-88868716D01*
X145519577Y-88731784D01*
X145560500Y-88579057D01*
X145560500Y-88420943D01*
X145519577Y-88268216D01*
X145440520Y-88131284D01*
X145328716Y-88019480D01*
X145191784Y-87940423D01*
X145039057Y-87899500D01*
X144880943Y-87899500D01*
X144728216Y-87940423D01*
X144591284Y-88019480D01*
X144479480Y-88131284D01*
X144400423Y-88268216D01*
X144359500Y-88420943D01*
X136067251Y-88420943D01*
X136080482Y-88371565D01*
X136113000Y-88124565D01*
X136113000Y-87875435D01*
X136113000Y-87875433D01*
X175809500Y-87875433D01*
X175809500Y-88124566D01*
X175842017Y-88371557D01*
X175842017Y-88371562D01*
X175842018Y-88371565D01*
X175897615Y-88579057D01*
X175906496Y-88612199D01*
X175906500Y-88612212D01*
X176001832Y-88842365D01*
X176001834Y-88842369D01*
X176001836Y-88842373D01*
X176126401Y-89058127D01*
X176126403Y-89058130D01*
X176278056Y-89255769D01*
X176278058Y-89255771D01*
X176278062Y-89255776D01*
X176454224Y-89431938D01*
X176454228Y-89431941D01*
X176454230Y-89431943D01*
X176651869Y-89583596D01*
X176651873Y-89583599D01*
X176867627Y-89708164D01*
X177097793Y-89803502D01*
X177338435Y-89867982D01*
X177585435Y-89900500D01*
X177585436Y-89900500D01*
X177834564Y-89900500D01*
X177834565Y-89900500D01*
X178081565Y-89867982D01*
X178322207Y-89803502D01*
X178552373Y-89708164D01*
X178768127Y-89583599D01*
X178965776Y-89431938D01*
X179141938Y-89255776D01*
X179293599Y-89058127D01*
X179418164Y-88842373D01*
X179513502Y-88612207D01*
X179577982Y-88371565D01*
X179610500Y-88124565D01*
X179610500Y-87875435D01*
X179577982Y-87628435D01*
X179513502Y-87387793D01*
X179418164Y-87157627D01*
X179293599Y-86941873D01*
X179141938Y-86744224D01*
X178965776Y-86568062D01*
X178965771Y-86568058D01*
X178965769Y-86568056D01*
X178768130Y-86416403D01*
X178768127Y-86416401D01*
X178552373Y-86291836D01*
X178552369Y-86291834D01*
X178552365Y-86291832D01*
X178322212Y-86196500D01*
X178322211Y-86196499D01*
X178322207Y-86196498D01*
X178081565Y-86132018D01*
X178081562Y-86132017D01*
X178081560Y-86132017D01*
X177834566Y-86099500D01*
X177834565Y-86099500D01*
X177585435Y-86099500D01*
X177585433Y-86099500D01*
X177338442Y-86132017D01*
X177338437Y-86132017D01*
X177097800Y-86196496D01*
X177097787Y-86196500D01*
X176867634Y-86291832D01*
X176651869Y-86416403D01*
X176454230Y-86568056D01*
X176278056Y-86744230D01*
X176126403Y-86941869D01*
X176001832Y-87157634D01*
X175906500Y-87387787D01*
X175906496Y-87387800D01*
X175842017Y-87628437D01*
X175842017Y-87628442D01*
X175809500Y-87875433D01*
X136113000Y-87875433D01*
X136080482Y-87628435D01*
X136016002Y-87387793D01*
X135920664Y-87157627D01*
X135796099Y-86941873D01*
X135644438Y-86744224D01*
X135468276Y-86568062D01*
X135468271Y-86568058D01*
X135468269Y-86568056D01*
X135270630Y-86416403D01*
X135270627Y-86416401D01*
X135054873Y-86291836D01*
X135054869Y-86291834D01*
X135054865Y-86291832D01*
X134824712Y-86196500D01*
X134824711Y-86196499D01*
X134824707Y-86196498D01*
X134584065Y-86132018D01*
X134584062Y-86132017D01*
X134584060Y-86132017D01*
X134337066Y-86099500D01*
X134337065Y-86099500D01*
X134087935Y-86099500D01*
X134087933Y-86099500D01*
X133840942Y-86132017D01*
X133840937Y-86132017D01*
X133600300Y-86196496D01*
X133600287Y-86196500D01*
X133370134Y-86291832D01*
X133154369Y-86416403D01*
X132956730Y-86568056D01*
X132780556Y-86744230D01*
X132628903Y-86941869D01*
X132504332Y-87157634D01*
X132409000Y-87387787D01*
X132408996Y-87387800D01*
X132344517Y-87628437D01*
X132344517Y-87628442D01*
X132312000Y-87875433D01*
X88000500Y-87875433D01*
X88000500Y-83920943D01*
X143859500Y-83920943D01*
X143859500Y-84079057D01*
X143900423Y-84231784D01*
X143979480Y-84368716D01*
X144091284Y-84480520D01*
X144228216Y-84559577D01*
X144380943Y-84600500D01*
X144380945Y-84600500D01*
X144539055Y-84600500D01*
X144539057Y-84600500D01*
X144691784Y-84559577D01*
X144828716Y-84480520D01*
X144888293Y-84420943D01*
X146359500Y-84420943D01*
X146359500Y-84579057D01*
X146400423Y-84731784D01*
X146479480Y-84868716D01*
X146591284Y-84980520D01*
X146728216Y-85059577D01*
X146880943Y-85100500D01*
X146880945Y-85100500D01*
X147039055Y-85100500D01*
X147039057Y-85100500D01*
X147191784Y-85059577D01*
X147328716Y-84980520D01*
X147440520Y-84868716D01*
X147519577Y-84731784D01*
X147560500Y-84579057D01*
X147560500Y-84420943D01*
X147519577Y-84268216D01*
X147463417Y-84170943D01*
X159359500Y-84170943D01*
X159359500Y-84329057D01*
X159400423Y-84481784D01*
X159479480Y-84618716D01*
X159591284Y-84730520D01*
X159728216Y-84809577D01*
X159880943Y-84850500D01*
X159880945Y-84850500D01*
X160039055Y-84850500D01*
X160039057Y-84850500D01*
X160191784Y-84809577D01*
X160328716Y-84730520D01*
X160440520Y-84618716D01*
X160519577Y-84481784D01*
X160560500Y-84329057D01*
X160560500Y-84170943D01*
X160519577Y-84018216D01*
X160440520Y-83881284D01*
X160328716Y-83769480D01*
X160191784Y-83690423D01*
X160039057Y-83649500D01*
X159880943Y-83649500D01*
X159728216Y-83690423D01*
X159591284Y-83769480D01*
X159479480Y-83881284D01*
X159400423Y-84018216D01*
X159359500Y-84170943D01*
X147463417Y-84170943D01*
X147440520Y-84131284D01*
X147328716Y-84019480D01*
X147191784Y-83940423D01*
X147039057Y-83899500D01*
X146880943Y-83899500D01*
X146728216Y-83940423D01*
X146591284Y-84019480D01*
X146479480Y-84131284D01*
X146400423Y-84268216D01*
X146359500Y-84420943D01*
X144888293Y-84420943D01*
X144940520Y-84368716D01*
X145019577Y-84231784D01*
X145060500Y-84079057D01*
X145060500Y-83920943D01*
X145019577Y-83768216D01*
X144940520Y-83631284D01*
X144828716Y-83519480D01*
X144691784Y-83440423D01*
X144539057Y-83399500D01*
X144380943Y-83399500D01*
X144228216Y-83440423D01*
X144091284Y-83519480D01*
X143979480Y-83631284D01*
X143900423Y-83768216D01*
X143859500Y-83920943D01*
X88000500Y-83920943D01*
X88000500Y-80311306D01*
X124299500Y-80311306D01*
X124299500Y-80488693D01*
X124334106Y-80662665D01*
X124334106Y-80662667D01*
X124401985Y-80826544D01*
X124401985Y-80826545D01*
X124500535Y-80974034D01*
X124625965Y-81099464D01*
X124653234Y-81117685D01*
X124691113Y-81165735D01*
X124693515Y-81226873D01*
X124659522Y-81277747D01*
X124653234Y-81282315D01*
X124625965Y-81300535D01*
X124500535Y-81425965D01*
X124401985Y-81573454D01*
X124401985Y-81573455D01*
X124334106Y-81737332D01*
X124334106Y-81737334D01*
X124299500Y-81911306D01*
X124299500Y-82088693D01*
X124334106Y-82262665D01*
X124334106Y-82262667D01*
X124401985Y-82426544D01*
X124401985Y-82426545D01*
X124474999Y-82535817D01*
X124500536Y-82574035D01*
X124625965Y-82699464D01*
X124773453Y-82798013D01*
X124937334Y-82865894D01*
X125111309Y-82900500D01*
X125111310Y-82900500D01*
X125288690Y-82900500D01*
X125288691Y-82900500D01*
X125462666Y-82865894D01*
X125626547Y-82798013D01*
X125774035Y-82699464D01*
X125854996Y-82618503D01*
X125909512Y-82590725D01*
X125969945Y-82600296D01*
X125995004Y-82618503D01*
X126075962Y-82699462D01*
X126075965Y-82699464D01*
X126223453Y-82798013D01*
X126387334Y-82865894D01*
X126561309Y-82900500D01*
X126561310Y-82900500D01*
X126738690Y-82900500D01*
X126738691Y-82900500D01*
X126912666Y-82865894D01*
X127076547Y-82798013D01*
X127224035Y-82699464D01*
X127304996Y-82618503D01*
X127359512Y-82590725D01*
X127419945Y-82600296D01*
X127445004Y-82618503D01*
X127525962Y-82699462D01*
X127525965Y-82699464D01*
X127673453Y-82798013D01*
X127837334Y-82865894D01*
X128011309Y-82900500D01*
X128011310Y-82900500D01*
X128188690Y-82900500D01*
X128188691Y-82900500D01*
X128362666Y-82865894D01*
X128526547Y-82798013D01*
X128674035Y-82699464D01*
X128799464Y-82574035D01*
X128898013Y-82426547D01*
X128965894Y-82262666D01*
X129000500Y-82088691D01*
X129000500Y-81911309D01*
X128965894Y-81737334D01*
X128898014Y-81573455D01*
X128898014Y-81573454D01*
X128799464Y-81425965D01*
X128674035Y-81300536D01*
X128673980Y-81300499D01*
X128646764Y-81282314D01*
X128608886Y-81234266D01*
X128606484Y-81173128D01*
X128640476Y-81122254D01*
X128646754Y-81117692D01*
X128674035Y-81099464D01*
X128799464Y-80974035D01*
X128898013Y-80826547D01*
X128965894Y-80662666D01*
X129000500Y-80488691D01*
X129000500Y-80311309D01*
X129000499Y-80311306D01*
X130999500Y-80311306D01*
X130999500Y-80488693D01*
X131034106Y-80662665D01*
X131034106Y-80662667D01*
X131101985Y-80826544D01*
X131101985Y-80826545D01*
X131200535Y-80974034D01*
X131325965Y-81099464D01*
X131353234Y-81117685D01*
X131391113Y-81165735D01*
X131393515Y-81226873D01*
X131359522Y-81277747D01*
X131353234Y-81282315D01*
X131325965Y-81300535D01*
X131200535Y-81425965D01*
X131101985Y-81573454D01*
X131101985Y-81573455D01*
X131034106Y-81737332D01*
X131034106Y-81737334D01*
X130999500Y-81911306D01*
X130999500Y-82088693D01*
X131034106Y-82262665D01*
X131034106Y-82262667D01*
X131101985Y-82426544D01*
X131101985Y-82426545D01*
X131174999Y-82535817D01*
X131200536Y-82574035D01*
X131325965Y-82699464D01*
X131473453Y-82798013D01*
X131637334Y-82865894D01*
X131811309Y-82900500D01*
X131811310Y-82900500D01*
X131988690Y-82900500D01*
X131988691Y-82900500D01*
X132162666Y-82865894D01*
X132326547Y-82798013D01*
X132474035Y-82699464D01*
X132554996Y-82618503D01*
X132609512Y-82590725D01*
X132669945Y-82600296D01*
X132695004Y-82618503D01*
X132775962Y-82699462D01*
X132775965Y-82699464D01*
X132923453Y-82798013D01*
X133087334Y-82865894D01*
X133261309Y-82900500D01*
X133261310Y-82900500D01*
X133438690Y-82900500D01*
X133438691Y-82900500D01*
X133612666Y-82865894D01*
X133776547Y-82798013D01*
X133924035Y-82699464D01*
X134049464Y-82574035D01*
X134148013Y-82426547D01*
X134215894Y-82262666D01*
X134250500Y-82088691D01*
X134250500Y-81911309D01*
X134215894Y-81737334D01*
X134148014Y-81573455D01*
X134148014Y-81573454D01*
X134049464Y-81425965D01*
X133924035Y-81300536D01*
X133923980Y-81300499D01*
X133896764Y-81282314D01*
X133858886Y-81234266D01*
X133856484Y-81173128D01*
X133885347Y-81126587D01*
X133890725Y-81121720D01*
X133924035Y-81099464D01*
X134006753Y-81016745D01*
X134008580Y-81015093D01*
X134034358Y-81003541D01*
X134059512Y-80990725D01*
X134062060Y-80991128D01*
X134064416Y-80990073D01*
X134092058Y-80995879D01*
X134119945Y-81000296D01*
X134122735Y-81002323D01*
X134124295Y-81002651D01*
X134126421Y-81005001D01*
X134145004Y-81018503D01*
X134225962Y-81099462D01*
X134225965Y-81099464D01*
X134373453Y-81198013D01*
X134537334Y-81265894D01*
X134711309Y-81300500D01*
X134711310Y-81300500D01*
X134888690Y-81300500D01*
X134888691Y-81300500D01*
X135062666Y-81265894D01*
X135226547Y-81198013D01*
X135374035Y-81099464D01*
X135499464Y-80974035D01*
X135598013Y-80826547D01*
X135665894Y-80662666D01*
X135700500Y-80488691D01*
X135700500Y-80311309D01*
X135665894Y-80137334D01*
X135598013Y-79973454D01*
X135598011Y-79973449D01*
X135533698Y-79877198D01*
X135533696Y-79877196D01*
X135499464Y-79825965D01*
X135498932Y-79825433D01*
X186310478Y-79825433D01*
X186310478Y-80074566D01*
X186342995Y-80321557D01*
X186342995Y-80321562D01*
X186407474Y-80562199D01*
X186407478Y-80562212D01*
X186502810Y-80792365D01*
X186502812Y-80792369D01*
X186502814Y-80792373D01*
X186625574Y-81005001D01*
X186627381Y-81008130D01*
X186779034Y-81205769D01*
X186779036Y-81205771D01*
X186779040Y-81205776D01*
X186955202Y-81381938D01*
X186955206Y-81381941D01*
X186955208Y-81381943D01*
X187152847Y-81533596D01*
X187152851Y-81533599D01*
X187368605Y-81658164D01*
X187598771Y-81753502D01*
X187839413Y-81817982D01*
X188086413Y-81850500D01*
X188086414Y-81850500D01*
X188335542Y-81850500D01*
X188335543Y-81850500D01*
X188582543Y-81817982D01*
X188823185Y-81753502D01*
X189053351Y-81658164D01*
X189269105Y-81533599D01*
X189466754Y-81381938D01*
X189642916Y-81205776D01*
X189794577Y-81008127D01*
X189919142Y-80792373D01*
X190014480Y-80562207D01*
X190015351Y-80558957D01*
X190048675Y-80507642D01*
X190105796Y-80485715D01*
X190164897Y-80501550D01*
X190203402Y-80549100D01*
X190206605Y-80558957D01*
X190207472Y-80562196D01*
X190207478Y-80562212D01*
X190302810Y-80792365D01*
X190302812Y-80792369D01*
X190302814Y-80792373D01*
X190425574Y-81005001D01*
X190427381Y-81008130D01*
X190579034Y-81205769D01*
X190579036Y-81205771D01*
X190579040Y-81205776D01*
X190755202Y-81381938D01*
X190755206Y-81381941D01*
X190755208Y-81381943D01*
X190952847Y-81533596D01*
X190952851Y-81533599D01*
X191168605Y-81658164D01*
X191398771Y-81753502D01*
X191639413Y-81817982D01*
X191886413Y-81850500D01*
X191886414Y-81850500D01*
X192135542Y-81850500D01*
X192135543Y-81850500D01*
X192382543Y-81817982D01*
X192623185Y-81753502D01*
X192853351Y-81658164D01*
X193069105Y-81533599D01*
X193266754Y-81381938D01*
X193442916Y-81205776D01*
X193594577Y-81008127D01*
X193719142Y-80792373D01*
X193814480Y-80562207D01*
X193878960Y-80321565D01*
X193911478Y-80074565D01*
X193911478Y-79825435D01*
X193878960Y-79578435D01*
X193814480Y-79337793D01*
X193719142Y-79107627D01*
X193594577Y-78891873D01*
X193442916Y-78694224D01*
X193266754Y-78518062D01*
X193266749Y-78518058D01*
X193266747Y-78518056D01*
X193069108Y-78366403D01*
X193069105Y-78366401D01*
X192853351Y-78241836D01*
X192853347Y-78241834D01*
X192853343Y-78241832D01*
X192623190Y-78146500D01*
X192623189Y-78146499D01*
X192623185Y-78146498D01*
X192382543Y-78082018D01*
X192382540Y-78082017D01*
X192382538Y-78082017D01*
X192135544Y-78049500D01*
X192135543Y-78049500D01*
X191886413Y-78049500D01*
X191886411Y-78049500D01*
X191639420Y-78082017D01*
X191639415Y-78082017D01*
X191398778Y-78146496D01*
X191398765Y-78146500D01*
X191168612Y-78241832D01*
X190952847Y-78366403D01*
X190755208Y-78518056D01*
X190579034Y-78694230D01*
X190427381Y-78891869D01*
X190302810Y-79107634D01*
X190207478Y-79337787D01*
X190207472Y-79337804D01*
X190206604Y-79341046D01*
X190173278Y-79392359D01*
X190116156Y-79414284D01*
X190057056Y-79398447D01*
X190018552Y-79350896D01*
X190015352Y-79341046D01*
X190014483Y-79337804D01*
X190014482Y-79337800D01*
X190014480Y-79337793D01*
X189919142Y-79107627D01*
X189794577Y-78891873D01*
X189642916Y-78694224D01*
X189466754Y-78518062D01*
X189466749Y-78518058D01*
X189466747Y-78518056D01*
X189269108Y-78366403D01*
X189269105Y-78366401D01*
X189053351Y-78241836D01*
X189053347Y-78241834D01*
X189053343Y-78241832D01*
X188823190Y-78146500D01*
X188823189Y-78146499D01*
X188823185Y-78146498D01*
X188582543Y-78082018D01*
X188582540Y-78082017D01*
X188582538Y-78082017D01*
X188335544Y-78049500D01*
X188335543Y-78049500D01*
X188086413Y-78049500D01*
X188086411Y-78049500D01*
X187839420Y-78082017D01*
X187839415Y-78082017D01*
X187598778Y-78146496D01*
X187598765Y-78146500D01*
X187368612Y-78241832D01*
X187152847Y-78366403D01*
X186955208Y-78518056D01*
X186779034Y-78694230D01*
X186627381Y-78891869D01*
X186502810Y-79107634D01*
X186407478Y-79337787D01*
X186407474Y-79337800D01*
X186342995Y-79578437D01*
X186342995Y-79578442D01*
X186310478Y-79825433D01*
X135498932Y-79825433D01*
X135374034Y-79700535D01*
X135226544Y-79601985D01*
X135062666Y-79534106D01*
X134888693Y-79499500D01*
X134888691Y-79499500D01*
X134711309Y-79499500D01*
X134711306Y-79499500D01*
X134537334Y-79534106D01*
X134537332Y-79534106D01*
X134373455Y-79601985D01*
X134373454Y-79601985D01*
X134225965Y-79700535D01*
X134145004Y-79781497D01*
X134090487Y-79809274D01*
X134030055Y-79799703D01*
X134004996Y-79781497D01*
X133924034Y-79700535D01*
X133776544Y-79601985D01*
X133612666Y-79534106D01*
X133438693Y-79499500D01*
X133438691Y-79499500D01*
X133261309Y-79499500D01*
X133261306Y-79499500D01*
X133087334Y-79534106D01*
X133087332Y-79534106D01*
X132923455Y-79601985D01*
X132923454Y-79601985D01*
X132775965Y-79700535D01*
X132695004Y-79781497D01*
X132640487Y-79809274D01*
X132580055Y-79799703D01*
X132554996Y-79781497D01*
X132474034Y-79700535D01*
X132326544Y-79601985D01*
X132162666Y-79534106D01*
X131988693Y-79499500D01*
X131988691Y-79499500D01*
X131811309Y-79499500D01*
X131811306Y-79499500D01*
X131637334Y-79534106D01*
X131637332Y-79534106D01*
X131473455Y-79601985D01*
X131473454Y-79601985D01*
X131325965Y-79700535D01*
X131200535Y-79825965D01*
X131101985Y-79973454D01*
X131101985Y-79973455D01*
X131034106Y-80137332D01*
X131034106Y-80137334D01*
X130999500Y-80311306D01*
X129000499Y-80311306D01*
X128965894Y-80137334D01*
X128898014Y-79973455D01*
X128898014Y-79973454D01*
X128799464Y-79825965D01*
X128674034Y-79700535D01*
X128526544Y-79601985D01*
X128362666Y-79534106D01*
X128188693Y-79499500D01*
X128188691Y-79499500D01*
X128011309Y-79499500D01*
X128011306Y-79499500D01*
X127837334Y-79534106D01*
X127837332Y-79534106D01*
X127673455Y-79601985D01*
X127673454Y-79601985D01*
X127525965Y-79700535D01*
X127445004Y-79781497D01*
X127390487Y-79809274D01*
X127330055Y-79799703D01*
X127304996Y-79781497D01*
X127224034Y-79700535D01*
X127076544Y-79601985D01*
X126912666Y-79534106D01*
X126738693Y-79499500D01*
X126738691Y-79499500D01*
X126561309Y-79499500D01*
X126561306Y-79499500D01*
X126387334Y-79534106D01*
X126387332Y-79534106D01*
X126223455Y-79601985D01*
X126223454Y-79601985D01*
X126075965Y-79700535D01*
X125995004Y-79781497D01*
X125940487Y-79809274D01*
X125880055Y-79799703D01*
X125854996Y-79781497D01*
X125774034Y-79700535D01*
X125626544Y-79601985D01*
X125462666Y-79534106D01*
X125288693Y-79499500D01*
X125288691Y-79499500D01*
X125111309Y-79499500D01*
X125111306Y-79499500D01*
X124937334Y-79534106D01*
X124937332Y-79534106D01*
X124773455Y-79601985D01*
X124773454Y-79601985D01*
X124625965Y-79700535D01*
X124500535Y-79825965D01*
X124401985Y-79973454D01*
X124401985Y-79973455D01*
X124334106Y-80137332D01*
X124334106Y-80137334D01*
X124299500Y-80311306D01*
X88000500Y-80311306D01*
X88000500Y-76471333D01*
X88019407Y-76413142D01*
X88068907Y-76377178D01*
X88076129Y-76375130D01*
X114691874Y-69911306D01*
X124299500Y-69911306D01*
X124299500Y-70088693D01*
X124334106Y-70262665D01*
X124334106Y-70262667D01*
X124401985Y-70426544D01*
X124401985Y-70426545D01*
X124500535Y-70574034D01*
X124625965Y-70699464D01*
X124653234Y-70717685D01*
X124691113Y-70765735D01*
X124693515Y-70826873D01*
X124659522Y-70877747D01*
X124653234Y-70882315D01*
X124625965Y-70900535D01*
X124500535Y-71025965D01*
X124401985Y-71173454D01*
X124401985Y-71173455D01*
X124334106Y-71337332D01*
X124334106Y-71337334D01*
X124299500Y-71511306D01*
X124299500Y-71688693D01*
X124334106Y-71862665D01*
X124334106Y-71862667D01*
X124401985Y-72026544D01*
X124401985Y-72026545D01*
X124474999Y-72135817D01*
X124500536Y-72174035D01*
X124625965Y-72299464D01*
X124773453Y-72398013D01*
X124773454Y-72398013D01*
X124773455Y-72398014D01*
X124779457Y-72400500D01*
X124937334Y-72465894D01*
X125111309Y-72500500D01*
X125111310Y-72500500D01*
X125288690Y-72500500D01*
X125288691Y-72500500D01*
X125462666Y-72465894D01*
X125626547Y-72398013D01*
X125774035Y-72299464D01*
X125854996Y-72218503D01*
X125909512Y-72190725D01*
X125969945Y-72200296D01*
X125995004Y-72218503D01*
X126075962Y-72299462D01*
X126075965Y-72299464D01*
X126223453Y-72398013D01*
X126223454Y-72398013D01*
X126223455Y-72398014D01*
X126229457Y-72400500D01*
X126387334Y-72465894D01*
X126561309Y-72500500D01*
X126561310Y-72500500D01*
X126738690Y-72500500D01*
X126738691Y-72500500D01*
X126912666Y-72465894D01*
X127076547Y-72398013D01*
X127224035Y-72299464D01*
X127304996Y-72218503D01*
X127359512Y-72190725D01*
X127419945Y-72200296D01*
X127445004Y-72218503D01*
X127525962Y-72299462D01*
X127525965Y-72299464D01*
X127673453Y-72398013D01*
X127673454Y-72398013D01*
X127673455Y-72398014D01*
X127679457Y-72400500D01*
X127837334Y-72465894D01*
X128011309Y-72500500D01*
X128011310Y-72500500D01*
X128188690Y-72500500D01*
X128188691Y-72500500D01*
X128362666Y-72465894D01*
X128526547Y-72398013D01*
X128674035Y-72299464D01*
X128799464Y-72174035D01*
X128898013Y-72026547D01*
X128965894Y-71862666D01*
X129000500Y-71688691D01*
X129000500Y-71511309D01*
X128965894Y-71337334D01*
X128898014Y-71173455D01*
X128898014Y-71173454D01*
X128799464Y-71025965D01*
X128674035Y-70900536D01*
X128674034Y-70900535D01*
X128646764Y-70882314D01*
X128608886Y-70834266D01*
X128606484Y-70773128D01*
X128640476Y-70722254D01*
X128646754Y-70717692D01*
X128674035Y-70699464D01*
X128799464Y-70574035D01*
X128898013Y-70426547D01*
X128965894Y-70262666D01*
X129000500Y-70088691D01*
X129000500Y-69911309D01*
X129000499Y-69911306D01*
X130999500Y-69911306D01*
X130999500Y-70088693D01*
X131034106Y-70262665D01*
X131034106Y-70262667D01*
X131101985Y-70426544D01*
X131101985Y-70426545D01*
X131200535Y-70574034D01*
X131325965Y-70699464D01*
X131353234Y-70717685D01*
X131391113Y-70765735D01*
X131393515Y-70826873D01*
X131359522Y-70877747D01*
X131353234Y-70882315D01*
X131325965Y-70900535D01*
X131200535Y-71025965D01*
X131101985Y-71173454D01*
X131101985Y-71173455D01*
X131034106Y-71337332D01*
X131034106Y-71337334D01*
X130999500Y-71511306D01*
X130999500Y-71688693D01*
X131034106Y-71862665D01*
X131034106Y-71862667D01*
X131101985Y-72026544D01*
X131101985Y-72026545D01*
X131174999Y-72135817D01*
X131200536Y-72174035D01*
X131325965Y-72299464D01*
X131473453Y-72398013D01*
X131473454Y-72398013D01*
X131473455Y-72398014D01*
X131479457Y-72400500D01*
X131637334Y-72465894D01*
X131811309Y-72500500D01*
X131811310Y-72500500D01*
X131988690Y-72500500D01*
X131988691Y-72500500D01*
X132162666Y-72465894D01*
X132326547Y-72398013D01*
X132474035Y-72299464D01*
X132554996Y-72218503D01*
X132609512Y-72190725D01*
X132669945Y-72200296D01*
X132695004Y-72218503D01*
X132775962Y-72299462D01*
X132775965Y-72299464D01*
X132923453Y-72398013D01*
X132923454Y-72398013D01*
X132923455Y-72398014D01*
X132929457Y-72400500D01*
X133087334Y-72465894D01*
X133261309Y-72500500D01*
X133261310Y-72500500D01*
X133438690Y-72500500D01*
X133438691Y-72500500D01*
X133612666Y-72465894D01*
X133776547Y-72398013D01*
X133924035Y-72299464D01*
X134004996Y-72218503D01*
X134059512Y-72190725D01*
X134119945Y-72200296D01*
X134145004Y-72218503D01*
X134225962Y-72299462D01*
X134225965Y-72299464D01*
X134373453Y-72398013D01*
X134373454Y-72398013D01*
X134373455Y-72398014D01*
X134379457Y-72400500D01*
X134537334Y-72465894D01*
X134711309Y-72500500D01*
X134711310Y-72500500D01*
X134888690Y-72500500D01*
X134888691Y-72500500D01*
X135062666Y-72465894D01*
X135226547Y-72398013D01*
X135374035Y-72299464D01*
X135499464Y-72174035D01*
X135598013Y-72026547D01*
X135665894Y-71862666D01*
X135700500Y-71688691D01*
X135700500Y-71511309D01*
X135680608Y-71411306D01*
X159099500Y-71411306D01*
X159099500Y-71588693D01*
X159134106Y-71762665D01*
X159134106Y-71762667D01*
X159201985Y-71926544D01*
X159201985Y-71926545D01*
X159268803Y-72026544D01*
X159300536Y-72074035D01*
X159425965Y-72199464D01*
X159573453Y-72298013D01*
X159737334Y-72365894D01*
X159911309Y-72400500D01*
X159911310Y-72400500D01*
X160088690Y-72400500D01*
X160088691Y-72400500D01*
X160262666Y-72365894D01*
X160426547Y-72298013D01*
X160574035Y-72199464D01*
X160699464Y-72074035D01*
X160798013Y-71926547D01*
X160865894Y-71762666D01*
X160900500Y-71588691D01*
X160900500Y-71411309D01*
X160900499Y-71411306D01*
X179099500Y-71411306D01*
X179099500Y-71588693D01*
X179134106Y-71762665D01*
X179134106Y-71762667D01*
X179201985Y-71926544D01*
X179201985Y-71926545D01*
X179268803Y-72026544D01*
X179300536Y-72074035D01*
X179425965Y-72199464D01*
X179573453Y-72298013D01*
X179737334Y-72365894D01*
X179911309Y-72400500D01*
X179911310Y-72400500D01*
X180088690Y-72400500D01*
X180088691Y-72400500D01*
X180262666Y-72365894D01*
X180426547Y-72298013D01*
X180574035Y-72199464D01*
X180699464Y-72074035D01*
X180798013Y-71926547D01*
X180865894Y-71762666D01*
X180900500Y-71588691D01*
X180900500Y-71411309D01*
X180865894Y-71237334D01*
X180798014Y-71073455D01*
X180798014Y-71073454D01*
X180699464Y-70925965D01*
X180574034Y-70800535D01*
X180426544Y-70701985D01*
X180262666Y-70634106D01*
X180088693Y-70599500D01*
X180088691Y-70599500D01*
X179911309Y-70599500D01*
X179911306Y-70599500D01*
X179737334Y-70634106D01*
X179737332Y-70634106D01*
X179573455Y-70701985D01*
X179573454Y-70701985D01*
X179425965Y-70800535D01*
X179300535Y-70925965D01*
X179201985Y-71073454D01*
X179201985Y-71073455D01*
X179134106Y-71237332D01*
X179134106Y-71237334D01*
X179099500Y-71411306D01*
X160900499Y-71411306D01*
X160865894Y-71237334D01*
X160798014Y-71073455D01*
X160798014Y-71073454D01*
X160699464Y-70925965D01*
X160574034Y-70800535D01*
X160426544Y-70701985D01*
X160262666Y-70634106D01*
X160088693Y-70599500D01*
X160088691Y-70599500D01*
X159911309Y-70599500D01*
X159911306Y-70599500D01*
X159737334Y-70634106D01*
X159737332Y-70634106D01*
X159573455Y-70701985D01*
X159573454Y-70701985D01*
X159425965Y-70800535D01*
X159300535Y-70925965D01*
X159201985Y-71073454D01*
X159201985Y-71073455D01*
X159134106Y-71237332D01*
X159134106Y-71237334D01*
X159099500Y-71411306D01*
X135680608Y-71411306D01*
X135665894Y-71337334D01*
X135598014Y-71173455D01*
X135598014Y-71173454D01*
X135499464Y-71025965D01*
X135374035Y-70900536D01*
X135374034Y-70900535D01*
X135346764Y-70882314D01*
X135308886Y-70834266D01*
X135306484Y-70773128D01*
X135340476Y-70722254D01*
X135346754Y-70717692D01*
X135374035Y-70699464D01*
X135499464Y-70574035D01*
X135598013Y-70426547D01*
X135665894Y-70262666D01*
X135700500Y-70088691D01*
X135700500Y-69911309D01*
X135665894Y-69737334D01*
X135598014Y-69573455D01*
X135598014Y-69573454D01*
X135499464Y-69425965D01*
X135374034Y-69300535D01*
X135226544Y-69201985D01*
X135062666Y-69134106D01*
X134888693Y-69099500D01*
X134888691Y-69099500D01*
X134711309Y-69099500D01*
X134711306Y-69099500D01*
X134537334Y-69134106D01*
X134537332Y-69134106D01*
X134373455Y-69201985D01*
X134373454Y-69201985D01*
X134225965Y-69300535D01*
X134145004Y-69381497D01*
X134090487Y-69409274D01*
X134030055Y-69399703D01*
X134004996Y-69381497D01*
X133924034Y-69300535D01*
X133776544Y-69201985D01*
X133612666Y-69134106D01*
X133438693Y-69099500D01*
X133438691Y-69099500D01*
X133261309Y-69099500D01*
X133261306Y-69099500D01*
X133087334Y-69134106D01*
X133087332Y-69134106D01*
X132923455Y-69201985D01*
X132923454Y-69201985D01*
X132775965Y-69300535D01*
X132695004Y-69381497D01*
X132640487Y-69409274D01*
X132580055Y-69399703D01*
X132554996Y-69381497D01*
X132474034Y-69300535D01*
X132326544Y-69201985D01*
X132162666Y-69134106D01*
X131988693Y-69099500D01*
X131988691Y-69099500D01*
X131811309Y-69099500D01*
X131811306Y-69099500D01*
X131637334Y-69134106D01*
X131637332Y-69134106D01*
X131473455Y-69201985D01*
X131473454Y-69201985D01*
X131325965Y-69300535D01*
X131200535Y-69425965D01*
X131101985Y-69573454D01*
X131101985Y-69573455D01*
X131034106Y-69737332D01*
X131034106Y-69737334D01*
X130999500Y-69911306D01*
X129000499Y-69911306D01*
X128965894Y-69737334D01*
X128898014Y-69573455D01*
X128898014Y-69573454D01*
X128799464Y-69425965D01*
X128674034Y-69300535D01*
X128526544Y-69201985D01*
X128362666Y-69134106D01*
X128188693Y-69099500D01*
X128188691Y-69099500D01*
X128011309Y-69099500D01*
X128011306Y-69099500D01*
X127837334Y-69134106D01*
X127837332Y-69134106D01*
X127673455Y-69201985D01*
X127673454Y-69201985D01*
X127525965Y-69300535D01*
X127445004Y-69381497D01*
X127390487Y-69409274D01*
X127330055Y-69399703D01*
X127304996Y-69381497D01*
X127224034Y-69300535D01*
X127076544Y-69201985D01*
X126912666Y-69134106D01*
X126738693Y-69099500D01*
X126738691Y-69099500D01*
X126561309Y-69099500D01*
X126561306Y-69099500D01*
X126387334Y-69134106D01*
X126387332Y-69134106D01*
X126223455Y-69201985D01*
X126223454Y-69201985D01*
X126075965Y-69300535D01*
X125995004Y-69381497D01*
X125940487Y-69409274D01*
X125880055Y-69399703D01*
X125854996Y-69381497D01*
X125774034Y-69300535D01*
X125626544Y-69201985D01*
X125462666Y-69134106D01*
X125288693Y-69099500D01*
X125288691Y-69099500D01*
X125111309Y-69099500D01*
X125111306Y-69099500D01*
X124937334Y-69134106D01*
X124937332Y-69134106D01*
X124773455Y-69201985D01*
X124773454Y-69201985D01*
X124625965Y-69300535D01*
X124500535Y-69425965D01*
X124401985Y-69573454D01*
X124401985Y-69573455D01*
X124334106Y-69737332D01*
X124334106Y-69737334D01*
X124299500Y-69911306D01*
X114691874Y-69911306D01*
X122548390Y-68003295D01*
X122571754Y-68000500D01*
X179936490Y-68000500D01*
X179957233Y-68002698D01*
G37*
%TD.AperFunction*%
%TD*%
M02*
