%TF.GenerationSoftware,KiCad,Pcbnew,10.0.4*%
%TF.CreationDate,2026-10-05T12:06:53-05:00*%
%TF.ProjectId,Osiris_PDB_REV1.1_LowCopper_Prototype,4f736972-6973-45f5-9044-425f52455631,1.1-LC-PROTOTYPE*%
%TF.SameCoordinates,Original*%
%TF.FileFunction,Soldermask,Top*%
%TF.FilePolarity,Negative*%
%FSLAX46Y46*%
G04 Gerber Fmt 4.6, Leading zero omitted, Abs format (unit mm)*
G04 Created by KiCad (PCBNEW 10.0.4) date 2026-10-05 12:06:53*
%MOMM*%
%LPD*%
G01*
G04 APERTURE LIST*
G04 Aperture macros list*
%AMRoundRect*
0 Rectangle with rounded corners*
0 $1 Rounding radius*
0 $2 $3 $4 $5 $6 $7 $8 $9 X,Y pos of 4 corners*
0 Add a 4 corners polygon primitive as box body*
4,1,4,$2,$3,$4,$5,$6,$7,$8,$9,$2,$3,0*
0 Add four circle primitives for the rounded corners*
1,1,$1+$1,$2,$3*
1,1,$1+$1,$4,$5*
1,1,$1+$1,$6,$7*
1,1,$1+$1,$8,$9*
0 Add four rect primitives between the rounded corners*
20,1,$1+$1,$2,$3,$4,$5,0*
20,1,$1+$1,$4,$5,$6,$7,0*
20,1,$1+$1,$6,$7,$8,$9,0*
20,1,$1+$1,$8,$9,$2,$3,0*%
%AMFreePoly0*
4,1,9,2.385000,-0.527000,0.250000,-0.527000,0.250000,-0.527500,-0.250000,-0.527500,-0.250000,-0.527000,-0.805000,-0.527000,-0.805000,0.528000,2.385000,0.528000,2.385000,-0.527000,2.385000,-0.527000,$1*%
%AMFreePoly1*
4,1,5,0.705000,-3.693500,-3.705000,-3.693500,-3.705000,0.761500,0.705000,0.761500,0.705000,-3.693500,0.705000,-3.693500,$1*%
%AMFreePoly2*
4,1,17,2.675000,1.605000,1.875000,1.605000,1.875000,0.935000,2.675000,0.935000,2.675000,0.335000,1.875000,0.335000,1.875000,-0.335000,2.675000,-0.335000,2.675000,-0.935000,1.875000,-0.935000,1.875000,-1.605000,2.675000,-1.605000,2.675000,-2.205000,-1.875000,-2.205000,-1.875000,2.205000,2.675000,2.205000,2.675000,1.605000,2.675000,1.605000,$1*%
G04 Aperture macros list end*
%ADD10C,0.000000*%
%ADD11RoundRect,0.250000X0.262500X0.450000X-0.262500X0.450000X-0.262500X-0.450000X0.262500X-0.450000X0*%
%ADD12RoundRect,0.250000X-0.262500X-0.450000X0.262500X-0.450000X0.262500X0.450000X-0.262500X0.450000X0*%
%ADD13C,1.500000*%
%ADD14FreePoly0,270.000000*%
%ADD15R,1.055000X0.500000*%
%ADD16FreePoly1,270.000000*%
%ADD17R,0.800000X0.500000*%
%ADD18RoundRect,0.250000X0.362500X1.425000X-0.362500X1.425000X-0.362500X-1.425000X0.362500X-1.425000X0*%
%ADD19RoundRect,0.250000X-0.350000X0.850000X-0.350000X-0.850000X0.350000X-0.850000X0.350000X0.850000X0*%
%ADD20RoundRect,0.249997X-2.650003X2.950003X-2.650003X-2.950003X2.650003X-2.950003X2.650003X2.950003X0*%
%ADD21RoundRect,0.250000X-0.475000X0.250000X-0.475000X-0.250000X0.475000X-0.250000X0.475000X0.250000X0*%
%ADD22RoundRect,0.250000X-0.325000X-0.650000X0.325000X-0.650000X0.325000X0.650000X-0.325000X0.650000X0*%
%ADD23R,1.333500X0.279400*%
%ADD24RoundRect,0.250000X1.000000X0.650000X-1.000000X0.650000X-1.000000X-0.650000X1.000000X-0.650000X0*%
%ADD25FreePoly2,0.000000*%
%ADD26RoundRect,0.125000X-0.300000X-0.125000X0.300000X-0.125000X0.300000X0.125000X-0.300000X0.125000X0*%
%ADD27RoundRect,0.225000X0.225000X0.250000X-0.225000X0.250000X-0.225000X-0.250000X0.225000X-0.250000X0*%
%ADD28RoundRect,0.250000X0.450000X-0.262500X0.450000X0.262500X-0.450000X0.262500X-0.450000X-0.262500X0*%
%ADD29RoundRect,0.250000X-0.450000X0.262500X-0.450000X-0.262500X0.450000X-0.262500X0.450000X0.262500X0*%
%ADD30C,3.200000*%
%ADD31RoundRect,0.087500X0.087500X-0.425000X0.087500X0.425000X-0.087500X0.425000X-0.087500X-0.425000X0*%
%ADD32RoundRect,0.100000X-0.625000X-0.100000X0.625000X-0.100000X0.625000X0.100000X-0.625000X0.100000X0*%
%ADD33R,1.680000X1.880000*%
%ADD34R,1.193800X5.410200*%
%ADD35R,1.193800X0.711200*%
%ADD36RoundRect,0.225000X0.250000X-0.225000X0.250000X0.225000X-0.250000X0.225000X-0.250000X-0.225000X0*%
%ADD37RoundRect,0.250000X0.475000X-0.250000X0.475000X0.250000X-0.475000X0.250000X-0.475000X-0.250000X0*%
%ADD38RoundRect,0.250000X-1.000000X-0.650000X1.000000X-0.650000X1.000000X0.650000X-1.000000X0.650000X0*%
%ADD39RoundRect,0.250000X-1.000000X-0.900000X1.000000X-0.900000X1.000000X0.900000X-1.000000X0.900000X0*%
%ADD40RoundRect,0.250000X0.650000X-0.325000X0.650000X0.325000X-0.650000X0.325000X-0.650000X-0.325000X0*%
%ADD41R,3.200000X3.200000*%
%ADD42RoundRect,0.100000X-0.712500X-0.100000X0.712500X-0.100000X0.712500X0.100000X-0.712500X0.100000X0*%
%ADD43RoundRect,0.225000X-0.250000X0.225000X-0.250000X-0.225000X0.250000X-0.225000X0.250000X0.225000X0*%
%ADD44C,2.780000*%
%ADD45FreePoly0,90.000000*%
%ADD46FreePoly1,90.000000*%
%ADD47R,0.279400X1.397000*%
%ADD48RoundRect,0.250000X-0.250000X-0.475000X0.250000X-0.475000X0.250000X0.475000X-0.250000X0.475000X0*%
%ADD49R,2.300000X1.200000*%
%ADD50RoundRect,1.025000X-1.025000X1.025000X-1.025000X-1.025000X1.025000X-1.025000X1.025000X1.025000X0*%
%ADD51C,4.100000*%
%ADD52RoundRect,0.150000X0.150000X0.700000X-0.150000X0.700000X-0.150000X-0.700000X0.150000X-0.700000X0*%
%ADD53RoundRect,0.250000X0.250000X1.150000X-0.250000X1.150000X-0.250000X-1.150000X0.250000X-1.150000X0*%
%ADD54RoundRect,0.250000X1.425000X-0.362500X1.425000X0.362500X-1.425000X0.362500X-1.425000X-0.362500X0*%
%ADD55R,3.400000X6.150000*%
%ADD56R,2.500000X4.400000*%
G04 APERTURE END LIST*
D10*
%TO.C,Q2*%
G36*
X156988000Y-99020000D02*
G01*
X156483000Y-99020000D01*
X156483000Y-95830000D01*
X156988000Y-95830000D01*
X156988000Y-99020000D01*
G37*
G36*
X161782500Y-100340000D02*
G01*
X158127500Y-100340000D01*
X158127500Y-95930000D01*
X161782500Y-95930000D01*
X161782500Y-100340000D01*
G37*
%TO.C,Q1*%
G36*
X152292500Y-100360000D02*
G01*
X148637500Y-100360000D01*
X148637500Y-95950000D01*
X152292500Y-95950000D01*
X152292500Y-100360000D01*
G37*
G36*
X153937000Y-100460000D02*
G01*
X153432000Y-100460000D01*
X153432000Y-97270000D01*
X153937000Y-97270000D01*
X153937000Y-100460000D01*
G37*
%TD*%
D11*
%TO.C,R8*%
X159622500Y-93000000D03*
X157797500Y-93000000D03*
%TD*%
D12*
%TO.C,R16*%
X138297500Y-114750000D03*
X140122500Y-114750000D03*
%TD*%
D13*
%TO.C,TP3*%
X165710000Y-84000000D03*
%TD*%
D14*
%TO.C,Q2*%
X156460000Y-96635000D03*
D15*
X156460000Y-97500000D03*
X156460000Y-98770000D03*
X156460000Y-100040000D03*
D16*
X161821500Y-99635000D03*
D17*
X162183000Y-98770000D03*
X162183000Y-97500000D03*
X162183000Y-96230000D03*
%TD*%
D18*
%TO.C,R20*%
X137672500Y-105500000D03*
X131747500Y-105500000D03*
%TD*%
D19*
%TO.C,D3*%
X171637500Y-91050000D03*
D20*
X171637500Y-97350000D03*
D19*
X173917500Y-91050000D03*
X169357500Y-91050000D03*
%TD*%
D21*
%TO.C,C18*%
X171950000Y-82500000D03*
X171950000Y-84400000D03*
%TD*%
D11*
%TO.C,R14*%
X157122500Y-88500000D03*
X155297500Y-88500000D03*
%TD*%
D22*
%TO.C,C4*%
X165235000Y-105250000D03*
X168185000Y-105250000D03*
%TD*%
D23*
%TO.C,U2*%
X154676150Y-113500001D03*
X154676150Y-112999999D03*
X154676150Y-112500000D03*
X154676150Y-112000001D03*
X154676150Y-111499999D03*
X150243850Y-111499999D03*
X150243850Y-112000001D03*
X150243850Y-112500000D03*
X150243850Y-112999999D03*
X150243850Y-113500001D03*
%TD*%
D13*
%TO.C,TP5*%
X137210000Y-122500000D03*
%TD*%
D24*
%TO.C,D4*%
X145210000Y-108250000D03*
X141210000Y-108250000D03*
%TD*%
D25*
%TO.C,Q3*%
X143360000Y-98400000D03*
D26*
X139810000Y-96495000D03*
X139810000Y-97765000D03*
X139810000Y-99035000D03*
X139810000Y-100305000D03*
%TD*%
D12*
%TO.C,R21*%
X167297500Y-102250000D03*
X169122500Y-102250000D03*
%TD*%
%TO.C,R6*%
X143410156Y-93528707D03*
X145235156Y-93528707D03*
%TD*%
D27*
%TO.C,C5*%
X144485000Y-111000000D03*
X142935000Y-111000000D03*
%TD*%
D28*
%TO.C,R13*%
X149210000Y-85912500D03*
X149210000Y-84087500D03*
%TD*%
D13*
%TO.C,TP2*%
X161960000Y-84000000D03*
%TD*%
%TO.C,TP6*%
X140960000Y-122500000D03*
%TD*%
D29*
%TO.C,R7*%
X140710000Y-91587500D03*
X140710000Y-93412500D03*
%TD*%
D30*
%TO.C,H4*%
X132710000Y-128000000D03*
%TD*%
D13*
%TO.C,C15*%
X155210000Y-102750000D03*
X155210000Y-107750000D03*
%TD*%
D31*
%TO.C,U4*%
X142310000Y-115837500D03*
X142960000Y-115837500D03*
X143610000Y-115837500D03*
X143610000Y-114162500D03*
X142310000Y-114162500D03*
%TD*%
D29*
%TO.C,R9*%
X163460000Y-103337500D03*
X163460000Y-105162500D03*
%TD*%
D32*
%TO.C,U3*%
X161060000Y-111025000D03*
X161060000Y-111675000D03*
X161060000Y-112325000D03*
X161060000Y-112975000D03*
X165360000Y-112975000D03*
X165360000Y-112325000D03*
X165360000Y-111675000D03*
X165360000Y-111025000D03*
D33*
X163210000Y-112000000D03*
%TD*%
D34*
%TO.C,R5*%
X164826000Y-97344100D03*
D35*
X164826000Y-93750000D03*
X167239000Y-93750000D03*
D34*
X167239000Y-97344100D03*
%TD*%
D36*
%TO.C,C8*%
X133960000Y-114025000D03*
X133960000Y-112475000D03*
%TD*%
D13*
%TO.C,C16*%
X128710000Y-105750000D03*
X123710000Y-105750000D03*
%TD*%
D30*
%TO.C,H3*%
X177710000Y-128750000D03*
%TD*%
D13*
%TO.C,C14*%
X158460000Y-115750000D03*
X158460000Y-120750000D03*
%TD*%
D37*
%TO.C,C2*%
X163710000Y-91450000D03*
X163710000Y-89550000D03*
%TD*%
D38*
%TO.C,D1*%
X149710000Y-92750000D03*
X153710000Y-92750000D03*
%TD*%
D39*
%TO.C,D5*%
X140850000Y-75000000D03*
X145150000Y-75000000D03*
%TD*%
D12*
%TO.C,R10*%
X141047500Y-117750000D03*
X142872500Y-117750000D03*
%TD*%
D40*
%TO.C,C9*%
X175500000Y-109725000D03*
X175500000Y-106775000D03*
%TD*%
D12*
%TO.C,R2*%
X152297500Y-85750000D03*
X154122500Y-85750000D03*
%TD*%
D28*
%TO.C,R3*%
X149210000Y-89412500D03*
X149210000Y-87587500D03*
%TD*%
D13*
%TO.C,C13*%
X153460000Y-115750000D03*
X153460000Y-120750000D03*
%TD*%
D41*
%TO.C,J1*%
X95450000Y-93450000D03*
D30*
X95450000Y-105950000D03*
X99250000Y-93450000D03*
X99250000Y-105950000D03*
X110450000Y-93450000D03*
X110450000Y-105950000D03*
X114250000Y-93450000D03*
X114250000Y-105950000D03*
%TD*%
D42*
%TO.C,U5*%
X141097500Y-102775000D03*
X141097500Y-103425000D03*
X141097500Y-104075000D03*
X141097500Y-104725000D03*
X145322500Y-104725000D03*
X145322500Y-104075000D03*
X145322500Y-103425000D03*
X145322500Y-102775000D03*
%TD*%
D43*
%TO.C,C10*%
X159210000Y-110725000D03*
X159210000Y-112275000D03*
%TD*%
D44*
%TO.C,F1*%
X125750000Y-94800000D03*
X125750000Y-98200000D03*
X135670000Y-94800000D03*
X135670000Y-98200000D03*
%TD*%
D45*
%TO.C,Q1*%
X153960000Y-99655000D03*
D15*
X153960000Y-98790000D03*
X153960000Y-97520000D03*
X153960000Y-96250000D03*
D46*
X148598500Y-96655000D03*
D17*
X148237000Y-97520000D03*
X148237000Y-98790000D03*
X148237000Y-100060000D03*
%TD*%
D13*
%TO.C,TP4*%
X169210000Y-84000000D03*
%TD*%
D47*
%TO.C,U1*%
X145460001Y-85815600D03*
X144959999Y-85815600D03*
X144460000Y-85815600D03*
X143960001Y-85815600D03*
X143459999Y-85815600D03*
X143459999Y-90184400D03*
X143960001Y-90184400D03*
X144460000Y-90184400D03*
X144959999Y-90184400D03*
X145460001Y-90184400D03*
%TD*%
D37*
%TO.C,C6*%
X162710000Y-119950000D03*
X162710000Y-118050000D03*
%TD*%
D48*
%TO.C,C1*%
X162260000Y-87750000D03*
X164160000Y-87750000D03*
%TD*%
D49*
%TO.C,J4*%
X185335000Y-110400000D03*
X185335000Y-123900000D03*
D50*
X179335000Y-120750000D03*
D51*
X179335000Y-113550000D03*
%TD*%
D29*
%TO.C,R11*%
X157460000Y-111087500D03*
X157460000Y-112912500D03*
%TD*%
D21*
%TO.C,C19*%
X174200000Y-82500000D03*
X174200000Y-84400000D03*
%TD*%
D13*
%TO.C,TP1*%
X138460000Y-88250000D03*
%TD*%
D52*
%TO.C,J2*%
X170335000Y-118900000D03*
X169085000Y-118900000D03*
X167835000Y-118900000D03*
X166585000Y-118900000D03*
D53*
X172185000Y-122250000D03*
X164735000Y-122250000D03*
%TD*%
D13*
%TO.C,C11*%
X149960000Y-102750000D03*
X149960000Y-107750000D03*
%TD*%
%TO.C,C12*%
X148460000Y-115750000D03*
X148460000Y-120750000D03*
%TD*%
D29*
%TO.C,R15*%
X135960000Y-112337500D03*
X135960000Y-114162500D03*
%TD*%
D12*
%TO.C,R4*%
X158797500Y-87750000D03*
X160622500Y-87750000D03*
%TD*%
%TO.C,R12*%
X162047500Y-114750000D03*
X163872500Y-114750000D03*
%TD*%
D54*
%TO.C,R19*%
X159710000Y-108212500D03*
X159710000Y-102287500D03*
%TD*%
D41*
%TO.C,J3*%
X207010978Y-92450000D03*
D30*
X207010978Y-79950000D03*
X203210978Y-92450000D03*
X203210978Y-79950000D03*
X192010978Y-92450000D03*
X192010978Y-79950000D03*
X188210978Y-92450000D03*
X188210978Y-79950000D03*
%TD*%
D55*
%TO.C,F2*%
X126650000Y-76000000D03*
X133350000Y-76000000D03*
%TD*%
D43*
%TO.C,C3*%
X141210000Y-86225000D03*
X141210000Y-87775000D03*
%TD*%
D13*
%TO.C,TP7*%
X144460000Y-122500000D03*
%TD*%
D36*
%TO.C,C7*%
X147210000Y-113525000D03*
X147210000Y-111975000D03*
%TD*%
D28*
%TO.C,R1*%
X151710000Y-89412500D03*
X151710000Y-87587500D03*
%TD*%
D30*
%TO.C,H1*%
X134212500Y-88000000D03*
%TD*%
%TO.C,H2*%
X177710000Y-88000000D03*
%TD*%
D56*
%TO.C,C17*%
X156800000Y-71000000D03*
X156800000Y-79400000D03*
%TD*%
M02*
