%TF.GenerationSoftware,KiCad,Pcbnew,10.0.4*%
%TF.CreationDate,2026-10-05T12:06:53-05:00*%
%TF.ProjectId,Osiris_PDB_REV1.1_LowCopper_Prototype,4f736972-6973-45f5-9044-425f52455631,1.1-LC-PROTOTYPE*%
%TF.SameCoordinates,Original*%
%TF.FileFunction,Paste,Top*%
%TF.FilePolarity,Positive*%
%FSLAX46Y46*%
G04 Gerber Fmt 4.6, Leading zero omitted, Abs format (unit mm)*
G04 Created by KiCad (PCBNEW 10.0.4) date 2026-10-05 12:06:53*
%MOMM*%
%LPD*%
G01*
G04 APERTURE LIST*
G04 Aperture macros list*
%AMRoundRect*
0 Rectangle with rounded corners*
0 $1 Rounding radius*
0 $2 $3 $4 $5 $6 $7 $8 $9 X,Y pos of 4 corners*
0 Add a 4 corners polygon primitive as box body*
4,1,4,$2,$3,$4,$5,$6,$7,$8,$9,$2,$3,0*
0 Add four circle primitives for the rounded corners*
1,1,$1+$1,$2,$3*
1,1,$1+$1,$4,$5*
1,1,$1+$1,$6,$7*
1,1,$1+$1,$8,$9*
0 Add four rect primitives between the rounded corners*
20,1,$1+$1,$2,$3,$4,$5,0*
20,1,$1+$1,$4,$5,$6,$7,0*
20,1,$1+$1,$6,$7,$8,$9,0*
20,1,$1+$1,$8,$9,$2,$3,0*%
%AMFreePoly0*
4,1,9,2.135000,-0.277000,0.250000,-0.277000,0.247486,-0.277500,-0.247486,-0.277500,-0.250000,-0.277000,-0.555000,-0.277000,-0.555000,0.278000,2.135000,0.278000,2.135000,-0.277000,2.135000,-0.277000,$1*%
%AMFreePoly1*
4,1,5,0.455000,-3.443500,-3.455000,-3.443500,-3.455000,0.511500,0.455000,0.511500,0.455000,-3.443500,0.455000,-3.443500,$1*%
G04 Aperture macros list end*
%ADD10C,0.000000*%
%ADD11RoundRect,0.250000X0.262500X0.450000X-0.262500X0.450000X-0.262500X-0.450000X0.262500X-0.450000X0*%
%ADD12RoundRect,0.250000X-0.262500X-0.450000X0.262500X-0.450000X0.262500X0.450000X-0.262500X0.450000X0*%
%ADD13FreePoly0,270.000000*%
%ADD14FreePoly1,270.000000*%
%ADD15RoundRect,0.250000X0.362500X1.425000X-0.362500X1.425000X-0.362500X-1.425000X0.362500X-1.425000X0*%
%ADD16RoundRect,0.250000X-1.125000X1.275000X-1.125000X-1.275000X1.125000X-1.275000X1.125000X1.275000X0*%
%ADD17RoundRect,0.250000X-0.350000X0.850000X-0.350000X-0.850000X0.350000X-0.850000X0.350000X0.850000X0*%
%ADD18RoundRect,0.250000X-0.475000X0.250000X-0.475000X-0.250000X0.475000X-0.250000X0.475000X0.250000X0*%
%ADD19RoundRect,0.250000X-0.325000X-0.650000X0.325000X-0.650000X0.325000X0.650000X-0.325000X0.650000X0*%
%ADD20R,1.333500X0.279400*%
%ADD21RoundRect,0.250000X1.000000X0.650000X-1.000000X0.650000X-1.000000X-0.650000X1.000000X-0.650000X0*%
%ADD22RoundRect,0.375000X-0.375000X-0.375000X0.375000X-0.375000X0.375000X0.375000X-0.375000X0.375000X0*%
%ADD23RoundRect,0.125000X-0.250000X-0.125000X0.250000X-0.125000X0.250000X0.125000X-0.250000X0.125000X0*%
%ADD24RoundRect,0.075000X-0.300000X-0.125000X0.300000X-0.125000X0.300000X0.125000X-0.300000X0.125000X0*%
%ADD25RoundRect,0.225000X0.225000X0.250000X-0.225000X0.250000X-0.225000X-0.250000X0.225000X-0.250000X0*%
%ADD26RoundRect,0.250000X0.450000X-0.262500X0.450000X0.262500X-0.450000X0.262500X-0.450000X-0.262500X0*%
%ADD27RoundRect,0.250000X-0.450000X0.262500X-0.450000X-0.262500X0.450000X-0.262500X0.450000X0.262500X0*%
%ADD28RoundRect,0.087500X0.087500X-0.425000X0.087500X0.425000X-0.087500X0.425000X-0.087500X-0.425000X0*%
%ADD29RoundRect,0.170000X-0.170000X-0.210000X0.170000X-0.210000X0.170000X0.210000X-0.170000X0.210000X0*%
%ADD30RoundRect,0.100000X-0.625000X-0.100000X0.625000X-0.100000X0.625000X0.100000X-0.625000X0.100000X0*%
%ADD31R,1.193800X5.410200*%
%ADD32R,1.193800X0.711200*%
%ADD33RoundRect,0.225000X0.250000X-0.225000X0.250000X0.225000X-0.250000X0.225000X-0.250000X-0.225000X0*%
%ADD34RoundRect,0.250000X0.475000X-0.250000X0.475000X0.250000X-0.475000X0.250000X-0.475000X-0.250000X0*%
%ADD35RoundRect,0.250000X-1.000000X-0.650000X1.000000X-0.650000X1.000000X0.650000X-1.000000X0.650000X0*%
%ADD36RoundRect,0.250000X-1.000000X-0.900000X1.000000X-0.900000X1.000000X0.900000X-1.000000X0.900000X0*%
%ADD37RoundRect,0.250000X0.650000X-0.325000X0.650000X0.325000X-0.650000X0.325000X-0.650000X-0.325000X0*%
%ADD38RoundRect,0.100000X-0.712500X-0.100000X0.712500X-0.100000X0.712500X0.100000X-0.712500X0.100000X0*%
%ADD39RoundRect,0.225000X-0.250000X0.225000X-0.250000X-0.225000X0.250000X-0.225000X0.250000X0.225000X0*%
%ADD40FreePoly0,90.000000*%
%ADD41FreePoly1,90.000000*%
%ADD42R,0.279400X1.397000*%
%ADD43RoundRect,0.250000X-0.250000X-0.475000X0.250000X-0.475000X0.250000X0.475000X-0.250000X0.475000X0*%
%ADD44RoundRect,0.150000X0.150000X0.700000X-0.150000X0.700000X-0.150000X-0.700000X0.150000X-0.700000X0*%
%ADD45RoundRect,0.250000X0.250000X1.150000X-0.250000X1.150000X-0.250000X-1.150000X0.250000X-1.150000X0*%
%ADD46RoundRect,0.250000X1.425000X-0.362500X1.425000X0.362500X-1.425000X0.362500X-1.425000X-0.362500X0*%
%ADD47R,3.400000X6.150000*%
%ADD48R,2.500000X4.400000*%
G04 APERTURE END LIST*
D10*
%TO.C,Q2*%
G36*
X156333250Y-96430000D02*
G01*
X155983250Y-96430000D01*
X155983250Y-96030000D01*
X156333250Y-96030000D01*
X156333250Y-96430000D01*
G37*
G36*
X156333250Y-97700000D02*
G01*
X155983250Y-97700000D01*
X155983250Y-97300000D01*
X156333250Y-97300000D01*
X156333250Y-97700000D01*
G37*
G36*
X156333250Y-98970000D02*
G01*
X155983250Y-98970000D01*
X155983250Y-98570000D01*
X156333250Y-98570000D01*
X156333250Y-98970000D01*
G37*
G36*
X156933250Y-96770000D02*
G01*
X156533250Y-96770000D01*
X156533250Y-95870000D01*
X156933250Y-95870000D01*
X156933250Y-96770000D01*
G37*
G36*
X156933250Y-97870000D02*
G01*
X156533250Y-97870000D01*
X156533250Y-96970000D01*
X156933250Y-96970000D01*
X156933250Y-97870000D01*
G37*
G36*
X156933250Y-98970000D02*
G01*
X156533250Y-98970000D01*
X156533250Y-98070000D01*
X156933250Y-98070000D01*
X156933250Y-98970000D01*
G37*
G36*
X156783500Y-100240000D02*
G01*
X155983500Y-100240000D01*
X155983500Y-99840000D01*
X156783500Y-99840000D01*
X156783500Y-100240000D01*
G37*
G36*
X159778250Y-98035000D02*
G01*
X158378250Y-98035000D01*
X158378250Y-96335000D01*
X159778250Y-96335000D01*
X159778250Y-98035000D01*
G37*
G36*
X159778250Y-99935000D02*
G01*
X158378250Y-99935000D01*
X158378250Y-98235000D01*
X159778250Y-98235000D01*
X159778250Y-99935000D01*
G37*
G36*
X161378260Y-98035000D02*
G01*
X159978250Y-98035000D01*
X159978250Y-96335000D01*
X161378260Y-96335000D01*
X161378260Y-98035000D01*
G37*
G36*
X161378260Y-99935000D02*
G01*
X159978250Y-99935000D01*
X159978250Y-98235000D01*
X161378260Y-98235000D01*
X161378260Y-99935000D01*
G37*
G36*
X162533250Y-96430000D02*
G01*
X161733250Y-96430000D01*
X161733250Y-96030000D01*
X162533250Y-96030000D01*
X162533250Y-96430000D01*
G37*
G36*
X162533250Y-97700000D02*
G01*
X161733250Y-97700000D01*
X161733250Y-97300000D01*
X162533250Y-97300000D01*
X162533250Y-97700000D01*
G37*
G36*
X162533250Y-98970000D02*
G01*
X161733250Y-98970000D01*
X161733250Y-98570000D01*
X162533250Y-98570000D01*
X162533250Y-98970000D01*
G37*
G36*
X162533250Y-100240000D02*
G01*
X161733250Y-100240000D01*
X161733250Y-99840000D01*
X162533250Y-99840000D01*
X162533250Y-100240000D01*
G37*
%TO.C,Q1*%
G36*
X148686750Y-96450000D02*
G01*
X147886750Y-96450000D01*
X147886750Y-96050000D01*
X148686750Y-96050000D01*
X148686750Y-96450000D01*
G37*
G36*
X148686750Y-97720000D02*
G01*
X147886750Y-97720000D01*
X147886750Y-97320000D01*
X148686750Y-97320000D01*
X148686750Y-97720000D01*
G37*
G36*
X148686750Y-98990000D02*
G01*
X147886750Y-98990000D01*
X147886750Y-98590000D01*
X148686750Y-98590000D01*
X148686750Y-98990000D01*
G37*
G36*
X148686750Y-100260000D02*
G01*
X147886750Y-100260000D01*
X147886750Y-99860000D01*
X148686750Y-99860000D01*
X148686750Y-100260000D01*
G37*
G36*
X150441750Y-98055000D02*
G01*
X149041740Y-98055000D01*
X149041740Y-96355000D01*
X150441750Y-96355000D01*
X150441750Y-98055000D01*
G37*
G36*
X150441750Y-99955000D02*
G01*
X149041740Y-99955000D01*
X149041740Y-98255000D01*
X150441750Y-98255000D01*
X150441750Y-99955000D01*
G37*
G36*
X152041750Y-98055000D02*
G01*
X150641750Y-98055000D01*
X150641750Y-96355000D01*
X152041750Y-96355000D01*
X152041750Y-98055000D01*
G37*
G36*
X152041750Y-99955000D02*
G01*
X150641750Y-99955000D01*
X150641750Y-98255000D01*
X152041750Y-98255000D01*
X152041750Y-99955000D01*
G37*
G36*
X154436500Y-96450000D02*
G01*
X153636500Y-96450000D01*
X153636500Y-96050000D01*
X154436500Y-96050000D01*
X154436500Y-96450000D01*
G37*
G36*
X153886750Y-98220000D02*
G01*
X153486750Y-98220000D01*
X153486750Y-97320000D01*
X153886750Y-97320000D01*
X153886750Y-98220000D01*
G37*
G36*
X153886750Y-99320000D02*
G01*
X153486750Y-99320000D01*
X153486750Y-98420000D01*
X153886750Y-98420000D01*
X153886750Y-99320000D01*
G37*
G36*
X153886750Y-100420000D02*
G01*
X153486750Y-100420000D01*
X153486750Y-99520000D01*
X153886750Y-99520000D01*
X153886750Y-100420000D01*
G37*
G36*
X154436750Y-97720000D02*
G01*
X154086750Y-97720000D01*
X154086750Y-97320000D01*
X154436750Y-97320000D01*
X154436750Y-97720000D01*
G37*
G36*
X154436750Y-98990000D02*
G01*
X154086750Y-98990000D01*
X154086750Y-98590000D01*
X154436750Y-98590000D01*
X154436750Y-98990000D01*
G37*
G36*
X154436750Y-100260000D02*
G01*
X154086750Y-100260000D01*
X154086750Y-99860000D01*
X154436750Y-99860000D01*
X154436750Y-100260000D01*
G37*
%TD*%
D11*
%TO.C,R8*%
X159622500Y-93000000D03*
X157797500Y-93000000D03*
%TD*%
D12*
%TO.C,R16*%
X138297500Y-114750000D03*
X140122500Y-114750000D03*
%TD*%
D13*
%TO.C,Q2*%
X156460000Y-96635000D03*
D14*
X161821500Y-99635000D03*
%TD*%
D15*
%TO.C,R20*%
X137672500Y-105500000D03*
X131747500Y-105500000D03*
%TD*%
D16*
%TO.C,D3*%
X173162500Y-95675000D03*
X170112500Y-95675000D03*
X173162500Y-99025000D03*
X170112500Y-99025000D03*
D17*
X171637500Y-91050000D03*
X173917500Y-91050000D03*
X169357500Y-91050000D03*
%TD*%
D18*
%TO.C,C18*%
X171950000Y-82500000D03*
X171950000Y-84400000D03*
%TD*%
D11*
%TO.C,R14*%
X157122500Y-88500000D03*
X155297500Y-88500000D03*
%TD*%
D19*
%TO.C,C4*%
X165235000Y-105250000D03*
X168185000Y-105250000D03*
%TD*%
D20*
%TO.C,U2*%
X154676150Y-113500001D03*
X154676150Y-112999999D03*
X154676150Y-112500000D03*
X154676150Y-112000001D03*
X154676150Y-111499999D03*
X150243850Y-111499999D03*
X150243850Y-112000001D03*
X150243850Y-112500000D03*
X150243850Y-112999999D03*
X150243850Y-113500001D03*
%TD*%
D21*
%TO.C,D4*%
X145210000Y-108250000D03*
X141210000Y-108250000D03*
%TD*%
D22*
%TO.C,Q3*%
X142510000Y-97550000D03*
X142510000Y-99250000D03*
X144210000Y-97550000D03*
X144210000Y-99250000D03*
D23*
X145615000Y-96495000D03*
X145615000Y-97765000D03*
X145615000Y-99035000D03*
X145615000Y-100305000D03*
D24*
X139810000Y-96495000D03*
X139810000Y-97765000D03*
X139810000Y-99035000D03*
X139810000Y-100305000D03*
%TD*%
D12*
%TO.C,R21*%
X167297500Y-102250000D03*
X169122500Y-102250000D03*
%TD*%
%TO.C,R6*%
X143410156Y-93528707D03*
X145235156Y-93528707D03*
%TD*%
D25*
%TO.C,C5*%
X144485000Y-111000000D03*
X142935000Y-111000000D03*
%TD*%
D26*
%TO.C,R13*%
X149210000Y-85912500D03*
X149210000Y-84087500D03*
%TD*%
D27*
%TO.C,R7*%
X140710000Y-91587500D03*
X140710000Y-93412500D03*
%TD*%
D28*
%TO.C,U4*%
X142310000Y-115837500D03*
X142960000Y-115837500D03*
X143610000Y-115837500D03*
X143610000Y-114162500D03*
X142310000Y-114162500D03*
%TD*%
D27*
%TO.C,R9*%
X163460000Y-103337500D03*
X163460000Y-105162500D03*
%TD*%
D29*
%TO.C,U3*%
X162790000Y-111530000D03*
X162790000Y-112470000D03*
X163630000Y-111530000D03*
X163630000Y-112470000D03*
D30*
X161060000Y-111025000D03*
X161060000Y-111675000D03*
X161060000Y-112325000D03*
X161060000Y-112975000D03*
X165360000Y-112975000D03*
X165360000Y-112325000D03*
X165360000Y-111675000D03*
X165360000Y-111025000D03*
%TD*%
D31*
%TO.C,R5*%
X164826000Y-97344100D03*
D32*
X164826000Y-93750000D03*
X167239000Y-93750000D03*
D31*
X167239000Y-97344100D03*
%TD*%
D33*
%TO.C,C8*%
X133960000Y-114025000D03*
X133960000Y-112475000D03*
%TD*%
D34*
%TO.C,C2*%
X163710000Y-91450000D03*
X163710000Y-89550000D03*
%TD*%
D35*
%TO.C,D1*%
X149710000Y-92750000D03*
X153710000Y-92750000D03*
%TD*%
D36*
%TO.C,D5*%
X140850000Y-75000000D03*
X145150000Y-75000000D03*
%TD*%
D12*
%TO.C,R10*%
X141047500Y-117750000D03*
X142872500Y-117750000D03*
%TD*%
D37*
%TO.C,C9*%
X175500000Y-109725000D03*
X175500000Y-106775000D03*
%TD*%
D12*
%TO.C,R2*%
X152297500Y-85750000D03*
X154122500Y-85750000D03*
%TD*%
D26*
%TO.C,R3*%
X149210000Y-89412500D03*
X149210000Y-87587500D03*
%TD*%
D38*
%TO.C,U5*%
X141097500Y-102775000D03*
X141097500Y-103425000D03*
X141097500Y-104075000D03*
X141097500Y-104725000D03*
X145322500Y-104725000D03*
X145322500Y-104075000D03*
X145322500Y-103425000D03*
X145322500Y-102775000D03*
%TD*%
D39*
%TO.C,C10*%
X159210000Y-110725000D03*
X159210000Y-112275000D03*
%TD*%
D40*
%TO.C,Q1*%
X153960000Y-99655000D03*
D41*
X148598500Y-96655000D03*
%TD*%
D42*
%TO.C,U1*%
X145460001Y-85815600D03*
X144959999Y-85815600D03*
X144460000Y-85815600D03*
X143960001Y-85815600D03*
X143459999Y-85815600D03*
X143459999Y-90184400D03*
X143960001Y-90184400D03*
X144460000Y-90184400D03*
X144959999Y-90184400D03*
X145460001Y-90184400D03*
%TD*%
D34*
%TO.C,C6*%
X162710000Y-119950000D03*
X162710000Y-118050000D03*
%TD*%
D43*
%TO.C,C1*%
X162260000Y-87750000D03*
X164160000Y-87750000D03*
%TD*%
D27*
%TO.C,R11*%
X157460000Y-111087500D03*
X157460000Y-112912500D03*
%TD*%
D18*
%TO.C,C19*%
X174200000Y-82500000D03*
X174200000Y-84400000D03*
%TD*%
D44*
%TO.C,J2*%
X170335000Y-118900000D03*
X169085000Y-118900000D03*
X167835000Y-118900000D03*
X166585000Y-118900000D03*
D45*
X172185000Y-122250000D03*
X164735000Y-122250000D03*
%TD*%
D27*
%TO.C,R15*%
X135960000Y-112337500D03*
X135960000Y-114162500D03*
%TD*%
D12*
%TO.C,R4*%
X158797500Y-87750000D03*
X160622500Y-87750000D03*
%TD*%
%TO.C,R12*%
X162047500Y-114750000D03*
X163872500Y-114750000D03*
%TD*%
D46*
%TO.C,R19*%
X159710000Y-108212500D03*
X159710000Y-102287500D03*
%TD*%
D47*
%TO.C,F2*%
X126650000Y-76000000D03*
X133350000Y-76000000D03*
%TD*%
D39*
%TO.C,C3*%
X141210000Y-86225000D03*
X141210000Y-87775000D03*
%TD*%
D33*
%TO.C,C7*%
X147210000Y-113525000D03*
X147210000Y-111975000D03*
%TD*%
D26*
%TO.C,R1*%
X151710000Y-89412500D03*
X151710000Y-87587500D03*
%TD*%
D48*
%TO.C,C17*%
X156800000Y-71000000D03*
X156800000Y-79400000D03*
%TD*%
M02*
