%TF.GenerationSoftware,KiCad,Pcbnew,10.0.4*%
%TF.CreationDate,2026-10-05T12:06:53-05:00*%
%TF.ProjectId,Osiris_PDB_REV1.1_LowCopper_Prototype,4f736972-6973-45f5-9044-425f52455631,1.1-LC-PROTOTYPE*%
%TF.SameCoordinates,Original*%
%TF.FileFunction,Soldermask,Bot*%
%TF.FilePolarity,Negative*%
%FSLAX46Y46*%
G04 Gerber Fmt 4.6, Leading zero omitted, Abs format (unit mm)*
G04 Created by KiCad (PCBNEW 10.0.4) date 2026-10-05 12:06:53*
%MOMM*%
%LPD*%
G01*
G04 APERTURE LIST*
G04 Aperture macros list*
%AMRoundRect*
0 Rectangle with rounded corners*
0 $1 Rounding radius*
0 $2 $3 $4 $5 $6 $7 $8 $9 X,Y pos of 4 corners*
0 Add a 4 corners polygon primitive as box body*
4,1,4,$2,$3,$4,$5,$6,$7,$8,$9,$2,$3,0*
0 Add four circle primitives for the rounded corners*
1,1,$1+$1,$2,$3*
1,1,$1+$1,$4,$5*
1,1,$1+$1,$6,$7*
1,1,$1+$1,$8,$9*
0 Add four rect primitives between the rounded corners*
20,1,$1+$1,$2,$3,$4,$5,0*
20,1,$1+$1,$4,$5,$6,$7,0*
20,1,$1+$1,$6,$7,$8,$9,0*
20,1,$1+$1,$8,$9,$2,$3,0*%
G04 Aperture macros list end*
%ADD10C,3.200000*%
%ADD11C,1.500000*%
%ADD12R,3.200000X3.200000*%
%ADD13C,2.780000*%
%ADD14R,2.300000X1.200000*%
%ADD15RoundRect,1.025000X-1.025000X1.025000X-1.025000X-1.025000X1.025000X-1.025000X1.025000X1.025000X0*%
%ADD16C,4.100000*%
%ADD17RoundRect,0.250000X-0.450000X0.262500X-0.450000X-0.262500X0.450000X-0.262500X0.450000X0.262500X0*%
G04 APERTURE END LIST*
D10*
%TO.C,H4*%
X132710000Y-128000000D03*
%TD*%
D11*
%TO.C,C15*%
X155210000Y-102750000D03*
X155210000Y-107750000D03*
%TD*%
%TO.C,C16*%
X128710000Y-105750000D03*
X123710000Y-105750000D03*
%TD*%
D10*
%TO.C,H3*%
X177710000Y-128750000D03*
%TD*%
D11*
%TO.C,C14*%
X158460000Y-115750000D03*
X158460000Y-120750000D03*
%TD*%
%TO.C,C13*%
X153460000Y-115750000D03*
X153460000Y-120750000D03*
%TD*%
D12*
%TO.C,J1*%
X95450000Y-93450000D03*
D10*
X95450000Y-105950000D03*
X99250000Y-93450000D03*
X99250000Y-105950000D03*
X110450000Y-93450000D03*
X110450000Y-105950000D03*
X114250000Y-93450000D03*
X114250000Y-105950000D03*
%TD*%
D13*
%TO.C,F1*%
X125750000Y-94800000D03*
X125750000Y-98200000D03*
X135670000Y-94800000D03*
X135670000Y-98200000D03*
%TD*%
D14*
%TO.C,J4*%
X185335000Y-110400000D03*
X185335000Y-123900000D03*
D15*
X179335000Y-120750000D03*
D16*
X179335000Y-113550000D03*
%TD*%
D11*
%TO.C,C11*%
X149960000Y-102750000D03*
X149960000Y-107750000D03*
%TD*%
%TO.C,C12*%
X148460000Y-115750000D03*
X148460000Y-120750000D03*
%TD*%
D12*
%TO.C,J3*%
X207010978Y-92450000D03*
D10*
X207010978Y-79950000D03*
X203210978Y-92450000D03*
X203210978Y-79950000D03*
X192010978Y-92450000D03*
X192010978Y-79950000D03*
X188210978Y-92450000D03*
X188210978Y-79950000D03*
%TD*%
%TO.C,H1*%
X134212500Y-88000000D03*
%TD*%
%TO.C,H2*%
X177710000Y-88000000D03*
%TD*%
D17*
%TO.C,R18*%
X159960000Y-106587500D03*
X159960000Y-108412500D03*
%TD*%
%TO.C,R17*%
X157960000Y-106587500D03*
X157960000Y-108412500D03*
%TD*%
M02*
