M48
; DRILL file KiCad 10.0.4 date 2026-10-05T12:06:53
; FORMAT={-:-/ absolute / metric / decimal}
; #@! TF.CreationDate,2026-10-05T12:06:53-05:00
; #@! TF.GenerationSoftware,Kicad,Pcbnew,10.0.4
; #@! TF.FileFunction,Plated,1,4,PTH
FMAT,2
METRIC
; #@! TA.AperFunction,Plated,PTH,ViaDrill
T1C0.300
; #@! TA.AperFunction,Plated,PTH,ViaDrill
T2C0.400
; #@! TA.AperFunction,Plated,PTH,ViaDrill
T3C0.600
; #@! TA.AperFunction,Plated,PTH,ComponentDrill
T4C0.600
; #@! TA.AperFunction,Plated,PTH,ComponentDrill
T5C0.750
; #@! TA.AperFunction,Plated,PTH,ComponentDrill
T6C1.600
; #@! TA.AperFunction,Plated,PTH,ComponentDrill
T7C1.780
; #@! TA.AperFunction,Plated,PTH,ComponentDrill
T8C2.700
%
G90
G05
T1
X115.0Y-115.0
X115.0Y-116.75
X117.5Y-77.5
X117.5Y-79.25
X117.5Y-117.5
X117.5Y-119.25
X120.0Y-75.0
X120.0Y-76.75
X120.0Y-120.0
X120.0Y-121.75
X121.95Y-72.4
X121.95Y-74.15
X122.5Y-122.5
X122.5Y-124.25
X124.71Y-124.0
X124.71Y-126.0
X124.75Y-68.6
X127.21Y-126.0
X127.21Y-128.0
X127.25Y-68.6
X129.21Y-87.25
X129.46Y-128.0
X129.71Y-85.5
X129.71Y-130.0
X129.75Y-68.6
X132.21Y-84.25
X132.21Y-131.35
X132.25Y-68.6
X134.21Y-84.25
X134.21Y-105.5
X134.71Y-82.75
X134.71Y-131.35
X134.75Y-68.6
X135.21Y-106.75
X135.21Y-130.25
X135.46Y-105.0
X135.96Y-116.0
X137.21Y-83.5
X137.21Y-130.0
X137.21Y-131.35
X137.25Y-68.6
X139.71Y-83.5
X139.71Y-130.0
X139.71Y-131.35
X139.75Y-68.6
X140.21Y-89.5
X140.71Y-90.5
X141.21Y-114.75
X141.71Y-89.5
X142.21Y-130.0
X142.21Y-131.35
X142.25Y-68.6
X142.71Y-85.5
X143.21Y-113.0
X143.46Y-119.5
X144.21Y-91.75
X144.46Y-84.0
X144.71Y-130.0
X144.71Y-131.35
X144.75Y-68.6
X144.96Y-88.5
X144.96Y-117.25
X146.46Y-90.25
X146.46Y-91.5
X146.46Y-95.25
X146.96Y-84.5
X146.96Y-100.75
X147.21Y-130.0
X147.21Y-131.35
X147.25Y-68.6
X147.96Y-84.0
X148.46Y-111.25
X149.71Y-130.0
X149.71Y-131.35
X149.75Y-68.6
X150.21Y-105.0
X150.46Y-84.5
X150.46Y-94.0
X151.21Y-106.25
X151.71Y-90.75
X151.96Y-101.0
X152.21Y-94.5
X152.21Y-130.0
X152.21Y-131.35
X152.25Y-68.6
X152.96Y-111.75
X153.96Y-90.25
X154.46Y-109.75
X154.71Y-130.0
X154.71Y-131.35
X154.75Y-68.6
X154.96Y-95.75
X155.21Y-94.25
X155.71Y-90.25
X155.71Y-111.15
X155.96Y-109.85
X156.21Y-112.75
X156.21Y-114.5
X156.222Y-111.765
X156.46Y-101.5
X157.21Y-130.0
X157.21Y-131.35
X158.322Y-110.15
X158.96Y-104.0
X158.96Y-114.0
X159.46Y-90.5
X159.71Y-130.0
X159.71Y-131.35
X159.75Y-68.6
X159.96Y-84.25
X160.21Y-115.25
X160.346Y-98.139
X160.46Y-104.75
X161.21Y-89.25
X161.21Y-91.75
X162.141Y-110.616
X162.21Y-130.0
X162.21Y-131.35
X162.25Y-68.6
X162.61Y-90.5
X162.71Y-117.25
X162.96Y-97.5
X162.96Y-98.5
X163.21Y-109.0
X163.21Y-109.849
X163.46Y-96.0
X163.46Y-102.0
X163.46Y-106.5
X163.71Y-99.25
X163.96Y-92.5
X164.46Y-107.75
X164.71Y-130.0
X164.71Y-131.35
X164.75Y-68.6
X165.21Y-115.25
X165.71Y-103.0
X165.71Y-114.25
X167.21Y-130.0
X167.21Y-131.35
X167.25Y-68.6
X167.71Y-117.0
X168.96Y-117.0
X169.71Y-130.0
X169.71Y-131.35
X169.75Y-68.6
X172.21Y-130.0
X172.21Y-131.35
X172.25Y-68.6
X174.71Y-130.0
X174.71Y-131.35
X174.75Y-68.6
X176.96Y-83.5
X177.21Y-131.35
X177.25Y-68.6
X178.21Y-84.25
X178.46Y-83.0
X179.71Y-131.35
X179.96Y-84.0
X180.0Y-75.0
X180.0Y-76.75
X180.21Y-85.5
X180.46Y-130.0
X182.21Y-130.0
X182.21Y-131.35
X183.96Y-130.75
X184.21Y-129.25
X185.46Y-128.25
X185.46Y-130.0
X186.96Y-127.5
X186.96Y-129.0
X188.46Y-126.75
X188.46Y-128.25
X189.71Y-127.5
X189.96Y-126.0
X191.21Y-125.25
X191.21Y-126.75
X192.46Y-126.0
X193.71Y-125.25
T2
X145.15Y-77.0
X154.8Y-79.4
X158.8Y-79.4
X165.71Y-85.6
X171.95Y-86.0
X174.2Y-86.0
T3
X117.0Y-112.0
X117.0Y-114.0
X120.0Y-112.0
X120.0Y-114.0
X123.0Y-112.0
X123.0Y-114.0
X125.2Y-70.0
X125.2Y-71.6
X125.2Y-80.4
X125.2Y-82.0
X126.65Y-70.0
X126.65Y-71.6
X126.65Y-80.4
X126.65Y-82.0
X128.1Y-70.0
X128.1Y-71.6
X128.1Y-80.4
X128.1Y-82.0
X131.9Y-70.0
X131.9Y-71.6
X131.9Y-80.4
X131.9Y-82.0
X133.35Y-70.0
X133.35Y-71.6
X133.35Y-80.4
X133.35Y-82.0
X134.8Y-70.0
X134.8Y-71.6
X134.8Y-80.4
X134.8Y-82.0
X140.0Y-71.5
X150.0Y-71.5
X160.0Y-71.5
X170.0Y-71.5
X177.0Y-103.0
X177.0Y-105.0
X180.0Y-71.5
X180.0Y-103.0
X180.0Y-105.0
X198.0Y-98.0
X198.0Y-100.0
X201.0Y-98.0
X201.0Y-100.0
T5
X123.71Y-105.75
X128.71Y-105.75
X148.46Y-115.75
X148.46Y-120.75
X149.96Y-102.75
X149.96Y-107.75
X153.46Y-115.75
X153.46Y-120.75
X155.21Y-102.75
X155.21Y-107.75
X158.46Y-115.75
X158.46Y-120.75
T6
X95.45Y-93.45
X95.45Y-105.95
X99.25Y-93.45
X99.25Y-105.95
X110.45Y-93.45
X110.45Y-105.95
X114.25Y-93.45
X114.25Y-105.95
X188.211Y-79.95
X188.211Y-92.45
X192.011Y-79.95
X192.011Y-92.45
X203.211Y-79.95
X203.211Y-92.45
X207.011Y-79.95
X207.011Y-92.45
T7
X125.75Y-94.8
X125.75Y-98.2
X135.67Y-94.8
X135.67Y-98.2
T8
X179.335Y-113.55
X179.335Y-120.75
T4
X185.885Y-110.4G85X184.785Y-110.4
G05
X185.885Y-123.9G85X184.785Y-123.9
G05
M30
